<svg width="56" height="56" viewBox="0 0 56 56" fill="none" xmlns="http://www.w3.org/2000/svg">
<rect x="0.5" y="0.5" width="55" height="55" rx="27.5" stroke="#6D7079"/>
<path d="M27.6265 33.7517L32.3748 38.5L34.4631 36.4117C34.5847 36.2905 34.678 36.1441 34.7365 35.9828C34.795 35.8214 34.8172 35.6492 34.8015 35.4783L34.0431 27.1833" stroke="#6D7079" strokeLinecap="round" strokeLinejoin="round"/>
<path d="M24.9314 19.495L23.3331 21.1517M24.9314 34.37C25.0399 34.4793 25.1689 34.5661 25.3111 34.6254C25.4533 34.6846 25.6058 34.7151 25.7598 34.7151C25.9138 34.7151 26.0663 34.6846 26.2084 34.6254C26.3506 34.5661 26.4796 34.4793 26.5881 34.37L35.8164 25.1417C37.533 23.4238 38.498 21.0952 38.4998 18.6667C38.4998 18.3572 38.3769 18.0605 38.1581 17.8417C37.9393 17.6229 37.6425 17.5 37.3331 17.5C34.9046 17.5018 32.576 18.4668 30.8581 20.1833L21.6298 29.4117C21.5204 29.5201 21.4336 29.6492 21.3744 29.7913C21.3152 29.9335 21.2847 30.086 21.2847 30.24C21.2847 30.394 21.3152 30.5465 21.3744 30.6887C21.4336 30.8308 21.5204 30.9599 21.6298 31.0683L24.9314 34.37ZM34.8481 32.6667L36.5048 31.0217L34.8481 32.6667Z" stroke="#6D7079" strokeLinecap="round" strokeLinejoin="round"/>
<path d="M28.875 21.9567L20.5217 21.1983C20.3508 21.1826 20.1785 21.2048 20.0172 21.2633C19.8559 21.3217 19.7094 21.4151 19.5883 21.5367L17.5 23.625L22.2717 28.3967" stroke="#6D7079" strokeLinecap="round" strokeLinejoin="round"/>
</svg>
