<svg width="40" height="41" viewBox="0 0 40 41" fill="none" xmlns="http://www.w3.org/2000/svg">
<g clip-path="url(#clip0_55_163)">
<path d="M6.99988 15.4219V12.4219C6.99988 11.3173 7.89531 10.4219 8.99988 10.4219H17.9999M6.99988 24.4219V28.4219C6.99988 29.5265 7.89531 30.4219 8.99988 30.4219H17.9999" stroke="#1F2937" strokeLinecap="round" strokeLinejoin="round"/>
<path d="M32.9999 25.4219V28.4219C32.9999 29.5265 32.1044 30.4219 30.9999 30.4219H21.9999M32.9999 16.4219V12.4219C32.9999 11.3173 32.1044 10.4219 30.9999 10.4219H21.9999" stroke="#1F2937" strokeLinecap="round" strokeLinejoin="round"/>
<path d="M22.9532 23.6642C25.5201 23.3206 27.4999 21.122 27.4999 18.4609C27.4999 15.5614 25.1494 13.2109 22.2499 13.2109C19.5889 13.2109 17.3902 15.1907 17.0466 17.7576M22.9999 22.9609C22.9999 25.8604 20.6494 28.2109 17.7499 28.2109C14.8504 28.2109 12.4999 25.8604 12.4999 22.9609C12.4999 20.0614 14.8504 17.7109 17.7499 17.7109C20.6494 17.7109 22.9999 20.0614 22.9999 22.9609Z" stroke="#1F2937" strokeLinecap="round" strokeLinejoin="round"/>
</g>
<defs>
<clipPath id="clip0_55_163">
<rect width="40" height="40" fill="white" transform="translate(-0.00012207 0.710938)"/>
</clipPath>
</defs>
</svg>
