<svg width="41" height="40" viewBox="0 0 41 40" fill="none" xmlns="http://www.w3.org/2000/svg">
<g clip-path="url(#clip0_55_327)">
<g clip-path="url(#clip1_55_327)">
<path d="M7.40186 14.7109V11.7109C7.40186 10.6063 8.29729 9.71094 9.40186 9.71094H18.4019M7.40186 23.7109V27.7109C7.40186 28.8155 8.29729 29.7109 9.40186 29.7109H18.4019" stroke="#1F2937" strokeLinecap="round" strokeLinejoin="round"/>
<path d="M33.4019 24.7109V27.7109C33.4019 28.8155 32.5064 29.7109 31.4019 29.7109H22.4019M33.4019 15.7109V11.7109C33.4019 10.6063 32.5064 9.71094 31.4019 9.71094H22.4019" stroke="#1F2937" strokeLinecap="round" strokeLinejoin="round"/>
<path d="M20.9019 12.7L26.8519 16.1V22.9L20.9019 26.3L14.9519 22.9V16.1L20.9019 12.7Z" stroke="#1F2937" strokeLinejoin="round"/>
</g>
</g>
<defs>
<clipPath id="clip0_55_327">
<rect width="40" height="40" fill="white" transform="translate(0.401855)"/>
</clipPath>
<clipPath id="clip1_55_327">
<rect width="40" height="40" fill="white" transform="translate(0.401855)"/>
</clipPath>
</defs>
</svg>
