<svg width="40" height="41" viewBox="0 0 40 41" fill="none" xmlns="http://www.w3.org/2000/svg">
<g clip-path="url(#clip0_55_192)">
<g clip-path="url(#clip1_55_192)">
<path d="M6.99988 15.4219V12.4219C6.99988 11.3173 7.89531 10.4219 8.99988 10.4219H17.9999M6.99988 24.4219V28.4219C6.99988 29.5265 7.89531 30.4219 8.99988 30.4219H17.9999" stroke="#1F2937" strokeLinecap="round" strokeLinejoin="round"/>
<path d="M32.9999 25.4219V28.4219C32.9999 29.5265 32.1044 30.4219 30.9999 30.4219H21.9999M32.9999 16.4219V12.4219C32.9999 11.3173 32.1044 10.4219 30.9999 10.4219H21.9999" stroke="#1F2937" strokeLinecap="round" strokeLinejoin="round"/>
<path d="M27.1667 21.0433V25.0433C27.1667 25.9767 27.1667 26.4434 26.985 26.7999C26.8252 27.1135 26.5703 27.3685 26.2567 27.5283C25.9001 27.71 25.4334 27.71 24.5 27.71H16.5C15.5666 27.71 15.0999 27.71 14.7433 27.5283C14.4297 27.3685 14.1748 27.1135 14.015 26.7999C13.8333 26.4434 13.8333 25.9767 13.8333 25.0433V21.0433M18 18.5433H23M18.2381 21.8766H22.7619C24.539 21.8766 25.4275 21.8766 26.1129 21.5465C26.7933 21.2189 27.3423 20.6699 27.6699 19.9896C28 19.3041 28 18.4156 28 16.6385C28 15.3057 28 14.6394 27.7524 14.1253C27.5067 13.615 27.095 13.2033 26.5847 12.9575C26.0706 12.71 25.4042 12.71 24.0714 12.71H16.9286C15.5958 12.71 14.9294 12.71 14.4153 12.9575C13.905 13.2033 13.4933 13.615 13.2476 14.1253C13 14.6394 13 15.3057 13 16.6385C13 18.4156 13 19.3041 13.3301 19.9896C13.6577 20.6699 14.2067 21.2189 14.8871 21.5465C15.5725 21.8766 16.461 21.8766 18.2381 21.8766Z" stroke="#1F2937" strokeLinecap="round" strokeLinejoin="round"/>
</g>
</g>
<defs>
<clipPath id="clip0_55_192">
<rect width="40" height="40" fill="white" transform="translate(-0.00012207 0.710938)"/>
</clipPath>
<clipPath id="clip1_55_192">
<rect width="40" height="40" fill="white" transform="translate(-0.00012207 0.710938)"/>
</clipPath>
</defs>
</svg>
