<svg width="40" height="40" viewBox="0 0 40 40" fill="none" xmlns="http://www.w3.org/2000/svg">
<path d="M7 14.7109V11.7109C7 10.6063 7.89543 9.71094 9 9.71094H18M7 23.7109V27.7109C7 28.8155 7.89543 29.7109 9 29.7109H18" stroke="#1F2937" strokeLinecap="round" strokeLinejoin="round"/>
<path d="M33 24.7109V27.7109C33 28.8155 32.1046 29.7109 31 29.7109H22M33 15.7109V11.7109C33 10.6063 32.1046 9.71094 31 9.71094H22" stroke="#1F2937" strokeLinecap="round" strokeLinejoin="round"/>
<path d="M18.125 15.7812L15.7813 15.7813M18.125 18.5938L15.7812 18.5938M24.2188 15.7812H21.875M24.2188 18.5938L21.875 18.5938M18.125 21.4062H15.7813M18.125 24.2188H15.7812M12.5 15.3125L12.5 24.6875C12.5 26.2408 13.7592 27.5 15.3125 27.5C16.8658 27.5 23.1342 27.5 24.6875 27.5C26.2408 27.5 27.5 26.2408 27.5 24.6875V15.3125C27.5 13.7592 26.2408 12.5 24.6875 12.5L15.3125 12.5C13.7592 12.5 12.5 13.7592 12.5 15.3125Z" stroke="#1F2937" strokeLinecap="round" strokeLinejoin="round"/>
</svg>
