<svg width="40" height="40" viewBox="0 0 40 40" fill="none" xmlns="http://www.w3.org/2000/svg">
<path d="M7 14.7109V11.7109C7 10.6063 7.89543 9.71094 9 9.71094H18M7 23.7109V27.7109C7 28.8155 7.89543 29.7109 9 29.7109H18" stroke="#1F2937" strokeLinecap="round" strokeLinejoin="round"/>
<path d="M33 24.7109V27.7109C33 28.8155 32.1046 29.7109 31 29.7109H22M33 15.7109V11.7109C33 10.6063 32.1046 9.71094 31 9.71094H22" stroke="#1F2937" strokeLinecap="round" strokeLinejoin="round"/>
<path d="M17.6667 27.1919C18.2859 27.6944 19.1036 28 20 28C20.8964 28 21.7141 27.6944 22.3333 27.1919M13.4442 24.606C13.0753 24.606 12.8692 24.0173 13.0924 23.6902C13.6102 22.9311 14.11 21.8179 14.11 20.4773L14.1313 18.5348C14.1313 14.9257 16.7588 12 20 12C23.2889 12 25.9551 14.9688 25.9551 18.6311L25.9337 20.4773C25.9337 21.8271 26.4163 22.9464 26.9131 23.7058C27.1276 24.0337 26.921 24.606 26.5567 24.606H13.4442Z" stroke="#1F2937" strokeLinecap="round" strokeLinejoin="round"/>
</svg>
