<svg width="40" height="41" viewBox="0 0 40 41" fill="none" xmlns="http://www.w3.org/2000/svg">
<g clip-path="url(#clip0_55_317)">
<g clip-path="url(#clip1_55_317)">
<path d="M7 15.2109V12.2109C7 11.1063 7.89543 10.2109 9 10.2109H18M7 24.2109V28.2109C7 29.3155 7.89543 30.2109 9 30.2109H18" stroke="#1F2937" strokeLinecap="round" strokeLinejoin="round"/>
<path d="M33 25.2109V28.2109C33 29.3155 32.1046 30.2109 31 30.2109H22M33 16.2109V12.2109C33 11.1063 32.1046 10.2109 31 10.2109H22" stroke="#1F2937" strokeLinecap="round" strokeLinejoin="round"/>
<path d="M23.6667 26.5C23.6667 27.6046 22.7712 28.5 21.6667 28.5C20.5621 28.5 15 28.5 15 28.5C13.8954 28.5 13 27.6046 13 26.5C13 25.3954 13 20.9379 13 19.8333C13 18.7288 13.8954 17.8333 15 17.8333L21.6667 17.8333C22.7712 17.8333 23.6667 18.7288 23.6667 19.8333V26.5Z" stroke="#1F2937" strokeLinecap="round" strokeLinejoin="round"/>
<path d="M29 21.1667C29 22.2712 28.1046 23.1667 27 23.1667C25.8954 23.1667 20.3333 23.1667 20.3333 23.1667C19.2288 23.1667 18.3333 22.2712 18.3333 21.1667C18.3333 20.0621 18.3333 15.6046 18.3333 14.5C18.3333 13.3954 19.2288 12.5 20.3333 12.5L27 12.5C28.1046 12.5 29 13.3954 29 14.5V21.1667Z" stroke="#1F2937" strokeLinecap="round" strokeLinejoin="round"/>
</g>
</g>
<defs>
<clipPath id="clip0_55_317">
<rect width="40" height="40" fill="white" transform="translate(0 0.5)"/>
</clipPath>
<clipPath id="clip1_55_317">
<rect width="40" height="40" fill="white" transform="translate(0 0.5)"/>
</clipPath>
</defs>
</svg>
