<svg width="40" height="40" viewBox="0 0 40 40" fill="none" xmlns="http://www.w3.org/2000/svg">
<path d="M7 14.7109V11.7109C7 10.6063 7.89543 9.71094 9 9.71094H18M7 23.7109V27.7109C7 28.8155 7.89543 29.7109 9 29.7109H18" stroke="#1F2937" strokeLinecap="round" strokeLinejoin="round"/>
<path d="M33 24.7109V27.7109C33 28.8155 32.1046 29.7109 31 29.7109H22M33 15.7109V11.7109C33 10.6063 32.1046 9.71094 31 9.71094H22" stroke="#1F2937" strokeLinecap="round" strokeLinejoin="round"/>
<path d="M20 12C24.4183 12 28 15.5818 28 20C28 24.4183 24.4183 28.0001 20 28.0001C15.5817 28.0001 12 24.4183 12 20C12 15.5817 15.5817 12 20 12ZM20 12L20 20M20 20L14.5 25.5M20 20L14.5 14.5" stroke="#1F2937" strokeLinecap="round" strokeLinejoin="round"/>
</svg>
