<svg width="40" height="40" viewBox="0 0 40 40" fill="none" xmlns="http://www.w3.org/2000/svg">
<path d="M7 14.7109V11.7109C7 10.6063 7.89543 9.71094 9 9.71094H18M7 23.7109V27.7109C7 28.8155 7.89543 29.7109 9 29.7109H18" stroke="#1F2937" strokeLinecap="round" strokeLinejoin="round"/>
<path d="M33 24.7109V27.7109C33 28.8155 32.1046 29.7109 31 29.7109H22M33 15.7109V11.7109C33 10.6063 32.1046 9.71094 31 9.71094H22" stroke="#1F2937" strokeLinecap="round" strokeLinejoin="round"/>
<path d="M30 17.7109H10M10 15.9109L10 23.5109C10 24.631 10 25.1911 10.218 25.6189C10.4097 25.9952 10.7157 26.3012 11.092 26.4929C11.5198 26.7109 12.0799 26.7109 13.2 26.7109L26.8 26.7109C27.9201 26.7109 28.4802 26.7109 28.908 26.493C29.2843 26.3012 29.5903 25.9952 29.782 25.6189C30 25.1911 30 24.631 30 23.5109V15.9109C30 14.7908 30 14.2308 29.782 13.803C29.5903 13.4266 29.2843 13.1207 28.908 12.9289C28.4802 12.7109 27.9201 12.7109 26.8 12.7109L13.2 12.7109C12.0799 12.7109 11.5198 12.7109 11.092 12.9289C10.7157 13.1207 10.4097 13.4266 10.218 13.803C10 14.2308 10 14.7908 10 15.9109Z" stroke="#1F2937" strokeLinecap="round" strokeLinejoin="round"/>
</svg>
