<svg width="16" height="16" viewBox="0 0 16 16" fill="none" xmlns="http://www.w3.org/2000/svg">
<g clip-path="url(#clip0_55_1093)">
<path d="M0.00634766 8.6262V7.36615C0.0748546 7.20047 0.0672777 7.02123 0.0931651 6.84861C0.700256 2.80683 4.51296 -0.030737 8.56876 0.542332C10.5239 0.81451 12.2938 1.84358 13.4971 3.4078C14.7005 4.97202 15.2408 6.94617 15.0018 8.90485C14.6126 12.1713 12.1062 14.8233 8.86646 15.4011C8.6218 15.4446 8.37081 15.4494 8.13057 15.5191H6.9025C6.81694 15.456 6.71307 15.4756 6.61836 15.4646C3.36097 15.0789 0.70215 12.5667 0.124103 9.32897C0.0824307 9.09545 0.0811685 8.85436 0.00634766 8.6262ZM6.95364 3.56136C7.12001 3.48026 7.25797 3.3575 7.40288 3.24579C7.47549 3.18994 7.52726 3.19561 7.5923 3.24579C7.72521 3.34898 7.8616 3.44744 8.02513 3.56893C8.00365 3.37612 7.94146 3.22717 7.88527 3.0798C7.84044 2.96146 7.85969 2.89046 7.96703 2.82199C8.09868 2.7371 8.21959 2.63454 8.3443 2.53797C8.33798 2.5244 8.33198 2.51052 8.32567 2.49663C8.15961 2.49663 7.99292 2.49127 7.82718 2.49884C7.73247 2.50295 7.68858 2.47044 7.66144 2.37861C7.61503 2.22082 7.5803 2.05863 7.48717 1.88318C7.4275 2.06999 7.37509 2.22303 7.32932 2.37829C7.30343 2.46729 7.25671 2.50453 7.16042 2.49916C6.99026 2.49158 6.81946 2.49726 6.64867 2.49726C6.77191 2.6281 6.9096 2.74455 7.05909 2.84439C7.13864 2.89867 7.15189 2.952 7.11938 3.04067C7.05624 3.21266 7.007 3.38779 6.95175 3.56325L6.95869 3.55472L6.95364 3.56136ZM2.78924 8.80891C2.73147 8.63062 2.68727 8.47631 2.63139 8.32641C2.59161 8.22038 2.59445 8.14623 2.70589 8.08185C2.81734 8.01747 2.91773 7.9288 3.0216 7.84865C3.04085 7.83382 3.0658 7.80762 3.0639 7.789C3.06011 7.74703 3.01844 7.75587 2.98939 7.75555C2.85301 7.75555 2.71631 7.74829 2.58057 7.75555C2.47607 7.76218 2.43218 7.718 2.40535 7.62238C2.36305 7.47185 2.32737 7.31786 2.24403 7.16197C2.16131 7.30492 2.13163 7.44409 2.09628 7.57852C2.06092 7.71294 2.00157 7.76786 1.85887 7.7565C1.71618 7.74513 1.55991 7.75335 1.37964 7.75335C1.49614 7.89345 1.62178 7.96951 1.7408 8.04651C1.87245 8.13171 1.91096 8.21249 1.84688 8.36586C1.79005 8.50219 1.73102 8.64387 1.71302 8.81933C1.84372 8.72466 1.96558 8.64766 2.06881 8.55425C2.19068 8.44601 2.2898 8.43402 2.41609 8.5511C2.52644 8.65618 2.65269 8.74318 2.79019 8.80891H2.78924ZM12.5153 6.15815L12.5507 6.13764C12.4992 5.97449 12.456 5.80882 12.3929 5.64915C12.3613 5.56521 12.3724 5.51945 12.4474 5.46801C12.5877 5.37334 12.7192 5.26384 12.8547 5.16064L12.8411 5.12088C12.6811 5.12088 12.5207 5.11583 12.3606 5.12088C12.2621 5.1253 12.2129 5.09691 12.1813 4.99466C12.1336 4.84129 12.1065 4.67909 12.0039 4.5049C11.9518 4.66931 11.9025 4.80532 11.8659 4.94449C11.8322 5.07418 11.7712 5.13572 11.6253 5.12183C11.4761 5.10763 11.3242 5.11868 11.1736 5.11868C11.2982 5.24958 11.4371 5.36603 11.5878 5.4658C11.6632 5.5166 11.6762 5.56237 11.6453 5.64536C11.584 5.80945 11.5345 5.97765 11.4801 6.14427C11.6375 6.06491 11.7857 5.96862 11.9221 5.8571C11.9935 5.79968 12.0424 5.80378 12.1115 5.8571C12.2444 5.96661 12.3818 6.06096 12.5163 6.15942L12.5153 6.15815ZM2.12469 5.12057L2.11711 5.15212C2.25824 5.25847 2.39714 5.36861 2.54205 5.4699C2.60929 5.5166 2.62634 5.55858 2.59666 5.6381C2.53352 5.80504 2.48554 5.97639 2.4224 6.17456C2.60519 6.08179 2.73463 5.96755 2.86879 5.86246C2.94583 5.8022 2.99508 5.8063 3.06864 5.8653C3.20028 5.97102 3.34077 6.06569 3.47747 6.16509C3.45412 5.99574 3.41111 5.82968 3.34929 5.67028C3.31268 5.57309 3.32246 5.5125 3.41685 5.45286C3.55576 5.36388 3.6833 5.2569 3.81558 5.15749C3.65804 5.12349 3.49637 5.11276 3.33572 5.12562C3.21481 5.13446 3.15893 5.09407 3.12672 4.97668C3.08663 4.82994 3.0538 4.67815 2.95877 4.51532C2.90163 4.68667 2.84512 4.82615 2.80945 4.97068C2.78072 5.08744 2.72831 5.13414 2.60455 5.12562C2.44544 5.11363 2.28507 5.12183 2.12564 5.12183L2.12469 5.12057ZM2.12469 10.3643L2.10701 10.3978C2.25161 10.5063 2.39367 10.6187 2.54205 10.7216C2.6096 10.7689 2.62571 10.8143 2.59603 10.892C2.54363 11.0286 2.50132 11.1697 2.45524 11.3082C2.44734 11.3313 2.42587 11.3495 2.45524 11.3754C2.48459 11.4013 2.50416 11.3754 2.52058 11.3625C2.63329 11.2861 2.7482 11.2126 2.85301 11.1268C2.93256 11.0614 2.99003 11.0434 3.07747 11.1208C3.19838 11.2274 3.3354 11.3161 3.48284 11.4256C3.47652 11.2296 3.40107 11.0744 3.34771 10.9147C3.31615 10.8222 3.3253 10.7663 3.41274 10.7086C3.5526 10.6161 3.68109 10.5066 3.81432 10.4044L3.79696 10.3643C3.63627 10.3643 3.47526 10.3571 3.3152 10.3669C3.2066 10.3732 3.15735 10.3372 3.12578 10.2322C3.08284 10.0816 3.05191 9.9241 2.95656 9.75877C2.89564 9.94592 2.84165 10.098 2.79871 10.2532C2.77472 10.3368 2.73558 10.3722 2.64465 10.3682C2.4726 10.3605 2.29928 10.3656 2.12658 10.3656L2.12469 10.3643ZM4.88896 2.63296L4.85107 2.62981C4.80688 2.76834 4.75637 2.90561 4.72006 3.04635C4.68849 3.16943 4.63135 3.22875 4.49308 3.21581C4.34091 3.20161 4.18621 3.21266 4.03278 3.21266C4.14606 3.34175 4.27651 3.45472 4.42046 3.54842C4.51296 3.60964 4.52685 3.67464 4.48992 3.77216C4.43182 3.92647 4.38511 4.0852 4.32449 4.27012C4.46384 4.19822 4.59331 4.10858 4.70965 4.00347C4.82235 3.90879 4.90948 3.89586 5.02819 4.00126C5.14154 4.11021 5.27236 4.19939 5.41523 4.26507C5.35809 4.08772 5.31831 3.93593 5.25991 3.79172C5.21192 3.67464 5.23275 3.60554 5.33978 3.53359C5.47017 3.4465 5.6056 3.36002 5.73472 3.21297C5.53394 3.21297 5.36788 3.20824 5.20214 3.21487C5.10742 3.21865 5.06133 3.18741 5.03639 3.09401C4.9963 2.94064 4.94074 2.79043 4.89086 2.63517L4.88896 2.63296ZM6.65688 12.9729L6.6411 13.0116C6.76958 13.1082 6.89365 13.2123 7.02783 13.2985C7.13422 13.3666 7.14306 13.4376 7.0998 13.5475C7.04108 13.6958 7.00004 13.8513 6.95143 14.0038C7.09115 13.9384 7.22136 13.8545 7.33848 13.7541C7.44203 13.6636 7.5219 13.6513 7.6305 13.7494C7.7391 13.8475 7.86728 13.9233 8.01249 14.0274C7.98945 13.8207 7.91779 13.6677 7.86507 13.5118C7.83349 13.4171 7.85022 13.3698 7.926 13.3165C8.06458 13.2189 8.1975 13.1132 8.33261 13.0113L8.32093 12.9722C8.15109 12.9722 7.98124 12.9684 7.8114 12.9741C7.723 12.9769 7.68511 12.9425 7.65607 12.8595C7.60272 12.7018 7.57777 12.5323 7.47801 12.3625C7.41866 12.5414 7.36215 12.6929 7.32016 12.8485C7.2927 12.9482 7.24029 12.9792 7.14085 12.9747C6.98016 12.9697 6.81883 12.975 6.65783 12.975L6.65688 12.9729ZM9.27466 12.2767L9.26267 12.3082C9.38169 12.3979 9.49312 12.5001 9.62132 12.5739C9.77003 12.6594 9.78988 12.7579 9.72394 12.9065C9.66769 13.0328 9.63365 13.1691 9.58944 13.301C9.64785 13.3244 9.67625 13.2862 9.70908 13.2647C9.85271 13.17 9.97931 12.9788 10.1308 12.992C10.2824 13.0053 10.4301 13.1665 10.5558 13.2928C10.5638 13.303 10.5749 13.3103 10.5875 13.3135C10.6001 13.3166 10.6134 13.3154 10.6252 13.3102C10.6568 13.2953 10.6343 13.272 10.6309 13.247C10.614 13.1279 10.5797 13.0119 10.5289 12.9028C10.4583 12.7507 10.4936 12.6585 10.6338 12.5711C10.7679 12.4945 10.8881 12.3958 10.9895 12.2792C10.7802 12.2792 10.6138 12.2742 10.4478 12.2811C10.3585 12.2849 10.3177 12.2546 10.294 12.1684C10.2502 12.0087 10.194 11.8529 10.1343 11.6689C10.0396 11.8384 10.008 11.9971 9.96003 12.1495C9.93002 12.2476 9.88901 12.2846 9.78677 12.2795C9.61747 12.2728 9.44769 12.2789 9.27561 12.2789L9.27466 12.2767ZM13.5729 7.81551L13.5701 7.76502C13.4157 7.76502 13.2604 7.75587 13.1067 7.76786C12.9832 7.77732 12.9264 7.72936 12.8967 7.61544C12.8582 7.4687 12.8203 7.32038 12.7423 7.16955C12.6577 7.31754 12.6249 7.46176 12.5877 7.60124C12.5529 7.73157 12.4948 7.77953 12.3597 7.76786C12.21 7.75524 12.0582 7.76502 11.9073 7.76502L11.9032 7.81077C12.0405 7.91334 12.1766 8.01873 12.3164 8.11814C12.3815 8.16452 12.4004 8.2087 12.3694 8.28854C12.3063 8.44632 12.258 8.61263 12.1943 8.80197C12.3761 8.73413 12.4951 8.62242 12.6208 8.52522C12.7085 8.45768 12.7698 8.44475 12.8604 8.52269C12.9848 8.62967 13.1243 8.71929 13.2957 8.84425C13.2294 8.63977 13.1862 8.47851 13.1243 8.32515C13.0814 8.21848 13.1038 8.15601 13.1966 8.09415C13.3273 8.0099 13.4489 7.91113 13.5739 7.81772L13.5729 7.81551ZM4.35922 13.3379C4.52401 13.2174 4.66545 13.1202 4.7993 13.0139C4.86971 12.958 4.91927 12.9589 4.98872 13.0157C5.12163 13.1224 5.2637 13.2184 5.42565 13.336C5.39408 13.1385 5.32841 12.9851 5.27474 12.8292C5.24066 12.7305 5.25044 12.6657 5.34388 12.6039C5.48058 12.5136 5.60749 12.4079 5.73851 12.3086C5.59253 12.2738 5.44185 12.2631 5.29243 12.277C5.13458 12.2944 5.07143 12.2306 5.03545 12.0848C5.00686 11.942 4.95852 11.8039 4.8918 11.6746C4.80908 11.8361 4.76931 11.9926 4.72543 12.146C4.69796 12.2429 4.6544 12.2823 4.55053 12.277C4.38258 12.2685 4.21399 12.2748 4.04541 12.2748C4.15075 12.3932 4.27259 12.4959 4.4072 12.5796C4.54043 12.6578 4.55211 12.7456 4.49623 12.8769C4.43213 13.0249 4.38642 13.1801 4.36016 13.3392L4.35922 13.3379ZM10.1267 2.5588C10.0614 2.7513 10.0005 2.90056 9.96135 3.05519C9.93294 3.16911 9.88017 3.20729 9.76467 3.19971C9.60674 3.18962 9.44891 3.19719 9.29108 3.19719C9.40017 3.3213 9.52538 3.43029 9.66327 3.52129C9.75329 3.58218 9.78959 3.63678 9.74125 3.75164C9.67654 3.90343 9.63901 4.06721 9.57523 4.27201C9.74887 4.14579 9.88779 4.05332 10.0153 3.94729C10.0927 3.88418 10.1416 3.87756 10.2272 3.94193C10.3556 4.03944 10.4772 4.15336 10.6669 4.23983C10.6038 4.04228 10.5549 3.88387 10.4999 3.72766C10.4715 3.64719 10.4828 3.59417 10.558 3.54242C10.6988 3.44555 10.8317 3.33668 10.9684 3.23285C10.8067 3.20106 10.6414 3.19045 10.4769 3.20129C10.3698 3.20666 10.3149 3.17227 10.2874 3.06529C10.2483 2.90908 10.1914 2.75698 10.1276 2.56006L10.1267 2.5588ZM11.508 11.4404C11.6007 11.3754 11.6686 11.329 11.7349 11.2808C12.0427 11.057 12.0424 11.0574 12.3552 11.2877C12.4184 11.3347 12.4866 11.3763 12.587 11.4436C12.5239 11.2473 12.4904 11.0984 12.431 10.9601C12.3761 10.832 12.4146 10.7648 12.5207 10.6906C12.6403 10.6067 12.7732 10.5329 12.8835 10.3813C12.699 10.3813 12.5434 10.3735 12.3894 10.3843C12.2795 10.3918 12.2315 10.3526 12.1999 10.2497C12.1555 10.0983 12.1213 9.94084 12.0285 9.76697C11.9711 9.94113 11.9146 10.0803 11.8804 10.2245C11.8504 10.3508 11.7889 10.394 11.6614 10.3848C11.5085 10.3738 11.3545 10.382 11.2008 10.382C11.3054 10.5053 11.4285 10.6118 11.5657 10.6976C11.6869 10.7705 11.6935 10.8519 11.6481 10.9696C11.5944 11.1126 11.5376 11.2568 11.5089 11.4417L11.508 11.4404Z" fill="#0153BF"/>
<path d="M6.95596 3.56792C7.01121 3.39341 7.06109 3.2167 7.1236 3.04471C7.15517 2.95604 7.14285 2.90271 7.0633 2.84842C6.91381 2.74858 6.77614 2.63214 6.65289 2.5013C6.82369 2.5013 6.99448 2.49562 7.16464 2.50319C7.26093 2.50761 7.30766 2.47164 7.33354 2.38233C7.37837 2.22707 7.43078 2.07402 7.49139 1.88721C7.58452 2.06266 7.61766 2.22549 7.66565 2.38264C7.69281 2.47448 7.73606 2.50698 7.83139 2.50288C7.99713 2.4953 8.16383 2.50067 8.32989 2.50067C8.3362 2.51456 8.3422 2.52844 8.34851 2.54201C8.22224 2.63668 8.10289 2.73955 7.97125 2.82602C7.86391 2.89481 7.84498 2.9655 7.88948 3.08384C7.94568 3.23121 8.00788 3.38016 8.02934 3.57297C7.86581 3.45148 7.72942 3.35207 7.59652 3.24982C7.53022 3.1987 7.47845 3.19303 7.40709 3.24982C7.26219 3.36122 7.12297 3.48397 6.95786 3.56539L6.95596 3.56792Z" fill="#F2F306"/>
<path d="M2.79032 8.80956C2.65345 8.74398 2.52774 8.65731 2.41779 8.55269C2.29152 8.43562 2.19144 8.44761 2.07053 8.55585C1.96572 8.65052 1.84543 8.72499 1.71473 8.82093C1.73272 8.64547 1.79176 8.50536 1.84858 8.36745C1.91173 8.21409 1.87416 8.1333 1.74251 8.0481C1.62349 7.9711 1.49785 7.89505 1.38135 7.75495C1.56162 7.75495 1.71221 7.74453 1.86059 7.7581C2.00896 7.77167 2.06358 7.71234 2.09799 7.58012C2.1324 7.4479 2.16302 7.30652 2.24574 7.16357C2.32908 7.31946 2.36476 7.47345 2.40706 7.62398C2.43389 7.71866 2.47778 7.76378 2.58227 7.75715C2.71803 7.74894 2.85472 7.75495 2.99111 7.75715C3.02015 7.75715 3.06182 7.74863 3.06561 7.7906C3.0675 7.80922 3.04257 7.83541 3.0233 7.85024C2.91975 7.93039 2.82032 8.01812 2.70761 8.08345C2.5949 8.14877 2.59332 8.22198 2.6331 8.32801C2.68835 8.47696 2.73255 8.63127 2.79032 8.80956Z" fill="#F2F306"/>
<path d="M12.5165 6.15989C12.3821 6.06143 12.2446 5.96707 12.1147 5.86294C12.0455 5.80803 11.9965 5.80393 11.9252 5.86294C11.7887 5.97446 11.6406 6.07075 11.4832 6.1501C11.5375 5.98349 11.5871 5.81529 11.6483 5.65119C11.6799 5.5682 11.6664 5.52244 11.5908 5.47164C11.4402 5.37187 11.3012 5.25542 11.1767 5.12451C11.3273 5.12451 11.4791 5.11347 11.6285 5.12767C11.7727 5.14155 11.8352 5.08002 11.869 4.95032C11.9057 4.81116 11.9548 4.67514 12.007 4.51074C12.1096 4.68493 12.1368 4.84713 12.1843 5.0005C12.216 5.10211 12.2652 5.13051 12.3637 5.12672C12.5238 5.1201 12.6842 5.12672 12.8442 5.12672L12.8578 5.16649C12.7224 5.26968 12.5907 5.37791 12.4505 5.47385C12.3754 5.52528 12.3644 5.57104 12.3959 5.65498C12.4562 5.81466 12.501 5.98033 12.5537 6.14348L12.5165 6.15989Z" fill="#F2F306"/>
<path d="M2.12561 5.12163C2.28346 5.12163 2.44542 5.11342 2.60453 5.12447C2.72829 5.13299 2.7807 5.08629 2.80942 4.96953C2.8451 4.825 2.90161 4.68551 2.95875 4.51416C3.05346 4.67699 3.0866 4.82973 3.1267 4.97552C3.15827 5.09291 3.21478 5.1333 3.33569 5.12447C3.49676 5.11213 3.65875 5.12351 3.8165 5.15823C3.68422 5.25764 3.55668 5.36462 3.41777 5.4536C3.32307 5.51388 3.3136 5.57383 3.35021 5.67103C3.41203 5.83042 3.45504 5.99648 3.47839 6.16583C3.34169 6.06644 3.2012 5.97176 3.06956 5.86605C2.99664 5.80704 2.94675 5.80294 2.86972 5.8632C2.73555 5.96829 2.60611 6.08253 2.42332 6.1753C2.48646 5.97807 2.53571 5.80672 2.59758 5.63884C2.62726 5.55932 2.61021 5.51735 2.54297 5.47064C2.39806 5.36935 2.25884 5.25921 2.11804 5.15286L2.12561 5.12163Z" fill="#F2F306"/>
<path d="M2.12684 10.3655C2.29954 10.3655 2.47412 10.3604 2.64554 10.3677C2.73678 10.3718 2.77561 10.3361 2.7996 10.2528C2.84412 10.0975 2.8981 9.94541 2.95745 9.7583C3.05217 9.92519 3.08373 10.0827 3.12667 10.2316C3.15666 10.3367 3.20623 10.3727 3.31609 10.3664C3.47615 10.3567 3.63716 10.3639 3.79785 10.3639L3.81521 10.404C3.68198 10.5062 3.55349 10.6157 3.41363 10.7082C3.32619 10.7659 3.31735 10.8218 3.3486 10.9143C3.40196 11.0739 3.47741 11.2297 3.48373 11.4251C3.33629 11.3156 3.19959 11.2269 3.07836 11.1203C2.99092 11.0429 2.93346 11.061 2.8539 11.1263C2.74909 11.2121 2.63292 11.284 2.52147 11.362C2.50505 11.3734 2.48674 11.403 2.45613 11.375C2.4255 11.3468 2.44917 11.3308 2.45613 11.3077C2.50316 11.1692 2.54452 11.0282 2.59692 10.8915C2.6266 10.8139 2.6105 10.7685 2.54294 10.721C2.39456 10.6176 2.2525 10.5058 2.10791 10.3973L2.12684 10.3655Z" fill="#F2F306"/>
<path d="M4.89121 2.63516C4.94109 2.78884 4.99697 2.94063 5.03864 3.09652C5.06359 3.1912 5.11 3.22275 5.20439 3.21739C5.37013 3.21076 5.53619 3.21549 5.73697 3.21549C5.60786 3.36255 5.47242 3.44901 5.34204 3.53611C5.23501 3.60806 5.21417 3.67717 5.26216 3.79425C5.32056 3.93815 5.36034 4.08994 5.41748 4.2676C5.27462 4.20192 5.14378 4.11274 5.03044 4.00378C4.91174 3.89838 4.8246 3.91164 4.7119 4.00599C4.59556 4.11111 4.4661 4.20074 4.32674 4.27264C4.38736 4.08773 4.43408 3.92899 4.49217 3.77468C4.52911 3.67591 4.51521 3.61216 4.42272 3.55094C4.27876 3.45724 4.14832 3.34427 4.03503 3.21518C4.18846 3.21518 4.34316 3.20414 4.49533 3.21833C4.63361 3.23128 4.69043 3.17194 4.72231 3.04887C4.75862 2.90813 4.80913 2.77086 4.85333 2.63232L4.89121 2.63516Z" fill="#F2F306"/>
<path d="M6.65734 12.975C6.81835 12.975 6.97967 12.9697 7.14068 12.9769C7.24013 12.9813 7.29253 12.9504 7.32 12.8507C7.36262 12.6951 7.41914 12.5437 7.47786 12.3647C7.57762 12.5345 7.60255 12.7039 7.65591 12.8618C7.68464 12.946 7.72283 12.9792 7.81123 12.9763C7.98108 12.9706 8.15092 12.9744 8.32077 12.9744L8.33246 13.0135C8.19733 13.1155 8.06443 13.2212 7.92583 13.3187C7.85007 13.3721 7.83333 13.4206 7.8649 13.514C7.91794 13.67 7.98928 13.823 8.01233 14.0297C7.86711 13.9255 7.73862 13.8494 7.63033 13.7516C7.52205 13.6538 7.44092 13.6658 7.33831 13.7564C7.22119 13.8567 7.09098 13.9407 6.95127 14.0059C6.99989 13.8536 7.04092 13.698 7.09965 13.5497C7.14289 13.4399 7.13405 13.3689 7.02766 13.3007C6.89255 13.2145 6.76942 13.1113 6.64093 13.0139L6.65734 12.975Z" fill="#F2F306"/>
<path d="M9.27536 12.2787C9.44612 12.2787 9.61722 12.2727 9.78746 12.2806C9.8897 12.2856 9.93071 12.249 9.96072 12.1505C10.0072 11.9981 10.0412 11.8394 10.135 11.6699C10.1946 11.8536 10.2509 12.0098 10.2947 12.1695C10.3184 12.2556 10.3579 12.2859 10.4485 12.2821C10.6145 12.2752 10.7809 12.2802 10.9903 12.2802C10.8889 12.397 10.7686 12.4959 10.6345 12.5727C10.4943 12.6602 10.4589 12.7523 10.5297 12.9044C10.5804 13.0136 10.6147 13.1296 10.6316 13.2487C10.6351 13.273 10.6572 13.2964 10.6259 13.3118C10.6141 13.317 10.6008 13.3183 10.5882 13.3151C10.5756 13.312 10.5645 13.3047 10.5565 13.2945C10.4302 13.1682 10.2879 13.0073 10.1315 12.9938C9.9753 12.9801 9.8534 13.1729 9.70977 13.2664C9.67817 13.2878 9.64854 13.326 9.59013 13.3027C9.63434 13.1708 9.66838 13.0344 9.72463 12.9083C9.79057 12.7595 9.77072 12.6612 9.62201 12.5756C9.49381 12.5017 9.38238 12.3995 9.26337 12.3099L9.27536 12.2787Z" fill="#F2F306"/>
<path d="M13.5739 7.81784C13.4477 7.91251 13.3274 8.01002 13.1976 8.09648C13.1048 8.1596 13.0824 8.22081 13.1253 8.32748C13.1885 8.48084 13.2304 8.64304 13.2967 8.84658C13.1253 8.72036 12.9858 8.632 12.8614 8.52502C12.7707 8.44708 12.7095 8.46001 12.6217 8.52755C12.4955 8.62475 12.3771 8.73645 12.1953 8.8043C12.2584 8.61495 12.3083 8.45023 12.3705 8.29087C12.402 8.21103 12.3825 8.16686 12.3175 8.12047C12.1776 8.02106 12.0415 7.91567 11.9042 7.81311L11.9083 7.76735C12.0592 7.76735 12.2111 7.75756 12.3607 7.77019C12.4958 7.78186 12.5539 7.7339 12.5886 7.60357C12.6259 7.46409 12.6587 7.31955 12.7433 7.17188C12.8213 7.32271 12.8592 7.47103 12.8977 7.61777C12.9273 7.73169 12.9842 7.77966 13.1077 7.77019C13.2613 7.7582 13.4167 7.76735 13.5711 7.76735L13.5739 7.81784Z" fill="#F2F306"/>
<path d="M4.36013 13.3397C4.38726 13.1808 4.4338 13.0257 4.49873 12.8781C4.55461 12.7468 4.54293 12.659 4.4097 12.5808C4.27509 12.497 4.15325 12.3944 4.04791 12.276C4.21586 12.276 4.38445 12.2696 4.55303 12.2782C4.6569 12.2835 4.70046 12.2441 4.72793 12.1472C4.77181 11.9938 4.81159 11.8373 4.8943 11.6758C4.96102 11.8051 5.00936 11.9432 5.03795 12.086C5.0733 12.2318 5.13771 12.2956 5.29493 12.2782C5.44435 12.2642 5.59503 12.275 5.74101 12.3098C5.60999 12.4091 5.48308 12.5148 5.34639 12.6051C5.25167 12.6682 5.24315 12.7314 5.27724 12.8304C5.33091 12.9863 5.39785 13.1397 5.42815 13.3372C5.26619 13.2195 5.12412 13.1236 4.99122 13.0169C4.92082 12.9601 4.87126 12.9592 4.8018 13.015C4.66637 13.122 4.52493 13.2192 4.36013 13.3397Z" fill="#F2F306"/>
<path d="M10.1272 2.55957C10.1903 2.75648 10.2478 2.90858 10.2883 3.06447C10.3163 3.17145 10.3712 3.20585 10.4776 3.20048C10.6422 3.18964 10.8074 3.20025 10.9692 3.23204C10.8328 3.33586 10.6999 3.44473 10.5588 3.54161C10.4836 3.59336 10.4722 3.64638 10.5006 3.72685C10.5556 3.88463 10.6036 4.04242 10.6677 4.23902C10.4783 4.15255 10.3565 4.03863 10.2279 3.94112C10.1433 3.87801 10.0935 3.88243 10.0161 3.94648C9.88983 4.05251 9.74959 4.14434 9.57596 4.2712C9.63916 4.06608 9.67735 3.90261 9.74206 3.75083C9.79135 3.63597 9.75401 3.58137 9.66409 3.52047C9.5261 3.42948 9.40096 3.32049 9.29187 3.19638C9.44973 3.19638 9.60756 3.18881 9.76539 3.1989C9.88099 3.20648 9.93366 3.16735 9.96207 3.05438C10.0009 2.90133 10.0619 2.75206 10.1272 2.55957Z" fill="#F2F306"/>
<path d="M11.5092 11.4416C11.538 11.2567 11.5957 11.1124 11.6507 10.9682C11.6961 10.8506 11.6895 10.7691 11.5683 10.6962C11.431 10.6104 11.308 10.504 11.2033 10.3807C11.3571 10.3807 11.5111 10.3724 11.6639 10.3835C11.7902 10.3927 11.8533 10.3491 11.883 10.2232C11.9171 10.079 11.9736 9.93918 12.031 9.76562C12.1239 9.93946 12.1573 10.0969 12.2025 10.2485C12.2341 10.3519 12.2808 10.3904 12.3919 10.3829C12.546 10.3721 12.7016 10.3801 12.886 10.3801C12.7774 10.5331 12.6429 10.6053 12.5232 10.6893C12.4171 10.7634 12.3787 10.8307 12.4336 10.9588C12.4929 11.097 12.5283 11.246 12.5895 11.4422C12.4892 11.375 12.4216 11.3334 12.3578 11.2863C12.0449 11.056 12.0453 11.0557 11.7375 11.2794C11.6699 11.3302 11.602 11.3765 11.5092 11.4416Z" fill="#F2F306"/>
<path d="M6.95325 3.5621L6.96231 3.55908L6.95493 3.56847L6.95325 3.5621Z" fill="#F2F306"/>
</g>
<defs>
<clipPath id="clip0_55_1093">
<rect width="15.99" height="15.05" fill="white" transform="translate(0.00634766 0.46875)"/>
</clipPath>
</defs>
</svg>
