<svg width="568" height="400" viewBox="0 0 568 400" fill="none" xmlns="http://www.w3.org/2000/svg">
<rect x="40.5" y="40.5" width="487" height="95" rx="23.5" fill="white"/>
<rect x="40.5" y="40.5" width="487" height="95" rx="23.5" stroke="#D7DBE0"/>
<rect x="62" y="62" width="52" height="52" rx="12" fill="#EDECEB"/>
<path d="M93.24 94.7867C93.1262 94.8867 92.9837 94.9483 92.8329 94.9627C92.6821 94.977 92.5306 94.9434 92.4 94.8667C91.5766 94.2021 90.8808 93.3934 90.3466 92.48C89.6399 93.3486 88.7372 94.0371 87.7128 94.4891C86.6883 94.941 85.5712 95.1436 84.4533 95.08C83.7222 95.1222 82.9907 95.0054 82.3092 94.7376C81.6276 94.4699 81.0122 94.0576 80.5053 93.5291C79.9984 93.0007 79.6121 92.3686 79.3729 91.6765C79.1337 90.9844 79.0474 90.2487 79.12 89.52C79.0766 88.2741 79.4181 87.0451 80.098 86.0001C80.7779 84.9552 81.7633 84.1451 82.92 83.68C85.074 82.9599 87.3177 82.5426 89.5866 82.44L89.5866 82C89.7128 81.0871 89.5594 80.1574 89.1466 79.3334C88.913 79.0283 88.6092 78.7841 88.261 78.6216C87.9128 78.4591 87.5305 78.3831 87.1466 78.4C86.4886 78.3539 85.8369 78.5532 85.3173 78.9595C84.7977 79.3658 84.4471 79.9503 84.3333 80.6C84.307 80.7595 84.2331 80.9073 84.1213 81.0239C84.0094 81.1405 83.8648 81.2205 83.7066 81.2534L80.24 80.88C80.1546 80.869 80.0724 80.8404 79.9985 80.7961C79.9247 80.7519 79.8608 80.6929 79.8107 80.6228C79.7607 80.5528 79.7256 80.4732 79.7077 80.3889C79.6898 80.3047 79.6894 80.2177 79.7066 80.1334C80.5066 76 84.3066 74.6667 87.7066 74.6667C89.6386 74.6053 91.5294 75.2339 93.04 76.44C94.8133 78.0667 94.6666 80.24 94.6666 82.6667L94.6666 88.2267C94.67 89.4592 95.1475 90.6432 96 91.5334C96.2266 91.8667 96.28 92.2534 96 92.48L93.2533 94.8534M89.6533 86.1467L89.6533 85.3334C87.0666 85.3334 84.32 85.8534 84.32 88.8934C84.32 90.44 85.1333 91.4934 86.4933 91.4934C87.0143 91.4684 87.5191 91.3044 87.9552 91.0184C88.3913 90.7323 88.7429 90.3346 88.9733 89.8667C89.5399 88.6899 89.7706 87.3796 89.64 86.08M98.88 98.08C95.7058 100.219 91.961 101.353 88.1333 101.333C83.2836 101.358 78.5998 99.5698 75 96.32C74.7333 96.08 75 95.7467 75.3333 95.9334C79.3218 98.2218 83.8416 99.4218 88.44 99.4134C91.8818 99.3832 95.2841 98.6764 98.4533 97.3334C98.9466 97.12 99.3333 97.6534 98.88 98.0134M100.093 96.68C99.72 96.2 97.6266 96.4534 96.6666 96.5734C96.4133 96.5734 96.3733 96.36 96.6666 96.1734C97.3555 95.7396 98.1361 95.4728 98.9463 95.3941C99.7565 95.3154 100.574 95.427 101.333 95.72C101.431 96.5363 101.332 97.3642 101.045 98.1343C100.757 98.9045 100.289 99.5945 99.68 100.147C99.44 100.36 99.2133 100.24 99.3333 100C99.68 99.1067 100.467 97.1467 100.093 96.6667L100.093 96.68Z" fill="#1F2937"/>
<path d="M130.4 83L135.08 68.6L138.09 68.6L142.77 83L140.6 83L136.29 69.86L136.83 69.86L132.57 83L130.4 83ZM132.83 79.75L132.83 77.79L140.35 77.79L140.35 79.75L132.83 79.75ZM157.504 83L157.514 76.27C157.514 75.49 157.314 74.8833 156.914 74.45C156.514 74.01 155.987 73.79 155.334 73.79C154.934 73.79 154.567 73.8833 154.234 74.07C153.907 74.25 153.641 74.5233 153.434 74.89C153.234 75.25 153.134 75.7033 153.134 76.25L152.124 75.74C152.111 74.98 152.271 74.3133 152.604 73.74C152.944 73.1667 153.404 72.7233 153.984 72.41C154.564 72.09 155.214 71.93 155.934 71.93C157.101 71.93 158.004 72.28 158.644 72.98C159.284 73.68 159.604 74.61 159.604 75.77L159.594 83L157.504 83ZM144.554 83L144.554 72.2L146.414 72.2L146.414 75.32L146.654 75.32L146.654 83L144.554 83ZM151.034 83L151.044 76.31C151.044 75.5233 150.844 74.9067 150.444 74.46C150.051 74.0133 149.521 73.79 148.854 73.79C148.194 73.79 147.661 74.0167 147.254 74.47C146.854 74.9233 146.654 75.5167 146.654 76.25L145.654 75.61C145.654 74.9033 145.824 74.2733 146.164 73.72C146.504 73.1667 146.964 72.73 147.544 72.41C148.124 72.09 148.781 71.93 149.514 71.93C150.281 71.93 150.934 72.0933 151.474 72.42C152.014 72.74 152.424 73.19 152.704 73.77C152.991 74.35 153.134 75.0233 153.134 75.79L153.124 83L151.034 83ZM165.251 83.3C164.451 83.3 163.781 83.1533 163.241 82.86C162.701 82.56 162.291 82.1667 162.011 81.68C161.737 81.1867 161.601 80.6467 161.601 80.06C161.601 79.5133 161.697 79.0333 161.891 78.62C162.084 78.2067 162.371 77.8567 162.751 77.57C163.131 77.2767 163.597 77.04 164.151 76.86C164.631 76.72 165.174 76.5967 165.781 76.49C166.387 76.3833 167.024 76.2833 167.691 76.19C168.364 76.0967 169.031 76.0033 169.691 75.91L168.931 76.33C168.944 75.4833 168.764 74.8567 168.391 74.45C168.024 74.0367 167.391 73.83 166.491 73.83C165.924 73.83 165.404 73.9633 164.931 74.23C164.457 74.49 164.127 74.9233 163.941 75.53L161.991 74.93C162.257 74.0033 162.764 73.2667 163.511 72.72C164.264 72.1733 165.264 71.9 166.511 71.9C167.477 71.9 168.317 72.0667 169.031 72.4C169.751 72.7267 170.277 73.2467 170.611 73.96C170.784 74.3133 170.891 74.6867 170.931 75.08C170.971 75.4733 170.991 75.8967 170.991 76.35L170.991 83L169.141 83L169.141 80.53L169.501 80.85C169.054 81.6767 168.484 82.2933 167.791 82.7C167.104 83.1 166.257 83.3 165.251 83.3ZM165.621 81.59C166.214 81.59 166.724 81.4867 167.151 81.28C167.577 81.0667 167.921 80.7967 168.181 80.47C168.441 80.1433 168.611 79.8033 168.691 79.45C168.804 79.13 168.867 78.77 168.881 78.37C168.901 77.97 168.911 77.65 168.911 77.41L169.591 77.66C168.931 77.76 168.331 77.85 167.791 77.93C167.251 78.01 166.761 78.09 166.321 78.17C165.887 78.2433 165.501 78.3333 165.161 78.44C164.874 78.54 164.617 78.66 164.391 78.8C164.171 78.94 163.994 79.11 163.861 79.31C163.734 79.51 163.671 79.7533 163.671 80.04C163.671 80.32 163.741 80.58 163.881 80.82C164.021 81.0533 164.234 81.24 164.521 81.38C164.807 81.52 165.174 81.59 165.621 81.59ZM172.588 83L172.588 82.67L178.718 74.07L173.148 74.07L173.148 72.2L182.038 72.2L182.038 72.54L175.918 81.13L181.738 81.13L181.738 83L172.588 83ZM188.121 83.3C187.041 83.3 186.105 83.0567 185.311 82.57C184.518 82.0833 183.905 81.4133 183.471 80.56C183.045 79.7 182.831 78.71 182.831 77.59C182.831 76.4633 183.051 75.4733 183.491 74.62C183.931 73.76 184.548 73.0933 185.341 72.62C186.135 72.14 187.061 71.9 188.121 71.9C189.201 71.9 190.138 72.1433 190.931 72.63C191.725 73.1167 192.338 73.7867 192.771 74.64C193.205 75.4933 193.421 76.4767 193.421 77.59C193.421 78.7167 193.201 79.71 192.761 80.57C192.328 81.4233 191.715 82.0933 190.921 82.58C190.128 83.06 189.195 83.3 188.121 83.3ZM188.121 81.33C189.155 81.33 189.925 80.9833 190.431 80.29C190.945 79.59 191.201 78.69 191.201 77.59C191.201 76.4633 190.941 75.5633 190.421 74.89C189.908 74.21 189.141 73.87 188.121 73.87C187.421 73.87 186.845 74.03 186.391 74.35C185.938 74.6633 185.601 75.1 185.381 75.66C185.161 76.2133 185.051 76.8567 185.051 77.59C185.051 78.7233 185.311 79.63 185.831 80.31C186.351 80.99 187.115 81.33 188.121 81.33ZM203.199 83L203.199 77.69C203.199 77.27 203.162 76.84 203.089 76.4C203.022 75.9533 202.889 75.54 202.689 75.16C202.495 74.78 202.219 74.4733 201.859 74.24C201.505 74.0067 201.042 73.89 200.469 73.89C200.095 73.89 199.742 73.9533 199.409 74.08C199.075 74.2 198.782 74.3967 198.529 74.67C198.282 74.9433 198.085 75.3033 197.939 75.75C197.799 76.1967 197.729 76.74 197.729 77.38L196.429 76.89C196.429 75.91 196.612 75.0467 196.979 74.3C197.345 73.5467 197.872 72.96 198.559 72.54C199.245 72.12 200.075 71.91 201.049 71.91C201.795 71.91 202.422 72.03 202.929 72.27C203.435 72.51 203.845 72.8267 204.159 73.22C204.479 73.6067 204.722 74.03 204.889 74.49C205.055 74.95 205.169 75.4 205.229 75.84C205.289 76.28 205.319 76.6667 205.319 77L205.319 83L203.199 83ZM195.609 83L195.609 72.2L197.479 72.2L197.479 75.32L197.729 75.32L197.729 83L195.609 83Z" fill="#1F2937"/>
<path d="M141.227 104.182C141.227 105.409 141.006 106.47 140.562 107.364C140.119 108.258 139.511 108.947 138.739 109.432C137.966 109.917 137.083 110.159 136.091 110.159C135.098 110.159 134.216 109.917 133.443 109.432C132.67 108.947 132.063 108.258 131.619 107.364C131.176 106.47 130.955 105.409 130.955 104.182C130.955 102.955 131.176 101.894 131.619 101C132.063 100.106 132.67 99.4167 133.443 98.9318C134.216 98.447 135.098 98.2045 136.091 98.2045C137.083 98.2045 137.966 98.447 138.739 98.9318C139.511 99.4167 140.119 100.106 140.562 101C141.006 101.894 141.227 102.955 141.227 104.182ZM139.864 104.182C139.864 103.174 139.695 102.324 139.358 101.631C139.025 100.938 138.572 100.413 138 100.057C137.432 99.7008 136.795 99.5227 136.091 99.5227C135.386 99.5227 134.748 99.7008 134.176 100.057C133.608 100.413 133.155 100.938 132.818 101.631C132.485 102.324 132.318 103.174 132.318 104.182C132.318 105.189 132.485 106.04 132.818 106.733C133.155 107.426 133.608 107.951 134.176 108.307C134.748 108.663 135.386 108.841 136.091 108.841C136.795 108.841 137.432 108.663 138 108.307C138.572 107.951 139.025 107.426 139.358 106.733C139.695 106.04 139.864 105.189 139.864 104.182ZM144.756 104.75L144.756 110L143.415 110L143.415 101.273L144.71 101.273L144.71 102.636L144.824 102.636C145.028 102.193 145.339 101.837 145.756 101.568C146.172 101.295 146.71 101.159 147.369 101.159C147.96 101.159 148.477 101.28 148.92 101.523C149.364 101.761 149.708 102.125 149.955 102.614C150.201 103.098 150.324 103.712 150.324 104.455L150.324 110L148.983 110L148.983 104.545C148.983 103.86 148.805 103.326 148.449 102.943C148.093 102.557 147.604 102.364 146.983 102.364C146.555 102.364 146.172 102.456 145.835 102.642C145.502 102.828 145.239 103.098 145.045 103.455C144.852 103.811 144.756 104.242 144.756 104.75ZM154.115 98.3636L154.115 110L152.774 110L152.774 98.3636L154.115 98.3636ZM156.571 110L156.571 101.273L157.912 101.273L157.912 110L156.571 110ZM157.253 99.8182C156.991 99.8182 156.766 99.7292 156.577 99.5511C156.391 99.3731 156.298 99.1591 156.298 98.9091C156.298 98.6591 156.391 98.4451 156.577 98.267C156.766 98.089 156.991 98 157.253 98C157.514 98 157.738 98.089 157.923 98.267C158.113 98.4451 158.207 98.6591 158.207 98.9091C158.207 99.1591 158.113 99.3731 157.923 99.5511C157.738 99.7292 157.514 99.8182 157.253 99.8182ZM161.709 104.75L161.709 110L160.368 110L160.368 101.273L161.663 101.273L161.663 102.636L161.777 102.636C161.982 102.193 162.292 101.837 162.709 101.568C163.125 101.295 163.663 101.159 164.322 101.159C164.913 101.159 165.43 101.28 165.874 101.523C166.317 101.761 166.661 102.125 166.908 102.614C167.154 103.098 167.277 103.712 167.277 104.455L167.277 110L165.936 110L165.936 104.545C165.936 103.86 165.758 103.326 165.402 102.943C165.046 102.557 164.557 102.364 163.936 102.364C163.508 102.364 163.125 102.456 162.788 102.642C162.455 102.828 162.192 103.098 161.999 103.455C161.805 103.811 161.709 104.242 161.709 104.75ZM173.386 110.182C172.545 110.182 171.82 109.996 171.21 109.625C170.604 109.25 170.136 108.727 169.807 108.057C169.481 107.383 169.318 106.598 169.318 105.705C169.318 104.811 169.481 104.023 169.807 103.341C170.136 102.655 170.595 102.121 171.182 101.739C171.773 101.352 172.462 101.159 173.25 101.159C173.705 101.159 174.153 101.235 174.597 101.386C175.04 101.538 175.443 101.784 175.807 102.125C176.17 102.462 176.46 102.909 176.676 103.466C176.892 104.023 177 104.708 177 105.523L177 106.091L170.273 106.091L170.273 104.932L175.636 104.932C175.636 104.439 175.538 104 175.341 103.614C175.148 103.227 174.871 102.922 174.511 102.699C174.155 102.475 173.735 102.364 173.25 102.364C172.716 102.364 172.254 102.496 171.864 102.761C171.477 103.023 171.18 103.364 170.972 103.784C170.763 104.205 170.659 104.655 170.659 105.136L170.659 105.909C170.659 106.568 170.773 107.127 171 107.585C171.231 108.04 171.551 108.386 171.96 108.625C172.369 108.86 172.845 108.977 173.386 108.977C173.739 108.977 174.057 108.928 174.341 108.83C174.629 108.727 174.877 108.576 175.085 108.375C175.294 108.17 175.455 107.917 175.568 107.614L176.864 107.977C176.727 108.417 176.498 108.803 176.176 109.136C175.854 109.466 175.456 109.723 174.983 109.909C174.509 110.091 173.977 110.182 173.386 110.182ZM190.085 101.273C190.017 100.697 189.741 100.25 189.256 99.9318C188.771 99.6136 188.176 99.4545 187.472 99.4545C186.956 99.4545 186.506 99.5379 186.119 99.7045C185.737 99.8712 185.438 100.1 185.222 100.392C185.009 100.684 184.903 101.015 184.903 101.386C184.903 101.697 184.977 101.964 185.125 102.188C185.277 102.407 185.47 102.591 185.705 102.739C185.939 102.883 186.186 103.002 186.443 103.097C186.701 103.187 186.937 103.261 187.153 103.318L188.335 103.636C188.638 103.716 188.975 103.826 189.347 103.966C189.722 104.106 190.08 104.297 190.42 104.54C190.765 104.778 191.049 105.085 191.273 105.46C191.496 105.835 191.608 106.295 191.608 106.841C191.608 107.47 191.443 108.038 191.114 108.545C190.788 109.053 190.311 109.456 189.682 109.756C189.057 110.055 188.297 110.205 187.403 110.205C186.57 110.205 185.848 110.07 185.239 109.801C184.633 109.532 184.155 109.157 183.807 108.676C183.462 108.195 183.267 107.636 183.222 107L184.676 107C184.714 107.439 184.862 107.803 185.119 108.091C185.381 108.375 185.71 108.587 186.108 108.727C186.509 108.864 186.941 108.932 187.403 108.932C187.941 108.932 188.424 108.845 188.852 108.67C189.28 108.492 189.619 108.246 189.869 107.932C190.119 107.614 190.244 107.242 190.244 106.818C190.244 106.432 190.136 106.117 189.92 105.875C189.705 105.633 189.42 105.436 189.068 105.284C188.716 105.133 188.335 105 187.926 104.886L186.494 104.477C185.585 104.216 184.866 103.843 184.335 103.358C183.805 102.873 183.54 102.239 183.54 101.455C183.54 100.803 183.716 100.235 184.068 99.75C184.424 99.2614 184.902 98.8826 185.5 98.6136C186.102 98.3409 186.775 98.2045 187.517 98.2045C188.267 98.2045 188.934 98.339 189.517 98.608C190.1 98.8731 190.563 99.2367 190.903 99.6989C191.248 100.161 191.43 100.686 191.449 101.273L190.085 101.273ZM195.084 104.75L195.084 110L193.743 110L193.743 98.3636L195.084 98.3636L195.084 102.636L195.197 102.636C195.402 102.186 195.709 101.828 196.118 101.563C196.531 101.294 197.08 101.159 197.766 101.159C198.36 101.159 198.881 101.278 199.328 101.517C199.775 101.752 200.122 102.114 200.368 102.602C200.618 103.087 200.743 103.705 200.743 104.455L200.743 110L199.402 110L199.402 104.545C199.402 103.852 199.222 103.316 198.862 102.938C198.506 102.555 198.012 102.364 197.379 102.364C196.94 102.364 196.546 102.456 196.197 102.642C195.853 102.828 195.58 103.098 195.379 103.455C195.182 103.811 195.084 104.242 195.084 104.75ZM206.741 110.182C205.954 110.182 205.262 109.994 204.668 109.619C204.077 109.244 203.615 108.72 203.281 108.045C202.952 107.371 202.787 106.583 202.787 105.682C202.787 104.773 202.952 103.979 203.281 103.301C203.615 102.623 204.077 102.097 204.668 101.722C205.262 101.347 205.954 101.159 206.741 101.159C207.529 101.159 208.219 101.347 208.81 101.722C209.404 102.097 209.866 102.623 210.196 103.301C210.529 103.979 210.696 104.773 210.696 105.682C210.696 106.583 210.529 107.371 210.196 108.045C209.866 108.72 209.404 109.244 208.81 109.619C208.219 109.994 207.529 110.182 206.741 110.182ZM206.741 108.977C207.34 108.977 207.832 108.824 208.219 108.517C208.605 108.21 208.891 107.807 209.077 107.307C209.262 106.807 209.355 106.265 209.355 105.682C209.355 105.098 209.262 104.555 209.077 104.051C208.891 103.547 208.605 103.14 208.219 102.83C207.832 102.519 207.34 102.364 206.741 102.364C206.143 102.364 205.651 102.519 205.264 102.83C204.878 103.14 204.592 103.547 204.406 104.051C204.221 104.555 204.128 105.098 204.128 105.682C204.128 106.265 204.221 106.807 204.406 107.307C204.592 107.807 204.878 108.21 205.264 108.517C205.651 108.824 206.143 108.977 206.741 108.977ZM212.743 113.273L212.743 101.273L214.038 101.273L214.038 102.659L214.197 102.659C214.296 102.508 214.432 102.314 214.607 102.08C214.785 101.841 215.038 101.629 215.368 101.443C215.701 101.254 216.152 101.159 216.72 101.159C217.455 101.159 218.103 101.343 218.663 101.71C219.224 102.078 219.661 102.598 219.976 103.273C220.29 103.947 220.447 104.742 220.447 105.659C220.447 106.583 220.29 107.384 219.976 108.063C219.661 108.737 219.226 109.259 218.669 109.631C218.112 109.998 217.47 110.182 216.743 110.182C216.182 110.182 215.733 110.089 215.396 109.903C215.059 109.714 214.8 109.5 214.618 109.261C214.436 109.019 214.296 108.818 214.197 108.659L214.084 108.659L214.084 113.273L212.743 113.273ZM214.061 105.636C214.061 106.295 214.158 106.877 214.351 107.381C214.544 107.881 214.826 108.273 215.197 108.557C215.569 108.837 216.023 108.977 216.561 108.977C217.122 108.977 217.589 108.83 217.964 108.534C218.343 108.235 218.627 107.833 218.817 107.33C219.01 106.822 219.107 106.258 219.107 105.636C219.107 105.023 219.012 104.47 218.822 103.977C218.637 103.481 218.355 103.089 217.976 102.801C217.601 102.509 217.129 102.364 216.561 102.364C216.016 102.364 215.557 102.502 215.186 102.778C214.815 103.051 214.535 103.434 214.345 103.926C214.156 104.415 214.061 104.985 214.061 105.636ZM222.493 113.273L222.493 101.273L223.788 101.273L223.788 102.659L223.947 102.659C224.046 102.508 224.182 102.314 224.357 102.08C224.535 101.841 224.788 101.629 225.118 101.443C225.451 101.254 225.902 101.159 226.47 101.159C227.205 101.159 227.853 101.343 228.413 101.71C228.974 102.078 229.411 102.598 229.726 103.273C230.04 103.947 230.197 104.742 230.197 105.659C230.197 106.583 230.04 107.384 229.726 108.063C229.411 108.737 228.976 109.259 228.419 109.631C227.862 109.998 227.22 110.182 226.493 110.182C225.932 110.182 225.483 110.089 225.146 109.903C224.809 109.714 224.55 109.5 224.368 109.261C224.186 109.019 224.046 108.818 223.947 108.659L223.834 108.659L223.834 113.273L222.493 113.273ZM223.811 105.636C223.811 106.295 223.908 106.877 224.101 107.381C224.294 107.881 224.576 108.273 224.947 108.557C225.319 108.837 225.773 108.977 226.311 108.977C226.872 108.977 227.339 108.83 227.714 108.534C228.093 108.235 228.377 107.833 228.567 107.33C228.76 106.822 228.857 106.258 228.857 105.636C228.857 105.023 228.762 104.47 228.572 103.977C228.387 103.481 228.105 103.089 227.726 102.801C227.351 102.509 226.879 102.364 226.311 102.364C225.766 102.364 225.307 102.502 224.936 102.778C224.565 103.051 224.285 103.434 224.095 103.926C223.906 104.415 223.811 104.985 223.811 105.636ZM232.243 110L232.243 101.273L233.584 101.273L233.584 110L232.243 110ZM232.925 99.8182C232.663 99.8182 232.438 99.7292 232.249 99.5511C232.063 99.3731 231.97 99.1591 231.97 98.9091C231.97 98.6591 232.063 98.4451 232.249 98.267C232.438 98.089 232.663 98 232.925 98C233.186 98 233.41 98.089 233.595 98.267C233.785 98.4451 233.879 98.6591 233.879 98.9091C233.879 99.1591 233.785 99.3731 233.595 99.5511C233.41 99.7292 233.186 99.8182 232.925 99.8182ZM237.381 104.75L237.381 110L236.04 110L236.04 101.273L237.335 101.273L237.335 102.636L237.449 102.636C237.653 102.193 237.964 101.837 238.381 101.568C238.797 101.295 239.335 101.159 239.994 101.159C240.585 101.159 241.102 101.28 241.545 101.523C241.989 101.761 242.333 102.125 242.58 102.614C242.826 103.098 242.949 103.712 242.949 104.455L242.949 110L241.608 110L241.608 104.545C241.608 103.86 241.43 103.326 241.074 102.943C240.718 102.557 240.229 102.364 239.608 102.364C239.18 102.364 238.797 102.456 238.46 102.642C238.127 102.828 237.864 103.098 237.67 103.455C237.477 103.811 237.381 104.242 237.381 104.75ZM248.922 113.455C248.274 113.455 247.717 113.371 247.251 113.205C246.786 113.042 246.397 112.826 246.087 112.557C245.78 112.292 245.536 112.008 245.354 111.705L246.422 110.955C246.543 111.114 246.696 111.295 246.882 111.5C247.068 111.708 247.321 111.888 247.643 112.04C247.969 112.195 248.395 112.273 248.922 112.273C249.626 112.273 250.208 112.102 250.666 111.761C251.125 111.42 251.354 110.886 251.354 110.159L251.354 108.386L251.24 108.386C251.142 108.545 251.001 108.742 250.82 108.977C250.642 109.208 250.384 109.415 250.047 109.597C249.714 109.775 249.263 109.864 248.695 109.864C247.99 109.864 247.357 109.697 246.797 109.364C246.24 109.03 245.799 108.545 245.473 107.909C245.151 107.273 244.99 106.5 244.99 105.591C244.99 104.697 245.147 103.919 245.462 103.256C245.776 102.589 246.214 102.074 246.774 101.71C247.335 101.343 247.982 101.159 248.717 101.159C249.286 101.159 249.736 101.254 250.07 101.443C250.407 101.629 250.664 101.841 250.842 102.08C251.024 102.314 251.164 102.508 251.263 102.659L251.399 102.659L251.399 101.273L252.695 101.273L252.695 110.25C252.695 111 252.524 111.61 252.183 112.08C251.846 112.553 251.392 112.9 250.82 113.119C250.251 113.343 249.619 113.455 248.922 113.455ZM248.876 108.659C249.414 108.659 249.869 108.536 250.24 108.29C250.611 108.044 250.893 107.689 251.087 107.227C251.28 106.765 251.376 106.212 251.376 105.568C251.376 104.939 251.282 104.384 251.092 103.903C250.903 103.422 250.623 103.045 250.251 102.773C249.88 102.5 249.422 102.364 248.876 102.364C248.308 102.364 247.835 102.508 247.456 102.795C247.081 103.083 246.799 103.47 246.609 103.955C246.424 104.439 246.331 104.977 246.331 105.568C246.331 106.174 246.426 106.71 246.615 107.176C246.808 107.638 247.092 108.002 247.467 108.267C247.846 108.528 248.316 108.659 248.876 108.659Z" fill="#1F2937"/>
<path d="M441.08 89.577L441.08 88.065L446.48 88.065L446.48 89.577L441.08 89.577ZM451.078 94.5L451.078 83.61L448.639 85.095L448.639 82.998L451.078 81.54L452.995 81.54L452.995 94.5L451.078 94.5ZM460.255 94.77C459.589 94.77 458.968 94.635 458.392 94.365C457.822 94.089 457.333 93.711 456.925 93.231C456.517 92.745 456.226 92.187 456.052 91.557L457.861 91.071C457.963 91.455 458.137 91.788 458.383 92.07C458.635 92.352 458.929 92.571 459.265 92.727C459.601 92.877 459.949 92.952 460.309 92.952C460.783 92.952 461.212 92.838 461.596 92.61C461.986 92.382 462.292 92.076 462.514 91.692C462.742 91.308 462.856 90.885 462.856 90.423C462.856 89.949 462.739 89.52 462.505 89.136C462.277 88.752 461.968 88.449 461.578 88.227C461.194 87.999 460.771 87.885 460.309 87.885C459.781 87.885 459.334 87.99 458.968 88.2C458.602 88.41 458.317 88.653 458.113 88.929L456.475 88.353L456.871 81.54L463.864 81.54L463.864 83.313L457.834 83.313L458.599 82.602L458.284 87.705L457.915 87.228C458.257 86.886 458.665 86.625 459.139 86.445C459.613 86.265 460.084 86.175 460.552 86.175C461.356 86.175 462.073 86.361 462.703 86.733C463.339 87.105 463.84 87.612 464.206 88.254C464.572 88.89 464.755 89.613 464.755 90.423C464.755 91.227 464.548 91.959 464.134 92.619C463.72 93.273 463.171 93.795 462.487 94.185C461.803 94.575 461.059 94.77 460.255 94.77ZM471.424 94.77C470.542 94.77 469.762 94.578 469.084 94.194C468.406 93.804 467.872 93.27 467.482 92.592C467.098 91.914 466.906 91.134 466.906 90.252L466.906 85.788C466.906 84.906 467.098 84.126 467.482 83.448C467.872 82.77 468.406 82.239 469.084 81.855C469.762 81.465 470.542 81.27 471.424 81.27C472.306 81.27 473.086 81.465 473.764 81.855C474.442 82.239 474.973 82.77 475.357 83.448C475.747 84.126 475.942 84.906 475.942 85.788L475.942 90.252C475.942 91.134 475.747 91.914 475.357 92.592C474.973 93.27 474.442 93.804 473.764 94.194C473.086 94.578 472.306 94.77 471.424 94.77ZM471.424 92.97C471.904 92.97 472.339 92.856 472.729 92.628C473.125 92.394 473.44 92.082 473.674 91.692C473.908 91.296 474.025 90.855 474.025 90.369L474.025 85.653C474.025 85.173 473.908 84.738 473.674 84.348C473.44 83.952 473.125 83.64 472.729 83.412C472.339 83.178 471.904 83.061 471.424 83.061C470.944 83.061 470.506 83.178 470.11 83.412C469.72 83.64 469.408 83.952 469.174 84.348C468.94 84.738 468.823 85.173 468.823 85.653L468.823 90.369C468.823 90.855 468.94 91.296 469.174 91.692C469.408 92.082 469.72 92.394 470.11 92.628C470.506 92.856 470.944 92.97 471.424 92.97ZM478.779 94.5L478.779 92.511L480.768 92.511L480.768 94.5L478.779 94.5ZM488.124 94.77C487.242 94.77 486.462 94.578 485.784 94.194C485.106 93.804 484.572 93.27 484.182 92.592C483.798 91.914 483.606 91.134 483.606 90.252L483.606 85.788C483.606 84.906 483.798 84.126 484.182 83.448C484.572 82.77 485.106 82.239 485.784 81.855C486.462 81.465 487.242 81.27 488.124 81.27C489.006 81.27 489.786 81.465 490.464 81.855C491.142 82.239 491.673 82.77 492.057 83.448C492.447 84.126 492.642 84.906 492.642 85.788L492.642 90.252C492.642 91.134 492.447 91.914 492.057 92.592C491.673 93.27 491.142 93.804 490.464 94.194C489.786 94.578 489.006 94.77 488.124 94.77ZM488.124 92.97C488.604 92.97 489.039 92.856 489.429 92.628C489.825 92.394 490.14 92.082 490.374 91.692C490.608 91.296 490.725 90.855 490.725 90.369L490.725 85.653C490.725 85.173 490.608 84.738 490.374 84.348C490.14 83.952 489.825 83.64 489.429 83.412C489.039 83.178 488.604 83.061 488.124 83.061C487.644 83.061 487.206 83.178 486.81 83.412C486.42 83.64 486.108 83.952 485.874 84.348C485.64 84.738 485.523 85.173 485.523 85.653L485.523 90.369C485.523 90.855 485.64 91.296 485.874 91.692C486.108 92.082 486.42 92.394 486.81 92.628C487.206 92.856 487.644 92.97 488.124 92.97ZM499.673 94.77C498.791 94.77 498.011 94.578 497.333 94.194C496.655 93.804 496.121 93.27 495.731 92.592C495.347 91.914 495.155 91.134 495.155 90.252L495.155 85.788C495.155 84.906 495.347 84.126 495.731 83.448C496.121 82.77 496.655 82.239 497.333 81.855C498.011 81.465 498.791 81.27 499.673 81.27C500.555 81.27 501.335 81.465 502.013 81.855C502.691 82.239 503.222 82.77 503.606 83.448C503.996 84.126 504.191 84.906 504.191 85.788L504.191 90.252C504.191 91.134 503.996 91.914 503.606 92.592C503.222 93.27 502.691 93.804 502.013 94.194C501.335 94.578 500.555 94.77 499.673 94.77ZM499.673 92.97C500.153 92.97 500.588 92.856 500.978 92.628C501.374 92.394 501.689 92.082 501.923 91.692C502.157 91.296 502.274 90.855 502.274 90.369L502.274 85.653C502.274 85.173 502.157 84.738 501.923 84.348C501.689 83.952 501.374 83.64 500.978 83.412C500.588 83.178 500.153 83.061 499.673 83.061C499.193 83.061 498.755 83.178 498.359 83.412C497.969 83.64 497.657 83.952 497.423 84.348C497.189 84.738 497.072 85.173 497.072 85.653L497.072 90.369C497.072 90.855 497.189 91.296 497.423 91.692C497.657 92.082 497.969 92.394 498.359 92.628C498.755 92.856 499.193 92.97 499.673 92.97Z" fill="#1F2937"/>
<rect x="40.5" y="152.5" width="487" height="95" rx="23.5" fill="white"/>
<rect x="40.5" y="152.5" width="487" height="95" rx="23.5" stroke="#D7DBE0"/>
<rect x="62" y="174" width="52" height="52" rx="12" fill="#EDECEB"/>
<path d="M72 194.627L72 201.24C72 203.733 73.7333 205.373 76 205.373C77.1067 205.373 78.08 204.947 78.7867 204.213L78.7867 205.2L80.36 205.2L80.36 194.627L78.7733 194.627L78.7733 201.147C78.7733 202.827 77.64 203.96 76.1867 203.96C74.7067 203.96 73.5867 202.853 73.5867 201.147L73.5867 194.627L72 194.627ZM81.92 194.627L81.92 205.2L83.4267 205.2L83.4267 204.227C83.7851 204.591 84.2127 204.88 84.6844 205.077C85.156 205.274 85.6622 205.375 86.1733 205.373C86.7054 205.379 87.2331 205.278 87.7257 205.077C88.2183 204.876 88.6657 204.578 89.042 204.202C89.4182 203.826 89.7156 203.378 89.9167 202.886C90.1178 202.393 90.2187 201.865 90.2133 201.333C90.2134 200.805 90.1086 200.281 89.9051 199.793C89.7016 199.305 89.4033 198.863 89.0277 198.491C88.652 198.119 88.2063 197.825 87.7164 197.626C87.2264 197.428 86.702 197.328 86.1733 197.333C85.6643 197.332 85.1601 197.433 84.6907 197.63C84.2213 197.827 83.796 198.116 83.44 198.48L83.44 194.627L81.92 194.627ZM95.08 197.333C92.8267 197.333 91.12 199.173 91.12 201.333C91.12 203.64 92.9067 205.333 95.2133 205.333C96.6267 205.333 97.7733 204.747 98.5333 203.72L97.44 202.893C96.8667 203.667 96.1067 204 95.2133 204C93.92 204 92.88 203.093 92.6667 201.84L98.9333 201.84L98.9333 201.333C98.9333 199.053 97.2933 197.333 95.08 197.333ZM103.467 197.44C102.627 197.44 102 197.827 101.627 198.44L101.627 197.493L100.12 197.493L100.12 205.2L101.64 205.2L101.64 200.813C101.64 199.627 102.373 198.853 103.373 198.853L104 198.853L104 197.427L103.467 197.427M95.0533 198.667C96.1867 198.667 97.1333 199.453 97.3867 200.627L92.6667 200.627C92.9733 199.453 93.92 198.667 95.0533 198.667ZM86.0667 198.667C87.52 198.667 88.7067 199.867 88.7067 201.333C88.7067 202.84 87.52 204 86.0667 204C85.3617 203.997 84.6869 203.714 84.1897 203.214C83.6924 202.715 83.4133 202.038 83.4133 201.333C83.4133 200.628 83.6924 199.952 84.1897 199.452C84.6869 198.953 85.3617 198.67 86.0667 198.667Z" fill="#1F2937"/>
<path d="M137.14 195.3C136.013 195.3 135.017 195.07 134.15 194.61C133.29 194.143 132.617 193.493 132.13 192.66C131.643 191.82 131.4 190.833 131.4 189.7L131.4 180.61L133.52 180.6L133.52 189.59C133.52 190.203 133.623 190.743 133.83 191.21C134.037 191.677 134.313 192.067 134.66 192.38C135.007 192.693 135.393 192.93 135.82 193.09C136.253 193.25 136.693 193.33 137.14 193.33C137.593 193.33 138.033 193.25 138.46 193.09C138.893 192.923 139.283 192.683 139.63 192.37C139.977 192.057 140.25 191.667 140.45 191.2C140.657 190.733 140.76 190.197 140.76 189.59L140.76 180.6L142.88 180.6L142.88 189.7C142.88 190.827 142.637 191.81 142.15 192.65C141.663 193.49 140.987 194.143 140.12 194.61C139.26 195.07 138.267 195.3 137.14 195.3ZM150.747 195.3C149.714 195.3 148.847 195.05 148.147 194.55C147.447 194.043 146.917 193.36 146.557 192.5C146.197 191.64 146.017 190.67 146.017 189.59C146.017 188.51 146.194 187.54 146.547 186.68C146.907 185.82 147.434 185.143 148.127 184.65C148.827 184.15 149.687 183.9 150.707 183.9C151.721 183.9 152.594 184.15 153.327 184.65C154.067 185.143 154.637 185.82 155.037 186.68C155.437 187.533 155.637 188.503 155.637 189.59C155.637 190.67 155.437 191.643 155.037 192.51C154.644 193.37 154.081 194.05 153.347 194.55C152.621 195.05 151.754 195.3 150.747 195.3ZM145.667 195L145.667 180.6L147.767 180.6L147.767 187.23L147.527 187.23L147.527 195L145.667 195ZM150.457 193.41C151.124 193.41 151.674 193.24 152.107 192.9C152.547 192.56 152.874 192.103 153.087 191.53C153.307 190.95 153.417 190.303 153.417 189.59C153.417 188.883 153.307 188.243 153.087 187.67C152.874 187.097 152.544 186.64 152.097 186.3C151.651 185.96 151.081 185.79 150.387 185.79C149.734 185.79 149.194 185.95 148.767 186.27C148.347 186.59 148.034 187.037 147.827 187.61C147.627 188.183 147.527 188.843 147.527 189.59C147.527 190.337 147.627 190.997 147.827 191.57C148.027 192.143 148.344 192.593 148.777 192.92C149.211 193.247 149.771 193.41 150.457 193.41ZM162.635 195.3C161.562 195.3 160.619 195.067 159.805 194.6C158.999 194.127 158.369 193.47 157.915 192.63C157.469 191.783 157.245 190.803 157.245 189.69C157.245 188.51 157.465 187.487 157.905 186.62C158.352 185.753 158.972 185.083 159.765 184.61C160.559 184.137 161.482 183.9 162.535 183.9C163.635 183.9 164.572 184.157 165.345 184.67C166.119 185.177 166.695 185.9 167.075 186.84C167.462 187.78 167.615 188.897 167.535 190.19L165.445 190.19L165.445 189.43C165.432 188.177 165.192 187.25 164.725 186.65C164.265 186.05 163.562 185.75 162.615 185.75C161.569 185.75 160.782 186.08 160.255 186.74C159.729 187.4 159.465 188.353 159.465 189.6C159.465 190.787 159.729 191.707 160.255 192.36C160.782 193.007 161.542 193.33 162.535 193.33C163.189 193.33 163.752 193.183 164.225 192.89C164.705 192.59 165.079 192.163 165.345 191.61L167.395 192.26C166.975 193.227 166.339 193.977 165.485 194.51C164.632 195.037 163.682 195.3 162.635 195.3ZM158.785 190.19L158.785 188.56L166.495 188.56L166.495 190.19L158.785 190.19ZM169.779 195L169.779 184.2L171.639 184.2L171.639 186.82L171.379 186.48C171.512 186.133 171.686 185.817 171.899 185.53C172.112 185.237 172.359 184.997 172.639 184.81C172.912 184.61 173.216 184.457 173.549 184.35C173.889 184.237 174.236 184.17 174.589 184.15C174.942 184.123 175.282 184.14 175.609 184.2L175.609 186.16C175.256 186.067 174.862 186.04 174.429 186.08C174.002 186.12 173.609 186.257 173.249 186.49C172.909 186.71 172.639 186.977 172.439 187.29C172.246 187.603 172.106 187.953 172.019 188.34C171.932 188.72 171.889 189.123 171.889 189.55L171.889 195L169.779 195Z" fill="#1F2937"/>
<path d="M130.773 211.614L130.773 210.364L139.5 210.364L139.5 211.614L135.841 211.614L135.841 222L134.432 222L134.432 211.614L130.773 211.614ZM142.874 222.205C142.321 222.205 141.819 222.1 141.368 221.892C140.917 221.68 140.559 221.375 140.294 220.977C140.029 220.576 139.896 220.091 139.896 219.523C139.896 219.023 139.995 218.617 140.192 218.307C140.389 217.992 140.652 217.746 140.982 217.568C141.311 217.39 141.675 217.258 142.072 217.17C142.474 217.08 142.877 217.008 143.283 216.955C143.813 216.886 144.243 216.835 144.572 216.801C144.906 216.763 145.148 216.701 145.3 216.614C145.455 216.527 145.533 216.375 145.533 216.159L145.533 216.114C145.533 215.553 145.379 215.117 145.072 214.807C144.769 214.496 144.309 214.341 143.692 214.341C143.052 214.341 142.55 214.481 142.186 214.761C141.822 215.042 141.567 215.341 141.419 215.659L140.146 215.205C140.374 214.674 140.677 214.261 141.055 213.966C141.438 213.667 141.855 213.458 142.305 213.341C142.76 213.22 143.207 213.159 143.646 213.159C143.927 213.159 144.249 213.193 144.612 213.261C144.98 213.326 145.334 213.46 145.675 213.665C146.019 213.869 146.305 214.178 146.533 214.591C146.76 215.004 146.874 215.557 146.874 216.25L146.874 222L145.533 222L145.533 220.818L145.464 220.818C145.374 221.008 145.222 221.21 145.01 221.426C144.798 221.642 144.516 221.826 144.163 221.977C143.811 222.129 143.381 222.205 142.874 222.205ZM143.078 221C143.608 221 144.055 220.896 144.419 220.688C144.786 220.479 145.063 220.21 145.249 219.881C145.438 219.551 145.533 219.205 145.533 218.841L145.533 217.614C145.476 217.682 145.351 217.744 145.158 217.801C144.968 217.854 144.749 217.902 144.499 217.943C144.252 217.981 144.012 218.015 143.777 218.045C143.546 218.072 143.358 218.095 143.214 218.114C142.866 218.159 142.54 218.233 142.237 218.335C141.938 218.434 141.696 218.583 141.51 218.784C141.328 218.981 141.237 219.25 141.237 219.591C141.237 220.057 141.41 220.409 141.754 220.648C142.103 220.883 142.544 221 143.078 221ZM150.321 213.273L152.412 216.841L154.503 213.273L156.048 213.273L153.23 217.636L156.048 222L154.503 222L152.412 218.614L150.321 222L148.776 222L151.548 217.636L148.776 213.273L150.321 213.273ZM157.962 222L157.962 213.273L159.303 213.273L159.303 222L157.962 222ZM158.643 211.818C158.382 211.818 158.157 211.729 157.967 211.551C157.782 211.373 157.689 211.159 157.689 210.909C157.689 210.659 157.782 210.445 157.967 210.267C158.157 210.089 158.382 210 158.643 210C158.905 210 159.128 210.089 159.314 210.267C159.503 210.445 159.598 210.659 159.598 210.909C159.598 211.159 159.503 211.373 159.314 211.551C159.128 211.729 158.905 211.818 158.643 211.818ZM172.804 213.273C172.736 212.697 172.459 212.25 171.974 211.932C171.49 211.614 170.895 211.455 170.19 211.455C169.675 211.455 169.224 211.538 168.838 211.705C168.455 211.871 168.156 212.1 167.94 212.392C167.728 212.684 167.622 213.015 167.622 213.386C167.622 213.697 167.696 213.964 167.844 214.188C167.995 214.407 168.188 214.591 168.423 214.739C168.658 214.883 168.904 215.002 169.162 215.097C169.42 215.187 169.656 215.261 169.872 215.318L171.054 215.636C171.357 215.716 171.694 215.826 172.065 215.966C172.44 216.106 172.798 216.297 173.139 216.54C173.484 216.778 173.768 217.085 173.991 217.46C174.215 217.835 174.327 218.295 174.327 218.841C174.327 219.47 174.162 220.038 173.832 220.545C173.507 221.053 173.029 221.456 172.401 221.756C171.776 222.055 171.016 222.205 170.122 222.205C169.289 222.205 168.567 222.07 167.957 221.801C167.351 221.532 166.874 221.157 166.526 220.676C166.181 220.195 165.986 219.636 165.94 219L167.395 219C167.433 219.439 167.58 219.803 167.838 220.091C168.099 220.375 168.429 220.587 168.827 220.727C169.228 220.864 169.66 220.932 170.122 220.932C170.66 220.932 171.143 220.845 171.571 220.67C171.999 220.492 172.338 220.246 172.588 219.932C172.838 219.614 172.963 219.242 172.963 218.818C172.963 218.432 172.855 218.117 172.639 217.875C172.423 217.633 172.139 217.436 171.787 217.284C171.435 217.133 171.054 217 170.645 216.886L169.213 216.477C168.304 216.216 167.584 215.843 167.054 215.358C166.524 214.873 166.259 214.239 166.259 213.455C166.259 212.803 166.435 212.235 166.787 211.75C167.143 211.261 167.62 210.883 168.219 210.614C168.821 210.341 169.493 210.205 170.236 210.205C170.986 210.205 171.652 210.339 172.236 210.608C172.819 210.873 173.281 211.237 173.622 211.699C173.967 212.161 174.149 212.686 174.168 213.273L172.804 213.273ZM180.121 222.182C179.28 222.182 178.554 221.996 177.945 221.625C177.339 221.25 176.871 220.727 176.541 220.057C176.215 219.383 176.053 218.598 176.053 217.705C176.053 216.811 176.215 216.023 176.541 215.341C176.871 214.655 177.329 214.121 177.916 213.739C178.507 213.352 179.196 213.159 179.984 213.159C180.439 213.159 180.888 213.235 181.331 213.386C181.774 213.538 182.178 213.784 182.541 214.125C182.905 214.462 183.195 214.909 183.411 215.466C183.626 216.023 183.734 216.708 183.734 217.523L183.734 218.091L177.007 218.091L177.007 216.932L182.371 216.932C182.371 216.439 182.272 216 182.075 215.614C181.882 215.227 181.606 214.922 181.246 214.699C180.89 214.475 180.469 214.364 179.984 214.364C179.45 214.364 178.988 214.496 178.598 214.761C178.212 215.023 177.914 215.364 177.706 215.784C177.498 216.205 177.393 216.655 177.393 217.136L177.393 217.909C177.393 218.568 177.507 219.127 177.734 219.585C177.965 220.04 178.286 220.386 178.695 220.625C179.104 220.86 179.579 220.977 180.121 220.977C180.473 220.977 180.791 220.928 181.075 220.83C181.363 220.727 181.611 220.576 181.82 220.375C182.028 220.17 182.189 219.917 182.303 219.614L183.598 219.977C183.462 220.417 183.232 220.803 182.911 221.136C182.589 221.466 182.191 221.723 181.717 221.909C181.244 222.091 180.712 222.182 180.121 222.182ZM185.774 222L185.774 213.273L187.07 213.273L187.07 214.591L187.161 214.591C187.32 214.159 187.607 213.809 188.024 213.54C188.441 213.271 188.911 213.136 189.433 213.136C189.532 213.136 189.655 213.138 189.803 213.142C189.95 213.146 190.062 213.152 190.138 213.159L190.138 214.523C190.092 214.511 189.988 214.494 189.825 214.472C189.666 214.445 189.498 214.432 189.32 214.432C188.895 214.432 188.517 214.521 188.183 214.699C187.854 214.873 187.592 215.116 187.399 215.426C187.21 215.733 187.115 216.083 187.115 216.477L187.115 222L185.774 222ZM199.129 213.273L195.902 222L194.538 222L191.311 213.273L192.766 213.273L195.175 220.227L195.266 220.227L197.675 213.273L199.129 213.273ZM200.899 222L200.899 213.273L202.24 213.273L202.24 222L200.899 222ZM201.581 211.818C201.32 211.818 201.094 211.729 200.905 211.551C200.719 211.373 200.626 211.159 200.626 210.909C200.626 210.659 200.719 210.445 200.905 210.267C201.094 210.089 201.32 210 201.581 210C201.842 210 202.066 210.089 202.251 210.267C202.441 210.445 202.536 210.659 202.536 210.909C202.536 211.159 202.441 211.373 202.251 211.551C202.066 211.729 201.842 211.818 201.581 211.818ZM208.241 222.182C207.423 222.182 206.719 221.989 206.128 221.602C205.537 221.216 205.082 220.684 204.764 220.006C204.446 219.328 204.287 218.553 204.287 217.682C204.287 216.795 204.45 216.013 204.776 215.335C205.105 214.653 205.563 214.121 206.151 213.739C206.741 213.352 207.431 213.159 208.219 213.159C208.832 213.159 209.385 213.273 209.878 213.5C210.37 213.727 210.774 214.045 211.088 214.455C211.402 214.864 211.598 215.341 211.673 215.886L210.332 215.886C210.23 215.489 210.003 215.136 209.651 214.83C209.302 214.519 208.832 214.364 208.241 214.364C207.719 214.364 207.26 214.5 206.866 214.773C206.476 215.042 206.171 215.422 205.952 215.915C205.736 216.403 205.628 216.977 205.628 217.636C205.628 218.311 205.734 218.898 205.946 219.398C206.162 219.898 206.465 220.286 206.855 220.563C207.249 220.839 207.711 220.977 208.241 220.977C208.59 220.977 208.906 220.917 209.19 220.795C209.474 220.674 209.715 220.5 209.912 220.273C210.109 220.045 210.249 219.773 210.332 219.455L211.673 219.455C211.598 219.97 211.41 220.434 211.111 220.847C210.815 221.256 210.423 221.581 209.935 221.824C209.45 222.063 208.885 222.182 208.241 222.182ZM217.293 222.182C216.452 222.182 215.726 221.996 215.116 221.625C214.51 221.25 214.043 220.727 213.713 220.057C213.387 219.383 213.224 218.598 213.224 217.705C213.224 216.811 213.387 216.023 213.713 215.341C214.043 214.655 214.501 214.121 215.088 213.739C215.679 213.352 216.368 213.159 217.156 213.159C217.611 213.159 218.06 213.235 218.503 213.386C218.946 213.538 219.349 213.784 219.713 214.125C220.077 214.462 220.366 214.909 220.582 215.466C220.798 216.023 220.906 216.708 220.906 217.523L220.906 218.091L214.179 218.091L214.179 216.932L219.543 216.932C219.543 216.439 219.444 216 219.247 215.614C219.054 215.227 218.777 214.922 218.418 214.699C218.062 214.475 217.641 214.364 217.156 214.364C216.622 214.364 216.16 214.496 215.77 214.761C215.384 215.023 215.086 215.364 214.878 215.784C214.67 216.205 214.565 216.655 214.565 217.136L214.565 217.909C214.565 218.568 214.679 219.127 214.906 219.585C215.137 220.04 215.457 220.386 215.866 220.625C216.276 220.86 216.751 220.977 217.293 220.977C217.645 220.977 217.963 220.928 218.247 220.83C218.535 220.727 218.783 220.576 218.991 220.375C219.2 220.17 219.361 219.917 219.474 219.614L220.77 219.977C220.634 220.417 220.404 220.803 220.082 221.136C219.76 221.466 219.363 221.723 218.889 221.909C218.416 222.091 217.884 222.182 217.293 222.182ZM229.128 215.227L227.923 215.568C227.848 215.367 227.736 215.172 227.588 214.983C227.444 214.79 227.247 214.631 226.997 214.506C226.747 214.381 226.427 214.318 226.037 214.318C225.503 214.318 225.058 214.441 224.702 214.688C224.349 214.93 224.173 215.239 224.173 215.614C224.173 215.947 224.295 216.21 224.537 216.403C224.779 216.597 225.158 216.758 225.673 216.886L226.969 217.205C227.749 217.394 228.33 217.684 228.713 218.074C229.096 218.46 229.287 218.958 229.287 219.568C229.287 220.068 229.143 220.515 228.855 220.909C228.571 221.303 228.173 221.614 227.662 221.841C227.151 222.068 226.556 222.182 225.878 222.182C224.988 222.182 224.251 221.989 223.668 221.602C223.084 221.216 222.715 220.652 222.56 219.909L223.832 219.591C223.954 220.061 224.183 220.413 224.52 220.648C224.861 220.883 225.306 221 225.855 221C226.48 221 226.976 220.867 227.344 220.602C227.715 220.333 227.901 220.011 227.901 219.636C227.901 219.333 227.795 219.08 227.582 218.875C227.37 218.667 227.045 218.511 226.605 218.409L225.151 218.068C224.351 217.879 223.764 217.585 223.389 217.188C223.018 216.786 222.832 216.284 222.832 215.682C222.832 215.189 222.971 214.754 223.247 214.375C223.527 213.996 223.908 213.699 224.389 213.483C224.874 213.267 225.423 213.159 226.037 213.159C226.901 213.159 227.579 213.348 228.071 213.727C228.567 214.106 228.92 214.606 229.128 215.227Z" fill="#1F2937"/>
<path d="M450.08 201.577L450.08 200.065L455.48 200.065L455.48 201.577L450.08 201.577ZM461.662 206.77C460.996 206.77 460.375 206.635 459.799 206.365C459.229 206.089 458.74 205.711 458.332 205.231C457.924 204.745 457.633 204.187 457.459 203.557L459.268 203.071C459.37 203.455 459.544 203.788 459.79 204.07C460.042 204.352 460.336 204.571 460.672 204.727C461.008 204.877 461.356 204.952 461.716 204.952C462.19 204.952 462.619 204.838 463.003 204.61C463.393 204.382 463.699 204.076 463.921 203.692C464.149 203.308 464.263 202.885 464.263 202.423C464.263 201.949 464.146 201.52 463.912 201.136C463.684 200.752 463.375 200.449 462.985 200.227C462.601 199.999 462.178 199.885 461.716 199.885C461.188 199.885 460.741 199.99 460.375 200.2C460.009 200.41 459.724 200.653 459.52 200.929L457.882 200.353L458.278 193.54L465.271 193.54L465.271 195.313L459.241 195.313L460.006 194.602L459.691 199.705L459.322 199.228C459.664 198.886 460.072 198.625 460.546 198.445C461.02 198.265 461.491 198.175 461.959 198.175C462.763 198.175 463.48 198.361 464.11 198.733C464.746 199.105 465.247 199.612 465.613 200.254C465.979 200.89 466.162 201.613 466.162 202.423C466.162 203.227 465.955 203.959 465.541 204.619C465.127 205.273 464.578 205.795 463.894 206.185C463.21 206.575 462.466 206.77 461.662 206.77ZM472.156 206.77C471.49 206.77 470.869 206.635 470.293 206.365C469.723 206.089 469.234 205.711 468.826 205.231C468.418 204.745 468.127 204.187 467.953 203.557L469.762 203.071C469.864 203.455 470.038 203.788 470.284 204.07C470.536 204.352 470.83 204.571 471.166 204.727C471.502 204.877 471.85 204.952 472.21 204.952C472.684 204.952 473.113 204.838 473.497 204.61C473.887 204.382 474.193 204.076 474.415 203.692C474.643 203.308 474.757 202.885 474.757 202.423C474.757 201.949 474.64 201.52 474.406 201.136C474.178 200.752 473.869 200.449 473.479 200.227C473.095 199.999 472.672 199.885 472.21 199.885C471.682 199.885 471.235 199.99 470.869 200.2C470.503 200.41 470.218 200.653 470.014 200.929L468.376 200.353L468.772 193.54L475.765 193.54L475.765 195.313L469.735 195.313L470.5 194.602L470.185 199.705L469.816 199.228C470.158 198.886 470.566 198.625 471.04 198.445C471.514 198.265 471.985 198.175 472.453 198.175C473.257 198.175 473.974 198.361 474.604 198.733C475.24 199.105 475.741 199.612 476.107 200.254C476.473 200.89 476.656 201.613 476.656 202.423C476.656 203.227 476.449 203.959 476.035 204.619C475.621 205.273 475.072 205.795 474.388 206.185C473.704 206.575 472.96 206.77 472.156 206.77ZM479.131 206.5L479.131 204.511L481.12 204.511L481.12 206.5L479.131 206.5ZM488.475 206.77C487.593 206.77 486.813 206.578 486.135 206.194C485.457 205.804 484.923 205.27 484.533 204.592C484.149 203.914 483.957 203.134 483.957 202.252L483.957 197.788C483.957 196.906 484.149 196.126 484.533 195.448C484.923 194.77 485.457 194.239 486.135 193.855C486.813 193.465 487.593 193.27 488.475 193.27C489.357 193.27 490.137 193.465 490.815 193.855C491.493 194.239 492.024 194.77 492.408 195.448C492.798 196.126 492.993 196.906 492.993 197.788L492.993 202.252C492.993 203.134 492.798 203.914 492.408 204.592C492.024 205.27 491.493 205.804 490.815 206.194C490.137 206.578 489.357 206.77 488.475 206.77ZM488.475 204.97C488.955 204.97 489.39 204.856 489.78 204.628C490.176 204.394 490.491 204.082 490.725 203.692C490.959 203.296 491.076 202.855 491.076 202.369L491.076 197.653C491.076 197.173 490.959 196.738 490.725 196.348C490.491 195.952 490.176 195.64 489.78 195.412C489.39 195.178 488.955 195.061 488.475 195.061C487.995 195.061 487.557 195.178 487.161 195.412C486.771 195.64 486.459 195.952 486.225 196.348C485.991 196.738 485.874 197.173 485.874 197.653L485.874 202.369C485.874 202.855 485.991 203.296 486.225 203.692C486.459 204.082 486.771 204.394 487.161 204.628C487.557 204.856 487.995 204.97 488.475 204.97ZM500.024 206.77C499.142 206.77 498.362 206.578 497.684 206.194C497.006 205.804 496.472 205.27 496.082 204.592C495.698 203.914 495.506 203.134 495.506 202.252L495.506 197.788C495.506 196.906 495.698 196.126 496.082 195.448C496.472 194.77 497.006 194.239 497.684 193.855C498.362 193.465 499.142 193.27 500.024 193.27C500.906 193.27 501.686 193.465 502.364 193.855C503.042 194.239 503.573 194.77 503.957 195.448C504.347 196.126 504.542 196.906 504.542 197.788L504.542 202.252C504.542 203.134 504.347 203.914 503.957 204.592C503.573 205.27 503.042 205.804 502.364 206.194C501.686 206.578 500.906 206.77 500.024 206.77ZM500.024 204.97C500.504 204.97 500.939 204.856 501.329 204.628C501.725 204.394 502.04 204.082 502.274 203.692C502.508 203.296 502.625 202.855 502.625 202.369L502.625 197.653C502.625 197.173 502.508 196.738 502.274 196.348C502.04 195.952 501.725 195.64 501.329 195.412C500.939 195.178 500.504 195.061 500.024 195.061C499.544 195.061 499.106 195.178 498.71 195.412C498.32 195.64 498.008 195.952 497.774 196.348C497.54 196.738 497.423 197.173 497.423 197.653L497.423 202.369C497.423 202.855 497.54 203.296 497.774 203.692C498.008 204.082 498.32 204.394 498.71 204.628C499.106 204.856 499.544 204.97 500.024 204.97Z" fill="#1F2937"/>
<rect x="40.5" y="264.5" width="487" height="95" rx="23.5" fill="white"/>
<rect x="40.5" y="264.5" width="487" height="95" rx="23.5" stroke="#D7DBE0"/>
<rect x="62" y="286" width="52" height="52" rx="12" fill="#EDECEB"/>
<path d="M83.9999 322L78.9999 322C78.1999 322 77.3999 321.6 76.8999 321C76.3999 320.4 76.1999 319.6 76.3999 318.8L80.6999 300C80.9999 298.8 81.9999 298 83.2999 298L91.8999 298C94.1999 298 96.2999 299 97.7999 300.8C99.1999 302.6 99.7999 304.9 99.2999 307.2C98.4999 311.2 94.8999 314 90.7999 314L87.5999 314C87.0999 314 86.5999 314.4 86.4999 314.9L84.9999 321.2C84.8999 321.7 84.4999 322 83.9999 322Z" fill="#1F2937"/>
<path d="M83.9999 322L78.9999 322C78.1999 322 77.3999 321.6 76.8999 321C76.3999 320.4 76.1999 319.6 76.3999 318.8L80.6999 300C80.9999 298.8 81.9999 298 83.2999 298L91.8999 298C94.1999 298 96.2999 299 97.7999 300.8C99.1999 302.6 99.7999 304.9 99.2999 307.2C98.4999 311.2 94.8999 314 90.7999 314L87.5999 314C87.0999 314 86.5999 314.4 86.4999 314.9L84.9999 321.2C84.8999 321.7 84.4999 322 83.9999 322Z" fill="#1F2937"/>
<path d="M101.3 307.3C101.3 307.4 101.3 307.5 101.3 307.6C100.3 312.5 95.9 316 90.9 316L88.4 316L87 321.7C86.6 323.1 85.4 324 84 324L82 324C82.1 324.4 82.2 324.7 82.5 325C83 325.6 83.7 325.9 84.5 325.9L89 325.9C89.5 325.9 89.9 325.6 90 325.2L91.4 319.7C91.5 319.3 91.9 319.1 92.3 319.1L95.2 319.1C98.9 319.1 102.2 316.6 102.9 313.1C103.3 311 102.7 308.8 101.3 307.3Z" fill="#1F2937"/>
<path d="M131.4 307L131.4 292.6L137.22 292.6C137.36 292.6 137.533 292.607 137.74 292.62C137.947 292.627 138.143 292.647 138.33 292.68C139.13 292.807 139.797 293.08 140.33 293.5C140.87 293.92 141.273 294.45 141.54 295.09C141.807 295.73 141.94 296.437 141.94 297.21C141.94 297.99 141.807 298.7 141.54 299.34C141.273 299.98 140.87 300.51 140.33 300.93C139.797 301.35 139.13 301.623 138.33 301.75C138.143 301.777 137.943 301.797 137.73 301.81C137.523 301.823 137.353 301.83 137.22 301.83L133.49 301.83L133.49 307L131.4 307ZM133.49 299.85L137.14 299.85C137.273 299.85 137.42 299.843 137.58 299.83C137.747 299.817 137.903 299.793 138.05 299.76C138.477 299.66 138.82 299.477 139.08 299.21C139.34 298.937 139.527 298.623 139.64 298.27C139.753 297.917 139.81 297.563 139.81 297.21C139.81 296.857 139.753 296.507 139.64 296.16C139.527 295.807 139.34 295.497 139.08 295.23C138.82 294.957 138.477 294.77 138.05 294.67C137.903 294.63 137.747 294.603 137.58 294.59C137.42 294.577 137.273 294.57 137.14 294.57L133.49 294.57L133.49 299.85ZM146.657 307.3C145.857 307.3 145.187 307.153 144.647 306.86C144.107 306.56 143.697 306.167 143.417 305.68C143.144 305.187 143.007 304.647 143.007 304.06C143.007 303.513 143.104 303.033 143.297 302.62C143.49 302.207 143.777 301.857 144.157 301.57C144.537 301.277 145.004 301.04 145.557 300.86C146.037 300.72 146.58 300.597 147.187 300.49C147.794 300.383 148.43 300.283 149.097 300.19C149.77 300.097 150.437 300.003 151.097 299.91L150.337 300.33C150.35 299.483 150.17 298.857 149.797 298.45C149.43 298.037 148.797 297.83 147.897 297.83C147.33 297.83 146.81 297.963 146.337 298.23C145.864 298.49 145.534 298.923 145.347 299.53L143.397 298.93C143.664 298.003 144.17 297.267 144.917 296.72C145.67 296.173 146.67 295.9 147.917 295.9C148.884 295.9 149.724 296.067 150.437 296.4C151.157 296.727 151.684 297.247 152.017 297.96C152.19 298.313 152.297 298.687 152.337 299.08C152.377 299.473 152.397 299.897 152.397 300.35L152.397 307L150.547 307L150.547 304.53L150.907 304.85C150.46 305.677 149.89 306.293 149.197 306.7C148.51 307.1 147.664 307.3 146.657 307.3ZM147.027 305.59C147.62 305.59 148.13 305.487 148.557 305.28C148.984 305.067 149.327 304.797 149.587 304.47C149.847 304.143 150.017 303.803 150.097 303.45C150.21 303.13 150.274 302.77 150.287 302.37C150.307 301.97 150.317 301.65 150.317 301.41L150.997 301.66C150.337 301.76 149.737 301.85 149.197 301.93C148.657 302.01 148.167 302.09 147.727 302.17C147.294 302.243 146.907 302.333 146.567 302.44C146.28 302.54 146.024 302.66 145.797 302.8C145.577 302.94 145.4 303.11 145.267 303.31C145.14 303.51 145.077 303.753 145.077 304.04C145.077 304.32 145.147 304.58 145.287 304.82C145.427 305.053 145.64 305.24 145.927 305.38C146.214 305.52 146.58 305.59 147.027 305.59ZM155.848 311.8L157.938 306.11L157.968 307.79L153.258 296.2L155.438 296.2L158.958 305.15L158.318 305.15L161.678 296.2L163.798 296.2L157.838 311.8L155.848 311.8ZM165.365 307L165.365 292.6L171.185 292.6C171.325 292.6 171.498 292.607 171.705 292.62C171.912 292.627 172.108 292.647 172.295 292.68C173.095 292.807 173.762 293.08 174.295 293.5C174.835 293.92 175.238 294.45 175.505 295.09C175.772 295.73 175.905 296.437 175.905 297.21C175.905 297.99 175.772 298.7 175.505 299.34C175.238 299.98 174.835 300.51 174.295 300.93C173.762 301.35 173.095 301.623 172.295 301.75C172.108 301.777 171.908 301.797 171.695 301.81C171.488 301.823 171.318 301.83 171.185 301.83L167.455 301.83L167.455 307L165.365 307ZM167.455 299.85L171.105 299.85C171.238 299.85 171.385 299.843 171.545 299.83C171.712 299.817 171.868 299.793 172.015 299.76C172.442 299.66 172.785 299.477 173.045 299.21C173.305 298.937 173.492 298.623 173.605 298.27C173.718 297.917 173.775 297.563 173.775 297.21C173.775 296.857 173.718 296.507 173.605 296.16C173.492 295.807 173.305 295.497 173.045 295.23C172.785 294.957 172.442 294.77 172.015 294.67C171.868 294.63 171.712 294.603 171.545 294.59C171.385 294.577 171.238 294.57 171.105 294.57L167.455 294.57L167.455 299.85ZM180.622 307.3C179.822 307.3 179.152 307.153 178.612 306.86C178.072 306.56 177.662 306.167 177.382 305.68C177.109 305.187 176.972 304.647 176.972 304.06C176.972 303.513 177.069 303.033 177.262 302.62C177.455 302.207 177.742 301.857 178.122 301.57C178.502 301.277 178.969 301.04 179.522 300.86C180.002 300.72 180.545 300.597 181.152 300.49C181.759 300.383 182.395 300.283 183.062 300.19C183.735 300.097 184.402 300.003 185.062 299.91L184.302 300.33C184.315 299.483 184.135 298.857 183.762 298.45C183.395 298.037 182.762 297.83 181.862 297.83C181.295 297.83 180.775 297.963 180.302 298.23C179.829 298.49 179.499 298.923 179.312 299.53L177.362 298.93C177.629 298.003 178.135 297.267 178.882 296.72C179.635 296.173 180.635 295.9 181.882 295.9C182.849 295.9 183.689 296.067 184.402 296.4C185.122 296.727 185.649 297.247 185.982 297.96C186.155 298.313 186.262 298.687 186.302 299.08C186.342 299.473 186.362 299.897 186.362 300.35L186.362 307L184.512 307L184.512 304.53L184.872 304.85C184.425 305.677 183.855 306.293 183.162 306.7C182.475 307.1 181.629 307.3 180.622 307.3ZM180.992 305.59C181.585 305.59 182.095 305.487 182.522 305.28C182.949 305.067 183.292 304.797 183.552 304.47C183.812 304.143 183.982 303.803 184.062 303.45C184.175 303.13 184.239 302.77 184.252 302.37C184.272 301.97 184.282 301.65 184.282 301.41L184.962 301.66C184.302 301.76 183.702 301.85 183.162 301.93C182.622 302.01 182.132 302.09 181.692 302.17C181.259 302.243 180.872 302.333 180.532 302.44C180.245 302.54 179.989 302.66 179.762 302.8C179.542 302.94 179.365 303.11 179.232 303.31C179.105 303.51 179.042 303.753 179.042 304.04C179.042 304.32 179.112 304.58 179.252 304.82C179.392 305.053 179.605 305.24 179.892 305.38C180.179 305.52 180.545 305.59 180.992 305.59ZM189.159 307L189.159 292.3L191.249 292.3L191.249 307L189.159 307Z" fill="#1F2937"/>
<path d="M131.409 322.364L133.091 322.364L137.045 332.023L137.182 332.023L141.136 322.364L142.818 322.364L142.818 334L141.5 334L141.5 325.159L141.386 325.159L137.75 334L136.477 334L132.841 325.159L132.727 325.159L132.727 334L131.409 334L131.409 322.364ZM149.007 334.182C148.219 334.182 147.528 333.994 146.933 333.619C146.342 333.244 145.88 332.72 145.547 332.045C145.217 331.371 145.053 330.583 145.053 329.682C145.053 328.773 145.217 327.979 145.547 327.301C145.88 326.623 146.342 326.097 146.933 325.722C147.528 325.347 148.219 325.159 149.007 325.159C149.795 325.159 150.484 325.347 151.075 325.722C151.67 326.097 152.132 326.623 152.462 327.301C152.795 327.979 152.962 328.773 152.962 329.682C152.962 330.583 152.795 331.371 152.462 332.045C152.132 332.72 151.67 333.244 151.075 333.619C150.484 333.994 149.795 334.182 149.007 334.182ZM149.007 332.977C149.606 332.977 150.098 332.824 150.484 332.517C150.871 332.21 151.157 331.807 151.342 331.307C151.528 330.807 151.621 330.265 151.621 329.682C151.621 329.098 151.528 328.555 151.342 328.051C151.157 327.547 150.871 327.14 150.484 326.83C150.098 326.519 149.606 326.364 149.007 326.364C148.409 326.364 147.916 326.519 147.53 326.83C147.143 327.14 146.857 327.547 146.672 328.051C146.486 328.555 146.393 329.098 146.393 329.682C146.393 330.265 146.486 330.807 146.672 331.307C146.857 331.807 147.143 332.21 147.53 332.517C147.916 332.824 148.409 332.977 149.007 332.977ZM156.349 328.75L156.349 334L155.009 334L155.009 325.273L156.304 325.273L156.304 326.636L156.418 326.636C156.622 326.193 156.933 325.837 157.349 325.568C157.766 325.295 158.304 325.159 158.963 325.159C159.554 325.159 160.071 325.28 160.514 325.523C160.957 325.761 161.302 326.125 161.548 326.614C161.795 327.098 161.918 327.712 161.918 328.455L161.918 334L160.577 334L160.577 328.545C160.577 327.86 160.399 327.326 160.043 326.943C159.687 326.557 159.198 326.364 158.577 326.364C158.149 326.364 157.766 326.456 157.429 326.642C157.096 326.828 156.832 327.098 156.639 327.455C156.446 327.811 156.349 328.242 156.349 328.75ZM168.027 334.182C167.186 334.182 166.461 333.996 165.851 333.625C165.245 333.25 164.777 332.727 164.447 332.057C164.122 331.383 163.959 330.598 163.959 329.705C163.959 328.811 164.122 328.023 164.447 327.341C164.777 326.655 165.235 326.121 165.822 325.739C166.413 325.352 167.103 325.159 167.891 325.159C168.345 325.159 168.794 325.235 169.237 325.386C169.68 325.538 170.084 325.784 170.447 326.125C170.811 326.462 171.101 326.909 171.317 327.466C171.533 328.023 171.641 328.708 171.641 329.523L171.641 330.091L164.913 330.091L164.913 328.932L170.277 328.932C170.277 328.439 170.179 328 169.982 327.614C169.788 327.227 169.512 326.922 169.152 326.699C168.796 326.475 168.375 326.364 167.891 326.364C167.357 326.364 166.894 326.496 166.504 326.761C166.118 327.023 165.821 327.364 165.612 327.784C165.404 328.205 165.3 328.655 165.3 329.136L165.3 329.909C165.3 330.568 165.413 331.127 165.641 331.585C165.872 332.04 166.192 332.386 166.601 332.625C167.01 332.86 167.485 332.977 168.027 332.977C168.379 332.977 168.697 332.928 168.982 332.83C169.269 332.727 169.518 332.576 169.726 332.375C169.934 332.17 170.095 331.917 170.209 331.614L171.504 331.977C171.368 332.417 171.139 332.803 170.817 333.136C170.495 333.466 170.097 333.723 169.624 333.909C169.15 334.091 168.618 334.182 168.027 334.182ZM174.278 337.273C174.051 337.273 173.848 337.254 173.67 337.216C173.492 337.182 173.369 337.148 173.301 337.114L173.642 335.932C173.968 336.015 174.256 336.045 174.506 336.023C174.756 336 174.977 335.888 175.17 335.688C175.367 335.491 175.547 335.17 175.71 334.727L175.96 334.045L172.733 325.273L174.187 325.273L176.597 332.227L176.687 332.227L179.097 325.273L180.551 325.273L176.847 335.273C176.68 335.723 176.473 336.097 176.227 336.392C175.981 336.691 175.695 336.913 175.369 337.057C175.047 337.201 174.684 337.273 174.278 337.273ZM186.366 323.614L186.366 322.364L195.094 322.364L195.094 323.614L191.435 323.614L191.435 334L190.026 334L190.026 323.614L186.366 323.614ZM196.18 334L196.18 325.273L197.476 325.273L197.476 326.591L197.567 326.591C197.726 326.159 198.014 325.809 198.43 325.54C198.847 325.271 199.317 325.136 199.839 325.136C199.938 325.136 200.061 325.138 200.209 325.142C200.357 325.146 200.468 325.152 200.544 325.159L200.544 326.523C200.499 326.511 200.394 326.494 200.232 326.472C200.072 326.445 199.904 326.432 199.726 326.432C199.302 326.432 198.923 326.521 198.589 326.699C198.26 326.873 197.999 327.116 197.805 327.426C197.616 327.733 197.521 328.083 197.521 328.477L197.521 334L196.18 334ZM204.702 334.205C204.149 334.205 203.647 334.1 203.196 333.892C202.745 333.68 202.387 333.375 202.122 332.977C201.857 332.576 201.724 332.091 201.724 331.523C201.724 331.023 201.823 330.617 202.02 330.307C202.217 329.992 202.48 329.746 202.81 329.568C203.139 329.39 203.503 329.258 203.901 329.17C204.302 329.08 204.705 329.008 205.111 328.955C205.641 328.886 206.071 328.835 206.401 328.801C206.734 328.763 206.976 328.701 207.128 328.614C207.283 328.527 207.361 328.375 207.361 328.159L207.361 328.114C207.361 327.553 207.207 327.117 206.901 326.807C206.598 326.496 206.137 326.341 205.52 326.341C204.88 326.341 204.378 326.481 204.014 326.761C203.651 327.042 203.395 327.341 203.247 327.659L201.974 327.205C202.202 326.674 202.505 326.261 202.884 325.966C203.266 325.667 203.683 325.458 204.134 325.341C204.588 325.22 205.035 325.159 205.474 325.159C205.755 325.159 206.077 325.193 206.44 325.261C206.808 325.326 207.162 325.46 207.503 325.665C207.848 325.869 208.134 326.178 208.361 326.591C208.588 327.004 208.702 327.557 208.702 328.25L208.702 334L207.361 334L207.361 332.818L207.293 332.818C207.202 333.008 207.05 333.21 206.838 333.426C206.626 333.642 206.344 333.826 205.991 333.977C205.639 334.129 205.209 334.205 204.702 334.205ZM204.906 333C205.437 333 205.884 332.896 206.247 332.688C206.615 332.479 206.891 332.21 207.077 331.881C207.266 331.551 207.361 331.205 207.361 330.841L207.361 329.614C207.304 329.682 207.179 329.744 206.986 329.801C206.796 329.854 206.577 329.902 206.327 329.943C206.08 329.981 205.84 330.015 205.605 330.045C205.374 330.072 205.187 330.095 205.043 330.114C204.694 330.159 204.368 330.233 204.065 330.335C203.766 330.434 203.524 330.583 203.338 330.784C203.156 330.981 203.065 331.25 203.065 331.591C203.065 332.057 203.238 332.409 203.582 332.648C203.931 332.883 204.372 333 204.906 333ZM212.49 328.75L212.49 334L211.149 334L211.149 325.273L212.445 325.273L212.445 326.636L212.558 326.636C212.763 326.193 213.073 325.837 213.49 325.568C213.907 325.295 214.445 325.159 215.104 325.159C215.695 325.159 216.212 325.28 216.655 325.523C217.098 325.761 217.443 326.125 217.689 326.614C217.935 327.098 218.058 327.712 218.058 328.455L218.058 334L216.717 334L216.717 328.545C216.717 327.86 216.539 327.326 216.183 326.943C215.827 326.557 215.339 326.364 214.717 326.364C214.289 326.364 213.907 326.456 213.57 326.642C213.236 326.828 212.973 327.098 212.78 327.455C212.587 327.811 212.49 328.242 212.49 328.75ZM226.69 327.227L225.486 327.568C225.41 327.367 225.298 327.172 225.151 326.983C225.007 326.79 224.81 326.631 224.56 326.506C224.31 326.381 223.99 326.318 223.599 326.318C223.065 326.318 222.62 326.441 222.264 326.688C221.912 326.93 221.736 327.239 221.736 327.614C221.736 327.947 221.857 328.21 222.099 328.403C222.342 328.597 222.721 328.758 223.236 328.886L224.531 329.205C225.312 329.394 225.893 329.684 226.276 330.074C226.658 330.46 226.849 330.958 226.849 331.568C226.849 332.068 226.705 332.515 226.418 332.909C226.134 333.303 225.736 333.614 225.224 333.841C224.713 334.068 224.118 334.182 223.44 334.182C222.55 334.182 221.813 333.989 221.23 333.602C220.647 333.216 220.277 332.652 220.122 331.909L221.395 331.591C221.516 332.061 221.745 332.413 222.082 332.648C222.423 332.883 222.868 333 223.418 333C224.043 333 224.539 332.867 224.906 332.602C225.277 332.333 225.463 332.011 225.463 331.636C225.463 331.333 225.357 331.08 225.145 330.875C224.933 330.667 224.607 330.511 224.168 330.409L222.713 330.068C221.914 329.879 221.327 329.585 220.952 329.188C220.58 328.786 220.395 328.284 220.395 327.682C220.395 327.189 220.533 326.754 220.81 326.375C221.09 325.996 221.471 325.699 221.952 325.483C222.437 325.267 222.986 325.159 223.599 325.159C224.463 325.159 225.141 325.348 225.634 325.727C226.13 326.106 226.482 326.606 226.69 327.227ZM232.754 325.273L232.754 326.409L228.05 326.409L228.05 325.273L232.754 325.273ZM229.459 334L229.459 324.068C229.459 323.568 229.576 323.152 229.811 322.818C230.046 322.485 230.351 322.235 230.726 322.068C231.101 321.902 231.497 321.818 231.913 321.818C232.243 321.818 232.512 321.845 232.72 321.898C232.929 321.951 233.084 322 233.186 322.045L232.8 323.205C232.732 323.182 232.637 323.153 232.516 323.119C232.398 323.085 232.243 323.068 232.05 323.068C231.607 323.068 231.286 323.18 231.089 323.403C230.896 323.627 230.8 323.955 230.8 324.386L230.8 334L229.459 334ZM237.933 334.182C237.092 334.182 236.367 333.996 235.757 333.625C235.151 333.25 234.683 332.727 234.354 332.057C234.028 331.383 233.865 330.598 233.865 329.705C233.865 328.811 234.028 328.023 234.354 327.341C234.683 326.655 235.142 326.121 235.729 325.739C236.32 325.352 237.009 325.159 237.797 325.159C238.251 325.159 238.7 325.235 239.143 325.386C239.587 325.538 239.99 325.784 240.354 326.125C240.717 326.462 241.007 326.909 241.223 327.466C241.439 328.023 241.547 328.708 241.547 329.523L241.547 330.091L234.82 330.091L234.82 328.932L240.183 328.932C240.183 328.439 240.085 328 239.888 327.614C239.695 327.227 239.418 326.922 239.058 326.699C238.702 326.475 238.282 326.364 237.797 326.364C237.263 326.364 236.801 326.496 236.411 326.761C236.024 327.023 235.727 327.364 235.518 327.784C235.31 328.205 235.206 328.655 235.206 329.136L235.206 329.909C235.206 330.568 235.32 331.127 235.547 331.585C235.778 332.04 236.098 332.386 236.507 332.625C236.916 332.86 237.392 332.977 237.933 332.977C238.286 332.977 238.604 332.928 238.888 332.83C239.176 332.727 239.424 332.576 239.632 332.375C239.84 332.17 240.001 331.917 240.115 331.614L241.411 331.977C241.274 332.417 241.045 332.803 240.723 333.136C240.401 333.466 240.003 333.723 239.53 333.909C239.056 334.091 238.524 334.182 237.933 334.182ZM243.587 334L243.587 325.273L244.882 325.273L244.882 326.591L244.973 326.591C245.132 326.159 245.42 325.809 245.837 325.54C246.253 325.271 246.723 325.136 247.246 325.136C247.344 325.136 247.467 325.138 247.615 325.142C247.763 325.146 247.875 325.152 247.95 325.159L247.95 326.523C247.905 326.511 247.801 326.494 247.638 326.472C247.479 326.445 247.31 326.432 247.132 326.432C246.708 326.432 246.329 326.521 245.996 326.699C245.666 326.873 245.405 327.116 245.212 327.426C245.022 327.733 244.928 328.083 244.928 328.477L244.928 334L243.587 334Z" fill="#1F2937"/>
<path d="M439.08 313.577L439.08 312.065L444.48 312.065L444.48 313.577L439.08 313.577ZM449.725 318.743C449.083 318.743 448.48 318.623 447.916 318.383C447.352 318.137 446.863 317.789 446.449 317.339C446.041 316.889 445.744 316.358 445.558 315.746L447.376 315.242C447.55 315.8 447.853 316.229 448.285 316.529C448.717 316.823 449.197 316.967 449.725 316.961C450.199 316.955 450.616 316.844 450.976 316.628C451.336 316.412 451.618 316.121 451.822 315.755C452.026 315.383 452.128 314.957 452.128 314.477C452.128 313.757 451.903 313.163 451.453 312.695C451.009 312.227 450.427 311.993 449.707 311.993C449.503 311.993 449.293 312.023 449.077 312.083C448.867 312.143 448.669 312.221 448.483 312.317L447.601 310.832L452.173 306.791L452.371 307.331L446.071 307.331L446.071 305.54L453.865 305.54L453.865 307.331L450.067 310.985L450.049 310.373C450.865 310.373 451.573 310.556 452.173 310.922C452.773 311.282 453.235 311.774 453.559 312.398C453.889 313.016 454.054 313.709 454.054 314.477C454.054 315.305 453.859 316.04 453.469 316.682C453.085 317.324 452.566 317.828 451.912 318.194C451.264 318.56 450.535 318.743 449.725 318.743ZM456.039 318.491L456.048 316.817L461.691 311.759C462.147 311.357 462.456 310.973 462.618 310.607C462.786 310.241 462.87 309.875 462.87 309.509C462.87 309.047 462.768 308.633 462.564 308.267C462.36 307.895 462.078 307.601 461.718 307.385C461.358 307.169 460.944 307.061 460.476 307.061C459.996 307.061 459.567 307.175 459.189 307.403C458.817 307.625 458.526 307.922 458.316 308.294C458.106 308.666 458.004 309.068 458.01 309.5L456.084 309.5C456.084 308.66 456.273 307.925 456.651 307.295C457.035 306.659 457.56 306.164 458.226 305.81C458.892 305.45 459.654 305.27 460.512 305.27C461.328 305.27 462.06 305.456 462.708 305.828C463.356 306.194 463.866 306.698 464.238 307.34C464.616 307.982 464.805 308.714 464.805 309.536C464.805 310.13 464.727 310.634 464.571 311.048C464.415 311.462 464.181 311.846 463.869 312.2C463.557 312.554 463.167 312.938 462.699 313.352L458.343 317.24L458.136 316.7L464.805 316.7L464.805 318.491L456.039 318.491ZM471.481 318.77C470.599 318.77 469.819 318.578 469.141 318.194C468.463 317.804 467.929 317.27 467.539 316.592C467.155 315.914 466.963 315.134 466.963 314.252L466.963 309.788C466.963 308.906 467.155 308.126 467.539 307.448C467.929 306.77 468.463 306.239 469.141 305.855C469.819 305.465 470.599 305.27 471.481 305.27C472.363 305.27 473.143 305.465 473.821 305.855C474.499 306.239 475.03 306.77 475.414 307.448C475.804 308.126 475.999 308.906 475.999 309.788L475.999 314.252C475.999 315.134 475.804 315.914 475.414 316.592C475.03 317.27 474.499 317.804 473.821 318.194C473.143 318.578 472.363 318.77 471.481 318.77ZM471.481 316.97C471.961 316.97 472.396 316.856 472.786 316.628C473.182 316.394 473.497 316.082 473.731 315.692C473.965 315.296 474.082 314.855 474.082 314.369L474.082 309.653C474.082 309.173 473.965 308.738 473.731 308.348C473.497 307.952 473.182 307.64 472.786 307.412C472.396 307.178 471.961 307.061 471.481 307.061C471.001 307.061 470.563 307.178 470.167 307.412C469.777 307.64 469.465 307.952 469.231 308.348C468.997 308.738 468.88 309.173 468.88 309.653L468.88 314.369C468.88 314.855 468.997 315.296 469.231 315.692C469.465 316.082 469.777 316.394 470.167 316.628C470.563 316.856 471.001 316.97 471.481 316.97ZM478.836 318.5L478.836 316.511L480.825 316.511L480.825 318.5L478.836 318.5ZM488.18 318.77C487.298 318.77 486.518 318.578 485.84 318.194C485.162 317.804 484.628 317.27 484.238 316.592C483.854 315.914 483.662 315.134 483.662 314.252L483.662 309.788C483.662 308.906 483.854 308.126 484.238 307.448C484.628 306.77 485.162 306.239 485.84 305.855C486.518 305.465 487.298 305.27 488.18 305.27C489.062 305.27 489.842 305.465 490.52 305.855C491.198 306.239 491.729 306.77 492.113 307.448C492.503 308.126 492.698 308.906 492.698 309.788L492.698 314.252C492.698 315.134 492.503 315.914 492.113 316.592C491.729 317.27 491.198 317.804 490.52 318.194C489.842 318.578 489.062 318.77 488.18 318.77ZM488.18 316.97C488.66 316.97 489.095 316.856 489.485 316.628C489.881 316.394 490.196 316.082 490.43 315.692C490.664 315.296 490.781 314.855 490.781 314.369L490.781 309.653C490.781 309.173 490.664 308.738 490.43 308.348C490.196 307.952 489.881 307.64 489.485 307.412C489.095 307.178 488.66 307.061 488.18 307.061C487.7 307.061 487.262 307.178 486.866 307.412C486.476 307.64 486.164 307.952 485.93 308.348C485.696 308.738 485.579 309.173 485.579 309.653L485.579 314.369C485.579 314.855 485.696 315.296 485.93 315.692C486.164 316.082 486.476 316.394 486.866 316.628C487.262 316.856 487.7 316.97 488.18 316.97ZM499.729 318.77C498.847 318.77 498.067 318.578 497.389 318.194C496.711 317.804 496.177 317.27 495.787 316.592C495.403 315.914 495.211 315.134 495.211 314.252L495.211 309.788C495.211 308.906 495.403 308.126 495.787 307.448C496.177 306.77 496.711 306.239 497.389 305.855C498.067 305.465 498.847 305.27 499.729 305.27C500.611 305.27 501.391 305.465 502.069 305.855C502.747 306.239 503.278 306.77 503.662 307.448C504.052 308.126 504.247 308.906 504.247 309.788L504.247 314.252C504.247 315.134 504.052 315.914 503.662 316.592C503.278 317.27 502.747 317.804 502.069 318.194C501.391 318.578 500.611 318.77 499.729 318.77ZM499.729 316.97C500.209 316.97 500.644 316.856 501.034 316.628C501.43 316.394 501.745 316.082 501.979 315.692C502.213 315.296 502.33 314.855 502.33 314.369L502.33 309.653C502.33 309.173 502.213 308.738 501.979 308.348C501.745 307.952 501.43 307.64 501.034 307.412C500.644 307.178 500.209 307.061 499.729 307.061C499.249 307.061 498.811 307.178 498.415 307.412C498.025 307.64 497.713 307.952 497.479 308.348C497.245 308.738 497.128 309.173 497.128 309.653L497.128 314.369C497.128 314.855 497.245 315.296 497.479 315.692C497.713 316.082 498.025 316.394 498.415 316.628C498.811 316.856 499.249 316.97 499.729 316.97Z" fill="#1F2937"/>
</svg>
