<svg width="28" height="22" viewBox="0 0 28 22" fill="none" xmlns="http://www.w3.org/2000/svg">
<path d="M1 5.71094V2.71094C1 1.60634 1.89543 0.710938 3 0.710938H12M1 14.7109V18.7109C1 19.8155 1.89543 20.7109 3 20.7109H12" stroke="#1F2937" stroke-linecap="round" stroke-linejoin="round"/>
<path d="M27 15.7109V18.7109C27 19.8155 26.1046 20.7109 25 20.7109H16M27 6.71094V2.71094C27 1.60634 26.1046 0.710938 25 0.710938H16" stroke="#1F2937" stroke-linecap="round" stroke-linejoin="round"/>
<path d="M9.76172 11.3223L6.19922 14.8848L9.76172 18.4473" stroke="#1F2937" stroke-linecap="round" stroke-linejoin="round"/>
<path d="M6.19922 14.8887H13.1263" stroke="#1F2937" stroke-linecap="round" stroke-linejoin="round"/>
<path d="M17.6758 8.15625L21.2383 11.7188L17.6758 15.2813" stroke="#1F2937" stroke-linecap="round" stroke-linejoin="round"/>
<path d="M21.2396 11.7227H14.3125" stroke="#1F2937" stroke-linecap="round" stroke-linejoin="round"/>
<path d="M6 10.5313V4H21.4375V6.96875" stroke="#1F2937" stroke-linecap="round" stroke-linejoin="round"/>
</svg>
