<svg width="28" height="22" viewBox="0 0 28 22" fill="none" xmlns="http://www.w3.org/2000/svg">
<path d="M1 5.71094V2.71094C1 1.60634 1.89543 0.710938 3 0.710938H12M1 14.7109V18.7109C1 19.8155 1.89543 20.7109 3 20.7109H12" stroke="#1F2937" stroke-linecap="round" stroke-linejoin="round"/>
<path d="M27 15.7109V18.7109C27 19.8155 26.1046 20.7109 25 20.7109H16M27 6.71094V2.71094C27 1.60634 26.1046 0.710938 25 0.710938H16" stroke="#1F2937" stroke-linecap="round" stroke-linejoin="round"/>
<path d="M21.9913 9.40801C22.056 8.9485 21.7513 8.52136 21.3108 8.45391L16.7576 7.75965L14.723 3.43488C14.6497 3.30296 14.5446 3.1934 14.418 3.11714C14.0184 2.87623 13.5071 3.01881 13.2761 3.4357L11.2423 7.75965L6.68911 8.45396C6.51504 8.48058 6.35414 8.56593 6.23086 8.69687C5.91895 9.02825 5.92372 9.56064 6.24143 9.88598L9.53886 13.258L8.76073 18.0177C8.75335 18.0632 8.74956 18.1093 8.74946 18.1556C8.74824 18.6207 9.10868 18.9987 9.55459 19C9.68604 18.9998 9.81546 18.966 9.93147 18.9015L13.9999 16.6579L18.0676 18.9007C18.2248 18.9877 18.4052 19.0181 18.5807 18.9869C19.0191 18.9089 19.3139 18.475 19.2392 18.0177L18.461 13.258L21.7592 9.8851C21.8843 9.75667 21.9658 9.58916 21.9913 9.40801ZM17.7466 12.8115C17.6523 12.908 17.6091 13.0465 17.631 13.1824L18.4445 18.158L14.188 15.8109C14.0701 15.7469 13.9298 15.7469 13.8119 15.8109L9.55538 18.1588L10.3689 13.1825C10.3908 13.0466 10.3476 12.9081 10.2532 12.8116L6.80551 9.28609L11.5687 8.55982C11.7003 8.53931 11.8138 8.45283 11.8725 8.3284L13.9999 3.80591L16.1274 8.32835C16.1861 8.45278 16.2996 8.53926 16.4311 8.55977L21.1951 9.28522L17.7466 12.8115Z" fill="#1F2937"/>
</svg>
