<svg width="209" height="139" viewBox="0 0 209 139" fill="none" xmlns="http://www.w3.org/2000/svg">
<rect y="132.5" width="24" height="6" rx="3" fill="#E7EBED"/>
<rect x="46" y="132.5" width="24" height="6" rx="3" fill="#E7EBED"/>
<rect x="92" y="132.5" width="24" height="6" rx="3" fill="#E7EBED"/>
<rect x="138" y="132.5" width="24" height="6" rx="3" fill="#E7EBED"/>
<rect x="184" y="132.5" width="24" height="6" rx="3" fill="#E7EBED"/>
<line opacity="0.2" x1="0.5" y1="88" x2="208.5" y2="88" stroke="#4B5563" strokeLinecap="round"/>
<line opacity="0.2" x1="0.5" y1="60" x2="208.5" y2="60" stroke="#4B5563" strokeLinecap="round"/>
<line opacity="0.2" x1="0.5" y1="32" x2="208.5" y2="32" stroke="#4B5563" strokeLinecap="round"/>
<line opacity="0.2" x1="0.5" y1="4" x2="208.5" y2="4" stroke="#4B5563" strokeLinecap="round"/>
<line opacity="0.2" x1="0.5" y1="116" x2="208.5" y2="116" stroke="#4B5563" strokeLinecap="round"/>
<rect x="1" y="37.5" width="16" height="78" fill="#315266"/>
<rect x="129" y="18.5" width="16" height="97" fill="#315266"/>
<rect x="65" y="60.5" width="16" height="55" fill="#315266"/>
<rect x="193" y="42.5" width="16" height="73" fill="#315266"/>
<rect x="97" y="48.5" width="16" height="67" fill="#619ABC"/>
<rect x="33" y="62.5" width="16" height="53" fill="#619ABC"/>
<rect x="161" y="29.5" width="16" height="86" fill="#619ABC"/>
<path d="M1.5 34.0001C13.6308 2.58131 25.1416 62.5001 40.5 62.5001C53.8552 62.5001 58.4804 39.0488 70.5 39.0488C78.5131 39.0488 84.0196 49.0897 93 49.0001C101.98 48.9105 98 32.5001 113.5 47.5001C128.377 61.8974 124.314 1.52173 137.002 1.52173C147.018 1.52173 143.011 26.7672 158.37 26.7672C170.389 26.7672 172.393 8.34484 183.077 8.34484C195.764 8.34484 187.083 39.0488 206.448 39.0488" stroke="#619ABC" strokeWidth="2" strokeLinecap="round" strokeLinejoin="round"/>
</svg>
