<svg width="28" height="22" viewBox="0 0 28 22" fill="none" xmlns="http://www.w3.org/2000/svg">
<path d="M1 5.71094V2.71094C1 1.60634 1.89543 0.710938 3 0.710938H12M1 14.7109V18.7109C1 19.8155 1.89543 20.7109 3 20.7109H12" stroke="#1F2937" stroke-linecap="round" stroke-linejoin="round"/>
<path d="M27 15.7109V18.7109C27 19.8155 26.1046 20.7109 25 20.7109H16M27 6.71094V2.71094C27 1.60634 26.1046 0.710938 25 0.710938H16" stroke="#1F2937" stroke-linecap="round" stroke-linejoin="round"/>
<g clip-path="url(#clip0_138_1449)">
<path fill-rule="evenodd" clip-rule="evenodd" d="M14.4998 17.5834C16.4559 17.5834 18.2267 16.7905 19.5085 15.5087C20.7903 14.2269 21.5832 12.456 21.5832 10.5C21.5832 8.54403 20.7903 6.7732 19.5085 5.49135C18.2267 4.20952 16.4559 3.41669 14.4998 3.41669C12.5438 3.41669 10.773 4.20952 9.49117 5.49135C8.20933 6.7732 7.4165 8.54403 7.4165 10.5C7.4165 12.456 8.20933 14.2269 9.49117 15.5087C10.773 16.7905 12.5438 17.5834 14.4998 17.5834Z" stroke="#1F2937" stroke-linecap="round"/>
<path d="M14.4998 15.4583C13.1306 15.4583 11.891 14.9033 10.9938 14.0061C10.0965 13.1088 9.5415 11.8692 9.5415 10.5" stroke="#1F2937" stroke-linecap="round"/>
</g>
<defs>
<clipPath id="clip0_138_1449">
<rect width="17" height="17" fill="white" transform="translate(6 2)"/>
</clipPath>
</defs>
</svg>
