<svg width="28" height="22" viewBox="0 0 28 22" fill="none" xmlns="http://www.w3.org/2000/svg">
<path d="M1 5.71094V2.71094C1 1.60634 1.89543 0.710938 3 0.710938H12M1 14.7109V18.7109C1 19.8155 1.89543 20.7109 3 20.7109H12" stroke="#1F2937" stroke-linecap="round" stroke-linejoin="round"/>
<path d="M27 15.7109V18.7109C27 19.8155 26.1046 20.7109 25 20.7109H16M27 6.71094V2.71094C27 1.60634 26.1046 0.710938 25 0.710938H16" stroke="#1F2937" stroke-linecap="round" stroke-linejoin="round"/>
<path d="M16.1118 3.5H13.2471V12.125H21.4971V9.86116" stroke="#1F2937" stroke-linecap="round" stroke-linejoin="round"/>
<path d="M15.875 6.87613L17.5863 8.54169L21.8745 4.25" stroke="#1F2937" stroke-linecap="round" stroke-linejoin="round"/>
<path d="M16.2529 18.5001C13.8793 18.5001 12.3359 18.5001 11.6228 18.5001C10.9845 18.5001 10.2196 18.2871 9.7064 17.6049C9.35968 17.1439 9.12793 16.4687 9.12793 15.5001C9.12793 13.8989 9.12793 12.5238 9.12793 11.375" stroke="#1F2937" stroke-linecap="round"/>
<path d="M6.125 14.3751L9.12672 11.375L12.1302 14.3751" stroke="#1F2937" stroke-linecap="round" stroke-linejoin="round"/>
</svg>
