<svg width="60" height="60" viewBox="0 0 60 60" fill="none" xmlns="http://www.w3.org/2000/svg">
<circle cx="30" cy="30" r="29.5" stroke="#6D7079"/>
<path d="M43.344 21H17.3174C16.7646 21 16.3164 21.5037 16.3164 22.125V37.875C16.3164 38.4963 16.7646 39 17.3174 39H43.344C43.8968 39 44.345 38.4963 44.345 37.875V22.125C44.345 21.5037 43.8968 21 43.344 21Z" stroke="#6D7079" strokeLinecap="round" strokeLinejoin="round"/>
<path d="M30.3295 34.1127C32.5307 34.1127 34.3152 32.3858 34.3152 30.2556C34.3152 28.1253 32.5307 26.3984 30.3295 26.3984C28.1282 26.3984 26.3438 28.1253 26.3438 30.2556C26.3438 32.3858 28.1282 34.1127 30.3295 34.1127Z" stroke="#6D7079" strokeLinecap="round" strokeLinejoin="round"/>
<path d="M36.3711 21L44.3425 28.9714" stroke="#6D7079" strokeLinecap="round" strokeLinejoin="round"/>
<path d="M36.3711 38.9988L44.3425 31.0273" stroke="#6D7079" strokeLinecap="round" strokeLinejoin="round"/>
<path d="M24.2878 21L16.3164 28.9714" stroke="#6D7079" strokeLinecap="round" strokeLinejoin="round"/>
<path d="M24.2878 38.9988L16.3164 31.0273" stroke="#6D7079" strokeLinecap="round" strokeLinejoin="round"/>
</svg>
