<svg width="60" height="60" viewBox="0 0 60 60" fill="none" xmlns="http://www.w3.org/2000/svg">
<circle cx="30" cy="30" r="29.5" stroke="#6D7079"/>
<path d="M25.4401 20C25.8845 20 26.2939 20.241 26.5096 20.6295L28.006 23.3249C28.2019 23.6778 28.2111 24.1047 28.0305 24.4658L26.589 27.3489C26.589 27.3489 27.0068 29.4966 28.7551 31.2449C30.5035 32.9932 32.644 33.4037 32.644 33.4037L35.5266 31.9625C35.8879 31.7818 36.315 31.7911 36.6681 31.9874L39.3711 33.4902C39.7593 33.7061 40 34.1153 40 34.5594V37.6625C40 39.2428 38.5321 40.3842 37.0348 39.8789C33.9595 38.8413 29.1858 36.8656 26.1601 33.8398C23.1345 30.8142 21.1587 26.0405 20.121 22.9652C19.6158 21.4679 20.7572 20 22.3375 20H25.4401Z" stroke="#6D7079" stroke-linejoin="round"/>
</svg>
