<svg width="60" height="60" viewBox="0 0 60 60" fill="none" xmlns="http://www.w3.org/2000/svg">
<circle cx="30" cy="30" r="29.5" stroke="#6D7079"/>
<path d="M29.6 36.1625L34.6875 41.25L36.925 39.0125C37.0552 38.8827 37.1552 38.7258 37.2179 38.553C37.2806 38.3801 37.3043 38.1956 37.2875 38.0125L36.475 29.125" stroke="#6D7079" strokeLinecap="round" strokeLinejoin="round"/>
<path d="M26.7125 20.8875L25 22.6625M26.7125 36.825C26.8287 36.9422 26.967 37.0352 27.1193 37.0986C27.2716 37.1621 27.435 37.1947 27.6 37.1947C27.7651 37.1947 27.9284 37.1621 28.0808 37.0986C28.2331 37.0352 28.3713 36.9422 28.4875 36.825L38.375 26.9375C40.2142 25.0969 41.2482 22.602 41.25 20C41.25 19.6685 41.1184 19.3505 40.8839 19.1161C40.6495 18.8817 40.3316 18.75 40 18.75C37.3981 18.7519 34.9031 19.7858 33.0625 21.625L23.175 31.5125C23.0579 31.6287 22.9649 31.767 22.9014 31.9193C22.838 32.0716 22.8053 32.235 22.8053 32.4C22.8053 32.565 22.838 32.7284 22.9014 32.8807C22.9649 33.033 23.0579 33.1713 23.175 33.2875L26.7125 36.825ZM37.3375 35L39.1125 33.2375L37.3375 35Z" stroke="#6D7079" strokeLinecap="round" strokeLinejoin="round"/>
<path d="M30.9375 23.525L21.9875 22.7125C21.8044 22.6957 21.6199 22.7194 21.447 22.7821C21.2742 22.8448 21.1173 22.9448 20.9875 23.075L18.75 25.3125L23.8625 30.425" stroke="#6D7079" strokeLinecap="round" strokeLinejoin="round"/>
</svg>
