<svg width="40" height="41" viewBox="0 0 40 41" fill="none" xmlns="http://www.w3.org/2000/svg">
<g clip-path="url(#clip0_55_184)">
<g clip-path="url(#clip1_55_184)">
<path d="M7 15.4219V12.4219C7 11.3173 7.89543 10.4219 9 10.4219H18M7 24.4219V28.4219C7 29.5265 7.89543 30.4219 9 30.4219H18" stroke="#1F2937" strokeLinecap="round" strokeLinejoin="round"/>
<path d="M33 25.4219V28.4219C33 29.5265 32.1046 30.4219 31 30.4219H22M33 16.4219V12.4219C33 11.3173 32.1046 10.4219 31 10.4219H22" stroke="#1F2937" strokeLinecap="round" strokeLinejoin="round"/>
<path d="M10.4201 21.4231C10.2839 21.2075 10.2158 21.0997 10.1777 20.9334C10.1491 20.8085 10.1491 20.6115 10.1777 20.4865C10.2158 20.3202 10.2839 20.2124 10.4201 19.9968C11.5455 18.2148 14.8954 13.71 20.0004 13.71C25.1054 13.71 28.4553 18.2148 29.5807 19.9968C29.7169 20.2124 29.785 20.3202 29.8231 20.4865C29.8517 20.6115 29.8517 20.8085 29.8231 20.9334C29.785 21.0997 29.7169 21.2075 29.5807 21.4231C28.4553 23.2051 25.1054 27.71 20.0004 27.71C14.8954 27.71 11.5455 23.2051 10.4201 21.4231Z" stroke="#1F2937" strokeLinecap="round" strokeLinejoin="round"/>
<path d="M20.0004 23.71C21.6573 23.71 23.0004 22.3668 23.0004 20.71C23.0004 19.0531 21.6573 17.71 20.0004 17.71C18.3435 17.71 17.0004 19.0531 17.0004 20.71C17.0004 22.3668 18.3435 23.71 20.0004 23.71Z" stroke="#1F2937" strokeLinecap="round" strokeLinejoin="round"/>
</g>
</g>
<defs>
<clipPath id="clip0_55_184">
<rect width="40" height="40" fill="white" transform="translate(0 0.710938)"/>
</clipPath>
<clipPath id="clip1_55_184">
<rect width="40" height="40" fill="white" transform="translate(0 0.710938)"/>
</clipPath>
</defs>
</svg>
