<svg width="17" height="16" viewBox="0 0 17 16" fill="none" xmlns="http://www.w3.org/2000/svg">
<path fill-rule="evenodd" clip-rule="evenodd" d="M3.61454 0.785875C4.85432 0.289965 6.51562 0 8.3125 0C10.1094 0 11.7707 0.289965 13.0105 0.785875C13.6283 1.033 14.1786 1.34602 14.5867 1.73197C14.9964 2.11942 15.3125 2.63215 15.3125 3.25V8V12.75C15.3125 13.3679 14.9964 13.8806 14.5867 14.268C14.1786 14.654 13.6283 14.967 13.0105 15.2141C11.7707 15.71 10.1094 16 8.3125 16C6.51562 16 4.85432 15.71 3.61454 15.2141C2.99673 14.967 2.44644 14.654 2.03833 14.268C1.62863 13.8806 1.3125 13.3679 1.3125 12.75V8V3.25C1.3125 2.63215 1.62863 2.11942 2.03833 1.73197C2.44644 1.34602 2.99673 1.033 3.61454 0.785875ZM2.8125 5.33081V8C2.8125 8.0725 2.84615 8.21745 3.06899 8.4282C3.29341 8.64044 3.65841 8.86612 4.17163 9.07141C5.1939 9.48032 6.6576 9.75 8.3125 9.75C9.9674 9.75 11.4311 9.48032 12.4534 9.07141C12.9666 8.86612 13.3316 8.64044 13.556 8.4282C13.7789 8.21745 13.8125 8.0725 13.8125 8V5.33081C13.5643 5.47297 13.2945 5.60051 13.0105 5.71412C11.7707 6.21004 10.1094 6.5 8.3125 6.5C6.51562 6.5 4.85432 6.21004 3.61454 5.71412C3.3305 5.60051 3.06074 5.47297 2.8125 5.33081ZM13.8125 3.25C13.8125 3.3225 13.7789 3.46746 13.556 3.6782C13.3316 3.89044 12.9666 4.11612 12.4534 4.32141C11.4311 4.73032 9.9674 5 8.3125 5C6.6576 5 5.1939 4.73032 4.17163 4.32141C3.65841 4.11612 3.29341 3.89044 3.06899 3.6782C2.84615 3.46746 2.8125 3.3225 2.8125 3.25C2.8125 3.1775 2.84615 3.03254 3.06899 2.8218C3.29341 2.60956 3.65841 2.38388 4.17163 2.17859C5.1939 1.76968 6.6576 1.5 8.3125 1.5C9.9674 1.5 11.4311 1.76968 12.4534 2.17859C12.9666 2.38388 13.3316 2.60956 13.556 2.8218C13.7789 3.03254 13.8125 3.1775 13.8125 3.25ZM13.8125 10.0808C13.5643 10.223 13.2945 10.3505 13.0105 10.4641C11.7707 10.96 10.1094 11.25 8.3125 11.25C6.51562 11.25 4.85432 10.96 3.61454 10.4641C3.3305 10.3505 3.06074 10.223 2.8125 10.0808V12.75C2.8125 12.8225 2.84615 12.9675 3.06899 13.1782C3.29341 13.3904 3.65841 13.6161 4.17163 13.8214C5.1939 14.2303 6.6576 14.5 8.3125 14.5C9.9674 14.5 11.4311 14.2303 12.4534 13.8214C12.9666 13.6161 13.3316 13.3904 13.556 13.1782C13.7789 12.9675 13.8125 12.8225 13.8125 12.75V10.0808Z" fill="#666666"/>
</svg>
