<svg width="41" height="40" viewBox="0 0 41 40" fill="none" xmlns="http://www.w3.org/2000/svg">
<g clip-path="url(#clip0_55_170)">
<g clip-path="url(#clip1_55_170)">
<path d="M7 14.4219V11.4219C7 10.3173 7.89543 9.42188 9 9.42188H18M7 23.4219V27.4219C7 28.5265 7.89543 29.4219 9 29.4219H18" stroke="#1F2937" strokeLinecap="round" strokeLinejoin="round"/>
<path d="M33 24.4219V27.4219C33 28.5265 32.1046 29.4219 31 29.4219H22M33 15.4219V11.4219C33 10.3173 32.1046 9.42188 31 9.42188H22" stroke="#1F2937" strokeLinecap="round" strokeLinejoin="round"/>
<path d="M30 17.7109H10M19 26.7109L26.8 26.7109C27.9201 26.7109 28.4802 26.7109 28.908 26.493C29.2843 26.3012 29.5903 25.9952 29.782 25.6189C30 25.1911 30 24.631 30 23.5109V15.9109C30 14.7908 30 14.2308 29.782 13.803C29.5903 13.4266 29.2843 13.1207 28.908 12.9289C28.4802 12.7109 27.9201 12.7109 26.8 12.7109H25M19 26.7109L21 28.7109M19 26.7109L21 24.7109M15 26.7109H13.2C12.0799 26.7109 11.5198 26.7109 11.092 26.4929C10.7157 26.3012 10.4097 25.9952 10.218 25.6189C10 25.1911 10 24.631 10 23.5109V15.9109C10 14.7908 10 14.2308 10.218 13.803C10.4097 13.4266 10.7157 13.1207 11.092 12.9289C11.5198 12.7109 12.0799 12.7109 13.2 12.7109H21M21 12.7109L19 14.7109M21 12.7109L19 10.7109" stroke="#1F2937" strokeLinecap="round" strokeLinejoin="round"/>
</g>
</g>
<defs>
<clipPath id="clip0_55_170">
<rect width="40" height="40" fill="white" transform="translate(0.330078)"/>
</clipPath>
<clipPath id="clip1_55_170">
<rect width="40" height="40" fill="white" transform="translate(0 -0.289062)"/>
</clipPath>
</defs>
</svg>
