<svg width="40" height="41" viewBox="0 0 40 41" fill="none" xmlns="http://www.w3.org/2000/svg">
<g clip-path="url(#clip0_55_209)">
<g clip-path="url(#clip1_55_209)">
<path d="M6.66992 15.1328V12.1328C6.66992 11.0282 7.56535 10.1328 8.66992 10.1328H17.6699M6.66992 24.1328V28.1328C6.66992 29.2374 7.56535 30.1328 8.66992 30.1328H17.6699" stroke="#1F2937" strokeLinecap="round" strokeLinejoin="round"/>
<path d="M32.6699 25.1328V28.1328C32.6699 29.2374 31.7745 30.1328 30.6699 30.1328H21.6699M32.6699 16.1328V12.1328C32.6699 11.0282 31.7745 10.1328 30.6699 10.1328H21.6699" stroke="#1F2937" strokeLinecap="round" strokeLinejoin="round"/>
<path d="M20 13.586V27.836M26 20.711C26 24.3923 21.9845 27.0698 20.5235 27.9221C20.3574 28.019 20.2744 28.0674 20.1573 28.0926C20.0663 28.112 19.9337 28.112 19.8427 28.0926C19.7256 28.0674 19.6426 28.019 19.4765 27.9221C18.0155 27.0698 14 24.3923 14 20.711V17.1242C14 16.5245 14 16.2247 14.0981 15.967C14.1847 15.7393 14.3255 15.5362 14.5082 15.3751C14.7151 15.1928 14.9958 15.0875 15.5573 14.877L19.5787 13.369C19.7346 13.3105 19.8125 13.2813 19.8927 13.2697C19.9639 13.2594 20.0361 13.2594 20.1073 13.2697C20.1875 13.2813 20.2654 13.3105 20.4213 13.369L24.4427 14.877C25.0042 15.0875 25.2849 15.1928 25.4918 15.3751C25.6745 15.5362 25.8153 15.7393 25.9019 15.967C26 16.2247 26 16.5245 26 17.1242V20.711Z" stroke="#1F2937" strokeLinecap="round" strokeLinejoin="round"/>
</g>
</g>
<defs>
<clipPath id="clip0_55_209">
<rect width="40" height="40" fill="white" transform="translate(0 0.710938)"/>
</clipPath>
<clipPath id="clip1_55_209">
<rect width="40" height="40" fill="white" transform="translate(-0.330078 0.421875)"/>
</clipPath>
</defs>
</svg>
