<svg width="24" height="25" viewBox="0 0 24 25" fill="none" xmlns="http://www.w3.org/2000/svg">
<path fill-rule="evenodd" clip-rule="evenodd" d="M12 3.85179C14.743 3.85179 15.086 3.85179 16.157 3.89479C17.143 3.93679 17.7 4.10879 18.086 4.23679C18.557 4.40879 18.9 4.66579 19.286 5.00879C19.628 5.35179 19.886 5.69479 20.057 6.20879C20.186 6.55179 20.357 7.10879 20.4 8.13679C20.443 9.20879 20.443 9.55179 20.443 12.2948C20.443 15.0368 20.443 15.3798 20.4 16.4518C20.357 17.4368 20.186 17.9948 20.057 18.3798C19.886 18.8518 19.629 19.1948 19.286 19.5798C18.943 19.9228 18.6 20.1798 18.086 20.3518C17.743 20.4798 17.186 20.6518 16.157 20.6948C15.086 20.7368 14.743 20.7368 12 20.7368C9.25699 20.7368 8.91399 20.7368 7.84299 20.6948C6.85699 20.6518 6.29999 20.4798 5.91399 20.3518C5.44299 20.1798 5.09999 19.9228 4.71399 19.5798C4.37099 19.2368 4.11399 18.8948 3.94299 18.3798C3.81399 18.0368 3.64299 17.4798 3.59999 16.4518C3.55699 15.3798 3.55699 15.0368 3.55699 12.2948C3.55699 9.55179 3.55699 9.20879 3.59999 8.13679C3.64299 7.15179 3.81399 6.59479 3.94299 6.20879C4.11399 5.73679 4.37099 5.39479 4.71399 5.00879C5.05699 4.66579 5.39999 4.40879 5.91399 4.23679C6.25699 4.10879 6.81399 3.93679 7.84299 3.89479C8.91399 3.85179 9.25699 3.85179 12 3.85179ZM12 2.00879C9.21399 2.00879 8.87099 2.00879 7.75699 2.05179C6.64299 2.09479 5.91399 2.26579 5.27099 2.52279C4.58599 2.77979 4.02899 3.12279 3.42899 3.72279C2.89901 4.24196 2.48938 4.87108 2.22899 5.56579C1.97099 6.20879 1.79899 6.97979 1.75699 8.05179C1.71399 9.16579 1.71399 9.50879 1.71399 12.2948C1.71399 15.0798 1.71399 15.4228 1.75699 16.5368C1.79999 17.6518 1.97099 18.3798 2.22899 19.0228C2.48599 19.7088 2.82899 20.2658 3.42899 20.8658C3.9479 21.3956 4.57666 21.8052 5.27099 22.0658C5.91399 22.3228 6.68599 22.4948 7.75699 22.5368C8.87099 22.5798 9.21399 22.5798 12 22.5798C14.786 22.5798 15.129 22.5798 16.243 22.5368C17.357 22.4948 18.086 22.3228 18.729 22.0658C19.414 21.8088 19.971 21.4658 20.571 20.8658C21.1009 20.3466 21.5105 19.7175 21.771 19.0228C22.029 18.3798 22.2 17.6088 22.243 16.5368C22.286 15.4228 22.286 15.0798 22.286 12.2948C22.286 9.50879 22.286 9.16579 22.243 8.05179C22.2 6.93679 22.029 6.20879 21.771 5.56579C21.514 4.87979 21.171 4.32279 20.571 3.72279C20.0518 3.19281 19.4227 2.78318 18.728 2.52279C18.086 2.26579 17.314 2.09479 16.243 2.05179C15.129 2.00879 14.786 2.00879 12 2.00879ZM12 7.02279C11.3078 7.02239 10.6222 7.15843 9.98263 7.42312C9.34301 7.68781 8.76183 8.07597 8.2723 8.5654C7.78278 9.05483 7.39452 9.63594 7.1297 10.2755C6.86489 10.9151 6.72873 11.6006 6.72899 12.2928C6.72846 12.9851 6.8644 13.6707 7.12903 14.3105C7.39367 14.9502 7.7818 15.5315 8.27124 16.0211C8.76069 16.5107 9.34184 16.8991 9.98147 17.164C10.6211 17.4289 11.3067 17.5651 11.999 17.5648C12.6915 17.5654 13.3773 17.4296 14.0172 17.1649C14.6571 16.9003 15.2386 16.5121 15.7283 16.0225C16.2181 15.533 16.6065 14.9517 16.8714 14.3118C17.1362 13.672 17.2724 12.9863 17.272 12.2938C17.2724 11.6014 17.1363 10.9157 16.8715 10.276C16.6067 9.63622 16.2183 9.05494 15.7287 8.5654C15.239 8.07585 14.6577 7.68762 14.0179 7.42293C13.3781 7.15824 12.6924 7.02226 12 7.02279ZM12 15.7228C11.0912 15.7201 10.2204 15.3579 9.57788 14.7152C8.93536 14.0725 8.57336 13.2016 8.57099 12.2928C8.57416 11.3845 8.9365 10.5144 9.57894 9.87232C10.2214 9.23027 11.0917 8.86842 12 8.86579C12.9083 8.86869 13.7785 9.23078 14.4207 9.87303C15.063 10.5153 15.4251 11.3855 15.428 12.2938C15.4251 13.2021 15.063 14.0723 14.4207 14.7145C13.7785 15.3568 12.9083 15.7199 12 15.7228ZM18.729 6.80779C18.729 7.13745 18.598 7.45362 18.3649 7.68672C18.1318 7.91983 17.8157 8.05079 17.486 8.05079C17.1563 8.05079 16.8402 7.91983 16.6071 7.68672C16.3739 7.45362 16.243 7.13745 16.243 6.80779C16.243 6.47812 16.3739 6.16196 16.6071 5.92886C16.8402 5.69575 17.1563 5.56479 17.486 5.56479C17.8157 5.56479 18.1318 5.69575 18.3649 5.92886C18.598 6.16196 18.729 6.47812 18.729 6.80779Z" fill="#1F2937"/>
</svg>
