<svg width="57" height="56" viewBox="0 0 57 56" fill="none" xmlns="http://www.w3.org/2000/svg">
<rect x="1" y="0.5" width="55" height="55" rx="27.5" stroke="#6D7079"/>
<path d="M26.3245 33.9143H31.1755M33.7287 37H23.7713C23.2072 37 22.75 36.5395 22.75 35.9714V33.2237C22.75 33.0042 22.8198 32.7904 22.9491 32.6136L25.8781 28.6101C26.1435 28.2473 26.1435 27.7527 25.8781 27.3899L22.9491 23.3864C22.8198 23.2096 22.75 22.9958 22.75 22.7763V20.0286C22.75 19.4605 23.2072 19 23.7713 19H33.4734C34.0374 19 34.4947 19.4605 34.4947 20.0286V22.7961C34.4947 23.0034 34.4325 23.2058 34.3163 23.3769L31.5851 27.3971C31.3398 27.7581 31.3481 28.2359 31.6058 28.5881L34.5509 32.6136C34.6802 32.7904 34.75 33.0042 34.75 33.2237V35.9714C34.75 36.5395 34.2928 37 33.7287 37Z" stroke="#6D7079" stroke-linecap="round" stroke-linejoin="round"/>
</svg>
