<svg width="258" height="34" viewBox="0 0 258 34" fill="none" xmlns="http://www.w3.org/2000/svg">
<path fill-rule="evenodd" clip-rule="evenodd" d="M8.05032 11.5853C7.66825 11.7792 7.33024 12.0454 7.05615 12.3681C6.91389 12.5419 6.78916 12.7286 6.68379 12.9255V12.9542L6.56955 13.1674C6.24593 13.9967 6.24593 14.912 6.56955 15.7414C6.79001 16.2366 7.13316 16.6714 7.56857 17.0075C8.00398 17.3435 8.51826 17.5703 9.06576 17.6678C9.91191 17.8317 10.6353 17.5735 11.4138 18.0038C11.7893 18.227 12.0699 18.5731 12.205 18.9793C12.2906 19.2142 12.3265 19.4633 12.3105 19.7119C12.2945 19.9605 12.227 20.2035 12.1119 20.4262C11.5027 21.4714 10.7538 21.4386 9.57343 21.4386C8.88805 21.4386 2.46575 21.4673 2.38113 21.4386C2.35025 21.4136 2.3268 21.381 2.31338 21.3443C1.54137 18.9734 1.41607 16.4493 1.94949 14.0175C2.4829 11.5857 3.65696 9.32913 5.35744 7.46725C7.05792 5.60537 9.22681 4.2016 11.6533 3.39254C14.0798 2.58347 16.6811 2.39665 19.2042 2.85025C21.7273 3.30386 24.0862 4.38244 26.0515 5.98106C28.0168 7.57968 29.5214 9.6439 30.4191 11.9729C31.3168 14.3019 31.577 16.8163 31.1743 19.2716C30.7716 21.7269 29.7197 24.0393 28.121 25.984V28.3326C30.2377 26.2982 31.7458 23.7461 32.4849 20.9477C33.2241 18.1493 33.1668 15.2091 32.319 12.4398C31.4712 9.67046 29.8646 7.17543 27.6701 5.21994C25.4756 3.26445 22.7752 1.92159 19.8559 1.3341C16.9365 0.746615 13.9074 0.936462 11.0906 1.88346C8.27372 2.83046 5.77441 4.49922 3.85829 6.71234C1.94216 8.92546 0.680837 11.6002 0.208427 14.4523C-0.263983 17.3044 0.0701462 20.2272 1.17533 22.91H2.88881C5.68534 22.951 9.37456 22.8731 10.3942 22.869C11.1764 22.8631 11.932 22.5929 12.5305 22.105C13.1291 21.6172 13.5331 20.9423 13.673 20.1967C13.7471 19.7996 13.7471 19.3928 13.673 18.9957C13.6239 18.6576 13.5075 18.3318 13.3303 18.0366C13.1844 17.7609 12.9946 17.5091 12.7677 17.2907L12.3996 16.9915C10.8553 15.8766 9.72994 16.6431 8.6934 16.0652C8.46834 15.9323 8.2736 15.7564 8.12097 15.5482C7.96834 15.34 7.86104 15.1039 7.80562 14.8543C7.75021 14.6047 7.7478 14.3467 7.7986 14.0961C7.8494 13.8456 7.95237 13.6077 8.10114 13.3969C8.21537 13.237 8.59188 12.8518 8.81611 12.819C9.17132 12.6845 9.55223 12.6258 9.93299 12.6468C10.4449 12.6468 13.4995 12.6468 13.7407 12.6468C13.7851 12.1628 13.7851 11.6758 13.7407 11.1918C13.7195 11.1918 13.7407 11.1918 13.6773 11.1713H9.84416C9.221 11.1417 8.60195 11.2838 8.05879 11.5812L8.05032 11.5853ZM16.4103 11.1754H18.1196L21.5042 16.7865L24.8888 11.1754H26.615L26.5177 11.3352V29.6565C24.6085 31.0879 22.3982 32.096 20.043 32.6097C17.6878 33.1234 15.245 33.1301 12.8868 32.6294C10.5286 32.1287 8.31256 31.1328 6.39499 29.7119C4.47742 28.291 2.905 26.4798 1.78877 24.406H3.64613C4.70057 26.118 6.11026 27.5994 7.7861 28.7564C9.46195 29.9134 11.3675 30.7209 13.3821 31.1277C15.3966 31.5345 17.4764 31.5319 19.4898 31.1199C21.5032 30.7079 23.4065 29.8956 25.0791 28.7343V13.7166L21.4957 19.7007L16.4272 11.159L16.4103 11.1754ZM16.4103 22.8895H17.8741V16.4094L16.4103 14.0486V22.8895Z" fill="#315266"/>
<path d="M56.108 14.7898H53.983C53.9223 14.4413 53.8106 14.1326 53.6477 13.8636C53.4848 13.5909 53.2822 13.3598 53.0398 13.1705C52.7973 12.9811 52.5208 12.839 52.2102 12.7443C51.9034 12.6458 51.572 12.5966 51.2159 12.5966C50.5833 12.5966 50.0227 12.7557 49.5341 13.0739C49.0455 13.3883 48.6629 13.8504 48.3864 14.4602C48.1098 15.0663 47.9716 15.8068 47.9716 16.6818C47.9716 17.572 48.1098 18.322 48.3864 18.9318C48.6667 19.5379 49.0492 19.9962 49.5341 20.3068C50.0227 20.6136 50.5814 20.767 51.2102 20.767C51.5587 20.767 51.8845 20.7216 52.1875 20.6307C52.4943 20.536 52.7689 20.3977 53.0114 20.2159C53.2576 20.0341 53.464 19.8106 53.6307 19.5455C53.8011 19.2803 53.9186 18.9773 53.983 18.6364L56.108 18.6477C56.0284 19.2008 55.8561 19.7197 55.5909 20.2045C55.3295 20.6894 54.9867 21.1174 54.5625 21.4886C54.1383 21.8561 53.642 22.1439 53.0739 22.3523C52.5057 22.5568 51.875 22.6591 51.1818 22.6591C50.1591 22.6591 49.2462 22.4223 48.4432 21.9489C47.6402 21.4754 47.0076 20.7917 46.5455 19.8977C46.0833 19.0038 45.8523 17.9318 45.8523 16.6818C45.8523 15.428 46.0852 14.3561 46.5511 13.4659C47.017 12.572 47.6515 11.8883 48.4545 11.4148C49.2576 10.9413 50.1667 10.7045 51.1818 10.7045C51.8295 10.7045 52.4318 10.7955 52.9886 10.9773C53.5455 11.1591 54.0417 11.4261 54.4773 11.7784C54.9129 12.1269 55.2708 12.5549 55.5511 13.0625C55.8352 13.5663 56.0208 14.142 56.108 14.7898ZM60.527 12.6307V10.8636H69.8111V12.6307H66.2145V22.5H64.1236V12.6307H60.527ZM74.6889 22.5H72.4389L76.5355 10.8636H79.1378L83.2401 22.5H80.9901L77.8821 13.25H77.7912L74.6889 22.5ZM74.7628 17.9375H80.8991V19.6307H74.7628V17.9375ZM87.7727 22.5V10.8636H89.8807V15.7898H95.2727V10.8636H97.3864V22.5H95.2727V17.5568H89.8807V22.5H87.7727ZM101.923 25.3068V20.7784H102.702C102.963 20.5701 103.207 20.2765 103.435 19.8977C103.662 19.5189 103.855 19 104.014 18.3409C104.173 17.6818 104.283 16.8295 104.344 15.7841L104.651 10.8636H112.088V20.7784H113.384V25.2955H111.361V22.5H103.946V25.3068H101.923ZM105.156 20.7784H110.065V12.6307H106.548L106.366 15.7841C106.317 16.5758 106.238 17.2841 106.128 17.9091C106.018 18.5341 105.88 19.0852 105.713 19.5625C105.546 20.036 105.361 20.4413 105.156 20.7784ZM119.595 22.5H117.345L121.442 10.8636H124.044L128.146 22.5H125.896L122.788 13.25H122.697L119.595 22.5ZM119.669 17.9375H125.805V19.6307H119.669V17.9375ZM132.679 22.5V10.8636H137.043C137.937 10.8636 138.687 11.0303 139.293 11.3636C139.902 11.697 140.363 12.1553 140.673 12.7386C140.988 13.3182 141.145 13.9773 141.145 14.7159C141.145 15.4621 140.988 16.125 140.673 16.7045C140.359 17.2841 139.895 17.7405 139.281 18.0739C138.668 18.4034 137.912 18.5682 137.014 18.5682H134.122V16.8352H136.73C137.253 16.8352 137.681 16.7443 138.014 16.5625C138.348 16.3807 138.594 16.1307 138.753 15.8125C138.916 15.4943 138.997 15.1288 138.997 14.7159C138.997 14.303 138.916 13.9394 138.753 13.625C138.594 13.3106 138.346 13.0663 138.009 12.892C137.675 12.714 137.245 12.625 136.719 12.625H134.787V22.5H132.679ZM145.464 12.6307V10.8636H154.749V12.6307H151.152V22.5H149.061V12.6307H145.464ZM166.507 10.8636H169.087L172.541 19.2955H172.678L176.132 10.8636H178.712V22.5H176.689V14.5057H176.581L173.365 22.4659H171.854L168.638 14.4886H168.53V22.5H166.507V10.8636ZM194.405 16.6818C194.405 17.9356 194.17 19.0095 193.7 19.9034C193.234 20.7936 192.598 21.4754 191.791 21.9489C190.988 22.4223 190.077 22.6591 189.058 22.6591C188.039 22.6591 187.126 22.4223 186.32 21.9489C185.517 21.4716 184.88 20.7879 184.411 19.8977C183.945 19.0038 183.712 17.9318 183.712 16.6818C183.712 15.428 183.945 14.3561 184.411 13.4659C184.88 12.572 185.517 11.8883 186.32 11.4148C187.126 10.9413 188.039 10.7045 189.058 10.7045C190.077 10.7045 190.988 10.9413 191.791 11.4148C192.598 11.8883 193.234 12.572 193.7 13.4659C194.17 14.3561 194.405 15.428 194.405 16.6818ZM192.286 16.6818C192.286 15.7992 192.147 15.0549 191.871 14.4489C191.598 13.839 191.219 13.3788 190.734 13.0682C190.25 12.7538 189.691 12.5966 189.058 12.5966C188.426 12.5966 187.867 12.7538 187.382 13.0682C186.897 13.3788 186.517 13.839 186.24 14.4489C185.967 15.0549 185.831 15.7992 185.831 16.6818C185.831 17.5644 185.967 18.3106 186.24 18.9205C186.517 19.5265 186.897 19.9867 187.382 20.3011C187.867 20.6117 188.426 20.767 189.058 20.767C189.691 20.767 190.25 20.6117 190.734 20.3011C191.219 19.9867 191.598 19.5265 191.871 18.9205C192.147 18.3106 192.286 17.5644 192.286 16.6818ZM198.642 22.5V20.75L198.972 20.733C199.419 20.7064 199.773 20.5455 200.034 20.25C200.299 19.9545 200.494 19.4792 200.619 18.8239C200.748 18.1686 200.833 17.2898 200.875 16.1875L201.068 10.8636H208.693V22.5H206.631V12.5966H203.034L202.852 16.8409C202.799 18.1136 202.659 19.1686 202.432 20.0057C202.208 20.8428 201.841 21.4678 201.33 21.8807C200.822 22.2936 200.116 22.5 199.21 22.5H198.642ZM213.991 10.8636H216.082V18.7955H216.19L221.662 10.8636H223.554V22.5H221.446V14.5739H221.349L215.861 22.5H213.991V10.8636ZM237.442 22.5H235.328V12.625H233.396C232.874 12.625 232.444 12.7027 232.107 12.858C231.773 13.0095 231.525 13.233 231.362 13.5284C231.203 13.8201 231.124 14.1723 231.124 14.5852C231.124 14.9981 231.203 15.3466 231.362 15.6307C231.521 15.911 231.768 16.125 232.101 16.2727C232.438 16.4167 232.866 16.4886 233.385 16.4886H236.214V18.2386H233.101C232.207 18.2386 231.453 18.0909 230.839 17.7955C230.226 17.4962 229.76 17.0739 229.442 16.5284C229.127 15.9792 228.97 15.3314 228.97 14.5852C228.97 13.8428 229.125 13.1932 229.436 12.6364C229.75 12.0758 230.213 11.6402 230.822 11.3295C231.432 11.0189 232.182 10.8636 233.072 10.8636H237.442V22.5ZM231.425 17.2273H233.726L230.896 22.5H228.544L231.425 17.2273Z" fill="#315266"/>
</svg>
