<svg width="258" height="34" viewBox="0 0 258 34" fill="none" xmlns="http://www.w3.org/2000/svg">
<path fill-rule="evenodd" clip-rule="evenodd" d="M8.05032 11.5853C7.66825 11.7792 7.33024 12.0454 7.05615 12.3681C6.91389 12.5419 6.78916 12.7286 6.68379 12.9255V12.9542L6.56955 13.1674C6.24593 13.9967 6.24593 14.912 6.56955 15.7414C6.79001 16.2366 7.13316 16.6714 7.56857 17.0075C8.00398 17.3435 8.51826 17.5703 9.06576 17.6678C9.91191 17.8317 10.6353 17.5735 11.4138 18.0038C11.7893 18.227 12.0699 18.5731 12.205 18.9793C12.2906 19.2142 12.3265 19.4633 12.3105 19.7119C12.2945 19.9605 12.227 20.2035 12.1119 20.4262C11.5027 21.4714 10.7538 21.4386 9.57343 21.4386C8.88805 21.4386 2.46575 21.4673 2.38113 21.4386C2.35025 21.4136 2.3268 21.381 2.31338 21.3443C1.54137 18.9734 1.41607 16.4493 1.94949 14.0175C2.4829 11.5857 3.65696 9.32913 5.35744 7.46725C7.05792 5.60537 9.22681 4.2016 11.6533 3.39254C14.0798 2.58347 16.6811 2.39665 19.2042 2.85025C21.7273 3.30386 24.0862 4.38244 26.0515 5.98106C28.0168 7.57968 29.5214 9.6439 30.4191 11.9729C31.3168 14.3019 31.577 16.8163 31.1743 19.2716C30.7716 21.7269 29.7197 24.0393 28.121 25.984V28.3326C30.2377 26.2982 31.7458 23.7461 32.4849 20.9477C33.2241 18.1493 33.1668 15.2091 32.319 12.4398C31.4712 9.67046 29.8646 7.17543 27.6701 5.21994C25.4756 3.26445 22.7752 1.92159 19.8559 1.3341C16.9365 0.746615 13.9074 0.936462 11.0906 1.88346C8.27372 2.83046 5.77441 4.49922 3.85829 6.71234C1.94216 8.92546 0.680837 11.6002 0.208427 14.4523C-0.263983 17.3044 0.0701462 20.2272 1.17533 22.91H2.88881C5.68534 22.951 9.37456 22.8731 10.3942 22.869C11.1764 22.8631 11.932 22.5929 12.5305 22.105C13.1291 21.6172 13.5331 20.9423 13.673 20.1967C13.7471 19.7996 13.7471 19.3928 13.673 18.9957C13.6239 18.6576 13.5075 18.3318 13.3303 18.0366C13.1844 17.7609 12.9946 17.5091 12.7677 17.2907L12.3996 16.9915C10.8553 15.8766 9.72994 16.6431 8.6934 16.0652C8.46834 15.9323 8.2736 15.7564 8.12097 15.5482C7.96834 15.34 7.86104 15.1039 7.80562 14.8543C7.75021 14.6047 7.7478 14.3467 7.7986 14.0961C7.8494 13.8456 7.95237 13.6077 8.10114 13.3969C8.21537 13.237 8.59188 12.8518 8.81611 12.819C9.17132 12.6845 9.55223 12.6258 9.93299 12.6468C10.4449 12.6468 13.4995 12.6468 13.7407 12.6468C13.7851 12.1628 13.7851 11.6758 13.7407 11.1918C13.7195 11.1918 13.7407 11.1918 13.6773 11.1713H9.84416C9.221 11.1417 8.60195 11.2838 8.05879 11.5812L8.05032 11.5853ZM16.4103 11.1754H18.1196L21.5042 16.7865L24.8888 11.1754H26.615L26.5177 11.3352V29.6565C24.6085 31.0879 22.3982 32.096 20.043 32.6097C17.6878 33.1234 15.245 33.1301 12.8868 32.6294C10.5286 32.1287 8.31256 31.1328 6.39499 29.7119C4.47742 28.291 2.905 26.4798 1.78877 24.406H3.64613C4.70057 26.118 6.11026 27.5994 7.7861 28.7564C9.46195 29.9134 11.3675 30.7209 13.3821 31.1277C15.3966 31.5345 17.4764 31.5319 19.4898 31.1199C21.5032 30.7079 23.4065 29.8956 25.0791 28.7343V13.7166L21.4957 19.7007L16.4272 11.159L16.4103 11.1754ZM16.4103 22.8895H17.8741V16.4094L16.4103 14.0486V22.8895Z" fill="#315266"/>
<path d="M56.108 14.7898H53.983C53.9223 14.4413 53.8106 14.1326 53.6477 13.8636C53.4848 13.5909 53.2822 13.3598 53.0398 13.1705C52.7973 12.9811 52.5208 12.839 52.2102 12.7443C51.9034 12.6458 51.572 12.5966 51.2159 12.5966C50.5833 12.5966 50.0227 12.7557 49.5341 13.0739C49.0455 13.3883 48.6629 13.8504 48.3864 14.4602C48.1098 15.0663 47.9716 15.8068 47.9716 16.6818C47.9716 17.572 48.1098 18.322 48.3864 18.9318C48.6667 19.5379 49.0492 19.9962 49.5341 20.3068C50.0227 20.6136 50.5814 20.767 51.2102 20.767C51.5587 20.767 51.8845 20.7216 52.1875 20.6307C52.4943 20.536 52.7689 20.3977 53.0114 20.2159C53.2576 20.0341 53.464 19.8106 53.6307 19.5455C53.8011 19.2803 53.9186 18.9773 53.983 18.6364L56.108 18.6477C56.0284 19.2008 55.8561 19.7197 55.5909 20.2045C55.3295 20.6894 54.9867 21.1174 54.5625 21.4886C54.1383 21.8561 53.642 22.1439 53.0739 22.3523C52.5057 22.5568 51.875 22.6591 51.1818 22.6591C50.1591 22.6591 49.2462 22.4223 48.4432 21.9489C47.6402 21.4754 47.0076 20.7917 46.5455 19.8977C46.0833 19.0038 45.8523 17.9318 45.8523 16.6818C45.8523 15.428 46.0852 14.3561 46.5511 13.4659C47.017 12.572 47.6515 11.8883 48.4545 11.4148C49.2576 10.9413 50.1667 10.7045 51.1818 10.7045C51.8295 10.7045 52.4318 10.7955 52.9886 10.9773C53.5455 11.1591 54.0417 11.4261 54.4773 11.7784C54.9129 12.1269 55.2708 12.5549 55.5511 13.0625C55.8352 13.5663 56.0208 14.142 56.108 14.7898ZM60.527 12.6307V10.8636H69.8111V12.6307H66.2145V22.5H64.1236V12.6307H60.527ZM74.6889 22.5H72.4389L76.5355 10.8636H79.1378L83.2401 22.5H80.9901L77.8821 13.25H77.7912L74.6889 22.5ZM74.7628 17.9375H80.8991V19.6307H74.7628V17.9375ZM87.7727 22.5V10.8636H89.8807V15.7898H95.2727V10.8636H97.3864V22.5H95.2727V17.5568H89.8807V22.5H87.7727ZM101.923 25.3068V20.7784H102.702C102.963 20.5701 103.207 20.2765 103.435 19.8977C103.662 19.5189 103.855 19 104.014 18.3409C104.173 17.6818 104.283 16.8295 104.344 15.7841L104.651 10.8636H112.088V20.7784H113.384V25.2955H111.361V22.5H103.946V25.3068H101.923ZM105.156 20.7784H110.065V12.6307H106.548L106.366 15.7841C106.317 16.5758 106.238 17.2841 106.128 17.9091C106.018 18.5341 105.88 19.0852 105.713 19.5625C105.546 20.036 105.361 20.4413 105.156 20.7784ZM119.595 22.5H117.345L121.442 10.8636H124.044L128.146 22.5H125.896L122.788 13.25H122.697L119.595 22.5ZM119.669 17.9375H125.805V19.6307H119.669V17.9375ZM132.679 22.5V10.8636H137.043C137.937 10.8636 138.687 11.0303 139.293 11.3636C139.902 11.697 140.363 12.1553 140.673 12.7386C140.988 13.3182 141.145 13.9773 141.145 14.7159C141.145 15.4621 140.988 16.125 140.673 16.7045C140.359 17.2841 139.895 17.7405 139.281 18.0739C138.668 18.4034 137.912 18.5682 137.014 18.5682H134.122V16.8352H136.73C137.253 16.8352 137.681 16.7443 138.014 16.5625C138.348 16.3807 138.594 16.1307 138.753 15.8125C138.916 15.4943 138.997 15.1288 138.997 14.7159C138.997 14.303 138.916 13.9394 138.753 13.625C138.594 13.3106 138.346 13.0663 138.009 12.892C137.675 12.714 137.245 12.625 136.719 12.625H134.787V22.5H132.679ZM145.464 12.6307V10.8636H154.749V12.6307H151.152V22.5H149.061V12.6307H145.464ZM170.905 12.1591H173.257C174.166 12.1591 174.973 12.3542 175.678 12.7443C176.382 13.1345 176.935 13.6837 177.337 14.392C177.738 15.0966 177.939 15.9223 177.939 16.8693C177.939 17.7936 177.738 18.6023 177.337 19.2955C176.935 19.9886 176.382 20.5284 175.678 20.9148C174.973 21.2973 174.166 21.4886 173.257 21.4886H170.905C169.992 21.4886 169.181 21.2992 168.473 20.9205C167.768 20.5379 167.215 20 166.814 19.3068C166.412 18.6136 166.212 17.803 166.212 16.875C166.212 15.928 166.414 15.1023 166.82 14.3977C167.225 13.6894 167.78 13.1402 168.484 12.75C169.193 12.3561 170 12.1591 170.905 12.1591ZM170.905 13.9432C170.352 13.9432 169.873 14.0568 169.467 14.2841C169.066 14.5076 168.755 14.8371 168.536 15.2727C168.316 15.7083 168.206 16.2424 168.206 16.875C168.206 17.4811 168.316 17.9943 168.536 18.4148C168.759 18.8352 169.073 19.1553 169.479 19.375C169.884 19.5947 170.359 19.7045 170.905 19.7045H173.263C173.812 19.7045 174.286 19.5947 174.683 19.375C175.085 19.1515 175.393 18.8295 175.609 18.4091C175.829 17.9848 175.939 17.4716 175.939 16.8693C175.939 16.2443 175.829 15.714 175.609 15.2784C175.393 14.8428 175.085 14.5114 174.683 14.2841C174.286 14.0568 173.812 13.9432 173.263 13.9432H170.905ZM173.098 10.6591V22.9773H171.07V10.6591H173.098ZM182.945 10.8636H185.036V18.7955H185.143L190.615 10.8636H192.507V22.5H190.399V14.5739H190.303L184.814 22.5H182.945V10.8636ZM197.804 22.5V10.8636H199.912V15.7898H205.304V10.8636H207.418V22.5H205.304V17.5568H199.912V22.5H197.804ZM214.205 22.5H211.955L216.051 10.8636H218.653L222.756 22.5H220.506L217.398 13.25H217.307L214.205 22.5ZM214.278 17.9375H220.415V19.6307H214.278V17.9375ZM227.288 22.5V10.8636H229.396V15.7898H234.788V10.8636H236.902V22.5H234.788V17.5568H229.396V22.5H227.288ZM252.155 14.7898H250.03C249.969 14.4413 249.857 14.1326 249.695 13.8636C249.532 13.5909 249.329 13.3598 249.087 13.1705C248.844 12.9811 248.568 12.839 248.257 12.7443C247.95 12.6458 247.619 12.5966 247.263 12.5966C246.63 12.5966 246.07 12.7557 245.581 13.0739C245.092 13.3883 244.71 13.8504 244.433 14.4602C244.157 15.0663 244.018 15.8068 244.018 16.6818C244.018 17.572 244.157 18.322 244.433 18.9318C244.714 19.5379 245.096 19.9962 245.581 20.3068C246.07 20.6136 246.628 20.767 247.257 20.767C247.606 20.767 247.931 20.7216 248.234 20.6307C248.541 20.536 248.816 20.3977 249.058 20.2159C249.304 20.0341 249.511 19.8106 249.678 19.5455C249.848 19.2803 249.965 18.9773 250.03 18.6364L252.155 18.6477C252.075 19.2008 251.903 19.7197 251.638 20.2045C251.376 20.6894 251.034 21.1174 250.609 21.4886C250.185 21.8561 249.689 22.1439 249.121 22.3523C248.553 22.5568 247.922 22.6591 247.229 22.6591C246.206 22.6591 245.293 22.4223 244.49 21.9489C243.687 21.4754 243.054 20.7917 242.592 19.8977C242.13 19.0038 241.899 17.9318 241.899 16.6818C241.899 15.428 242.132 14.3561 242.598 13.4659C243.064 12.572 243.698 11.8883 244.501 11.4148C245.304 10.9413 246.214 10.7045 247.229 10.7045C247.876 10.7045 248.479 10.7955 249.036 10.9773C249.592 11.1591 250.089 11.4261 250.524 11.7784C250.96 12.1269 251.318 12.5549 251.598 13.0625C251.882 13.5663 252.068 14.142 252.155 14.7898Z" fill="#315266"/>
</svg>
