<svg width="241" height="34" viewBox="0 0 241 34" fill="none" xmlns="http://www.w3.org/2000/svg">
<path fill-rule="evenodd" clip-rule="evenodd" d="M8.05032 11.5853C7.66825 11.7792 7.33024 12.0454 7.05615 12.3681C6.91389 12.5419 6.78916 12.7286 6.68379 12.9255V12.9542L6.56955 13.1674C6.24593 13.9967 6.24593 14.912 6.56955 15.7414C6.79001 16.2366 7.13316 16.6714 7.56857 17.0075C8.00398 17.3435 8.51826 17.5703 9.06576 17.6678C9.91191 17.8317 10.6353 17.5735 11.4138 18.0038C11.7893 18.227 12.0699 18.5731 12.205 18.9793C12.2906 19.2142 12.3265 19.4633 12.3105 19.7119C12.2945 19.9605 12.227 20.2035 12.1119 20.4262C11.5027 21.4714 10.7538 21.4386 9.57343 21.4386C8.88805 21.4386 2.46575 21.4673 2.38113 21.4386C2.35025 21.4136 2.3268 21.381 2.31338 21.3443C1.54137 18.9734 1.41607 16.4493 1.94949 14.0175C2.4829 11.5857 3.65696 9.32913 5.35744 7.46725C7.05792 5.60537 9.22681 4.2016 11.6533 3.39254C14.0798 2.58347 16.6811 2.39665 19.2042 2.85025C21.7273 3.30386 24.0862 4.38244 26.0515 5.98106C28.0168 7.57968 29.5214 9.6439 30.4191 11.9729C31.3168 14.3019 31.577 16.8163 31.1743 19.2716C30.7716 21.7269 29.7197 24.0393 28.121 25.984V28.3326C30.2377 26.2982 31.7458 23.7461 32.4849 20.9477C33.2241 18.1493 33.1668 15.2091 32.319 12.4398C31.4712 9.67046 29.8646 7.17543 27.6701 5.21994C25.4756 3.26445 22.7752 1.92159 19.8559 1.3341C16.9365 0.746615 13.9074 0.936462 11.0906 1.88346C8.27372 2.83046 5.77441 4.49922 3.85829 6.71234C1.94216 8.92546 0.680837 11.6002 0.208427 14.4523C-0.263983 17.3044 0.0701462 20.2272 1.17533 22.91H2.88881C5.68534 22.951 9.37456 22.8731 10.3942 22.869C11.1764 22.8631 11.932 22.5929 12.5305 22.105C13.1291 21.6172 13.5331 20.9423 13.673 20.1967C13.7471 19.7996 13.7471 19.3928 13.673 18.9957C13.6239 18.6576 13.5075 18.3318 13.3303 18.0366C13.1844 17.7609 12.9946 17.5091 12.7677 17.2907L12.3996 16.9915C10.8553 15.8766 9.72994 16.6431 8.6934 16.0652C8.46834 15.9323 8.2736 15.7564 8.12097 15.5482C7.96834 15.34 7.86104 15.1039 7.80562 14.8543C7.75021 14.6047 7.7478 14.3467 7.7986 14.0961C7.8494 13.8456 7.95237 13.6077 8.10114 13.3969C8.21537 13.237 8.59188 12.8518 8.81611 12.819C9.17132 12.6845 9.55223 12.6258 9.93299 12.6468C10.4449 12.6468 13.4995 12.6468 13.7407 12.6468C13.7851 12.1628 13.7851 11.6758 13.7407 11.1918C13.7195 11.1918 13.7407 11.1918 13.6773 11.1713H9.84416C9.221 11.1417 8.60195 11.2838 8.05879 11.5812L8.05032 11.5853ZM16.4103 11.1754H18.1196L21.5042 16.7865L24.8888 11.1754H26.615L26.5177 11.3352V29.6565C24.6085 31.0879 22.3982 32.096 20.043 32.6097C17.6878 33.1234 15.245 33.1301 12.8868 32.6294C10.5286 32.1287 8.31256 31.1328 6.39499 29.7119C4.47742 28.291 2.905 26.4798 1.78877 24.406H3.64613C4.70057 26.118 6.11026 27.5994 7.7861 28.7564C9.46195 29.9134 11.3675 30.7209 13.3821 31.1277C15.3966 31.5345 17.4764 31.5319 19.4898 31.1199C21.5032 30.7079 23.4065 29.8956 25.0791 28.7343V13.7166L21.4957 19.7007L16.4272 11.159L16.4103 11.1754ZM16.4103 22.8895H17.8741V16.4094L16.4103 14.0486V22.8895Z" fill="#1F2937"/>
<path d="M52.4716 14.0625C52.4186 13.5663 52.1951 13.1799 51.8011 12.9034C51.411 12.6269 50.9034 12.4886 50.2784 12.4886C49.839 12.4886 49.4621 12.5549 49.1477 12.6875C48.8333 12.8201 48.5928 13 48.4261 13.2273C48.2595 13.4545 48.1742 13.714 48.1705 14.0057C48.1705 14.2481 48.2254 14.4583 48.3352 14.6364C48.4489 14.8144 48.6023 14.9659 48.7955 15.0909C48.9886 15.2121 49.2027 15.3144 49.4375 15.3977C49.6723 15.4811 49.9091 15.5511 50.1477 15.608L51.2386 15.8807C51.678 15.983 52.1004 16.1212 52.5057 16.2955C52.9148 16.4697 53.2803 16.6894 53.6023 16.9545C53.928 17.2197 54.1856 17.5398 54.375 17.9148C54.5644 18.2898 54.6591 18.7292 54.6591 19.233C54.6591 19.9148 54.4848 20.5152 54.1364 21.0341C53.7879 21.5492 53.2841 21.9527 52.625 22.2443C51.9697 22.5322 51.1761 22.6761 50.2443 22.6761C49.339 22.6761 48.553 22.536 47.8864 22.2557C47.2235 21.9754 46.7045 21.5663 46.3295 21.0284C45.9583 20.4905 45.7576 19.8352 45.7273 19.0625H47.8011C47.8314 19.4678 47.9564 19.8049 48.1761 20.0739C48.3958 20.3428 48.6818 20.5436 49.0341 20.6761C49.3902 20.8087 49.7879 20.875 50.2273 20.875C50.6856 20.875 51.0871 20.8068 51.4318 20.6705C51.7803 20.5303 52.053 20.3371 52.25 20.0909C52.447 19.8409 52.5473 19.5492 52.5511 19.2159C52.5473 18.9129 52.4583 18.6629 52.2841 18.4659C52.1098 18.2652 51.8655 18.0985 51.5511 17.9659C51.2405 17.8295 50.8769 17.7083 50.4602 17.6023L49.1364 17.2614C48.178 17.0152 47.4205 16.642 46.8636 16.142C46.3106 15.6383 46.0341 14.9697 46.0341 14.1364C46.0341 13.4508 46.2197 12.8504 46.5909 12.3352C46.9659 11.8201 47.4754 11.4205 48.1193 11.1364C48.7633 10.8485 49.4924 10.7045 50.3068 10.7045C51.1326 10.7045 51.8561 10.8485 52.4773 11.1364C53.1023 11.4205 53.5928 11.8163 53.9489 12.3239C54.3049 12.8277 54.4886 13.4072 54.5 14.0625H52.4716ZM59.027 12.6307V10.8636H68.3111V12.6307H64.7145V22.5H62.6236V12.6307H59.027ZM73.1889 22.5H70.9389L75.0355 10.8636H77.6378L81.7401 22.5H79.4901L76.3821 13.25H76.2912L73.1889 22.5ZM73.2628 17.9375H79.3991V19.6307H73.2628V17.9375ZM95.8352 10.8636V22.5H93.9602L88.4773 14.5739H88.3807V22.5H86.2727V10.8636H88.1591L93.6364 18.7955H93.7386V10.8636H95.8352ZM105.075 22.5H101.132V10.8636H105.155C106.31 10.8636 107.303 11.0966 108.132 11.5625C108.965 12.0246 109.606 12.6894 110.053 13.5568C110.5 14.4242 110.723 15.4621 110.723 16.6705C110.723 17.8826 110.498 18.9242 110.047 19.7955C109.6 20.6667 108.954 21.3352 108.109 21.8011C107.268 22.267 106.257 22.5 105.075 22.5ZM103.24 20.6761H104.973C105.784 20.6761 106.46 20.5284 107.001 20.233C107.543 19.9337 107.95 19.4886 108.223 18.8977C108.496 18.303 108.632 17.5606 108.632 16.6705C108.632 15.7803 108.496 15.0417 108.223 14.4545C107.95 13.8636 107.547 13.4223 107.013 13.1307C106.482 12.8352 105.823 12.6875 105.036 12.6875H103.24V20.6761ZM116.595 22.5H114.345L118.442 10.8636H121.044L125.146 22.5H122.896L119.788 13.25H119.697L116.595 22.5ZM116.669 17.9375H122.805V19.6307H116.669V17.9375ZM129.679 22.5V10.8636H134.043C134.937 10.8636 135.687 11.0189 136.293 11.3295C136.902 11.6402 137.363 12.0758 137.673 12.6364C137.988 13.1932 138.145 13.8428 138.145 14.5852C138.145 15.3314 137.986 15.9792 137.668 16.5284C137.353 17.0739 136.889 17.4962 136.276 17.7955C135.662 18.0909 134.908 18.2386 134.014 18.2386H130.906V16.4886H133.73C134.253 16.4886 134.681 16.4167 135.014 16.2727C135.348 16.125 135.594 15.911 135.753 15.6307C135.916 15.3466 135.997 14.9981 135.997 14.5852C135.997 14.1723 135.916 13.8201 135.753 13.5284C135.59 13.233 135.342 13.0095 135.009 12.858C134.675 12.7027 134.245 12.625 133.719 12.625H131.787V22.5H129.679ZM135.69 17.2273L138.571 22.5H136.219L133.389 17.2273H135.69ZM142.574 12.6307V10.8636H151.858V12.6307H148.261V22.5H146.17V12.6307H142.574ZM163.616 10.8636H166.196L169.651 19.2955H169.787L173.241 10.8636H175.821V22.5H173.798V14.5057H173.69L170.474 22.4659H168.963L165.747 14.4886H165.639V22.5H163.616V10.8636ZM191.514 16.6818C191.514 17.9356 191.279 19.0095 190.81 19.9034C190.344 20.7936 189.707 21.4754 188.901 21.9489C188.098 22.4223 187.187 22.6591 186.168 22.6591C185.149 22.6591 184.236 22.4223 183.429 21.9489C182.626 21.4716 181.99 20.7879 181.52 19.8977C181.054 19.0038 180.821 17.9318 180.821 16.6818C180.821 15.428 181.054 14.3561 181.52 13.4659C181.99 12.572 182.626 11.8883 183.429 11.4148C184.236 10.9413 185.149 10.7045 186.168 10.7045C187.187 10.7045 188.098 10.9413 188.901 11.4148C189.707 11.8883 190.344 12.572 190.81 13.4659C191.279 14.3561 191.514 15.428 191.514 16.6818ZM189.395 16.6818C189.395 15.7992 189.257 15.0549 188.98 14.4489C188.707 13.839 188.329 13.3788 187.844 13.0682C187.359 12.7538 186.8 12.5966 186.168 12.5966C185.535 12.5966 184.976 12.7538 184.491 13.0682C184.007 13.3788 183.626 13.839 183.349 14.4489C183.077 15.0549 182.94 15.7992 182.94 16.6818C182.94 17.5644 183.077 18.3106 183.349 18.9205C183.626 19.5265 184.007 19.9867 184.491 20.3011C184.976 20.6117 185.535 20.767 186.168 20.767C186.8 20.767 187.359 20.6117 187.844 20.3011C188.329 19.9867 188.707 19.5265 188.98 18.9205C189.257 18.3106 189.395 17.5644 189.395 16.6818ZM196.507 22.5V10.8636H198.615V20.733H203.74V22.5H196.507ZM210.678 10.8636V22.5H208.57V10.8636H210.678ZM215.165 10.8636H217.545L220.392 16.0114H220.506L223.352 10.8636H225.733L221.5 18.1591V22.5H219.398V18.1591L215.165 10.8636ZM230.533 22.5H228.283L232.379 10.8636H234.982L239.084 22.5H236.834L233.726 13.25H233.635L230.533 22.5ZM230.607 17.9375H236.743V19.6307H230.607V17.9375Z" fill="#1F2937"/>
</svg>
