<svg width="270" height="302" viewBox="0 0 270 302" fill="none" xmlns="http://www.w3.org/2000/svg">
<rect x="0.5" y="0.5" width="269" height="300.064" rx="19.5" fill="white"/>
<rect x="0.5" y="0.5" width="269" height="300.064" rx="19.5" stroke="#EDECEB"/>
<rect x="24" y="24" width="44" height="44" rx="22" fill="#F6F7F9"/>
<path fill-rule="evenodd" clip-rule="evenodd" d="M45.9015 36.8493L36.9085 40.4464L36.63 39.7501L36.9085 40.4464C36.9087 40.4464 36.9053 40.4477 36.8987 40.4518C36.8921 40.4559 36.8832 40.4622 36.8727 40.4713C36.851 40.4899 36.8273 40.5159 36.8057 40.548C36.784 40.5801 36.7687 40.612 36.7595 40.6391C36.7508 40.6649 36.7501 40.6789 36.75 40.68C36.75 40.6801 36.75 40.6801 36.75 40.6801L36.75 44.0001C36.75 44.1359 36.8642 44.2501 37 44.2501L55 44.2501C55.1358 44.2501 55.25 44.1359 55.25 44.0001L55.25 40.6801C55.25 40.6801 55.25 40.6801 55.25 40.68C55.2499 40.6789 55.2492 40.6649 55.2405 40.6391C55.2313 40.612 55.216 40.5801 55.1943 40.548C55.1727 40.5159 55.149 40.4899 55.1273 40.4713C55.1168 40.4622 55.1079 40.4559 55.1013 40.4518C55.0947 40.4477 55.0913 40.4464 55.0915 40.4464L46.0985 36.8493C46.0957 36.8486 46.0899 36.8473 46.0808 36.8459C46.0598 36.8425 46.0317 36.8401 46 36.8401C45.9683 36.8401 45.9402 36.8425 45.9192 36.8459C45.9101 36.8473 45.9043 36.8486 45.9015 36.8493ZM46 35.3401C46.1938 35.3401 46.4313 35.3668 46.6485 35.4537L55.6485 39.0537L55.3759 39.7352L55.6485 39.0537C55.9916 39.1909 56.2592 39.4441 56.4382 39.7096C56.6169 39.9747 56.75 40.3157 56.75 40.6801L56.75 44.0001C56.75 44.9643 55.9642 45.7501 55 45.7501L37 45.7501C36.0358 45.7501 35.25 44.9643 35.25 44.0001L35.25 40.6801C35.25 40.3157 35.3831 39.9747 35.5618 39.7096C35.7408 39.4441 36.0084 39.1909 36.3515 39.0537L36.3515 39.0537L45.3515 35.4537C45.5687 35.3668 45.8062 35.3401 46 35.3401Z" fill="#315266"/>
<path fill-rule="evenodd" clip-rule="evenodd" d="M37 52.75C36.8642 52.75 36.75 52.8642 36.75 53L36.75 55.25L55.25 55.25L55.25 53C55.25 52.8642 55.1358 52.75 55 52.75L37 52.75ZM35.25 53C35.25 52.0358 36.0358 51.25 37 51.25L55 51.25C55.9642 51.25 56.75 52.0358 56.75 53L56.75 56C56.75 56.4142 56.4142 56.75 56 56.75L36 56.75C35.5858 56.75 35.25 56.4142 35.25 56L35.25 53Z" fill="#315266"/>
<path fill-rule="evenodd" clip-rule="evenodd" d="M38 44.25C38.4142 44.25 38.75 44.5858 38.75 45L38.75 52C38.75 52.4142 38.4142 52.75 38 52.75C37.5858 52.75 37.25 52.4142 37.25 52L37.25 45C37.25 44.5858 37.5858 44.25 38 44.25Z" fill="#315266"/>
<path fill-rule="evenodd" clip-rule="evenodd" d="M42 44.25C42.4142 44.25 42.75 44.5858 42.75 45L42.75 52C42.75 52.4142 42.4142 52.75 42 52.75C41.5858 52.75 41.25 52.4142 41.25 52L41.25 45C41.25 44.5858 41.5858 44.25 42 44.25Z" fill="#315266"/>
<path fill-rule="evenodd" clip-rule="evenodd" d="M46 44.25C46.4142 44.25 46.75 44.5858 46.75 45L46.75 52C46.75 52.4142 46.4142 52.75 46 52.75C45.5858 52.75 45.25 52.4142 45.25 52L45.25 45C45.25 44.5858 45.5858 44.25 46 44.25Z" fill="#315266"/>
<path fill-rule="evenodd" clip-rule="evenodd" d="M50 44.25C50.4142 44.25 50.75 44.5858 50.75 45L50.75 52C50.75 52.4142 50.4142 52.75 50 52.75C49.5858 52.75 49.25 52.4142 49.25 52L49.25 45C49.25 44.5858 49.5858 44.25 50 44.25Z" fill="#315266"/>
<path fill-rule="evenodd" clip-rule="evenodd" d="M54 44.25C54.4142 44.25 54.75 44.5858 54.75 45L54.75 52C54.75 52.4142 54.4142 52.75 54 52.75C53.5858 52.75 53.25 52.4142 53.25 52L53.25 45C53.25 44.5858 53.5858 44.25 54 44.25Z" fill="#315266"/>
<path fill-rule="evenodd" clip-rule="evenodd" d="M34.25 56C34.25 55.5858 34.5858 55.25 35 55.25L57 55.25C57.4142 55.25 57.75 55.5858 57.75 56C57.75 56.4142 57.4142 56.75 57 56.75L35 56.75C34.5858 56.75 34.25 56.4142 34.25 56Z" fill="#315266"/>
<path fill-rule="evenodd" clip-rule="evenodd" d="M43.75 41C43.75 39.7573 44.7574 38.75 46 38.75C47.2426 38.75 48.25 39.7573 48.25 41C48.25 42.2427 47.2426 43.25 46 43.25C44.7574 43.25 43.75 42.2427 43.75 41ZM46 40.25C45.5858 40.25 45.25 40.5858 45.25 41C45.25 41.4142 45.5858 41.75 46 41.75C46.4142 41.75 46.75 41.4142 46.75 41C46.75 40.5858 46.4142 40.25 46 40.25Z" fill="#315266"/>
<rect x="192.5" y="34" width="53" height="24" rx="12" stroke="#F0F0F2"/>
<path d="M207.057 50.5L207.057 41.7727L212.29 41.7727L212.29 42.7102L208.114 42.7102L208.114 45.6591L211.898 45.6591L211.898 46.5966L208.114 46.5966L208.114 50.5L207.057 50.5ZM213.893 50.5L213.893 43.9545L214.865 43.9545L214.865 44.9432L214.933 44.9432C215.052 44.6193 215.268 44.3565 215.581 44.1548C215.893 43.9531 216.245 43.8523 216.637 43.8523C216.711 43.8523 216.804 43.8537 216.914 43.8565C217.025 43.8594 217.109 43.8636 217.166 43.8693L217.166 44.892C217.132 44.8835 217.054 44.8707 216.931 44.8537C216.812 44.8338 216.686 44.8239 216.552 44.8239C216.234 44.8239 215.95 44.8906 215.7 45.0241C215.453 45.1548 215.257 45.3366 215.112 45.5696C214.97 45.7997 214.899 46.0625 214.899 46.358L214.899 50.5L213.893 50.5ZM220.903 50.6364C220.272 50.6364 219.728 50.4972 219.271 50.2188C218.816 49.9375 218.466 49.5455 218.218 49.0426C217.974 48.5369 217.852 47.9489 217.852 47.2784C217.852 46.608 217.974 46.017 218.218 45.5057C218.466 44.9915 218.809 44.5909 219.25 44.304C219.693 44.0142 220.21 43.8693 220.801 43.8693C221.142 43.8693 221.478 43.9261 221.811 44.0398C222.143 44.1534 222.446 44.3381 222.718 44.5938C222.991 44.8466 223.208 45.1818 223.37 45.5994C223.532 46.017 223.613 46.5312 223.613 47.142L223.613 47.5682L218.568 47.5682L218.568 46.6989L222.591 46.6989C222.591 46.3295 222.517 46 222.369 45.7102C222.224 45.4205 222.017 45.1918 221.747 45.0241C221.48 44.8565 221.164 44.7727 220.801 44.7727C220.4 44.7727 220.054 44.8722 219.761 45.071C219.471 45.267 219.248 45.5227 219.092 45.8381C218.936 46.1534 218.858 46.4915 218.858 46.8523L218.858 47.4318C218.858 47.9261 218.943 48.3452 219.113 48.6889C219.287 49.0298 219.527 49.2898 219.833 49.4688C220.14 49.6449 220.497 49.733 220.903 49.733C221.167 49.733 221.406 49.696 221.619 49.6222C221.835 49.5455 222.021 49.4318 222.177 49.2813C222.333 49.1278 222.454 48.9375 222.539 48.7102L223.511 48.983C223.409 49.3125 223.237 49.6023 222.995 49.8523C222.754 50.0994 222.456 50.2926 222.1 50.4318C221.745 50.5682 221.346 50.6364 220.903 50.6364ZM227.887 50.6364C227.257 50.6364 226.713 50.4972 226.255 50.2188C225.801 49.9375 225.45 49.5455 225.203 49.0426C224.958 48.5369 224.836 47.9489 224.836 47.2784C224.836 46.608 224.958 46.017 225.203 45.5057C225.45 44.9915 225.794 44.5909 226.234 44.304C226.677 44.0142 227.194 43.8693 227.785 43.8693C228.126 43.8693 228.463 43.9261 228.795 44.0398C229.127 44.1534 229.43 44.3381 229.703 44.5938C229.975 44.8466 230.193 45.1818 230.355 45.5994C230.517 46.017 230.598 46.5312 230.598 47.142L230.598 47.5682L225.552 47.5682L225.552 46.6989L229.575 46.6989C229.575 46.3295 229.501 46 229.353 45.7102C229.208 45.4205 229.001 45.1918 228.731 45.0241C228.464 44.8565 228.149 44.7727 227.785 44.7727C227.385 44.7727 227.038 44.8722 226.745 45.071C226.456 45.267 226.233 45.5227 226.076 45.8381C225.92 46.1534 225.842 46.4915 225.842 46.8523L225.842 47.4318C225.842 47.9261 225.927 48.3452 226.098 48.6889C226.271 49.0298 226.511 49.2898 226.818 49.4688C227.125 49.6449 227.481 49.733 227.887 49.733C228.152 49.733 228.39 49.696 228.603 49.6222C228.819 49.5455 229.005 49.4318 229.162 49.2813C229.318 49.1278 229.439 48.9375 229.524 48.7102L230.495 48.983C230.393 49.3125 230.221 49.6023 229.98 49.8523C229.738 50.0994 229.44 50.2926 229.085 50.4318C228.73 50.5682 228.331 50.6364 227.887 50.6364Z" fill="#595959"/>
<path d="M24.6564 109L24.6564 102.345L27.204 102.345C27.6849 102.345 28.0846 102.421 28.4031 102.572C28.7237 102.722 28.9631 102.927 29.1212 103.187C29.2815 103.447 29.3617 103.741 29.3617 104.07C29.3617 104.341 29.3097 104.573 29.2057 104.766C29.1017 104.957 28.962 105.111 28.7865 105.231C28.611 105.35 28.415 105.435 28.1984 105.487L28.1984 105.552C28.4345 105.565 28.6609 105.638 28.8775 105.77C29.0963 105.9 29.275 106.084 29.4137 106.322C29.5523 106.561 29.6216 106.849 29.6216 107.187C29.6216 107.531 29.5382 107.841 29.3714 108.116C29.2046 108.389 28.9533 108.605 28.6175 108.763C28.2818 108.921 27.8593 109 27.3502 109L24.6564 109ZM25.862 107.993L27.1585 107.993C27.5961 107.993 27.9113 107.909 28.1041 107.742C28.2991 107.573 28.3966 107.357 28.3966 107.093C28.3966 106.895 28.3478 106.718 28.2504 106.56C28.1529 106.399 28.0142 106.274 27.8344 106.183C27.6546 106.09 27.4401 106.043 27.191 106.043L25.862 106.043L25.862 107.993ZM25.862 105.175L27.0545 105.175C27.2625 105.175 27.4499 105.137 27.6167 105.062C27.7835 104.984 27.9146 104.874 28.0099 104.733C28.1074 104.59 28.1561 104.421 28.1561 104.226C28.1561 103.969 28.0651 103.756 27.8832 103.59C27.7034 103.423 27.4358 103.339 27.0805 103.339L25.862 103.339L25.862 105.175ZM32.0547 109.101C31.7384 109.101 31.4536 109.044 31.2001 108.932C30.9488 108.817 30.7495 108.648 30.6022 108.425C30.457 108.202 30.3845 107.927 30.3845 107.599C30.3845 107.318 30.4365 107.085 30.5404 106.901C30.6444 106.717 30.7863 106.569 30.9661 106.459C31.1459 106.348 31.3485 106.265 31.5738 106.209C31.8013 106.15 32.0363 106.108 32.2789 106.082C32.5714 106.052 32.8086 106.025 32.9906 106.001C33.1725 105.975 33.3047 105.936 33.387 105.884C33.4715 105.83 33.5137 105.746 33.5137 105.634L33.5137 105.614C33.5137 105.369 33.4412 105.18 33.296 105.045C33.1509 104.911 32.9418 104.844 32.6689 104.844C32.3807 104.844 32.1522 104.907 31.9832 105.032C31.8164 105.158 31.7038 105.306 31.6453 105.478L30.5469 105.322C30.6336 105.018 30.7766 104.765 30.9759 104.561C31.1752 104.355 31.4189 104.202 31.707 104.1C31.9951 103.996 32.3136 103.944 32.6624 103.944C32.9028 103.944 33.1422 103.972 33.3805 104.028C33.6188 104.085 33.8365 104.178 34.0337 104.308C34.2308 104.436 34.3889 104.61 34.5081 104.831C34.6294 105.052 34.6901 105.328 34.6901 105.66L34.6901 109L33.5592 109L33.5592 108.314L33.5202 108.314C33.4488 108.453 33.348 108.583 33.218 108.704C33.0902 108.823 32.9288 108.92 32.7339 108.994C32.5411 109.065 32.3147 109.101 32.0547 109.101ZM32.3602 108.236C32.5963 108.236 32.801 108.19 32.9743 108.097C33.1476 108.001 33.2809 107.876 33.374 107.72C33.4693 107.564 33.517 107.394 33.517 107.21L33.517 106.621C33.4802 106.652 33.4173 106.68 33.3285 106.706C33.2419 106.732 33.1444 106.755 33.0361 106.774C32.9277 106.794 32.8205 106.811 32.7144 106.826C32.6082 106.841 32.5161 106.854 32.4382 106.865C32.2627 106.889 32.1056 106.928 31.967 106.982C31.8283 107.036 31.7189 107.112 31.6388 107.21C31.5586 107.305 31.5185 107.428 31.5185 107.58C31.5185 107.797 31.5976 107.96 31.7558 108.071C31.9139 108.181 32.1154 108.236 32.3602 108.236ZM37.0492 106.075L37.0492 109L35.8729 109L35.8729 104.009L36.9972 104.009L36.9972 104.857L37.0557 104.857C37.1705 104.577 37.3536 104.355 37.6049 104.191C37.8583 104.026 38.1714 103.944 38.544 103.944C38.8884 103.944 39.1885 104.017 39.4441 104.165C39.7019 104.312 39.9012 104.525 40.042 104.805C40.185 105.084 40.2554 105.423 40.2532 105.822L40.2532 109L39.0769 109L39.0769 106.004C39.0769 105.67 38.9902 105.409 38.8169 105.221C38.6458 105.032 38.4086 104.938 38.1053 104.938C37.8995 104.938 37.7164 104.984 37.5561 105.075C37.398 105.163 37.2734 105.292 37.1824 105.461C37.0936 105.63 37.0492 105.835 37.0492 106.075ZM42.5214 107.434L42.5181 106.014L42.7066 106.014L44.5003 104.009L45.8749 104.009L43.6684 106.465L43.4247 106.465L42.5214 107.434ZM41.449 109L41.449 102.345L42.6254 102.345L42.6254 109L41.449 109ZM44.5816 109L42.9568 106.729L43.7497 105.9L45.9886 109L44.5816 109ZM48.6881 103.356L48.6881 102.345L53.9978 102.345L53.9978 103.356L51.9409 103.356L51.9409 109L50.7451 109L50.7451 103.356L48.6881 103.356ZM54.4511 109L54.4511 104.009L55.5917 104.009L55.5917 104.841L55.6437 104.841C55.7347 104.553 55.8906 104.33 56.1116 104.174C56.3347 104.016 56.5893 103.937 56.8752 103.937C56.9402 103.937 57.0128 103.941 57.093 103.947C57.1753 103.951 57.2435 103.959 57.2977 103.97L57.2977 105.052C57.2479 105.035 57.1688 105.019 57.0605 105.006C56.9543 104.991 56.8514 104.984 56.7518 104.984C56.5373 104.984 56.3445 105.03 56.1734 105.123C56.0044 105.214 55.8712 105.341 55.7737 105.504C55.6762 105.666 55.6274 105.853 55.6274 106.066L55.6274 109L54.4511 109ZM59.4261 109.101C59.1098 109.101 58.825 109.044 58.5715 108.932C58.3202 108.817 58.1209 108.648 57.9736 108.425C57.8284 108.202 57.7559 107.927 57.7559 107.599C57.7559 107.318 57.8079 107.085 57.9118 106.901C58.0158 106.717 58.1577 106.569 58.3375 106.459C58.5173 106.348 58.7199 106.265 58.9452 106.209C59.1726 106.15 59.4077 106.108 59.6503 106.082C59.9428 106.052 60.18 106.025 60.362 106.001C60.5439 105.975 60.6761 105.936 60.7584 105.884C60.8429 105.83 60.8851 105.746 60.8851 105.634L60.8851 105.614C60.8851 105.369 60.8126 105.18 60.6674 105.045C60.5223 104.911 60.3132 104.844 60.0403 104.844C59.7521 104.844 59.5236 104.907 59.3546 105.032C59.1878 105.158 59.0752 105.306 59.0167 105.478L57.9183 105.322C58.005 105.018 58.148 104.765 58.3473 104.561C58.5466 104.355 58.7903 104.202 59.0784 104.1C59.3665 103.996 59.685 103.944 60.0338 103.944C60.2742 103.944 60.5136 103.972 60.7519 104.028C60.9902 104.085 61.2079 104.178 61.4051 104.308C61.6022 104.436 61.7603 104.61 61.8795 104.831C62.0008 105.052 62.0615 105.328 62.0615 105.66L62.0615 109L60.9306 109L60.9306 108.314L60.8916 108.314C60.8201 108.453 60.7194 108.583 60.5894 108.704C60.4616 108.823 60.3002 108.92 60.1053 108.994C59.9125 109.065 59.6861 109.101 59.4261 109.101ZM59.7316 108.236C59.9677 108.236 60.1724 108.19 60.3457 108.097C60.519 108.001 60.6523 107.876 60.7454 107.72C60.8407 107.564 60.8884 107.394 60.8884 107.21L60.8884 106.621C60.8516 106.652 60.7887 106.68 60.6999 106.706C60.6133 106.732 60.5158 106.755 60.4075 106.774C60.2991 106.794 60.1919 106.811 60.0858 106.826C59.9796 106.841 59.8875 106.854 59.8096 106.865C59.6341 106.889 59.477 106.928 59.3384 106.982C59.1997 107.036 59.0903 107.112 59.0102 107.21C58.93 107.305 58.8899 107.428 58.8899 107.58C58.8899 107.797 58.969 107.96 59.1272 108.071C59.2853 108.181 59.4868 108.236 59.7316 108.236ZM64.4206 106.075L64.4206 109L63.2443 109L63.2443 104.009L64.3686 104.009L64.3686 104.857L64.4271 104.857C64.5419 104.577 64.725 104.355 64.9763 104.191C65.2297 104.026 65.5428 103.944 65.9154 103.944C66.2598 103.944 66.5599 104.017 66.8155 104.165C67.0733 104.312 67.2726 104.525 67.4134 104.805C67.5564 105.084 67.6268 105.423 67.6246 105.822L67.6246 109L66.4483 109L66.4483 106.004C66.4483 105.67 66.3616 105.409 66.1883 105.221C66.0172 105.032 65.78 104.938 65.4767 104.938C65.2709 104.938 65.0878 104.984 64.9275 105.075C64.7694 105.163 64.6448 105.292 64.5538 105.461C64.465 105.63 64.4206 105.835 64.4206 106.075ZM72.7653 105.328L71.693 105.445C71.6627 105.337 71.6096 105.235 71.5338 105.14C71.4601 105.044 71.3605 104.967 71.2348 104.909C71.1092 104.85 70.9554 104.821 70.7734 104.821C70.5286 104.821 70.3228 104.874 70.156 104.98C69.9913 105.087 69.9101 105.224 69.9123 105.393C69.9101 105.538 69.9632 105.656 70.0715 105.747C70.182 105.838 70.3639 105.913 70.6174 105.971L71.4688 106.153C71.941 106.255 72.292 106.417 72.5216 106.638C72.7534 106.859 72.8704 107.148 72.8726 107.505C72.8704 107.819 72.7783 108.097 72.5964 108.337C72.4166 108.575 72.1663 108.762 71.8457 108.896C71.5251 109.03 71.1568 109.097 70.7409 109.097C70.13 109.097 69.6382 108.97 69.2656 108.714C68.893 108.456 68.671 108.098 68.5995 107.638L69.7465 107.528C69.7985 107.753 69.909 107.923 70.078 108.038C70.247 108.153 70.4669 108.21 70.7376 108.21C71.0171 108.21 71.2413 108.153 71.4103 108.038C71.5814 107.923 71.667 107.781 71.667 107.612C71.667 107.469 71.6118 107.351 71.5013 107.258C71.393 107.165 71.224 107.094 70.9944 107.044L70.143 106.865C69.6642 106.765 69.31 106.598 69.0804 106.361C68.8508 106.123 68.737 105.822 68.7392 105.458C68.737 105.15 68.8204 104.884 68.9894 104.659C69.1605 104.431 69.3978 104.256 69.7011 104.132C70.0065 104.007 70.3585 103.944 70.7571 103.944C71.3421 103.944 71.8024 104.068 72.1382 104.317C72.4761 104.567 72.6852 104.903 72.7653 105.328ZM76.3707 104.009L76.3707 104.919L73.4201 104.919L73.4201 104.009L76.3707 104.009ZM74.1577 109L74.1577 103.538C74.1577 103.202 74.2271 102.922 74.3657 102.699C74.5065 102.476 74.695 102.309 74.9311 102.199C75.1673 102.088 75.4294 102.033 75.7175 102.033C75.9211 102.033 76.102 102.049 76.2602 102.082C76.4183 102.114 76.5353 102.144 76.6111 102.17L76.3772 103.079C76.3273 103.064 76.2645 103.049 76.1887 103.034C76.1129 103.017 76.0284 103.008 75.9352 103.008C75.7164 103.008 75.5615 103.061 75.4705 103.167C75.3817 103.271 75.3373 103.421 75.3373 103.616L75.3373 109L74.1577 109ZM79.3139 109.097C78.8135 109.097 78.3813 108.994 78.0173 108.786C77.6556 108.575 77.3772 108.279 77.1822 107.895C76.9873 107.51 76.8898 107.056 76.8898 106.534C76.8898 106.02 76.9873 105.57 77.1822 105.182C77.3794 104.792 77.6545 104.489 78.0076 104.272C78.3607 104.053 78.7756 103.944 79.2522 103.944C79.5598 103.944 79.8501 103.994 80.123 104.093C80.3982 104.191 80.6408 104.342 80.8509 104.548C81.0632 104.754 81.23 105.016 81.3513 105.335C81.4727 105.651 81.5333 106.028 81.5333 106.465L81.5333 106.826L77.4422 106.826L77.4422 106.033L80.4057 106.033C80.4036 105.808 80.3548 105.608 80.2595 105.432C80.1642 105.254 80.031 105.115 79.8598 105.013C79.6908 104.911 79.4937 104.86 79.2684 104.86C79.0279 104.86 78.8167 104.919 78.6348 105.036C78.4528 105.15 78.3109 105.302 78.2091 105.491C78.1094 105.677 78.0585 105.882 78.0563 106.105L78.0563 106.797C78.0563 107.087 78.1094 107.336 78.2156 107.544C78.3217 107.75 78.4701 107.908 78.6607 108.019C78.8514 108.127 79.0745 108.181 79.3301 108.181C79.5013 108.181 79.6562 108.157 79.7948 108.11C79.9335 108.06 80.0537 107.987 80.1555 107.892C80.2573 107.797 80.3342 107.679 80.3862 107.538L81.4846 107.661C81.4152 107.951 81.2831 108.205 81.0881 108.422C80.8953 108.636 80.6484 108.803 80.3472 108.922C80.0461 109.039 79.7017 109.097 79.3139 109.097ZM82.5285 109L82.5285 104.009L83.669 104.009L83.669 104.841L83.721 104.841C83.812 104.553 83.968 104.33 84.189 104.174C84.4121 104.016 84.6666 103.937 84.9526 103.937C85.0176 103.937 85.0902 103.941 85.1703 103.947C85.2526 103.951 85.3209 103.959 85.375 103.97L85.375 105.052C85.3252 105.035 85.2461 105.019 85.1378 105.006C85.0317 104.991 84.9288 104.984 84.8291 104.984C84.6147 104.984 84.4219 105.03 84.2507 105.123C84.0817 105.214 83.9485 105.341 83.851 105.504C83.7535 105.666 83.7048 105.853 83.7048 106.066L83.7048 109L82.5285 109Z" fill="#1F2937"/>
<rect x="24" y="127" width="222" height="44" rx="22" fill="#F6F7F8"/>
<rect x="30.5" y="133.5" width="31" height="31" rx="15.5" fill="#4B5563" fill-opacity="0.18" stroke="#EDECEB"/>
<circle cx="83.5" cy="149" r="2" fill="#D9D9D9"/>
<circle cx="93.5" cy="149" r="2" fill="#D9D9D9"/>
<circle cx="103.5" cy="149" r="2" fill="#D9D9D9"/>
<path d="M137.989 144.833L129.697 153.125C129.372 153.45 129.372 153.978 129.697 154.303C130.023 154.629 130.55 154.629 130.876 154.303L139.167 146.012L139.167 150.667C139.167 151.127 139.54 151.5 140.001 151.5C140.461 151.5 140.834 151.127 140.834 150.667L140.834 144C140.834 143.54 140.461 143.167 140.001 143.167L133.334 143.167C132.874 143.167 132.501 143.54 132.501 144C132.501 144.46 132.874 144.833 133.334 144.833L137.989 144.833Z" fill="#315266"/>
<circle cx="166.5" cy="149" r="2" fill="#D9D9D9"/>
<circle cx="176.5" cy="149" r="2" fill="#D9D9D9"/>
<circle cx="186.5" cy="149" r="2" fill="#D9D9D9"/>
<rect x="208.5" y="133.5" width="31" height="31" rx="15.5" fill="#4B5563" fill-opacity="0.18" stroke="#EDECEB"/>
<path d="M35.7553 187.44C35.3292 187.147 34.7731 187 34.087 187L31.431 187C31.2206 187 31.1044 187.105 31.0824 187.315L30.0034 194.088C29.9922 194.155 30.0088 194.216 30.0532 194.271C30.0973 194.326 30.1527 194.354 30.2191 194.354L31.4807 194.354C31.702 194.354 31.8236 194.249 31.846 194.039L32.1447 192.213C32.1556 192.124 32.1946 192.052 32.261 191.997C32.3273 191.941 32.4103 191.905 32.51 191.889C32.6096 191.872 32.7035 191.864 32.7922 191.864C32.8806 191.864 32.9857 191.87 33.1076 191.881C33.2292 191.892 33.3068 191.897 33.34 191.897C34.2917 191.897 35.0387 191.629 35.5811 191.092C36.1232 190.555 36.3945 189.811 36.3945 188.859C36.3945 188.206 36.1813 187.733 35.7553 187.44ZM34.3859 189.473C34.3304 189.861 34.1867 190.115 33.9543 190.237C33.7218 190.359 33.3898 190.42 32.9583 190.42L32.4105 190.436L32.6927 188.66C32.7147 188.538 32.7866 188.477 32.9085 188.477L33.224 188.477C33.6664 188.477 33.9876 188.541 34.1868 188.668C34.3859 188.796 34.4523 189.064 34.3859 189.473Z" fill="#003087"/>
<path d="M63.783 187L62.5547 187C62.4327 187 62.3608 187.061 62.3389 187.183L61.2598 194.088L61.2432 194.121C61.2432 194.177 61.2653 194.229 61.3097 194.279C61.3537 194.329 61.4093 194.354 61.4756 194.354L62.5713 194.354C62.7813 194.354 62.8975 194.249 62.92 194.039L63.999 187.249L63.999 187.232C63.9989 187.077 63.9268 187 63.783 187Z" fill="#009CDE"/>
<path d="M48.9423 189.673C48.9423 189.617 48.92 189.565 48.876 189.515C48.8316 189.465 48.7818 189.44 48.7266 189.44L47.4484 189.44C47.3264 189.44 47.2268 189.496 47.1496 189.606L45.3899 192.196L44.6596 189.706C44.604 189.529 44.4823 189.44 44.2944 189.44L43.0492 189.44C42.9937 189.44 42.9439 189.465 42.8999 189.515C42.8555 189.565 42.8335 189.617 42.8335 189.673C42.8335 189.695 42.9414 190.021 43.1572 190.652C43.3729 191.283 43.6054 191.964 43.8544 192.694C44.1034 193.424 44.2333 193.812 44.2445 193.856C43.3369 195.096 42.8833 195.76 42.8833 195.848C42.8833 195.992 42.9552 196.064 43.0991 196.064L44.3773 196.064C44.499 196.064 44.5986 196.009 44.6761 195.898L48.9092 189.789C48.9312 189.767 48.9423 189.728 48.9423 189.673Z" fill="#003087"/>
<path d="M60.8457 189.44L59.584 189.44C59.429 189.44 59.3352 189.623 59.302 189.988C59.0139 189.546 58.4886 189.324 57.7248 189.324C56.928 189.324 56.25 189.623 55.6913 190.221C55.1324 190.818 54.853 191.521 54.853 192.329C54.853 192.982 55.0439 193.502 55.4256 193.889C55.8074 194.277 56.3193 194.47 56.9613 194.47C57.2822 194.47 57.6086 194.404 57.9406 194.271C58.2727 194.138 58.5325 193.961 58.721 193.74C58.721 193.751 58.7097 193.801 58.6877 193.889C58.6654 193.978 58.6545 194.044 58.6545 194.088C58.6545 194.266 58.7262 194.354 58.8703 194.354L60.0158 194.354C60.2258 194.354 60.3477 194.249 60.3809 194.039L61.0615 189.706C61.0725 189.64 61.0559 189.579 61.0117 189.523C60.9673 189.468 60.9121 189.44 60.8457 189.44ZM58.6794 192.711C58.3972 192.987 58.0569 193.126 57.6585 193.126C57.3374 193.126 57.0776 193.037 56.8783 192.86C56.679 192.683 56.5794 192.44 56.5794 192.13C56.5794 191.72 56.7177 191.374 56.9945 191.092C57.2708 190.81 57.6142 190.669 58.0237 190.669C58.3333 190.669 58.5907 190.76 58.7956 190.943C59.0002 191.125 59.1028 191.377 59.1028 191.698C59.1027 192.096 58.9616 192.434 58.6794 192.711Z" fill="#009CDE"/>
<path d="M41.9864 189.44L40.7248 189.44C40.5697 189.44 40.4758 189.623 40.4426 189.988C40.1437 189.546 39.618 189.324 38.8655 189.324C38.0687 189.324 37.3907 189.623 36.8319 190.221C36.273 190.818 35.9937 191.521 35.9937 192.329C35.9937 192.982 36.1846 193.502 36.5664 193.889C36.9482 194.277 37.4599 194.47 38.1019 194.47C38.4116 194.47 38.7328 194.404 39.0647 194.271C39.3967 194.138 39.6623 193.961 39.8615 193.74C39.8171 193.873 39.7951 193.989 39.7951 194.088C39.7951 194.266 39.867 194.354 40.0109 194.354L41.1563 194.354C41.3664 194.354 41.4883 194.249 41.5215 194.039L42.2021 189.706C42.213 189.64 42.1964 189.579 42.1523 189.523C42.108 189.468 42.0528 189.44 41.9864 189.44ZM39.8201 192.719C39.5378 192.99 39.1918 193.126 38.7826 193.126C38.4615 193.126 38.2041 193.037 38.0106 192.86C37.8168 192.683 37.7201 192.44 37.7201 192.13C37.7201 191.72 37.8584 191.374 38.1351 191.092C38.4116 190.81 38.7547 190.669 39.1644 190.669C39.4741 190.669 39.7314 190.76 39.9363 190.943C40.1409 191.125 40.2434 191.377 40.2434 191.698C40.2434 192.108 40.1023 192.448 39.8201 192.719Z" fill="#003087"/>
<path d="M54.6147 187.44C54.1886 187.147 53.6326 187 52.9464 187L50.307 187C50.0855 187 49.9637 187.105 49.9418 187.315L48.8628 194.088C48.8516 194.155 48.8681 194.216 48.9125 194.271C48.9565 194.326 49.0121 194.354 49.0785 194.354L50.4397 194.354C50.5725 194.354 50.6609 194.282 50.7053 194.138L51.0042 192.213C51.0151 192.124 51.0539 192.052 51.1204 191.997C51.1868 191.941 51.2697 191.905 51.3694 191.889C51.4689 191.872 51.5629 191.864 51.6516 191.864C51.74 191.864 51.8451 191.87 51.9669 191.881C52.0886 191.892 52.1663 191.897 52.1993 191.897C53.1511 191.897 53.898 191.629 54.4404 191.092C54.9826 190.555 55.2538 189.811 55.2538 188.859C55.2538 188.206 55.0407 187.733 54.6147 187.44ZM52.9132 190.171C52.6697 190.337 52.3045 190.42 51.8176 190.42L51.2864 190.436L51.5686 188.66C51.5906 188.538 51.6625 188.477 51.7844 188.477L52.0831 188.477C52.3265 188.477 52.5202 188.489 52.6643 188.511C52.8079 188.533 52.9464 188.602 53.0792 188.718C53.2121 188.834 53.2784 189.003 53.2784 189.224C53.2784 189.689 53.1566 190.005 52.9132 190.171Z" fill="#009CDE"/>
<path d="M133.458 196.032C133.074 196.108 132.694 196.138 132.318 196.122C131.946 196.11 131.614 196.036 131.322 195.9C131.03 195.76 130.808 195.544 130.656 195.252C130.528 194.996 130.458 194.738 130.446 194.478C130.438 194.214 130.434 193.916 130.434 193.584L130.434 187.752L131.502 187.752L131.502 193.536C131.502 193.8 131.504 194.026 131.508 194.214C131.516 194.402 131.558 194.564 131.634 194.7C131.778 194.956 132.006 195.106 132.318 195.15C132.634 195.194 133.014 195.182 133.458 195.114L133.458 196.032ZM129.12 190.434L129.12 189.552L133.458 189.552L133.458 190.434L129.12 190.434ZM137.264 196.212C136.62 196.212 136.064 196.066 135.596 195.774C135.132 195.482 134.774 195.078 134.522 194.562C134.27 194.046 134.144 193.454 134.144 192.786C134.144 192.106 134.272 191.51 134.528 190.998C134.784 190.486 135.146 190.088 135.614 189.804C136.082 189.516 136.632 189.372 137.264 189.372C137.912 189.372 138.47 189.518 138.938 189.81C139.406 190.098 139.764 190.5 140.012 191.016C140.264 191.528 140.39 192.118 140.39 192.786C140.39 193.462 140.264 194.058 140.012 194.574C139.76 195.086 139.4 195.488 138.932 195.78C138.464 196.068 137.908 196.212 137.264 196.212ZM137.264 195.198C137.936 195.198 138.436 194.974 138.764 194.526C139.092 194.078 139.256 193.498 139.256 192.786C139.256 192.054 139.09 191.472 138.758 191.04C138.426 190.604 137.928 190.386 137.264 190.386C136.812 190.386 136.44 190.488 136.148 190.692C135.856 190.896 135.638 191.178 135.494 191.538C135.35 191.898 135.278 192.314 135.278 192.786C135.278 193.514 135.446 194.098 135.782 194.538C136.118 194.978 136.612 195.198 137.264 195.198Z" fill="#595959"/>
<path d="M211.756 187.44C211.33 187.147 210.774 187 210.088 187L207.432 187C207.222 187 207.105 187.105 207.083 187.315L206.004 194.088C205.993 194.155 206.01 194.216 206.054 194.271C206.098 194.326 206.154 194.354 206.22 194.354L207.482 194.354C207.703 194.354 207.825 194.249 207.847 194.039L208.146 192.213C208.157 192.124 208.196 192.052 208.262 191.997C208.328 191.941 208.411 191.905 208.511 191.889C208.611 191.872 208.704 191.864 208.793 191.864C208.882 191.864 208.987 191.87 209.109 191.881C209.23 191.892 209.308 191.897 209.341 191.897C210.293 191.897 211.04 191.629 211.582 191.092C212.124 190.555 212.395 189.811 212.395 188.859C212.395 188.206 212.182 187.733 211.756 187.44ZM210.387 189.473C210.331 189.861 210.188 190.115 209.955 190.237C209.723 190.359 209.391 190.42 208.959 190.42L208.411 190.436L208.694 188.66C208.716 188.538 208.788 188.477 208.909 188.477L209.225 188.477C209.667 188.477 209.989 188.541 210.188 188.668C210.387 188.796 210.453 189.064 210.387 189.473Z" fill="#003087"/>
<path d="M239.784 187L238.556 187C238.434 187 238.362 187.061 238.34 187.183L237.261 194.088L237.244 194.121C237.244 194.177 237.266 194.229 237.311 194.279C237.355 194.329 237.41 194.354 237.477 194.354L238.572 194.354C238.782 194.354 238.899 194.249 238.921 194.039L240 187.249L240 187.232C240 187.077 239.928 187 239.784 187Z" fill="#009CDE"/>
<path d="M224.943 189.673C224.943 189.617 224.921 189.565 224.877 189.515C224.833 189.465 224.783 189.44 224.728 189.44L223.449 189.44C223.327 189.44 223.228 189.496 223.151 189.606L221.391 192.196L220.661 189.706C220.605 189.529 220.483 189.44 220.295 189.44L219.05 189.44C218.995 189.44 218.945 189.465 218.901 189.515C218.856 189.565 218.834 189.617 218.834 189.673C218.834 189.695 218.942 190.021 219.158 190.652C219.374 191.283 219.606 191.964 219.855 192.694C220.104 193.424 220.234 193.812 220.245 193.856C219.338 195.096 218.884 195.76 218.884 195.848C218.884 195.992 218.956 196.064 219.1 196.064L220.378 196.064C220.5 196.064 220.6 196.009 220.677 195.898L224.91 189.789C224.932 189.767 224.943 189.728 224.943 189.673Z" fill="#003087"/>
<path d="M236.847 189.44L235.585 189.44C235.43 189.44 235.336 189.623 235.303 189.988C235.015 189.546 234.49 189.324 233.726 189.324C232.929 189.324 232.251 189.623 231.692 190.221C231.133 190.818 230.854 191.521 230.854 192.329C230.854 192.982 231.045 193.502 231.427 193.889C231.808 194.277 232.32 194.47 232.962 194.47C233.283 194.47 233.61 194.404 233.942 194.271C234.274 194.138 234.533 193.961 234.722 193.74C234.722 193.751 234.711 193.801 234.689 193.889C234.666 193.978 234.655 194.044 234.655 194.088C234.655 194.266 234.727 194.354 234.871 194.354L236.017 194.354C236.227 194.354 236.349 194.249 236.382 194.039L237.063 189.706C237.073 189.64 237.057 189.579 237.013 189.523C236.968 189.468 236.913 189.44 236.847 189.44ZM234.68 192.711C234.398 192.987 234.058 193.126 233.659 193.126C233.338 193.126 233.079 193.037 232.879 192.86C232.68 192.683 232.58 192.44 232.58 192.13C232.58 191.72 232.719 191.374 232.995 191.092C233.272 190.81 233.615 190.669 234.025 190.669C234.334 190.669 234.592 190.76 234.797 190.943C235.001 191.125 235.104 191.377 235.104 191.698C235.104 192.096 234.963 192.434 234.68 192.711Z" fill="#009CDE"/>
<path d="M217.987 189.44L216.726 189.44C216.571 189.44 216.477 189.623 216.444 189.988C216.145 189.546 215.619 189.324 214.866 189.324C214.07 189.324 213.392 189.623 212.833 190.221C212.274 190.818 211.995 191.521 211.995 192.329C211.995 192.982 212.186 193.502 212.567 193.889C212.949 194.277 213.461 194.47 214.103 194.47C214.413 194.47 214.734 194.404 215.066 194.271C215.398 194.138 215.663 193.961 215.863 193.74C215.818 193.873 215.796 193.989 215.796 194.088C215.796 194.266 215.868 194.354 216.012 194.354L217.157 194.354C217.367 194.354 217.489 194.249 217.523 194.039L218.203 189.706C218.214 189.64 218.197 189.579 218.153 189.523C218.109 189.468 218.054 189.44 217.987 189.44ZM215.821 192.719C215.539 192.99 215.193 193.126 214.784 193.126C214.462 193.126 214.205 193.037 214.012 192.86C213.818 192.683 213.721 192.44 213.721 192.13C213.721 191.72 213.859 191.374 214.136 191.092C214.413 190.81 214.756 190.669 215.165 190.669C215.475 190.669 215.732 190.76 215.937 190.943C216.142 191.125 216.244 191.377 216.244 191.698C216.244 192.108 216.103 192.448 215.821 192.719Z" fill="#003087"/>
<path d="M230.616 187.44C230.19 187.147 229.634 187 228.947 187L226.308 187C226.086 187 225.965 187.105 225.943 187.315L224.864 194.088C224.853 194.155 224.869 194.216 224.914 194.271C224.957 194.326 225.013 194.354 225.079 194.354L226.441 194.354C226.573 194.354 226.662 194.282 226.706 194.138L227.005 192.213C227.016 192.124 227.055 192.052 227.121 191.997C227.188 191.941 227.271 191.905 227.37 191.889C227.47 191.872 227.564 191.864 227.653 191.864C227.741 191.864 227.846 191.87 227.968 191.881C228.09 191.892 228.167 191.897 228.2 191.897C229.152 191.897 229.899 191.629 230.441 191.092C230.984 190.555 231.255 189.811 231.255 188.859C231.255 188.206 231.042 187.733 230.616 187.44ZM228.914 190.171C228.671 190.337 228.305 190.42 227.819 190.42L227.287 190.436L227.57 188.66C227.592 188.538 227.663 188.477 227.785 188.477L228.084 188.477C228.327 188.477 228.521 188.489 228.665 188.511C228.809 188.533 228.947 188.602 229.08 188.718C229.213 188.834 229.279 189.003 229.279 189.224C229.279 189.689 229.158 190.005 228.914 190.171Z" fill="#009CDE"/>
<path d="M25.4148 240.064L24.3068 240.064L27.5114 231.337L28.6023 231.337L31.8068 240.064L30.6989 240.064L28.0909 232.717L28.0227 232.717L25.4148 240.064ZM25.8239 236.655L30.2898 236.655L30.2898 237.592L25.8239 237.592L25.8239 236.655ZM33.0298 240.064L33.0298 233.518L34.0014 233.518L34.0014 234.541L34.0866 234.541C34.223 234.192 34.4432 233.92 34.7472 233.727C35.0511 233.531 35.4162 233.433 35.8423 233.433C36.2741 233.433 36.6335 233.531 36.9205 233.727C37.2102 233.92 37.4361 234.192 37.598 234.541L37.6662 234.541C37.8338 234.203 38.0852 233.935 38.4205 233.736C38.7557 233.534 39.1577 233.433 39.6264 233.433C40.2116 233.433 40.6903 233.616 41.0625 233.983C41.4347 234.347 41.6207 234.913 41.6207 235.683L41.6207 240.064L40.6151 240.064L40.6151 235.683C40.6151 235.2 40.483 234.855 40.2187 234.648C39.9545 234.44 39.6435 234.337 39.2855 234.337C38.8253 234.337 38.4688 234.476 38.2159 234.754C37.9631 235.03 37.8366 235.379 37.8366 235.802L37.8366 240.064L36.8139 240.064L36.8139 235.581C36.8139 235.209 36.6932 234.909 36.4517 234.682C36.2102 234.452 35.8991 234.337 35.5185 234.337C35.2571 234.337 35.0128 234.406 34.7855 234.545C34.5611 234.685 34.3793 234.878 34.2401 235.125C34.1037 235.369 34.0355 235.652 34.0355 235.973L34.0355 240.064L33.0298 240.064ZM46.1186 240.2C45.5277 240.2 45.0092 240.06 44.5632 239.778C44.12 239.497 43.7734 239.104 43.5234 238.598C43.2763 238.092 43.1527 237.501 43.1527 236.825C43.1527 236.143 43.2763 235.548 43.5234 235.04C43.7734 234.531 44.12 234.136 44.5632 233.855C45.0092 233.574 45.5277 233.433 46.1186 233.433C46.7095 233.433 47.2266 233.574 47.6697 233.855C48.1158 234.136 48.4624 234.531 48.7095 235.04C48.9595 235.548 49.0845 236.143 49.0845 236.825C49.0845 237.501 48.9595 238.092 48.7095 238.598C48.4624 239.104 48.1158 239.497 47.6697 239.778C47.2266 240.06 46.7095 240.2 46.1186 240.2ZM46.1186 239.297C46.5675 239.297 46.9368 239.182 47.2266 238.952C47.5163 238.722 47.7308 238.419 47.87 238.044C48.0092 237.669 48.0788 237.263 48.0788 236.825C48.0788 236.388 48.0092 235.98 47.87 235.602C47.7308 235.224 47.5163 234.919 47.2266 234.686C46.9368 234.453 46.5675 234.337 46.1186 234.337C45.6697 234.337 45.3004 234.453 45.0107 234.686C44.7209 234.919 44.5064 235.224 44.3672 235.602C44.228 235.98 44.1584 236.388 44.1584 236.825C44.1584 237.263 44.228 237.669 44.3672 238.044C44.5064 238.419 44.7209 238.722 45.0107 238.952C45.3004 239.182 45.6697 239.297 46.1186 239.297ZM54.7447 237.388L54.7447 233.518L55.7504 233.518L55.7504 240.064L54.7447 240.064L54.7447 238.956L54.6765 238.956C54.5231 239.288 54.2844 239.571 53.9606 239.804C53.6367 240.034 53.2276 240.149 52.7333 240.149C52.3242 240.149 51.9606 240.06 51.6424 239.881C51.3242 239.699 51.0742 239.426 50.8924 239.062C50.7106 238.696 50.6197 238.234 50.6197 237.677L50.6197 233.518L51.6254 233.518L51.6254 237.609C51.6254 238.087 51.7589 238.467 52.0259 238.751C52.2958 239.035 52.6396 239.177 53.0572 239.177C53.3072 239.177 53.5614 239.114 53.82 238.986C54.0813 238.858 54.3001 238.662 54.4762 238.398C54.6552 238.133 54.7447 237.797 54.7447 237.388ZM58.598 236.126L58.598 240.064L57.5923 240.064L57.5923 233.518L58.5639 233.518L58.5639 234.541L58.6491 234.541C58.8026 234.209 59.0355 233.942 59.348 233.74C59.6605 233.535 60.0639 233.433 60.5582 233.433C61.0014 233.433 61.3892 233.524 61.7216 233.706C62.054 233.885 62.3125 234.158 62.4972 234.524C62.6818 234.888 62.7741 235.348 62.7741 235.905L62.7741 240.064L61.7685 240.064L61.7685 235.973C61.7685 235.459 61.6349 235.058 61.3679 234.771C61.1009 234.481 60.7344 234.337 60.2685 234.337C59.9474 234.337 59.6605 234.406 59.4077 234.545C59.1577 234.685 58.9602 234.888 58.8153 235.155C58.6705 235.422 58.598 235.746 58.598 236.126ZM67.4585 233.518L67.4585 234.371L64.0664 234.371L64.0664 233.518L67.4585 233.518ZM65.055 231.95L66.0607 231.95L66.0607 238.189C66.0607 238.473 66.1019 238.686 66.1843 238.828C66.2695 238.967 66.3775 239.061 66.5082 239.109C66.6417 239.155 66.7823 239.177 66.93 239.177C67.0408 239.177 67.1317 239.172 67.2028 239.16C67.2738 239.146 67.3306 239.135 67.3732 239.126L67.5778 240.03C67.5096 240.055 67.4144 240.081 67.2923 240.106C67.1701 240.135 67.0153 240.149 66.8278 240.149C66.5437 240.149 66.2653 240.088 65.9925 239.966C65.7227 239.844 65.4982 239.658 65.3192 239.408C65.1431 239.158 65.055 238.842 65.055 238.462L65.055 231.95Z" fill="#1F2937"/>
<path d="M24.5568 265.428L24.5568 263.882L32.6804 263.882L32.6804 265.428L29.5334 265.428L29.5334 274.064L27.7038 274.064L27.7038 265.428L24.5568 265.428ZM36.992 263.882L38.8216 263.882L38.8216 271.041C38.8182 271.697 38.679 272.262 38.4039 272.736C38.1288 273.207 37.7444 273.57 37.2505 273.825C36.76 274.077 36.1883 274.203 35.5353 274.203C34.9387 274.203 34.4018 274.097 33.9245 273.885C33.4506 273.669 33.0744 273.351 32.796 272.93C32.5176 272.509 32.3784 271.986 32.3784 271.359L34.2129 271.359C34.2162 271.634 34.2759 271.871 34.3919 272.07C34.5112 272.269 34.6752 272.422 34.8841 272.528C35.0929 272.634 35.3332 272.687 35.6049 272.687C35.8999 272.687 36.1502 272.625 36.3556 272.503C36.5611 272.377 36.7169 272.191 36.823 271.946C36.9324 271.701 36.9887 271.399 36.992 271.041L36.992 263.882ZM46.356 266.681C46.3096 266.247 46.1141 265.909 45.7694 265.667C45.428 265.425 44.9838 265.304 44.437 265.304C44.0525 265.304 43.7227 265.362 43.4476 265.478C43.1725 265.594 42.9621 265.751 42.8162 265.95C42.6704 266.149 42.5958 266.376 42.5925 266.631C42.5925 266.843 42.6406 267.027 42.7367 267.183C42.8361 267.339 42.9703 267.472 43.1394 267.581C43.3084 267.687 43.4957 267.776 43.7012 267.849C43.9067 267.922 44.1138 267.984 44.3226 268.033L45.2772 268.272C45.6616 268.361 46.0312 268.482 46.3858 268.635C46.7438 268.787 47.0636 268.98 47.3453 269.212C47.6304 269.444 47.8558 269.724 48.0215 270.052C48.1872 270.38 48.2701 270.764 48.2701 271.205C48.2701 271.802 48.1176 272.327 47.8127 272.781C47.5078 273.232 47.0669 273.585 46.4902 273.84C45.9168 274.092 45.2225 274.218 44.4071 274.218C43.615 274.218 42.9273 274.095 42.3439 273.85C41.7639 273.605 41.3098 273.247 40.9817 272.776C40.6569 272.306 40.4812 271.732 40.4547 271.056L42.2694 271.056C42.2959 271.411 42.4052 271.706 42.5975 271.941C42.7897 272.176 43.04 272.352 43.3482 272.468C43.6597 272.584 44.0078 272.642 44.3922 272.642C44.7933 272.642 45.1446 272.582 45.4462 272.463C45.7511 272.34 45.9898 272.171 46.1621 271.956C46.3345 271.737 46.4223 271.482 46.4256 271.19C46.4223 270.925 46.3444 270.706 46.1919 270.534C46.0395 270.358 45.8257 270.213 45.5506 270.097C45.2788 269.977 44.9606 269.871 44.5961 269.778L43.4377 269.48C42.5991 269.265 41.9363 268.938 41.449 268.501C40.9651 268.06 40.7232 267.475 40.7232 266.746C40.7232 266.146 40.8856 265.62 41.2104 265.17C41.5385 264.719 41.9843 264.369 42.5478 264.121C43.1112 263.869 43.7492 263.743 44.4618 263.743C45.1844 263.743 45.8174 263.869 46.361 264.121C46.9078 264.369 47.3371 264.716 47.6486 265.16C47.9602 265.601 48.1209 266.108 48.1309 266.681L46.356 266.681ZM56.9418 274.203C56.2259 274.203 55.5895 274.08 55.0327 273.835C54.4792 273.59 54.0417 273.249 53.7202 272.811C53.3987 272.374 53.228 271.868 53.2081 271.295L55.0774 271.295C55.094 271.57 55.1851 271.81 55.3509 272.016C55.5166 272.218 55.737 272.375 56.0121 272.488C56.2872 272.601 56.5954 272.657 56.9368 272.657C57.3014 272.657 57.6245 272.594 57.9062 272.468C58.188 272.339 58.4084 272.16 58.5675 271.931C58.7266 271.702 58.8045 271.439 58.8011 271.141C58.8045 270.832 58.7249 270.561 58.5625 270.325C58.4001 270.09 58.1648 269.906 57.8565 269.773C57.5516 269.641 57.1837 269.574 56.7528 269.574L55.853 269.574L55.853 268.153L56.7528 268.153C57.1075 268.153 57.4174 268.091 57.6825 267.969C57.951 267.846 58.1615 267.674 58.3139 267.452C58.4664 267.226 58.541 266.966 58.5376 266.671C58.541 266.383 58.4763 266.132 58.3437 265.92C58.2145 265.705 58.0305 265.538 57.7919 265.418C57.5566 265.299 57.2798 265.239 56.9616 265.239C56.6501 265.239 56.3617 265.296 56.0966 265.408C55.8314 265.521 55.6177 265.682 55.4553 265.891C55.2929 266.096 55.2067 266.341 55.1967 266.626L53.4219 266.626C53.4351 266.056 53.5992 265.556 53.9141 265.125C54.2322 264.691 54.6565 264.353 55.1868 264.111C55.7171 263.865 56.312 263.743 56.9716 263.743C57.651 263.743 58.241 263.87 58.7415 264.126C59.2453 264.378 59.6347 264.717 59.9098 265.145C60.1849 265.572 60.3224 266.045 60.3224 266.562C60.3258 267.135 60.1567 267.616 59.8153 268.003C59.4773 268.391 59.0331 268.645 58.483 268.764L58.483 268.844C59.1989 268.943 59.7474 269.208 60.1286 269.639C60.513 270.067 60.7036 270.599 60.7003 271.235C60.7003 271.805 60.5379 272.315 60.2131 272.766C59.8916 273.214 59.4474 273.565 58.8807 273.82C58.3172 274.075 57.6709 274.203 56.9418 274.203ZM64.2388 272.672L64.1742 273.219C64.1278 273.636 64.0449 274.061 63.9256 274.491C63.8096 274.926 63.687 275.325 63.5577 275.69C63.4284 276.054 63.324 276.341 63.2445 276.55L62.0314 276.55C62.0778 276.347 62.1408 276.072 62.2203 275.724C62.3032 275.376 62.3828 274.985 62.459 274.551C62.5352 274.117 62.5866 273.676 62.6131 273.229L62.6479 272.672L64.2388 272.672ZM66.2349 274.064L66.2349 272.731L69.7697 269.266C70.1078 268.925 70.3895 268.622 70.6149 268.356C70.8403 268.091 71.0093 267.834 71.122 267.586C71.2347 267.337 71.291 267.072 71.291 266.79C71.291 266.469 71.2181 266.194 71.0723 265.965C70.9264 265.733 70.7259 265.554 70.4707 265.428C70.2155 265.302 69.9255 265.239 69.6007 265.239C69.2659 265.239 68.9726 265.309 68.7207 265.448C68.4688 265.584 68.2733 265.778 68.1341 266.03C67.9982 266.282 67.9302 266.582 67.9302 266.93L66.1752 266.93C66.1752 266.283 66.3227 265.722 66.6177 265.244C66.9127 264.767 67.3187 264.397 67.8358 264.136C68.3561 263.874 68.9527 263.743 69.6255 263.743C70.3083 263.743 70.9082 263.87 71.4252 264.126C71.9423 264.381 72.3433 264.731 72.6284 265.175C72.9167 265.619 73.0609 266.126 73.0609 266.696C73.0609 267.077 72.988 267.452 72.8422 267.82C72.6963 268.187 72.4395 268.595 72.0716 269.043C71.707 269.49 71.1949 270.032 70.5353 270.668L68.7804 272.453L68.7804 272.523L73.215 272.523L73.215 274.064L66.2349 274.064ZM78.6937 274.258C77.8751 274.258 77.1724 274.051 76.5858 273.636C76.0024 273.219 75.5533 272.617 75.2385 271.832C74.9269 271.043 74.7711 270.093 74.7711 268.983C74.7744 267.873 74.9319 266.928 75.2434 266.149C75.5583 265.367 76.0074 264.77 76.5907 264.359C77.1774 263.948 77.8784 263.743 78.6937 263.743C79.5091 263.743 80.2101 263.948 80.7967 264.359C81.3833 264.77 81.8324 265.367 82.144 266.149C82.4589 266.931 82.6163 267.876 82.6163 268.983C82.6163 270.097 82.4589 271.048 82.144 271.837C81.8324 272.622 81.3833 273.222 80.7967 273.636C80.2134 274.051 79.5124 274.258 78.6937 274.258ZM78.6937 272.702C79.3301 272.702 79.8322 272.388 80.2001 271.762C80.5713 271.132 80.7569 270.206 80.7569 268.983C80.7569 268.174 80.6724 267.495 80.5034 266.945C80.3343 266.394 80.0957 265.98 79.7875 265.702C79.4792 265.42 79.1146 265.279 78.6937 265.279C78.0607 265.279 77.5602 265.594 77.1923 266.224C76.8244 266.85 76.6388 267.77 76.6355 268.983C76.6322 269.795 76.7134 270.478 76.8791 271.031C77.0481 271.585 77.2868 272.002 77.595 272.284C77.9032 272.562 78.2695 272.702 78.6937 272.702ZM88.0316 274.258C87.2129 274.258 86.5103 274.051 85.9237 273.636C85.3403 273.219 84.8912 272.617 84.5763 271.832C84.2648 271.043 84.109 270.093 84.109 268.983C84.1123 267.873 84.2698 266.928 84.5813 266.149C84.8962 265.367 85.3453 264.77 85.9286 264.359C86.5153 263.948 87.2163 263.743 88.0316 263.743C88.8469 263.743 89.5479 263.948 90.1346 264.359C90.7212 264.77 91.1703 265.367 91.4819 266.149C91.7968 266.931 91.9542 267.876 91.9542 268.983C91.9542 270.097 91.7968 271.048 91.4819 271.837C91.1703 272.622 90.7212 273.222 90.1346 273.636C89.5513 274.051 88.8503 274.258 88.0316 274.258ZM88.0316 272.702C88.668 272.702 89.1701 272.388 89.538 271.762C89.9092 271.132 90.0948 270.206 90.0948 268.983C90.0948 268.174 90.0103 267.495 89.8413 266.945C89.6722 266.394 89.4336 265.98 89.1254 265.702C88.8171 265.42 88.4525 265.279 88.0316 265.279C87.3986 265.279 86.8981 265.594 86.5302 266.224C86.1623 266.85 85.9767 267.77 85.9734 268.983C85.9701 269.795 86.0513 270.478 86.217 271.031C86.386 271.585 86.6246 272.002 86.9329 272.284C87.2411 272.562 87.6074 272.702 88.0316 272.702ZM94.3381 274.173C94.0365 274.173 93.7779 274.067 93.5625 273.855C93.3471 273.643 93.241 273.384 93.2443 273.079C93.241 272.781 93.3471 272.526 93.5625 272.314C93.7779 272.102 94.0365 271.996 94.3381 271.996C94.6297 271.996 94.8833 272.102 95.0987 272.314C95.3175 272.526 95.4285 272.781 95.4318 273.079C95.4285 273.282 95.3755 273.466 95.2727 273.631C95.1733 273.797 95.0407 273.93 94.875 274.029C94.7126 274.125 94.5336 274.173 94.3381 274.173ZM100.637 274.258C99.8184 274.258 99.1158 274.051 98.5291 273.636C97.9458 273.219 97.4967 272.617 97.1818 271.832C96.8703 271.043 96.7145 270.093 96.7145 268.983C96.7178 267.873 96.8752 266.928 97.1868 266.149C97.5017 265.367 97.9508 264.77 98.5341 264.359C99.1207 263.948 99.8217 263.743 100.637 263.743C101.452 263.743 102.153 263.948 102.74 264.359C103.327 264.77 103.776 265.367 104.087 266.149C104.402 266.931 104.56 267.876 104.56 268.983C104.56 270.097 104.402 271.048 104.087 271.837C103.776 272.622 103.327 273.222 102.74 273.636C102.157 274.051 101.456 274.258 100.637 274.258ZM100.637 272.702C101.273 272.702 101.776 272.388 102.143 271.762C102.515 271.132 102.7 270.206 102.7 268.983C102.7 268.174 102.616 267.495 102.447 266.945C102.278 266.394 102.039 265.98 101.731 265.702C101.423 265.42 101.058 265.279 100.637 265.279C100.004 265.279 99.5036 265.594 99.1357 266.224C98.7678 266.85 98.5821 267.77 98.5788 268.983C98.5755 269.795 98.6567 270.478 98.8224 271.031C98.9915 271.585 99.2301 272.002 99.5384 272.284C99.8466 272.562 100.213 272.702 100.637 272.702ZM109.975 274.258C109.156 274.258 108.454 274.051 107.867 273.636C107.284 273.219 106.835 272.617 106.52 271.832C106.208 271.043 106.052 270.093 106.052 268.983C106.056 267.873 106.213 266.928 106.525 266.149C106.84 265.367 107.289 264.77 107.872 264.359C108.459 263.948 109.16 263.743 109.975 263.743C110.79 263.743 111.491 263.948 112.078 264.359C112.665 264.77 113.114 265.367 113.425 266.149C113.74 266.931 113.898 267.876 113.898 268.983C113.898 270.097 113.74 271.048 113.425 271.837C113.114 272.622 112.665 273.222 112.078 273.636C111.495 274.051 110.794 274.258 109.975 274.258ZM109.975 272.702C110.611 272.702 111.113 272.388 111.481 271.762C111.853 271.132 112.038 270.206 112.038 268.983C112.038 268.174 111.954 267.495 111.785 266.945C111.616 266.394 111.377 265.98 111.069 265.702C110.76 265.42 110.396 265.279 109.975 265.279C109.342 265.279 108.841 265.594 108.474 266.224C108.106 266.85 107.92 267.77 107.917 268.983C107.913 269.795 107.995 270.478 108.16 271.031C108.329 271.585 108.568 272.002 108.876 272.284C109.184 272.562 109.551 272.702 109.975 272.702Z" fill="#1F2937"/>
</svg>
