<svg width="35" height="35" viewBox="0 0 35 35" fill="none" xmlns="http://www.w3.org/2000/svg">
<path d="M11.2363 30.9084L4.0544 23.4655C3.79209 23.1936 3.64551 22.8306 3.64551 22.4528V12.5472C3.64551 12.1694 3.79209 11.8065 4.0544 11.5345L11.2363 4.09155C11.5111 3.80672 11.8899 3.64584 12.2857 3.64584H22.7137C23.1094 3.64584 23.4882 3.80672 23.7631 4.09155L30.9449 11.5345C31.2073 11.8065 31.3538 12.1694 31.3538 12.5472V22.4528C31.3538 22.8306 31.2073 23.1936 30.9449 23.4655L23.7631 30.9084C23.4882 31.1933 23.1094 31.3542 22.7137 31.3542H12.2857C11.8899 31.3542 11.5111 31.1933 11.2363 30.9084Z" stroke="#1F2937"/>
</svg>
