<svg width="86" height="176" viewBox="0 0 86 176" fill="none" xmlns="http://www.w3.org/2000/svg">
<g clip-path="url(#clip0_138_1367)">
<g clip-path="url(#clip1_138_1367)">
<g clip-path="url(#clip2_138_1367)">
<path d="M212 0H8C3.58172 0 0 3.58172 0 8V168C0 172.418 3.58172 176 8 176H212C216.418 176 220 172.418 220 168V8C220 3.58172 216.418 0 212 0Z" fill="white"/>
<path d="M36 60H24C21.7909 60 20 61.7909 20 64V76C20 78.2091 21.7909 80 24 80H36C38.2091 80 40 78.2091 40 76V64C40 61.7909 38.2091 60 36 60Z" fill="#315266"/>
<path d="M36.1875 66.0625L28.3125 73.9375L24.375 70" stroke="white" stroke-width="1.5" stroke-linecap="round" stroke-linejoin="round"/>
<path d="M88.3077 60H59.0769C57.3776 60 56 61.3776 56 63.0769V76.9231C56 78.6224 57.3776 80 59.0769 80H88.3077C90.007 80 91.3846 78.6224 91.3846 76.9231V63.0769C91.3846 61.3776 90.007 60 88.3077 60Z" fill="#FAF9F6"/>
<path fill-rule="evenodd" clip-rule="evenodd" d="M71.5063 69.2653H73.3763L70.5804 63.0769H68.4203L65.6152 69.2653H67.4482L67.9906 68.0012H70.9639L71.5063 69.2653ZM78.369 69.2653H76.9202L75.1999 64.6857V69.2653H73.5535V63.0769H76.1997L77.6678 67.0197L79.1267 63.0769H81.7452V69.2653H80.0995V64.6857L78.369 69.2653ZM74.4285 70.7347V72.1226H70.7632V73.1306H74.3445V74.4827H70.7632V75.5351H74.4285V76.923H69.0983V70.7347H74.4285ZM81.7696 76.9231H79.6843L78.1321 75.0042L76.5892 76.9231H74.5601L77.1686 73.8373L74.5509 70.7347H76.6354L78.1784 72.6354L79.7213 70.7347H81.7511L79.1326 73.8023L81.7696 76.9231ZM69.4677 64.5356L68.5605 66.6573H70.3842L69.4677 64.5356Z" fill="#006FAC"/>
<path d="M36 96.5H24C22.067 96.5 20.5 98.067 20.5 100V112C20.5 113.933 22.067 115.5 24 115.5H36C37.933 115.5 39.5 113.933 39.5 112V100C39.5 98.067 37.933 96.5 36 96.5Z" fill="white"/>
<path d="M36 96.5H24C22.067 96.5 20.5 98.067 20.5 100V112C20.5 113.933 22.067 115.5 24 115.5H36C37.933 115.5 39.5 113.933 39.5 112V100C39.5 98.067 37.933 96.5 36 96.5Z" stroke="#E1DCD4"/>
<path d="M88.3077 96H59.0769C57.3776 96 56 97.3776 56 99.0769V112.923C56 114.622 57.3776 116 59.0769 116H88.3077C90.007 116 91.3846 114.622 91.3846 112.923V99.0769C91.3846 97.3776 90.007 96 88.3077 96Z" fill="#FAF9F6"/>
<path fill-rule="evenodd" clip-rule="evenodd" d="M77.2655 111.539C80.39 111.539 82.923 109.059 82.923 106C82.923 102.941 80.39 100.462 77.2655 100.462C74.1409 100.462 71.6079 102.941 71.6079 106C71.6079 109.059 74.1409 111.539 77.2655 111.539Z" fill="#F79E1B"/>
<path fill-rule="evenodd" clip-rule="evenodd" d="M70.1189 111.539C73.2435 111.539 75.7765 109.059 75.7765 106C75.7765 102.941 73.2435 100.462 70.1189 100.462C66.9944 100.462 64.4614 102.941 64.4614 106C64.4614 109.059 66.9944 111.539 70.1189 111.539Z" fill="#EB001B"/>
<path fill-rule="evenodd" clip-rule="evenodd" d="M73.6922 101.706C72.4202 102.722 71.6079 104.268 71.6079 106C71.6079 107.732 72.4202 109.279 73.6922 110.294C74.9641 109.279 75.7764 107.732 75.7764 106C75.7764 104.268 74.9641 102.722 73.6922 101.706Z" fill="#FF5F00"/>
<path d="M36 132H24C21.7909 132 20 133.791 20 136V148C20 150.209 21.7909 152 24 152H36C38.2091 152 40 150.209 40 148V136C40 133.791 38.2091 132 36 132Z" fill="#315266"/>
<path d="M36.1875 138.062L28.3125 145.937L24.375 142" stroke="white" stroke-width="1.5" stroke-linecap="round" stroke-linejoin="round"/>
<mask id="mask0_138_1367" style="mask-type:luminance" maskUnits="userSpaceOnUse" x="56" y="132" width="36" height="20">
<path d="M88.3077 132H59.0769C57.3776 132 56 133.378 56 135.077V148.923C56 150.622 57.3776 152 59.0769 152H88.3077C90.007 152 91.3846 150.622 91.3846 148.923V135.077C91.3846 133.378 90.007 132 88.3077 132Z" fill="white"/>
</mask>
<g mask="url(#mask0_138_1367)">
<path d="M88.3077 132H59.0769C57.3776 132 56 133.378 56 135.077V148.923C56 150.622 57.3776 152 59.0769 152H88.3077C90.007 152 91.3846 150.622 91.3846 148.923V135.077C91.3846 133.378 90.007 132 88.3077 132Z" fill="#FAF9F6"/>
<path fill-rule="evenodd" clip-rule="evenodd" d="M83.708 140.03H85.0783C85.5156 140.03 86.386 140.253 86.386 141.186C86.386 142.121 85.4862 142.314 85.4862 142.314L86.7694 143.956H85.7492L84.615 142.389H84.5281V143.956H83.708V140.03ZM84.5278 140.684V141.83H84.9793C85.3269 141.83 85.5463 141.537 85.5463 141.282V141.232C85.5463 140.977 85.3269 140.684 84.9793 140.684H84.5278Z" fill="#2A2D2E"/>
<path fill-rule="evenodd" clip-rule="evenodd" d="M76.4673 140.03H77.3712L78.5284 142.602L79.619 140.03H80.5232L78.7555 144.055H78.235L76.4673 140.03Z" fill="#2A2D2E"/>
<path fill-rule="evenodd" clip-rule="evenodd" d="M64.3877 143.956H65.2274V140.03H64.3877V143.956Z" fill="#2A2D2E"/>
<path fill-rule="evenodd" clip-rule="evenodd" d="M60.6152 140.03H61.9899C62.8152 140.03 64.026 140.73 64.026 141.975V141.989V142.004C64.026 143.249 62.8152 143.949 61.9899 143.949H60.6152V140.03ZM61.4068 143.296C61.4068 143.296 63.1713 143.481 63.1713 142.023V142C63.1713 140.541 61.4068 140.727 61.4068 140.727V143.296Z" fill="#2A2D2E"/>
<path fill-rule="evenodd" clip-rule="evenodd" d="M83.0981 141.577V142.269H81.67V143.263H83.1641V143.955H80.8359V140.029H83.1641V140.722H81.67V141.577H83.0981Z" fill="#2A2D2E"/>
<path fill-rule="evenodd" clip-rule="evenodd" d="M76.6145 142.012C76.6145 143.136 75.6381 144.047 74.4346 144.047C73.2305 144.047 72.2544 143.136 72.2544 142.012C72.2544 140.888 73.2305 139.977 74.4346 139.977C75.6381 139.977 76.6145 140.888 76.6145 142.012Z" fill="#F16822"/>
<path fill-rule="evenodd" clip-rule="evenodd" d="M67.8013 140.935C67.8013 140.935 67.5247 140.638 67.1531 140.638C66.7824 140.638 66.5681 140.868 66.5681 141.036C66.5681 141.204 66.5612 141.299 67.091 141.505C67.6214 141.712 68.4008 141.861 68.4008 142.735C68.4008 143.609 67.6675 144.052 67.0082 144.052C65.9682 144.052 65.5005 143.308 65.5005 143.308L66.0239 142.819C66.0239 142.819 66.3557 143.34 66.9345 143.34C67.5131 143.34 67.5453 142.928 67.5453 142.793C67.5453 142.593 67.4208 142.395 67.0634 142.272C66.7061 142.149 65.7289 142.026 65.7289 141.146C65.7289 140.356 66.3614 139.964 67.0704 139.964C67.7041 139.964 68.2554 140.427 68.2554 140.427L67.8013 140.935Z" fill="#2A2D2E"/>
<path fill-rule="evenodd" clip-rule="evenodd" d="M71.8901 141.098C71.6302 140.847 71.2723 140.665 70.8696 140.665C70.0801 140.665 69.4402 141.263 69.4402 142C69.4402 142.737 70.0801 143.334 70.8696 143.334C71.2684 143.334 71.6315 143.154 71.8903 142.908L71.8901 143.832C71.5843 143.981 71.238 144.065 70.8696 144.065C69.6482 144.065 68.6582 143.14 68.6582 142C68.6582 140.859 69.6482 139.935 70.8696 139.935C71.239 139.935 71.584 140.02 71.8901 140.17V141.098Z" fill="#2A2D2E"/>
<path fill-rule="evenodd" clip-rule="evenodd" d="M72.9233 152C72.9233 152 79.752 150.739 84.1995 148.86C88.6285 147.151 91.3848 145.077 91.3848 145.077V152H72.9233Z" fill="#F16822"/>
</g>
<path d="M21.2143 47V38.2727H24.487C25.1575 38.2727 25.72 38.3977 26.1745 38.6477C26.6319 38.8977 26.9771 39.2415 27.2101 39.679C27.4458 40.1136 27.5637 40.608 27.5637 41.1619C27.5637 41.7216 27.4458 42.2187 27.2101 42.6534C26.9743 43.0881 26.6262 43.4304 26.166 43.6804C25.7058 43.9276 25.139 44.0511 24.4657 44.0511H22.2967V42.7514H24.2527C24.6447 42.7514 24.9657 42.6832 25.2157 42.5469C25.4657 42.4105 25.6504 42.223 25.7697 41.9844C25.8919 41.7457 25.9529 41.4716 25.9529 41.1619C25.9529 40.8523 25.8919 40.5795 25.7697 40.3438C25.6504 40.108 25.4643 39.9247 25.2115 39.794C24.9615 39.6605 24.639 39.5938 24.2441 39.5938H22.7953V47H21.2143ZM30.6351 47.1321C30.2203 47.1321 29.8468 47.0582 29.5144 46.9105C29.1848 46.7599 28.9235 46.5384 28.7303 46.2457C28.54 45.9531 28.4448 45.5923 28.4448 45.1634C28.4448 44.794 28.513 44.4886 28.6493 44.2472C28.7857 44.0057 28.9718 43.8125 29.2076 43.6676C29.4434 43.5227 29.709 43.4134 30.0044 43.3395C30.3027 43.2628 30.611 43.2074 30.9292 43.1733C31.3127 43.1335 31.6238 43.098 31.8624 43.0668C32.101 43.0327 32.2743 42.9815 32.3823 42.9134C32.4931 42.8423 32.5485 42.733 32.5485 42.5852V42.5597C32.5485 42.2386 32.4533 41.9901 32.263 41.8139C32.0726 41.6378 31.7985 41.5497 31.4405 41.5497C31.0627 41.5497 30.763 41.6321 30.5414 41.7969C30.3226 41.9616 30.1749 42.1562 30.0982 42.3807L28.6578 42.1761C28.7715 41.7784 28.959 41.446 29.2203 41.179C29.4817 40.9091 29.8013 40.7074 30.1792 40.5739C30.557 40.4375 30.9746 40.3693 31.432 40.3693C31.7473 40.3693 32.0613 40.4062 32.3738 40.4801C32.6863 40.554 32.9718 40.6761 33.2303 40.8466C33.4888 41.0142 33.6962 41.2429 33.8525 41.5327C34.0115 41.8224 34.0911 42.1847 34.0911 42.6193V47H32.6081V46.1009H32.557C32.4632 46.2827 32.3311 46.4531 32.1607 46.6122C31.9931 46.7685 31.7814 46.8949 31.5257 46.9915C31.2729 47.0852 30.976 47.1321 30.6351 47.1321ZM31.0357 45.9986C31.3453 45.9986 31.6138 45.9375 31.8411 45.8153C32.0684 45.6903 32.2431 45.5256 32.3652 45.321C32.4902 45.1165 32.5527 44.8935 32.5527 44.652V43.8807C32.5044 43.9205 32.4221 43.9574 32.3056 43.9915C32.1919 44.0256 32.0641 44.0554 31.9221 44.081C31.78 44.1065 31.6394 44.1293 31.5002 44.1491C31.361 44.169 31.2402 44.1861 31.138 44.2003C30.9078 44.2315 30.7019 44.2827 30.5201 44.3537C30.3382 44.4247 30.1948 44.5241 30.0897 44.652C29.9846 44.777 29.932 44.9389 29.932 45.1378C29.932 45.4219 30.0357 45.6364 30.2431 45.7812C30.4505 45.9261 30.7147 45.9986 31.0357 45.9986ZM36.3667 49.4545C36.1564 49.4545 35.9618 49.4375 35.7828 49.4034C35.6067 49.3722 35.4661 49.3352 35.361 49.2926L35.7189 48.0909C35.9434 48.1563 36.1436 48.1875 36.3198 48.1847C36.4959 48.1818 36.6507 48.1264 36.7843 48.0185C36.9206 47.9134 37.0357 47.7372 37.1294 47.4901L37.2615 47.1364L34.888 40.4545H36.5243L38.0328 45.3977H38.101L39.6138 40.4545H41.2544L38.6337 47.7926C38.5115 48.1392 38.3496 48.4361 38.1479 48.6832C37.9462 48.9332 37.699 49.1236 37.4064 49.2543C37.1167 49.3878 36.7701 49.4545 36.3667 49.4545ZM42.3219 47V40.4545H43.7963V41.5668H43.873C44.0094 41.1918 44.2353 40.8991 44.5506 40.6889C44.8659 40.4759 45.2424 40.3693 45.6799 40.3693C46.123 40.3693 46.4966 40.4773 46.8006 40.6932C47.1074 40.9062 47.3233 41.1974 47.4483 41.5668H47.5165C47.6614 41.2031 47.9057 40.9134 48.2495 40.6974C48.5961 40.4787 49.0066 40.3693 49.481 40.3693C50.0833 40.3693 50.5748 40.5597 50.9554 40.9403C51.3361 41.321 51.5265 41.8764 51.5265 42.6065V47H49.9796V42.8452C49.9796 42.4389 49.8716 42.142 49.6557 41.9545C49.4398 41.7642 49.1756 41.669 48.8631 41.669C48.4909 41.669 48.1998 41.7855 47.9895 42.0185C47.7821 42.2486 47.6784 42.5483 47.6784 42.9176V47H46.1657V42.7812C46.1657 42.4432 46.0634 42.1733 45.8588 41.9716C45.6571 41.7699 45.3929 41.669 45.0662 41.669C44.8446 41.669 44.6429 41.7259 44.4611 41.8395C44.2793 41.9503 44.1344 42.108 44.0265 42.3125C43.9185 42.5142 43.8645 42.75 43.8645 43.0199V47H42.3219ZM55.9892 47.1278C55.3329 47.1278 54.7662 46.9915 54.2889 46.7188C53.8145 46.4432 53.4494 46.054 53.1937 45.5511C52.938 45.0455 52.8102 44.4503 52.8102 43.7656C52.8102 43.0923 52.938 42.5014 53.1937 41.9929C53.4522 41.4815 53.813 41.0838 54.2761 40.7997C54.7392 40.5128 55.2832 40.3693 55.9082 40.3693C56.3116 40.3693 56.6923 40.4347 57.0502 40.5653C57.411 40.6932 57.7292 40.892 58.0048 41.1619C58.2832 41.4318 58.502 41.7756 58.661 42.1932C58.8201 42.608 58.8997 43.1023 58.8997 43.6761V44.1491H53.5346V43.1094H57.421C57.4181 42.8139 57.3542 42.5511 57.2292 42.321C57.1042 42.0881 56.9295 41.9048 56.7051 41.7713C56.4835 41.6378 56.225 41.571 55.9295 41.571C55.6142 41.571 55.3372 41.6477 55.0985 41.8011C54.8599 41.9517 54.6738 42.1506 54.5403 42.3977C54.4096 42.642 54.3429 42.9105 54.34 43.2031V44.1108C54.34 44.4915 54.4096 44.8182 54.5488 45.0909C54.688 45.3608 54.8826 45.5682 55.1326 45.7131C55.3826 45.8551 55.6752 45.9261 56.0105 45.9261C56.2349 45.9261 56.438 45.8949 56.6199 45.8324C56.8017 45.767 56.9593 45.6719 57.0929 45.5469C57.2264 45.4219 57.3272 45.267 57.3954 45.0824L58.8358 45.2443C58.7449 45.625 58.5716 45.9574 58.3159 46.2415C58.063 46.5227 57.7392 46.7415 57.3443 46.8977C56.9494 47.0511 56.4977 47.1278 55.9892 47.1278ZM61.7473 43.1648V47H60.2047V40.4545H61.6792V41.5668H61.7559C61.9064 41.2003 62.1465 40.9091 62.476 40.6932C62.8084 40.4773 63.2189 40.3693 63.7076 40.3693C64.1593 40.3693 64.5527 40.4659 64.888 40.6591C65.226 40.8523 65.4874 41.1321 65.6721 41.4986C65.8596 41.8651 65.9519 42.3097 65.949 42.8324V47H64.4064V43.071C64.4064 42.6335 64.2928 42.2912 64.0655 42.044C63.8411 41.7969 63.53 41.6733 63.1323 41.6733C62.8624 41.6733 62.6223 41.733 62.4121 41.8523C62.2047 41.9687 62.0414 42.1378 61.9221 42.3594C61.8056 42.581 61.7473 42.8494 61.7473 43.1648ZM70.7857 40.4545V41.6477H67.0229V40.4545H70.7857ZM67.9519 38.8864H69.4945V45.0312C69.4945 45.2386 69.5257 45.3977 69.5882 45.5085C69.6536 45.6165 69.7388 45.6903 69.8439 45.7301C69.949 45.7699 70.0655 45.7898 70.1934 45.7898C70.29 45.7898 70.378 45.7827 70.4576 45.7685C70.54 45.7543 70.6025 45.7415 70.6451 45.7301L70.905 46.9361C70.8226 46.9645 70.7047 46.9957 70.5513 47.0298C70.4007 47.0639 70.2161 47.0838 69.9973 47.0895C69.611 47.1009 69.263 47.0426 68.9533 46.9148C68.6436 46.7841 68.3979 46.5824 68.2161 46.3097C68.0371 46.0369 67.949 45.696 67.9519 45.2869V38.8864ZM75.0524 47V40.4545H76.5268V41.5668H76.6035C76.7399 41.1918 76.9657 40.8991 77.2811 40.6889C77.5964 40.4759 77.9728 40.3693 78.4103 40.3693C78.8535 40.3693 79.2271 40.4773 79.5311 40.6932C79.8379 40.9062 80.0538 41.1974 80.1788 41.5668H80.247C80.3919 41.2031 80.6362 40.9134 80.9799 40.6974C81.3265 40.4787 81.737 40.3693 82.2115 40.3693C82.8137 40.3693 83.3052 40.5597 83.6859 40.9403C84.0666 41.321 84.2569 41.8764 84.2569 42.6065V47H82.7101V42.8452C82.7101 42.4389 82.6021 42.142 82.3862 41.9545C82.1703 41.7642 81.9061 41.669 81.5936 41.669C81.2214 41.669 80.9302 41.7855 80.72 42.0185C80.5126 42.2486 80.4089 42.5483 80.4089 42.9176V47H78.8961V42.7812C78.8961 42.4432 78.7939 42.1733 78.5893 41.9716C78.3876 41.7699 78.1234 41.669 77.7967 41.669C77.5751 41.669 77.3734 41.7259 77.1916 41.8395C77.0098 41.9503 76.8649 42.108 76.7569 42.3125C76.649 42.5142 76.595 42.75 76.595 43.0199V47H75.0524ZM88.7196 47.1278C88.0634 47.1278 87.4966 46.9915 87.0194 46.7188C86.5449 46.4432 86.1799 46.054 85.9242 45.5511C85.6685 45.0455 85.5407 44.4503 85.5407 43.7656C85.5407 43.0923 85.6685 42.5014 85.9242 41.9929C86.1827 41.4815 86.5435 41.0838 87.0066 40.7997C87.4696 40.5128 88.0137 40.3693 88.6387 40.3693C89.0421 40.3693 89.4228 40.4347 89.7807 40.5653C90.1415 40.6932 90.4597 40.892 90.7353 41.1619C91.0137 41.4318 91.2324 41.7756 91.3915 42.1932C91.5506 42.608 91.6301 43.1023 91.6301 43.6761V44.1491H86.2651V43.1094H90.1515C90.1486 42.8139 90.0847 42.5511 89.9597 42.321C89.8347 42.0881 89.66 41.9048 89.4355 41.7713C89.214 41.6378 88.9554 41.571 88.66 41.571C88.3446 41.571 88.0676 41.6477 87.829 41.8011C87.5904 41.9517 87.4043 42.1506 87.2708 42.3977C87.1401 42.642 87.0733 42.9105 87.0705 43.2031V44.1108C87.0705 44.4915 87.1401 44.8182 87.2793 45.0909C87.4185 45.3608 87.6131 45.5682 87.8631 45.7131C88.1131 45.8551 88.4057 45.9261 88.7409 45.9261C88.9654 45.9261 89.1685 45.8949 89.3503 45.8324C89.5321 45.767 89.6898 45.6719 89.8233 45.5469C89.9569 45.4219 90.0577 45.267 90.1259 45.0824L91.5662 45.2443C91.4753 45.625 91.302 45.9574 91.0463 46.2415C90.7935 46.5227 90.4696 46.7415 90.0748 46.8977C89.6799 47.0511 89.2282 47.1278 88.7196 47.1278ZM96.2037 40.4545V41.6477H92.4409V40.4545H96.2037ZM93.3699 38.8864H94.9125V45.0312C94.9125 45.2386 94.9437 45.3977 95.0062 45.5085C95.0716 45.6165 95.1568 45.6903 95.2619 45.7301C95.367 45.7699 95.4835 45.7898 95.6113 45.7898C95.7079 45.7898 95.796 45.7827 95.8755 45.7685C95.9579 45.7543 96.0204 45.7415 96.063 45.7301L96.323 46.9361C96.2406 46.9645 96.1227 46.9957 95.9693 47.0298C95.8187 47.0639 95.6341 47.0838 95.4153 47.0895C95.0289 47.1009 94.6809 47.0426 94.3713 46.9148C94.0616 46.7841 93.8159 46.5824 93.6341 46.3097C93.4551 46.0369 93.367 45.696 93.3699 45.2869V38.8864ZM99.177 43.1648V47H97.6344V38.2727H99.1429V41.5668H99.2196C99.373 41.1974 99.6103 40.9062 99.9313 40.6932C100.255 40.4773 100.667 40.3693 101.167 40.3693C101.622 40.3693 102.018 40.4645 102.356 40.6548C102.694 40.8452 102.955 41.1236 103.14 41.4901C103.328 41.8565 103.421 42.304 103.421 42.8324V47H101.879V43.071C101.879 42.6307 101.765 42.2884 101.538 42.044C101.313 41.7969 100.998 41.6733 100.592 41.6733C100.319 41.6733 100.075 41.733 99.8588 41.8523C99.6458 41.9687 99.4782 42.1378 99.356 42.3594C99.2367 42.581 99.177 42.8494 99.177 43.1648ZM107.849 47.1278C107.21 47.1278 106.656 46.9872 106.187 46.706C105.718 46.4247 105.355 46.0312 105.096 45.5256C104.84 45.0199 104.713 44.429 104.713 43.7528C104.713 43.0767 104.84 42.4844 105.096 41.9759C105.355 41.4673 105.718 41.0724 106.187 40.7912C106.656 40.5099 107.21 40.3693 107.849 40.3693C108.488 40.3693 109.042 40.5099 109.511 40.7912C109.98 41.0724 110.342 41.4673 110.597 41.9759C110.856 42.4844 110.985 43.0767 110.985 43.7528C110.985 44.429 110.856 45.0199 110.597 45.5256C110.342 46.0312 109.98 46.4247 109.511 46.706C109.042 46.9872 108.488 47.1278 107.849 47.1278ZM107.857 45.892C108.204 45.892 108.494 45.7969 108.727 45.6065C108.96 45.4134 109.133 45.1548 109.247 44.831C109.363 44.5071 109.421 44.1463 109.421 43.7486C109.421 43.348 109.363 42.9858 109.247 42.6619C109.133 42.3352 108.96 42.0753 108.727 41.8821C108.494 41.6889 108.204 41.5923 107.857 41.5923C107.502 41.5923 107.207 41.6889 106.971 41.8821C106.738 42.0753 106.563 42.3352 106.447 42.6619C106.333 42.9858 106.276 43.348 106.276 43.7486C106.276 44.1463 106.333 44.5071 106.447 44.831C106.563 45.1548 106.738 45.4134 106.971 45.6065C107.207 45.7969 107.502 45.892 107.857 45.892ZM114.724 47.1151C114.209 47.1151 113.749 46.983 113.343 46.7188C112.937 46.4545 112.616 46.071 112.38 45.5682C112.144 45.0653 112.026 44.4545 112.026 43.7358C112.026 43.0085 112.145 42.3949 112.384 41.8949C112.626 41.392 112.951 41.0128 113.36 40.7571C113.769 40.4986 114.225 40.3693 114.728 40.3693C115.111 40.3693 115.427 40.4347 115.674 40.5653C115.921 40.6932 116.117 40.848 116.262 41.0298C116.407 41.2088 116.519 41.3778 116.599 41.5369H116.662V38.2727H118.209V47H116.692V45.9688H116.599C116.519 46.1278 116.404 46.2969 116.253 46.4759C116.103 46.652 115.904 46.8026 115.657 46.9276C115.41 47.0526 115.099 47.1151 114.724 47.1151ZM115.154 45.8494C115.481 45.8494 115.759 45.7614 115.989 45.5852C116.219 45.4062 116.394 45.1577 116.513 44.8395C116.633 44.5213 116.692 44.1506 116.692 43.7273C116.692 43.304 116.633 42.9361 116.513 42.6236C116.397 42.3111 116.224 42.0682 115.993 41.8949C115.766 41.7216 115.486 41.6349 115.154 41.6349C114.81 41.6349 114.523 41.7244 114.293 41.9034C114.063 42.0824 113.89 42.3295 113.773 42.6449C113.657 42.9602 113.599 43.321 113.599 43.7273C113.599 44.1364 113.657 44.5014 113.773 44.8224C113.893 45.1406 114.067 45.392 114.297 45.5767C114.53 45.7585 114.816 45.8494 115.154 45.8494ZM125.026 42.1847L123.62 42.3381C123.58 42.196 123.511 42.0625 123.411 41.9375C123.315 41.8125 123.184 41.7116 123.019 41.6349C122.855 41.5582 122.653 41.5199 122.414 41.5199C122.093 41.5199 121.823 41.5895 121.605 41.7287C121.389 41.8679 121.282 42.0483 121.285 42.2699C121.282 42.4602 121.352 42.6151 121.494 42.7344C121.639 42.8537 121.877 42.9517 122.21 43.0284L123.326 43.267C123.945 43.4006 124.406 43.6122 124.707 43.902C125.011 44.1918 125.164 44.571 125.167 45.0398C125.164 45.4517 125.044 45.8153 124.805 46.1307C124.569 46.4432 124.241 46.6875 123.82 46.8636C123.4 47.0398 122.917 47.1278 122.372 47.1278C121.57 47.1278 120.926 46.9602 120.437 46.625C119.948 46.2869 119.657 45.8168 119.563 45.2145L121.068 45.0696C121.136 45.3651 121.281 45.5881 121.502 45.7386C121.724 45.8892 122.012 45.9645 122.367 45.9645C122.734 45.9645 123.028 45.8892 123.249 45.7386C123.474 45.5881 123.586 45.402 123.586 45.1804C123.586 44.9929 123.514 44.8381 123.369 44.7159C123.227 44.5937 123.005 44.5 122.704 44.4347L121.588 44.2003C120.96 44.0696 120.495 43.8494 120.194 43.5398C119.893 43.2273 119.744 42.8324 119.747 42.3551C119.744 41.9517 119.853 41.6023 120.075 41.3068C120.299 41.0085 120.61 40.7784 121.008 40.6165C121.409 40.4517 121.87 40.3693 122.393 40.3693C123.16 40.3693 123.764 40.5327 124.204 40.8594C124.647 41.1861 124.921 41.6278 125.026 42.1847Z" fill="#1F2937"/>
</g>
</g>
</g>
<defs>
<clipPath id="clip0_138_1367">
<rect width="220" height="176" rx="24" fill="white"/>
</clipPath>
<clipPath id="clip1_138_1367">
<rect width="220" height="176" fill="white"/>
</clipPath>
<clipPath id="clip2_138_1367">
<rect width="220" height="176" fill="white"/>
</clipPath>
</defs>
</svg>
