<svg width="300" height="297" viewBox="0 0 300 297" fill="none" xmlns="http://www.w3.org/2000/svg">
<g clip-path="url(#clip0_138_1313)">
<g clip-path="url(#clip1_138_1313)">
<g clip-path="url(#clip2_138_1313)">
<mask id="mask0_138_1313" style="mask-type:luminance" maskUnits="userSpaceOnUse" x="0" y="0" width="300" height="312">
<path d="M292 0H8C3.58172 0 0 3.58172 0 8V304C0 308.418 3.58172 312 8 312H292C296.418 312 300 308.418 300 304V8C300 3.58172 296.418 0 292 0Z" fill="white"/>
</mask>
<g mask="url(#mask0_138_1313)">
<path d="M292 0H8C3.58172 0 0 3.58172 0 8V304C0 308.418 3.58172 312 8 312H292C296.418 312 300 308.418 300 304V8C300 3.58172 296.418 0 292 0Z" fill="#315266"/>
<path d="M178 73V63" stroke="#95BBD2" stroke-width="0.75" stroke-linecap="round" stroke-linejoin="round"/>
<path d="M174 67L178 63L182 67" stroke="#95BBD2" stroke-width="0.75" stroke-linecap="round" stroke-linejoin="round"/>
<path d="M53 195.5H284" stroke="#315266"/>
<path d="M53 127.5H284" stroke="#315266"/>
<path d="M53 263.5H284" stroke="#315266"/>
<path d="M53 167L69.6689 156H102.652L135.635 130L152.068 161.667L168.855 193.333H201.72L234.703 151.333H284" stroke="#95BBD2" stroke-width="2"/>
<path d="M69.5507 156L53 167V264H284V151.333H234.23L201.601 192.667H168.736L153.132 163.667L135.635 130L102.652 156H69.5507Z" fill="url(#paint0_linear_138_1313)"/>
<path opacity="0.3" d="M202.5 128V264" stroke="#95BBD2" stroke-dasharray="4 4"/>
<path d="M202.5 196C204.433 196 206 194.433 206 192.5C206 190.567 204.433 189 202.5 189C200.567 189 199 190.567 199 192.5C199 194.433 200.567 196 202.5 196Z" fill="#95BBD2"/>
</g>
<path d="M20.2553 29V20.2727H23.5281C24.1985 20.2727 24.761 20.3977 25.2156 20.6477C25.6729 20.8977 26.0181 21.2415 26.2511 21.679C26.4869 22.1136 26.6048 22.608 26.6048 23.1619C26.6048 23.7216 26.4869 24.2187 26.2511 24.6534C26.0153 25.0881 25.6673 25.4304 25.207 25.6804C24.7468 25.9276 24.18 26.0511 23.5067 26.0511H21.3377V24.7514H23.2937C23.6857 24.7514 24.0067 24.6832 24.2567 24.5469C24.5067 24.4105 24.6914 24.223 24.8107 23.9844C24.9329 23.7457 24.994 23.4716 24.994 23.1619C24.994 22.8523 24.9329 22.5795 24.8107 22.3438C24.6914 22.108 24.5053 21.9247 24.2525 21.794C24.0025 21.6605 23.68 21.5938 23.2852 21.5938H21.8363V29H20.2553ZM29.6761 29.1321C29.2614 29.1321 28.8878 29.0582 28.5554 28.9105C28.2259 28.7599 27.9645 28.5384 27.7713 28.2457C27.581 27.9531 27.4858 27.5923 27.4858 27.1634C27.4858 26.794 27.554 26.4886 27.6903 26.2472C27.8267 26.0057 28.0128 25.8125 28.2486 25.6676C28.4844 25.5227 28.75 25.4134 29.0455 25.3395C29.3438 25.2628 29.652 25.2074 29.9702 25.1733C30.3537 25.1335 30.6648 25.098 30.9034 25.0668C31.142 25.0327 31.3153 24.9815 31.4233 24.9134C31.5341 24.8423 31.5895 24.733 31.5895 24.5852V24.5597C31.5895 24.2386 31.4943 23.9901 31.304 23.8139C31.1136 23.6378 30.8395 23.5497 30.4815 23.5497C30.1037 23.5497 29.804 23.6321 29.5824 23.7969C29.3636 23.9616 29.2159 24.1562 29.1392 24.3807L27.6989 24.1761C27.8125 23.7784 28 23.446 28.2614 23.179C28.5227 22.9091 28.8423 22.7074 29.2202 22.5739C29.598 22.4375 30.0156 22.3693 30.473 22.3693C30.7884 22.3693 31.1023 22.4062 31.4148 22.4801C31.7273 22.554 32.0128 22.6761 32.2713 22.8466C32.5298 23.0142 32.7372 23.2429 32.8935 23.5327C33.0526 23.8224 33.1321 24.1847 33.1321 24.6193V29H31.6491V28.1009H31.598C31.5043 28.2827 31.3722 28.4531 31.2017 28.6122C31.0341 28.7685 30.8224 28.8949 30.5668 28.9915C30.3139 29.0852 30.017 29.1321 29.6761 29.1321ZM30.0767 27.9986C30.3864 27.9986 30.6548 27.9375 30.8821 27.8153C31.1094 27.6903 31.2841 27.5256 31.4062 27.321C31.5312 27.1165 31.5938 26.8935 31.5938 26.652V25.8807C31.5455 25.9205 31.4631 25.9574 31.3466 25.9915C31.233 26.0256 31.1051 26.0554 30.9631 26.081C30.821 26.1065 30.6804 26.1293 30.5412 26.1491C30.402 26.169 30.2813 26.1861 30.179 26.2003C29.9489 26.2315 29.7429 26.2827 29.5611 26.3537C29.3793 26.4247 29.2358 26.5241 29.1307 26.652C29.0256 26.777 28.973 26.9389 28.973 27.1378C28.973 27.4219 29.0767 27.6364 29.2841 27.7812C29.4915 27.9261 29.7557 27.9986 30.0767 27.9986ZM35.4077 31.4545C35.1974 31.4545 35.0028 31.4375 34.8239 31.4034C34.6477 31.3722 34.5071 31.3352 34.402 31.2926L34.7599 30.0909C34.9844 30.1563 35.1847 30.1875 35.3608 30.1847C35.5369 30.1818 35.6918 30.1264 35.8253 30.0185C35.9616 29.9134 36.0767 29.7372 36.1705 29.4901L36.3026 29.1364L33.929 22.4545H35.5653L37.0739 27.3977H37.142L38.6548 22.4545H40.2955L37.6747 29.7926C37.5526 30.1392 37.3906 30.4361 37.1889 30.6832C36.9872 30.9332 36.7401 31.1236 36.4474 31.2543C36.1577 31.3878 35.8111 31.4545 35.4077 31.4545ZM41.3629 29V22.4545H42.8374V23.5668H42.9141C43.0504 23.1918 43.2763 22.8991 43.5916 22.6889C43.907 22.4759 44.2834 22.3693 44.7209 22.3693C45.1641 22.3693 45.5376 22.4773 45.8416 22.6932C46.1484 22.9062 46.3643 23.1974 46.4893 23.5668H46.5575C46.7024 23.2031 46.9467 22.9134 47.2905 22.6974C47.6371 22.4787 48.0476 22.3693 48.522 22.3693C49.1243 22.3693 49.6158 22.5597 49.9964 22.9403C50.3771 23.321 50.5675 23.8764 50.5675 24.6065V29H49.0206V24.8452C49.0206 24.4389 48.9126 24.142 48.6967 23.9545C48.4808 23.7642 48.2166 23.669 47.9041 23.669C47.532 23.669 47.2408 23.7855 47.0305 24.0185C46.8232 24.2486 46.7195 24.5483 46.7195 24.9176V29H45.2067V24.7812C45.2067 24.4432 45.1044 24.1733 44.8999 23.9716C44.6982 23.7699 44.4339 23.669 44.1072 23.669C43.8857 23.669 43.6839 23.7259 43.5021 23.8395C43.3203 23.9503 43.1754 24.108 43.0675 24.3125C42.9595 24.5142 42.9055 24.75 42.9055 25.0199V29H41.3629ZM55.0302 29.1278C54.3739 29.1278 53.8072 28.9915 53.3299 28.7188C52.8555 28.4432 52.4904 28.054 52.2347 27.5511C51.979 27.0455 51.8512 26.4503 51.8512 25.7656C51.8512 25.0923 51.979 24.5014 52.2347 23.9929C52.4933 23.4815 52.854 23.0838 53.3171 22.7997C53.7802 22.5128 54.3242 22.3693 54.9492 22.3693C55.3526 22.3693 55.7333 22.4347 56.0913 22.5653C56.4521 22.6932 56.7702 22.892 57.0458 23.1619C57.3242 23.4318 57.543 23.7756 57.7021 24.1932C57.8612 24.608 57.9407 25.1023 57.9407 25.6761V26.1491H52.5756V25.1094H56.462C56.4592 24.8139 56.3952 24.5511 56.2702 24.321C56.1452 24.0881 55.9705 23.9048 55.7461 23.7713C55.5245 23.6378 55.266 23.571 54.9705 23.571C54.6552 23.571 54.3782 23.6477 54.1396 23.8011C53.9009 23.9517 53.7148 24.1506 53.5813 24.3977C53.4506 24.642 53.3839 24.9105 53.381 25.2031V26.1108C53.381 26.4915 53.4506 26.8182 53.5898 27.0909C53.729 27.3608 53.9237 27.5682 54.1737 27.7131C54.4237 27.8551 54.7163 27.9261 55.0515 27.9261C55.2759 27.9261 55.479 27.8949 55.6609 27.8324C55.8427 27.767 56.0004 27.6719 56.1339 27.5469C56.2674 27.4219 56.3683 27.267 56.4364 27.0824L57.8768 27.2443C57.7859 27.625 57.6126 27.9574 57.3569 28.2415C57.104 28.5227 56.7802 28.7415 56.3853 28.8977C55.9904 29.0511 55.5387 29.1278 55.0302 29.1278ZM60.7884 25.1648V29H59.2457V22.4545H60.7202V23.5668H60.7969C60.9474 23.2003 61.1875 22.9091 61.517 22.6932C61.8494 22.4773 62.2599 22.3693 62.7486 22.3693C63.2003 22.3693 63.5938 22.4659 63.929 22.6591C64.267 22.8523 64.5284 23.1321 64.7131 23.4986C64.9006 23.8651 64.9929 24.3097 64.9901 24.8324V29H63.4474V25.071C63.4474 24.6335 63.3338 24.2912 63.1065 24.044C62.8821 23.7969 62.571 23.6733 62.1733 23.6733C61.9034 23.6733 61.6634 23.733 61.4531 23.8523C61.2457 23.9687 61.0824 24.1378 60.9631 24.3594C60.8466 24.581 60.7884 24.8494 60.7884 25.1648ZM69.8267 22.4545V23.6477H66.0639V22.4545H69.8267ZM66.9929 20.8864H68.5355V27.0312C68.5355 27.2386 68.5668 27.3977 68.6293 27.5085C68.6946 27.6165 68.7798 27.6903 68.8849 27.7301C68.9901 27.7699 69.1065 27.7898 69.2344 27.7898C69.331 27.7898 69.419 27.7827 69.4986 27.7685C69.581 27.7543 69.6435 27.7415 69.6861 27.7301L69.946 28.9361C69.8636 28.9645 69.7457 28.9957 69.5923 29.0298C69.4418 29.0639 69.2571 29.0838 69.0384 29.0895C68.652 29.1009 68.304 29.0426 67.9943 28.9148C67.6847 28.7841 67.4389 28.5824 67.2571 28.3097C67.0781 28.0369 66.9901 27.696 66.9929 27.2869V20.8864ZM79.94 22.4545L77.609 29H75.9045L73.5735 22.4545H75.2184L76.7227 27.3168H76.7908L78.2994 22.4545H79.94ZM83.6399 29.1278C83.0007 29.1278 82.4467 28.9872 81.978 28.706C81.5092 28.4247 81.1456 28.0312 80.8871 27.5256C80.6314 27.0199 80.5036 26.429 80.5036 25.7528C80.5036 25.0767 80.6314 24.4844 80.8871 23.9759C81.1456 23.4673 81.5092 23.0724 81.978 22.7912C82.4467 22.5099 83.0007 22.3693 83.6399 22.3693C84.2791 22.3693 84.8331 22.5099 85.3018 22.7912C85.7706 23.0724 86.1328 23.4673 86.3885 23.9759C86.647 24.4844 86.7763 25.0767 86.7763 25.7528C86.7763 26.429 86.647 27.0199 86.3885 27.5256C86.1328 28.0312 85.7706 28.4247 85.3018 28.706C84.8331 28.9872 84.2791 29.1278 83.6399 29.1278ZM83.6484 27.892C83.995 27.892 84.2848 27.7969 84.5178 27.6065C84.7507 27.4134 84.924 27.1548 85.0376 26.831C85.1541 26.5071 85.2124 26.1463 85.2124 25.7486C85.2124 25.348 85.1541 24.9858 85.0376 24.6619C84.924 24.3352 84.7507 24.0753 84.5178 23.8821C84.2848 23.6889 83.995 23.5923 83.6484 23.5923C83.2933 23.5923 82.9979 23.6889 82.7621 23.8821C82.5291 24.0753 82.3544 24.3352 82.2379 24.6619C82.1243 24.9858 82.0675 25.348 82.0675 25.7486C82.0675 26.1463 82.1243 26.5071 82.2379 26.831C82.3544 27.1548 82.5291 27.4134 82.7621 27.6065C82.9979 27.7969 83.2933 27.892 83.6484 27.892ZM89.6282 20.2727V29H88.0856V20.2727H89.6282ZM95.3864 26.2472V22.4545H96.929V29H95.4332V27.8366H95.3651C95.2173 28.2031 94.9744 28.5028 94.6364 28.7358C94.3011 28.9687 93.8878 29.0852 93.3963 29.0852C92.9673 29.0852 92.5881 28.9901 92.2585 28.7997C91.9318 28.6065 91.6761 28.3267 91.4915 27.9602C91.3068 27.5909 91.2145 27.1449 91.2145 26.6222V22.4545H92.7571V26.3835C92.7571 26.7983 92.8707 27.1278 93.098 27.3722C93.3253 27.6165 93.6236 27.7386 93.9929 27.7386C94.2202 27.7386 94.4403 27.6832 94.6534 27.5724C94.8665 27.4616 95.0412 27.2969 95.1776 27.0781C95.3168 26.8565 95.3864 26.5795 95.3864 26.2472ZM98.5153 29V22.4545H99.9897V23.5668H100.066C100.203 23.1918 100.429 22.8991 100.744 22.6889C101.059 22.4759 101.436 22.3693 101.873 22.3693C102.316 22.3693 102.69 22.4773 102.994 22.6932C103.301 22.9062 103.517 23.1974 103.642 23.5668H103.71C103.855 23.2031 104.099 22.9134 104.443 22.6974C104.789 22.4787 105.2 22.3693 105.674 22.3693C106.277 22.3693 106.768 22.5597 107.149 22.9403C107.529 23.321 107.72 23.8764 107.72 24.6065V29H106.173V24.8452C106.173 24.4389 106.065 24.142 105.849 23.9545C105.633 23.7642 105.369 23.669 105.056 23.669C104.684 23.669 104.393 23.7855 104.183 24.0185C103.975 24.2486 103.872 24.5483 103.872 24.9176V29H102.359V24.7812C102.359 24.4432 102.257 24.1733 102.052 23.9716C101.85 23.7699 101.586 23.669 101.26 23.669C101.038 23.669 100.836 23.7259 100.654 23.8395C100.473 23.9503 100.328 24.108 100.22 24.3125C100.112 24.5142 100.058 24.75 100.058 25.0199V29H98.5153ZM112.183 29.1278C111.526 29.1278 110.96 28.9915 110.482 28.7188C110.008 28.4432 109.643 28.054 109.387 27.5511C109.131 27.0455 109.004 26.4503 109.004 25.7656C109.004 25.0923 109.131 24.5014 109.387 23.9929C109.646 23.4815 110.006 23.0838 110.469 22.7997C110.933 22.5128 111.477 22.3693 112.102 22.3693C112.505 22.3693 112.886 22.4347 113.244 22.5653C113.604 22.6932 113.923 22.892 114.198 23.1619C114.477 23.4318 114.695 23.7756 114.854 24.1932C115.013 24.608 115.093 25.1023 115.093 25.6761V26.1491H109.728V25.1094H113.614C113.612 24.8139 113.548 24.5511 113.423 24.321C113.298 24.0881 113.123 23.9048 112.898 23.7713C112.677 23.6378 112.418 23.571 112.123 23.571C111.808 23.571 111.531 23.6477 111.292 23.8011C111.053 23.9517 110.867 24.1506 110.734 24.3977C110.603 24.642 110.536 24.9105 110.533 25.2031V26.1108C110.533 26.4915 110.603 26.8182 110.742 27.0909C110.881 27.3608 111.076 27.5682 111.326 27.7131C111.576 27.8551 111.869 27.9261 112.204 27.9261C112.428 27.9261 112.631 27.8949 112.813 27.8324C112.995 27.767 113.153 27.6719 113.286 27.5469C113.42 27.4219 113.521 27.267 113.589 27.0824L115.029 27.2443C114.938 27.625 114.765 27.9574 114.509 28.2415C114.256 28.5227 113.933 28.7415 113.538 28.8977C113.143 29.0511 112.691 29.1278 112.183 29.1278Z" fill="white"/>
<path d="M190.378 64.2727V73H188.797V65.8111H188.746L186.705 67.1151V65.6662L188.874 64.2727H190.378ZM195.82 73.1662C195.118 73.1662 194.516 72.9886 194.013 72.6335C193.513 72.2756 193.128 71.7599 192.858 71.0866C192.591 70.4105 192.458 69.5966 192.458 68.6449C192.46 67.6932 192.595 66.8835 192.862 66.2159C193.132 65.5455 193.517 65.0341 194.017 64.6818C194.52 64.3295 195.121 64.1534 195.82 64.1534C196.519 64.1534 197.119 64.3295 197.622 64.6818C198.125 65.0341 198.51 65.5455 198.777 66.2159C199.047 66.8864 199.182 67.696 199.182 68.6449C199.182 69.5994 199.047 70.4148 198.777 71.0909C198.51 71.7642 198.125 72.2784 197.622 72.6335C197.122 72.9886 196.521 73.1662 195.82 73.1662ZM195.82 71.8324C196.365 71.8324 196.796 71.5639 197.111 71.027C197.429 70.4872 197.588 69.6932 197.588 68.6449C197.588 67.9517 197.516 67.3693 197.371 66.8977C197.226 66.4261 197.021 66.071 196.757 65.8324C196.493 65.5909 196.181 65.4702 195.82 65.4702C195.277 65.4702 194.848 65.7401 194.533 66.2798C194.218 66.8168 194.058 67.6051 194.056 68.6449C194.053 69.3409 194.122 69.9261 194.264 70.4006C194.409 70.875 194.614 71.233 194.878 71.4744C195.142 71.7131 195.456 71.8324 195.82 71.8324ZM205.264 71.3636V70.9034C205.264 70.5653 205.335 70.2543 205.477 69.9702C205.622 69.6861 205.832 69.4574 206.108 69.2841C206.383 69.1108 206.717 69.0241 207.109 69.0241C207.513 69.0241 207.851 69.1108 208.123 69.2841C208.396 69.4545 208.602 69.6818 208.741 69.9659C208.883 70.25 208.954 70.5625 208.954 70.9034V71.3636C208.954 71.7017 208.883 72.0128 208.741 72.2969C208.599 72.581 208.39 72.8097 208.115 72.983C207.842 73.1563 207.507 73.2429 207.109 73.2429C206.711 73.2429 206.375 73.1563 206.099 72.983C205.824 72.8097 205.615 72.581 205.473 72.2969C205.334 72.0128 205.264 71.7017 205.264 71.3636ZM206.376 70.9034V71.3636C206.376 71.5881 206.43 71.794 206.538 71.9815C206.646 72.169 206.836 72.2628 207.109 72.2628C207.385 72.2628 207.574 72.1705 207.676 71.9858C207.781 71.7983 207.834 71.5909 207.834 71.3636V70.9034C207.834 70.6761 207.784 70.4688 207.684 70.2812C207.585 70.0909 207.393 69.9957 207.109 69.9957C206.842 69.9957 206.653 70.0909 206.542 70.2812C206.432 70.4688 206.376 70.6761 206.376 70.9034ZM200.828 66.3693V65.9091C200.828 65.5682 200.9 65.2557 201.045 64.9716C201.19 64.6875 201.4 64.4602 201.676 64.2898C201.952 64.1165 202.285 64.0298 202.677 64.0298C203.078 64.0298 203.415 64.1165 203.687 64.2898C203.963 64.4602 204.17 64.6875 204.309 64.9716C204.449 65.2557 204.518 65.5682 204.518 65.9091V66.3693C204.518 66.7102 204.447 67.0227 204.305 67.3068C204.166 67.5881 203.959 67.8139 203.683 67.9844C203.407 68.1548 203.072 68.2401 202.677 68.2401C202.277 68.2401 201.939 68.1548 201.663 67.9844C201.39 67.8139 201.183 67.5866 201.041 67.3026C200.899 67.0185 200.828 66.7074 200.828 66.3693ZM201.949 65.9091V66.3693C201.949 66.5966 202.001 66.804 202.106 66.9915C202.214 67.1761 202.405 67.2685 202.677 67.2685C202.95 67.2685 203.138 67.1761 203.24 66.9915C203.345 66.804 203.398 66.5966 203.398 66.3693V65.9091C203.398 65.6818 203.348 65.4744 203.248 65.2869C203.149 65.0966 202.959 65.0014 202.677 65.0014C202.407 65.0014 202.219 65.0966 202.111 65.2869C202.003 65.4773 201.949 65.6847 201.949 65.9091ZM201.314 73L207.314 64.2727H208.379L202.379 73H201.314Z" fill="#95BBD2"/>
<path d="M28.4995 273.166C27.7978 273.166 27.1955 272.989 26.6926 272.634C26.1926 272.276 25.8077 271.76 25.5378 271.087C25.2708 270.411 25.1373 269.597 25.1373 268.645C25.1401 267.693 25.275 266.884 25.5421 266.216C25.812 265.545 26.1969 265.034 26.6969 264.682C27.1998 264.33 27.8006 264.153 28.4995 264.153C29.1983 264.153 29.7992 264.33 30.302 264.682C30.8049 265.034 31.1898 265.545 31.4569 266.216C31.7267 266.886 31.8617 267.696 31.8617 268.645C31.8617 269.599 31.7267 270.415 31.4569 271.091C31.1898 271.764 30.8049 272.278 30.302 272.634C29.802 272.989 29.2012 273.166 28.4995 273.166ZM28.4995 271.832C29.0449 271.832 29.4753 271.564 29.7907 271.027C30.1088 270.487 30.2679 269.693 30.2679 268.645C30.2679 267.952 30.1955 267.369 30.0506 266.898C29.9057 266.426 29.7012 266.071 29.437 265.832C29.1728 265.591 28.8603 265.47 28.4995 265.47C27.9569 265.47 27.5279 265.74 27.2125 266.28C26.8972 266.817 26.7381 267.605 26.7353 268.645C26.7324 269.341 26.802 269.926 26.9441 270.401C27.089 270.875 27.2935 271.233 27.5577 271.474C27.8219 271.713 28.1358 271.832 28.4995 271.832Z" fill="#95BBD2"/>
<path d="M19.9956 218.119C19.3819 218.119 18.8365 218.014 18.3592 217.804C17.8848 217.594 17.5098 217.301 17.2342 216.926C16.9586 216.551 16.8123 216.118 16.7953 215.626H18.3975C18.4118 215.862 18.4899 216.068 18.6319 216.244C18.774 216.418 18.9629 216.553 19.1987 216.649C19.4345 216.746 19.6987 216.794 19.9913 216.794C20.3038 216.794 20.5808 216.74 20.8223 216.632C21.0637 216.521 21.2527 216.368 21.389 216.172C21.5254 215.976 21.5922 215.75 21.5893 215.494C21.5922 215.23 21.524 214.997 21.3848 214.795C21.2456 214.594 21.0439 214.436 20.7797 214.322C20.5183 214.209 20.2029 214.152 19.8336 214.152H19.0623V212.933H19.8336C20.1376 212.933 20.4032 212.881 20.6305 212.776C20.8606 212.67 21.041 212.523 21.1717 212.332C21.3024 212.139 21.3663 211.916 21.3635 211.663C21.3663 211.416 21.3109 211.202 21.1973 211.02C21.0865 210.835 20.9288 210.692 20.7243 210.589C20.5225 210.487 20.2853 210.436 20.0126 210.436C19.7456 210.436 19.4984 210.484 19.2711 210.581C19.0439 210.678 18.8606 210.815 18.7214 210.994C18.5822 211.17 18.5083 211.381 18.4998 211.625H16.9785C16.9899 211.136 17.1305 210.707 17.4004 210.338C17.6731 209.966 18.0368 209.676 18.4913 209.469C18.9458 209.259 19.4558 209.153 20.0211 209.153C20.6035 209.153 21.1092 209.263 21.5382 209.482C21.97 209.697 22.3038 209.989 22.5396 210.355C22.7754 210.722 22.8933 211.126 22.8933 211.57C22.8961 212.061 22.7512 212.473 22.4586 212.805C22.1689 213.138 21.7882 213.355 21.3166 213.457V213.526C21.9302 213.611 22.4004 213.838 22.7271 214.207C23.0566 214.574 23.22 215.03 23.2172 215.575C23.2172 216.064 23.0779 216.501 22.7995 216.888C22.524 217.271 22.1433 217.572 21.6575 217.791C21.1745 218.01 20.6206 218.119 19.9956 218.119ZM27.9057 218.166C27.204 218.166 26.6017 217.989 26.0989 217.634C25.5989 217.276 25.214 216.76 24.9441 216.087C24.677 215.411 24.5435 214.597 24.5435 213.645C24.5463 212.693 24.6813 211.884 24.9483 211.216C25.2182 210.545 25.6032 210.034 26.1032 209.682C26.606 209.33 27.2069 209.153 27.9057 209.153C28.6046 209.153 29.2054 209.33 29.7083 209.682C30.2111 210.034 30.5961 210.545 30.8631 211.216C31.133 211.886 31.2679 212.696 31.2679 213.645C31.2679 214.599 31.133 215.415 30.8631 216.091C30.5961 216.764 30.2111 217.278 29.7083 217.634C29.2083 217.989 28.6074 218.166 27.9057 218.166ZM27.9057 216.832C28.4512 216.832 28.8816 216.564 29.1969 216.027C29.5151 215.487 29.6742 214.693 29.6742 213.645C29.6742 212.952 29.6017 212.369 29.4569 211.898C29.312 211.426 29.1074 211.071 28.8432 210.832C28.579 210.591 28.2665 210.47 27.9057 210.47C27.3631 210.47 26.9341 210.74 26.6188 211.28C26.3034 211.817 26.1444 212.605 26.1415 213.645C26.1387 214.341 26.2083 214.926 26.3503 215.401C26.4952 215.875 26.6998 216.233 26.964 216.474C27.2282 216.713 27.5421 216.832 27.9057 216.832ZM35.9096 218.166C35.2079 218.166 34.6056 217.989 34.1028 217.634C33.6028 217.276 33.2179 216.76 32.948 216.087C32.6809 215.411 32.5474 214.597 32.5474 213.645C32.5502 212.693 32.6852 211.884 32.9522 211.216C33.2221 210.545 33.6071 210.034 34.1071 209.682C34.6099 209.33 35.2108 209.153 35.9096 209.153C36.6085 209.153 37.2093 209.33 37.7122 209.682C38.215 210.034 38.6 210.545 38.867 211.216C39.1369 211.886 39.2718 212.696 39.2718 213.645C39.2718 214.599 39.1369 215.415 38.867 216.091C38.6 216.764 38.215 217.278 37.7122 217.634C37.2122 217.989 36.6113 218.166 35.9096 218.166ZM35.9096 216.832C36.4551 216.832 36.8855 216.564 37.2008 216.027C37.519 215.487 37.6781 214.693 37.6781 213.645C37.6781 212.952 37.6056 212.369 37.4608 211.898C37.3159 211.426 37.1113 211.071 36.8471 210.832C36.5829 210.591 36.2704 210.47 35.9096 210.47C35.367 210.47 34.938 210.74 34.6227 211.28C34.3074 211.817 34.1483 212.605 34.1454 213.645C34.1426 214.341 34.2122 214.926 34.3542 215.401C34.4991 215.875 34.7037 216.233 34.9679 216.474C35.2321 216.713 35.546 216.832 35.9096 216.832Z" fill="#95BBD2"/>
<path d="M20.0771 172.119C19.6594 172.116 19.2518 172.044 18.854 171.902C18.4563 171.757 18.0984 171.523 17.7802 171.199C17.462 170.872 17.2092 170.439 17.0217 169.899C16.8342 169.357 16.7418 168.685 16.7447 167.884C16.7447 167.136 16.8242 166.47 16.9833 165.885C17.1424 165.3 17.3711 164.805 17.6694 164.402C17.9677 163.996 18.3271 163.686 18.7475 163.473C19.1708 163.26 19.6438 163.153 20.1665 163.153C20.7148 163.153 21.2006 163.261 21.6239 163.477C22.0501 163.693 22.3938 163.989 22.6552 164.364C22.9165 164.736 23.0785 165.156 23.141 165.625H21.5856C21.506 165.29 21.3427 165.023 21.0955 164.824C20.8512 164.622 20.5415 164.521 20.1665 164.521C19.5614 164.521 19.0955 164.784 18.7688 165.31C18.445 165.835 18.2816 166.557 18.2788 167.474H18.3384C18.4776 167.224 18.658 167.01 18.8796 166.831C19.1012 166.652 19.3512 166.514 19.6296 166.418C19.9109 166.318 20.2077 166.268 20.5202 166.268C21.0316 166.268 21.4904 166.391 21.8967 166.635C22.3058 166.879 22.6296 167.216 22.8683 167.645C23.1069 168.071 23.2248 168.56 23.2219 169.111C23.2248 169.685 23.0941 170.2 22.8299 170.658C22.5657 171.112 22.1978 171.47 21.7262 171.732C21.2546 171.993 20.7049 172.122 20.0771 172.119ZM20.0685 170.841C20.3782 170.841 20.6552 170.766 20.8995 170.615C21.1438 170.464 21.337 170.261 21.479 170.006C21.6211 169.75 21.6907 169.463 21.6879 169.145C21.6907 168.832 21.6225 168.55 21.4833 168.297C21.3469 168.044 21.158 167.844 20.9165 167.696C20.6751 167.548 20.3995 167.474 20.0898 167.474C19.8597 167.474 19.6452 167.518 19.4464 167.607C19.2475 167.695 19.0742 167.817 18.9265 167.973C18.7788 168.126 18.6623 168.305 18.5771 168.51C18.4947 168.712 18.4521 168.928 18.4492 169.158C18.4521 169.462 18.5231 169.741 18.6623 169.997C18.8015 170.253 18.9933 170.457 19.2376 170.611C19.4819 170.764 19.7589 170.841 20.0685 170.841ZM27.8881 172.166C27.1864 172.166 26.5842 171.989 26.0813 171.634C25.5813 171.276 25.1964 170.76 24.9265 170.087C24.6594 169.411 24.5259 168.597 24.5259 167.645C24.5288 166.693 24.6637 165.884 24.9308 165.216C25.2006 164.545 25.5856 164.034 26.0856 163.682C26.5884 163.33 27.1893 163.153 27.8881 163.153C28.587 163.153 29.1879 163.33 29.6907 163.682C30.1935 164.034 30.5785 164.545 30.8455 165.216C31.1154 165.886 31.2504 166.696 31.2504 167.645C31.2504 168.599 31.1154 169.415 30.8455 170.091C30.5785 170.764 30.1935 171.278 29.6907 171.634C29.1907 171.989 28.5898 172.166 27.8881 172.166ZM27.8881 170.832C28.4336 170.832 28.864 170.564 29.1793 170.027C29.4975 169.487 29.6566 168.693 29.6566 167.645C29.6566 166.952 29.5842 166.369 29.4393 165.898C29.2944 165.426 29.0898 165.071 28.8256 164.832C28.5614 164.591 28.2489 164.47 27.8881 164.47C27.3455 164.47 26.9165 164.74 26.6012 165.28C26.2859 165.817 26.1268 166.605 26.1239 167.645C26.1211 168.341 26.1907 168.926 26.3327 169.401C26.4776 169.875 26.6822 170.233 26.9464 170.474C27.2106 170.713 27.5245 170.832 27.8881 170.832ZM35.892 172.166C35.1903 172.166 34.5881 171.989 34.0852 171.634C33.5852 171.276 33.2003 170.76 32.9304 170.087C32.6634 169.411 32.5298 168.597 32.5298 167.645C32.5327 166.693 32.6676 165.884 32.9347 165.216C33.2045 164.545 33.5895 164.034 34.0895 163.682C34.5923 163.33 35.1932 163.153 35.892 163.153C36.5909 163.153 37.1918 163.33 37.6946 163.682C38.1974 164.034 38.5824 164.545 38.8494 165.216C39.1193 165.886 39.2543 166.696 39.2543 167.645C39.2543 168.599 39.1193 169.415 38.8494 170.091C38.5824 170.764 38.1974 171.278 37.6946 171.634C37.1946 171.989 36.5938 172.166 35.892 172.166ZM35.892 170.832C36.4375 170.832 36.8679 170.564 37.1832 170.027C37.5014 169.487 37.6605 168.693 37.6605 167.645C37.6605 166.952 37.5881 166.369 37.4432 165.898C37.2983 165.426 37.0938 165.071 36.8295 164.832C36.5653 164.591 36.2528 164.47 35.892 164.47C35.3494 164.47 34.9205 164.74 34.6051 165.28C34.2898 165.817 34.1307 166.605 34.1278 167.645C34.125 168.341 34.1946 168.926 34.3366 169.401C34.4815 169.875 34.6861 170.233 34.9503 170.474C35.2145 170.713 35.5284 170.832 35.892 170.832Z" fill="#95BBD2"/>
<path d="M50.5694 264.273V273H48.9885V265.811H48.9373L46.8961 267.115V265.666L49.0652 264.273H50.5694ZM55.8876 273.119C55.2541 273.119 54.6916 273.013 54.2001 272.8C53.7115 272.587 53.3279 272.295 53.0495 271.926C52.774 271.554 52.6376 271.132 52.6404 270.661C52.6376 270.294 52.7172 269.957 52.8791 269.651C53.041 269.344 53.2598 269.088 53.5353 268.884C53.8137 268.676 54.1234 268.544 54.4643 268.487V268.428C54.0154 268.328 53.6518 268.099 53.3734 267.741C53.0978 267.381 52.9615 266.964 52.9643 266.493C52.9615 266.044 53.0865 265.643 53.3393 265.291C53.5922 264.939 53.9387 264.662 54.3791 264.46C54.8194 264.256 55.3223 264.153 55.8876 264.153C56.4473 264.153 56.9458 264.256 57.3833 264.46C57.8237 264.662 58.1703 264.939 58.4231 265.291C58.6788 265.643 58.8066 266.044 58.8066 266.493C58.8066 266.964 58.666 267.381 58.3848 267.741C58.1064 268.099 57.747 268.328 57.3066 268.428V268.487C57.6475 268.544 57.9544 268.676 58.2271 268.884C58.5027 269.088 58.7214 269.344 58.8833 269.651C59.0481 269.957 59.1305 270.294 59.1305 270.661C59.1305 271.132 58.9913 271.554 58.7129 271.926C58.4345 272.295 58.051 272.587 57.5623 272.8C57.0765 273.013 56.5183 273.119 55.8876 273.119ZM55.8876 271.901C56.2143 271.901 56.4984 271.845 56.7399 271.734C56.9814 271.621 57.1689 271.462 57.3024 271.257C57.4359 271.053 57.5041 270.817 57.5069 270.55C57.5041 270.271 57.4316 270.026 57.2896 269.812C57.1504 269.597 56.9586 269.428 56.7143 269.305C56.4728 269.183 56.1973 269.122 55.8876 269.122C55.5751 269.122 55.2967 269.183 55.0524 269.305C54.8081 269.428 54.6149 269.597 54.4728 269.812C54.3336 270.026 54.2654 270.271 54.2683 270.55C54.2654 270.817 54.3308 271.053 54.4643 271.257C54.5978 271.459 54.7853 271.616 55.0268 271.73C55.2711 271.844 55.5581 271.901 55.8876 271.901ZM55.8876 267.925C56.1547 267.925 56.3904 267.871 56.595 267.763C56.8024 267.655 56.9657 267.504 57.085 267.311C57.2044 267.118 57.2654 266.895 57.2683 266.642C57.2654 266.392 57.2058 266.173 57.0893 265.986C56.9728 265.795 56.8109 265.649 56.6035 265.547C56.3961 265.442 56.1575 265.389 55.8876 265.389C55.612 265.389 55.3691 265.442 55.1589 265.547C54.9515 265.649 54.7896 265.795 54.6731 265.986C54.5595 266.173 54.5041 266.392 54.5069 266.642C54.5041 266.895 54.5609 267.118 54.6774 267.311C54.7967 267.501 54.96 267.652 55.1674 267.763C55.3777 267.871 55.6177 267.925 55.8876 267.925Z" fill="#95BBD2"/>
<path d="M106.552 264.273V273H104.971V265.811H104.92L102.879 267.115V265.666L105.048 264.273H106.552ZM111.798 264.153C112.215 264.156 112.621 264.23 113.016 264.375C113.414 264.517 113.772 264.75 114.09 265.074C114.408 265.395 114.661 265.825 114.849 266.365C115.036 266.905 115.13 267.572 115.13 268.368C115.133 269.118 115.053 269.788 114.891 270.379C114.732 270.967 114.504 271.464 114.205 271.871C113.907 272.277 113.548 272.587 113.127 272.8C112.707 273.013 112.234 273.119 111.708 273.119C111.157 273.119 110.668 273.011 110.242 272.795C109.819 272.58 109.477 272.284 109.215 271.909C108.954 271.534 108.793 271.105 108.734 270.622H110.289C110.369 270.969 110.531 271.244 110.775 271.449C111.022 271.651 111.333 271.751 111.708 271.751C112.313 271.751 112.779 271.489 113.106 270.963C113.433 270.437 113.596 269.707 113.596 268.773H113.536C113.397 269.023 113.217 269.239 112.995 269.42C112.773 269.599 112.522 269.737 112.241 269.834C111.962 269.93 111.667 269.979 111.354 269.979C110.843 269.979 110.383 269.857 109.974 269.612C109.567 269.368 109.245 269.033 109.006 268.607C108.771 268.18 108.651 267.693 108.648 267.145C108.648 266.577 108.779 266.067 109.04 265.615C109.305 265.161 109.673 264.803 110.144 264.541C110.616 264.277 111.167 264.148 111.798 264.153ZM111.802 265.432C111.495 265.432 111.218 265.507 110.971 265.658C110.727 265.805 110.533 266.007 110.391 266.263C110.252 266.516 110.183 266.798 110.183 267.111C110.185 267.42 110.255 267.702 110.391 267.955C110.531 268.207 110.719 268.408 110.958 268.555C111.2 268.703 111.475 268.777 111.785 268.777C112.015 268.777 112.229 268.733 112.428 268.645C112.627 268.557 112.8 268.435 112.948 268.278C113.099 268.119 113.215 267.939 113.298 267.737C113.383 267.536 113.424 267.322 113.421 267.098C113.421 266.8 113.35 266.524 113.208 266.271C113.069 266.018 112.877 265.815 112.633 265.662C112.391 265.509 112.114 265.432 111.802 265.432Z" fill="#95BBD2"/>
<path d="M159.047 273V271.858L162.077 268.888C162.367 268.595 162.608 268.335 162.801 268.108C162.994 267.881 163.139 267.661 163.236 267.447C163.333 267.234 163.381 267.007 163.381 266.766C163.381 266.49 163.318 266.254 163.193 266.058C163.068 265.859 162.896 265.706 162.678 265.598C162.459 265.49 162.21 265.436 161.932 265.436C161.645 265.436 161.394 265.496 161.178 265.615C160.962 265.732 160.794 265.898 160.675 266.114C160.558 266.33 160.5 266.587 160.5 266.885H158.996C158.996 266.331 159.122 265.849 159.375 265.44C159.628 265.031 159.976 264.714 160.419 264.49C160.865 264.266 161.377 264.153 161.953 264.153C162.539 264.153 163.053 264.263 163.496 264.482C163.939 264.7 164.283 265 164.527 265.381C164.774 265.761 164.898 266.196 164.898 266.685C164.898 267.011 164.835 267.332 164.71 267.648C164.585 267.963 164.365 268.312 164.05 268.696C163.737 269.08 163.298 269.544 162.733 270.089L161.229 271.619V271.679H165.03V273H159.047ZM169.726 273.166C169.024 273.166 168.422 272.989 167.919 272.634C167.419 272.276 167.034 271.76 166.764 271.087C166.497 270.411 166.364 269.597 166.364 268.645C166.367 267.693 166.502 266.884 166.769 266.216C167.039 265.545 167.423 265.034 167.923 264.682C168.426 264.33 169.027 264.153 169.726 264.153C170.425 264.153 171.026 264.33 171.529 264.682C172.031 265.034 172.416 265.545 172.683 266.216C172.953 266.886 173.088 267.696 173.088 268.645C173.088 269.599 172.953 270.415 172.683 271.091C172.416 271.764 172.031 272.278 171.529 272.634C171.029 272.989 170.428 273.166 169.726 273.166ZM169.726 271.832C170.271 271.832 170.702 271.564 171.017 271.027C171.335 270.487 171.494 269.693 171.494 268.645C171.494 267.952 171.422 267.369 171.277 266.898C171.132 266.426 170.928 266.071 170.664 265.832C170.399 265.591 170.087 265.47 169.726 265.47C169.183 265.47 168.754 265.74 168.439 266.28C168.124 266.817 167.965 267.605 167.962 268.645C167.959 269.341 168.029 269.926 168.171 270.401C168.316 270.875 168.52 271.233 168.784 271.474C169.048 271.713 169.362 271.832 169.726 271.832Z" fill="#95BBD2"/>
<path d="M217.166 273V271.858L220.196 268.888C220.486 268.595 220.727 268.335 220.92 268.108C221.114 267.881 221.259 267.661 221.355 267.447C221.452 267.234 221.5 267.007 221.5 266.766C221.5 266.49 221.438 266.254 221.312 266.058C221.188 265.859 221.016 265.706 220.797 265.598C220.578 265.49 220.33 265.436 220.051 265.436C219.764 265.436 219.513 265.496 219.297 265.615C219.081 265.732 218.913 265.898 218.794 266.114C218.678 266.33 218.619 266.587 218.619 266.885H217.115C217.115 266.331 217.241 265.849 217.494 265.44C217.747 265.031 218.095 264.714 218.538 264.49C218.984 264.266 219.496 264.153 220.072 264.153C220.658 264.153 221.172 264.263 221.615 264.482C222.058 264.7 222.402 265 222.646 265.381C222.893 265.761 223.017 266.196 223.017 266.685C223.017 267.011 222.955 267.332 222.83 267.648C222.705 267.963 222.484 268.312 222.169 268.696C221.857 269.08 221.418 269.544 220.852 270.089L219.348 271.619V271.679H223.149V273H217.166ZM228.169 264.273V273H226.588V265.811H226.537L224.496 267.115V265.666L226.665 264.273H228.169Z" fill="#95BBD2"/>
<path d="M272.822 273V271.858L275.852 268.888C276.142 268.595 276.384 268.335 276.577 268.108C276.77 267.881 276.915 267.661 277.011 267.447C277.108 267.234 277.156 267.007 277.156 266.766C277.156 266.49 277.094 266.254 276.969 266.058C276.844 265.859 276.672 265.706 276.453 265.598C276.234 265.49 275.986 265.436 275.707 265.436C275.42 265.436 275.169 265.496 274.953 265.615C274.737 265.732 274.57 265.898 274.45 266.114C274.334 266.33 274.276 266.587 274.276 266.885H272.771C272.771 266.331 272.898 265.849 273.151 265.44C273.403 265.031 273.751 264.714 274.195 264.49C274.641 264.266 275.152 264.153 275.729 264.153C276.314 264.153 276.828 264.263 277.271 264.482C277.714 264.7 278.058 265 278.303 265.381C278.55 265.761 278.673 266.196 278.673 266.685C278.673 267.011 278.611 267.332 278.486 267.648C278.361 267.963 278.141 268.312 277.825 268.696C277.513 269.08 277.074 269.544 276.509 270.089L275.004 271.619V271.679H278.805V273H272.822ZM280.276 273V271.858L283.305 268.888C283.595 268.595 283.837 268.335 284.03 268.108C284.223 267.881 284.368 267.661 284.464 267.447C284.561 267.234 284.609 267.007 284.609 266.766C284.609 266.49 284.547 266.254 284.422 266.058C284.297 265.859 284.125 265.706 283.906 265.598C283.688 265.49 283.439 265.436 283.161 265.436C282.874 265.436 282.622 265.496 282.406 265.615C282.19 265.732 282.023 265.898 281.903 266.114C281.787 266.33 281.729 266.587 281.729 266.885H280.224C280.224 266.331 280.351 265.849 280.604 265.44C280.857 265.031 281.205 264.714 281.648 264.49C282.094 264.266 282.605 264.153 283.182 264.153C283.767 264.153 284.281 264.263 284.724 264.482C285.168 264.7 285.511 265 285.756 265.381C286.003 265.761 286.126 266.196 286.126 266.685C286.126 267.011 286.064 267.332 285.939 267.648C285.814 267.963 285.594 268.312 285.278 268.696C284.966 269.08 284.527 269.544 283.962 270.089L282.457 271.619V271.679H286.259V273H280.276Z" fill="#95BBD2"/>
<path d="M20.0044 61.6634V59.4545H31.6096V61.6634H27.1138V74H24.5002V61.6634H20.0044ZM37.769 59.4545H40.3826V69.6818C40.3779 70.6193 40.179 71.4266 39.786 72.1037C39.3931 72.776 38.8438 73.2945 38.1383 73.6591C37.4376 74.0189 36.6208 74.1989 35.688 74.1989C34.8358 74.1989 34.0687 74.0473 33.3869 73.7443C32.7098 73.4366 32.1724 72.982 31.7747 72.3807C31.377 71.7794 31.1781 71.0312 31.1781 70.1364H33.7988C33.8036 70.5294 33.8888 70.8679 34.0545 71.152C34.225 71.4361 34.4593 71.6539 34.7576 71.8054C35.0559 71.9569 35.3992 72.0327 35.7875 72.0327C36.2089 72.0327 36.5663 71.9451 36.8599 71.7699C37.1535 71.59 37.376 71.3248 37.5275 70.9744C37.6838 70.6241 37.7643 70.1932 37.769 69.6818V59.4545ZM51.1461 63.4531C51.0798 62.8329 50.8005 62.3499 50.3081 62.0043C49.8204 61.6586 49.1859 61.4858 48.4047 61.4858C47.8554 61.4858 47.3843 61.5687 46.9913 61.7344C46.5983 61.9001 46.2976 62.125 46.0893 62.4091C45.881 62.6932 45.7744 63.0175 45.7697 63.3821C45.7697 63.6851 45.8384 63.9479 45.9757 64.1705C46.1177 64.393 46.3095 64.5824 46.551 64.7386C46.7924 64.8902 47.06 65.018 47.3535 65.1222C47.6471 65.2263 47.943 65.3139 48.2413 65.3849L49.6049 65.7259C50.1542 65.8537 50.6821 66.0265 51.1887 66.2443C51.7001 66.4621 52.157 66.7367 52.5595 67.0682C52.9667 67.3996 53.2886 67.7997 53.5254 68.2685C53.7621 68.7372 53.8805 69.2865 53.8805 69.9162C53.8805 70.7685 53.6627 71.5189 53.2271 72.1676C52.7915 72.8116 52.1618 73.3158 51.3379 73.6804C50.5188 74.0402 49.5268 74.2202 48.362 74.2202C47.2304 74.2202 46.2479 74.045 45.4146 73.6946C44.586 73.3442 43.9373 72.8329 43.4686 72.1605C43.0046 71.4882 42.7536 70.669 42.7157 69.7031H45.3081C45.3459 70.2098 45.5022 70.6312 45.7768 70.9673C46.0514 71.3035 46.4089 71.5545 46.8493 71.7202C47.2943 71.8859 47.7915 71.9688 48.3407 71.9688C48.9136 71.9688 49.4155 71.8835 49.8464 71.7131C50.282 71.5379 50.6229 71.2964 50.8691 70.9886C51.1154 70.6761 51.2408 70.3116 51.2456 69.8949C51.2408 69.5161 51.1296 69.2036 50.9118 68.9574C50.694 68.7064 50.3886 68.4981 49.9956 68.3324C49.6073 68.1619 49.1528 68.0104 48.6319 67.8778L46.9771 67.4517C45.7792 67.1439 44.8322 66.6776 44.1362 66.0526C43.4449 65.4228 43.0993 64.5871 43.0993 63.5455C43.0993 62.6884 43.3313 61.938 43.7953 61.294C44.264 60.6501 44.9009 60.1506 45.7058 59.7955C46.5107 59.4356 47.4222 59.2557 48.4402 59.2557C49.4724 59.2557 50.3767 59.4356 51.1532 59.7955C51.9345 60.1506 52.5476 60.6454 52.9927 61.2798C53.4378 61.9096 53.6674 62.634 53.6816 63.4531H51.1461ZM66.1053 74.1989C65.1583 74.1989 64.3108 74.0213 63.5627 73.6662C62.8146 73.3063 62.2203 72.8139 61.78 72.1889C61.3444 71.5639 61.1124 70.849 61.084 70.044H63.6408C63.6882 70.6406 63.9462 71.1283 64.415 71.5071C64.8837 71.8812 65.4471 72.0682 66.1053 72.0682C66.6214 72.0682 67.0807 71.9498 67.4831 71.7131C67.8856 71.4763 68.2028 71.1473 68.4348 70.7259C68.6668 70.3045 68.7805 69.8239 68.7757 69.2841C68.7805 68.7348 68.6645 68.2472 68.4277 67.821C68.191 67.3949 67.8667 67.0611 67.4547 66.8196C67.0428 66.5734 66.5693 66.4503 66.0343 66.4503C65.5987 66.4455 65.1702 66.526 64.7488 66.6918C64.3274 66.8575 63.9935 67.0753 63.7473 67.3452L61.3681 66.9545L62.128 59.4545H70.5655V61.6562H64.3084L63.8894 65.5128H63.9746C64.2445 65.1955 64.6257 64.9328 65.1181 64.7244C65.6105 64.5114 66.1503 64.4048 66.7374 64.4048C67.6181 64.4048 68.4041 64.6132 69.0953 65.0298C69.7866 65.4418 70.3311 66.0099 70.7289 66.7344C71.1266 67.4588 71.3255 68.2874 71.3255 69.2202C71.3255 70.1813 71.1029 71.0384 70.6578 71.7912C70.2175 72.5393 69.6043 73.1288 68.8184 73.5597C68.0371 73.9858 67.1328 74.1989 66.1053 74.1989ZM79.0811 74.277C77.9116 74.277 76.9078 73.9811 76.0698 73.3892C75.2364 72.7926 74.5949 71.9332 74.1451 70.8111C73.7 69.6842 73.4775 68.3277 73.4775 66.7415C73.4822 65.1553 73.7071 63.8059 74.1522 62.6932C74.602 61.5758 75.2435 60.7235 76.0769 60.1364C76.915 59.5492 77.9164 59.2557 79.0811 59.2557C80.2459 59.2557 81.2473 59.5492 82.0854 60.1364C82.9235 60.7235 83.565 61.5758 84.0101 62.6932C84.4599 63.8106 84.6848 65.16 84.6848 66.7415C84.6848 68.3324 84.4599 69.6913 84.0101 70.8182C83.565 71.9403 82.9235 72.7973 82.0854 73.3892C81.2521 73.9811 80.2507 74.277 79.0811 74.277ZM79.0811 72.054C79.9902 72.054 80.7076 71.6065 81.2331 70.7116C81.7634 69.812 82.0286 68.4886 82.0286 66.7415C82.0286 65.5862 81.9078 64.6155 81.6664 63.8295C81.4249 63.0436 81.084 62.4517 80.6436 62.054C80.2033 61.6515 79.6825 61.4503 79.0811 61.4503C78.1768 61.4503 77.4618 61.9001 76.9363 62.7997C76.4107 63.6946 76.1455 65.0085 76.1408 66.7415C76.1361 67.9015 76.2521 68.8769 76.4888 69.6676C76.7303 70.4583 77.0712 71.0549 77.5115 71.4574C77.9519 71.8551 78.4751 72.054 79.0811 72.054ZM89.525 72.0114L89.4327 72.7926C89.3664 73.3892 89.248 73.9953 89.0776 74.6108C88.9119 75.2311 88.7367 75.8016 88.552 76.3224C88.3674 76.8433 88.2182 77.2528 88.1046 77.5511H86.3716C86.4379 77.2623 86.5279 76.8693 86.6415 76.3722C86.7599 75.875 86.8735 75.3163 86.9824 74.696C87.0913 74.0758 87.1647 73.446 87.2026 72.8068L87.2523 72.0114H89.525ZM97.2576 74.1989C96.3107 74.1989 95.4631 74.0213 94.715 73.6662C93.9669 73.3063 93.3727 72.8139 92.9324 72.1889C92.4967 71.5639 92.2647 70.849 92.2363 70.044H94.7931C94.8405 70.6406 95.0985 71.1283 95.5673 71.5071C96.036 71.8812 96.5995 72.0682 97.2576 72.0682C97.7737 72.0682 98.233 71.9498 98.6355 71.7131C99.0379 71.4763 99.3552 71.1473 99.5872 70.7259C99.8192 70.3045 99.9328 69.8239 99.9281 69.2841C99.9328 68.7348 99.8168 68.2472 99.5801 67.821C99.3433 67.3949 99.019 67.0611 98.6071 66.8196C98.1951 66.5734 97.7217 66.4503 97.1866 66.4503C96.751 66.4455 96.3225 66.526 95.9011 66.6918C95.4797 66.8575 95.1459 67.0753 94.8997 67.3452L92.5204 66.9545L93.2804 59.4545H101.718V61.6562H95.4608L95.0417 65.5128H95.127C95.3968 65.1955 95.778 64.9328 96.2704 64.7244C96.7628 64.5114 97.3026 64.4048 97.8897 64.4048C98.7704 64.4048 99.5564 64.6132 100.248 65.0298C100.939 65.4418 101.483 66.0099 101.881 66.7344C102.279 67.4588 102.478 68.2874 102.478 69.2202C102.478 70.1813 102.255 71.0384 101.81 71.7912C101.37 72.5393 100.757 73.1288 99.9707 73.5597C99.1895 73.9858 98.2851 74.1989 97.2576 74.1989ZM110.028 74.1989C108.972 74.1989 108.034 74.0213 107.215 73.6662C106.401 73.3111 105.761 72.8258 105.297 72.2102C104.838 71.59 104.611 70.8868 104.616 70.1009C104.611 69.4901 104.743 68.929 105.013 68.4176C105.283 67.9062 105.648 67.4801 106.107 67.1392C106.571 66.7936 107.087 66.5734 107.655 66.4787V66.3793C106.907 66.2135 106.301 65.8324 105.837 65.2358C105.378 64.6345 105.151 63.9408 105.155 63.1548C105.151 62.4067 105.359 61.7391 105.78 61.152C106.202 60.5649 106.779 60.1032 107.513 59.767C108.247 59.4261 109.085 59.2557 110.028 59.2557C110.96 59.2557 111.791 59.4261 112.52 59.767C113.254 60.1032 113.832 60.5649 114.253 61.152C114.68 61.7391 114.893 62.4067 114.893 63.1548C114.893 63.9408 114.658 64.6345 114.189 65.2358C113.725 65.8324 113.126 66.2135 112.393 66.3793V66.4787C112.961 66.5734 113.472 66.7936 113.927 67.1392C114.386 67.4801 114.751 67.9062 115.02 68.4176C115.295 68.929 115.432 69.4901 115.432 70.1009C115.432 70.8868 115.2 71.59 114.736 72.2102C114.272 72.8258 113.633 73.3111 112.819 73.6662C112.009 74.0213 111.079 74.1989 110.028 74.1989ZM110.028 72.1676C110.572 72.1676 111.046 72.0753 111.448 71.8906C111.85 71.7012 112.163 71.4361 112.385 71.0952C112.608 70.7543 112.722 70.3613 112.726 69.9162C112.722 69.4522 112.601 69.0426 112.364 68.6875C112.132 68.3277 111.813 68.0459 111.405 67.8423C111.003 67.6387 110.544 67.5369 110.028 67.5369C109.507 67.5369 109.043 67.6387 108.635 67.8423C108.228 68.0459 107.906 68.3277 107.67 68.6875C107.438 69.0426 107.324 69.4522 107.329 69.9162C107.324 70.3613 107.433 70.7543 107.655 71.0952C107.878 71.4313 108.19 71.6941 108.593 71.8835C109 72.0729 109.478 72.1676 110.028 72.1676ZM110.028 65.5412C110.473 65.5412 110.866 65.4512 111.206 65.2713C111.552 65.0914 111.824 64.8404 112.023 64.5185C112.222 64.1965 112.324 63.8248 112.329 63.4034C112.324 62.9867 112.224 62.6222 112.03 62.3097C111.836 61.9924 111.566 61.7486 111.221 61.5781C110.875 61.4029 110.477 61.3153 110.028 61.3153C109.568 61.3153 109.163 61.4029 108.813 61.5781C108.467 61.7486 108.198 61.9924 108.003 62.3097C107.814 62.6222 107.722 62.9867 107.726 63.4034C107.722 63.8248 107.816 64.1965 108.01 64.5185C108.209 64.8357 108.482 65.0866 108.827 65.2713C109.178 65.4512 109.578 65.5412 110.028 65.5412ZM122.817 59.2557C123.513 59.2604 124.19 59.3835 124.848 59.625C125.511 59.8617 126.108 60.25 126.638 60.7898C127.168 61.3248 127.59 62.0421 127.902 62.9418C128.215 63.8414 128.371 64.9541 128.371 66.2798C128.376 67.5298 128.243 68.6473 127.973 69.6321C127.708 70.6122 127.327 71.4408 126.83 72.1179C126.333 72.795 125.734 73.3111 125.033 73.6662C124.332 74.0213 123.544 74.1989 122.668 74.1989C121.749 74.1989 120.935 74.0189 120.225 73.6591C119.519 73.2992 118.949 72.8068 118.513 72.1818C118.077 71.5568 117.81 70.8419 117.71 70.0369H120.303C120.435 70.6146 120.705 71.0739 121.112 71.4148C121.524 71.7509 122.043 71.919 122.668 71.919C123.676 71.919 124.453 71.4811 124.997 70.6051C125.542 69.7292 125.814 68.5123 125.814 66.9545H125.715C125.483 67.3712 125.182 67.7311 124.813 68.0341C124.443 68.3324 124.024 68.562 123.556 68.723C123.092 68.884 122.599 68.9645 122.078 68.9645C121.226 68.9645 120.459 68.7609 119.777 68.3537C119.1 67.9465 118.563 67.3878 118.165 66.6776C117.772 65.9673 117.573 65.1553 117.568 64.2415C117.568 63.2945 117.786 62.4446 118.222 61.6918C118.662 60.9342 119.275 60.3376 120.061 59.902C120.847 59.4616 121.766 59.2462 122.817 59.2557ZM122.824 61.3864C122.313 61.3864 121.851 61.5118 121.439 61.7628C121.032 62.009 120.71 62.3452 120.473 62.7713C120.241 63.1927 120.125 63.6638 120.125 64.1847C120.13 64.7008 120.246 65.1695 120.473 65.5909C120.705 66.0123 121.02 66.3461 121.418 66.5923C121.82 66.8385 122.28 66.9616 122.796 66.9616C123.179 66.9616 123.537 66.8883 123.868 66.7415C124.2 66.5947 124.488 66.3911 124.735 66.1307C124.985 65.8655 125.18 65.5649 125.317 65.2287C125.459 64.8925 125.528 64.5374 125.523 64.1634C125.523 63.6662 125.405 63.2069 125.168 62.7855C124.936 62.3641 124.616 62.0256 124.209 61.7699C123.807 61.5142 123.345 61.3864 122.824 61.3864ZM131.782 74.1562C131.351 74.1562 130.982 74.0047 130.674 73.7017C130.366 73.3987 130.215 73.0294 130.219 72.5938C130.215 72.1676 130.366 71.803 130.674 71.5C130.982 71.197 131.351 71.0455 131.782 71.0455C132.198 71.0455 132.561 71.197 132.868 71.5C133.181 71.803 133.34 72.1676 133.344 72.5938C133.34 72.8826 133.264 73.1454 133.117 73.3821C132.975 73.6188 132.786 73.8082 132.549 73.9503C132.317 74.0876 132.061 74.1562 131.782 74.1562ZM140.78 74.277C139.611 74.277 138.607 73.9811 137.769 73.3892C136.936 72.7926 136.294 71.9332 135.844 70.8111C135.399 69.6842 135.177 68.3277 135.177 66.7415C135.181 65.1553 135.406 63.8059 135.851 62.6932C136.301 61.5758 136.943 60.7235 137.776 60.1364C138.614 59.5492 139.616 59.2557 140.78 59.2557C141.945 59.2557 142.947 59.5492 143.785 60.1364C144.623 60.7235 145.264 61.5758 145.709 62.6932C146.159 63.8106 146.384 65.16 146.384 66.7415C146.384 68.3324 146.159 69.6913 145.709 70.8182C145.264 71.9403 144.623 72.7973 143.785 73.3892C142.951 73.9811 141.95 74.277 140.78 74.277ZM140.78 72.054C141.689 72.054 142.407 71.6065 142.932 70.7116C143.463 69.812 143.728 68.4886 143.728 66.7415C143.728 65.5862 143.607 64.6155 143.366 63.8295C143.124 63.0436 142.783 62.4517 142.343 62.054C141.903 61.6515 141.382 61.4503 140.78 61.4503C139.876 61.4503 139.161 61.9001 138.635 62.7997C138.11 63.6946 137.845 65.0085 137.84 66.7415C137.835 67.9015 137.951 68.8769 138.188 69.6676C138.43 70.4583 138.77 71.0549 139.211 71.4574C139.651 71.8551 140.174 72.054 140.78 72.054ZM154.12 74.277C152.951 74.277 151.947 73.9811 151.109 73.3892C150.276 72.7926 149.634 71.9332 149.184 70.8111C148.739 69.6842 148.517 68.3277 148.517 66.7415C148.521 65.1553 148.746 63.8059 149.191 62.6932C149.641 61.5758 150.283 60.7235 151.116 60.1364C151.954 59.5492 152.955 59.2557 154.12 59.2557C155.285 59.2557 156.286 59.5492 157.124 60.1364C157.963 60.7235 158.604 61.5758 159.049 62.6932C159.499 63.8106 159.724 65.16 159.724 66.7415C159.724 68.3324 159.499 69.6913 159.049 70.8182C158.604 71.9403 157.963 72.7973 157.124 73.3892C156.291 73.9811 155.29 74.277 154.12 74.277ZM154.12 72.054C155.029 72.054 155.747 71.6065 156.272 70.7116C156.802 69.812 157.068 68.4886 157.068 66.7415C157.068 65.5862 156.947 64.6155 156.705 63.8295C156.464 63.0436 156.123 62.4517 155.683 62.054C155.242 61.6515 154.722 61.4503 154.12 61.4503C153.216 61.4503 152.501 61.9001 151.975 62.7997C151.45 63.6946 151.185 65.0085 151.18 66.7415C151.175 67.9015 151.291 68.8769 151.528 69.6676C151.769 70.4583 152.11 71.0549 152.551 71.4574C152.991 71.8551 153.514 72.054 154.12 72.054Z" fill="white"/>
</g>
</g>
</g>
<defs>
<linearGradient id="paint0_linear_138_1313" x1="124.168" y1="130" x2="124.168" y2="252" gradientUnits="userSpaceOnUse">
<stop stop-color="white" stop-opacity="0.2"/>
<stop offset="0.666667" stop-color="white" stop-opacity="0"/>
</linearGradient>
<clipPath id="clip0_138_1313">
<rect width="300" height="312" rx="24" fill="white"/>
</clipPath>
<clipPath id="clip1_138_1313">
<rect width="300" height="312" fill="white"/>
</clipPath>
<clipPath id="clip2_138_1313">
<rect width="300" height="312" fill="white"/>
</clipPath>
</defs>
</svg>
