<svg width="20" height="20" viewBox="0 0 20 20" fill="none" xmlns="http://www.w3.org/2000/svg">
<path d="M4.16663 8.51649H5.83329V13.709H4.16663V8.51649ZM9.16663 8.51649H10.8333V13.709H9.16663V8.51649ZM18.3333 5.54936L9.99996 1.84045L1.66663 5.54936V7.03292H18.3333V5.54936ZM5.39163 5.54936L9.99996 3.50204L14.6083 5.54936H5.39163ZM1.66663 15.1925V16.6761H12C11.825 16.2013 11.7333 15.7043 11.7 15.1925H1.66663ZM15.8333 10.1929V8.51649H14.1666V10.9347L15.8333 10.1929ZM16.6666 11.4836L13.3333 12.9672V14.8587C13.3333 16.728 14.7583 18.4786 16.6666 18.9014C18.575 18.4786 20 16.728 20 14.8587V12.9672L16.6666 11.4836ZM16.0666 16.6761L14.375 15.1703L15.2583 14.384L16.0666 15.1035L18.075 13.3381L18.9583 14.1244L16.0666 16.6761Z" fill="#1F2937"/>
</svg>
