<svg width="20" height="20" viewBox="0 0 20 20" fill="none" xmlns="http://www.w3.org/2000/svg">
<g clip-path="url(#clip0_55_765)">
<path d="M8.41663 12.893L9.59996 11.8397C7.32496 10.0371 5.83329 8.82062 5.83329 7.66344C5.83329 6.88457 6.49996 6.29114 7.37496 6.29114C8.29996 6.29114 8.65829 6.7733 9.60829 7.7747H10.3833C11.3166 6.80297 11.6583 6.29114 12.6166 6.29114C13.3416 6.29114 13.9083 6.6917 14.0916 7.27029C14.3833 7.24062 14.6583 7.22579 14.925 7.22579C15.225 7.22579 15.5083 7.24804 15.7833 7.28513C15.5833 5.86833 14.275 4.80758 12.625 4.80758C12.525 4.80758 12.4333 4.82983 12.3333 4.83725C12.4333 4.59246 12.5 4.34026 12.5 4.0658C12.5 2.83444 11.3833 1.84045 9.99996 1.84045C8.61663 1.84045 7.49996 2.83444 7.49996 4.0658C7.49996 4.34026 7.56663 4.59246 7.66663 4.83725C7.56663 4.82983 7.47496 4.80758 7.37496 4.80758C5.57496 4.80758 4.16663 6.06119 4.16663 7.66344C4.16663 9.45855 5.86663 10.8605 8.41663 12.893Z" fill="#1F2937"/>
<path d="M18.75 13.1452C18.4834 13.0117 18.2 12.9301 17.9167 12.8856C17.975 12.8114 18.0417 12.752 18.0917 12.6779C18.9917 11.2907 18.475 9.57721 16.9167 8.77609C15.175 7.87853 12.95 8.48679 9.70837 9.44369L10.1417 10.8827C13.0334 10.0371 14.9667 9.4882 16.0917 10.0668C16.85 10.4599 17.0917 11.2611 16.6584 11.9435C16.1917 12.6556 15.55 12.6853 14.1 12.9226L13.7084 13.5235C14.1917 14.7252 14.5167 15.2518 14.0334 15.9862C13.5917 16.6612 12.6917 16.8763 11.925 16.4906C11.875 16.4684 11.8334 16.4239 11.7834 16.3942C11.5334 16.8912 11.25 17.314 10.925 17.6775C10.9834 17.7071 11.0334 17.7442 11.0917 17.7813C12.65 18.5824 14.575 18.1225 15.475 16.7354C15.525 16.6612 15.55 16.5796 15.5917 16.498C15.775 16.6983 15.9917 16.8763 16.2584 17.0099C17.45 17.6255 18.9834 17.2621 19.675 16.1939C20.3667 15.1257 19.9417 13.7534 18.75 13.1452Z" fill="#1F2937"/>
<path d="M10.2668 11.491C9.65009 14.1466 9.20843 15.9046 8.08343 16.4832C7.32509 16.8763 6.41676 16.6612 5.97509 15.9788C5.50843 15.2667 5.80842 14.7474 6.30009 13.5161L5.91676 12.9152C4.50009 12.6853 3.83343 12.6704 3.35843 11.9361C2.91676 11.261 3.15843 10.4525 3.92509 10.0594C4.00009 10.0223 4.08343 10 4.16676 9.97776C3.87509 9.56237 3.63342 9.10988 3.48342 8.60547C3.35009 8.65739 3.21676 8.70932 3.08343 8.77608C1.52509 9.5772 1.00842 11.2907 1.90843 12.6778C1.95843 12.752 2.02509 12.8114 2.08343 12.8855C1.80009 12.9301 1.51676 13.0116 1.25009 13.1452C0.0584252 13.7608 -0.358241 15.1183 0.333425 16.1865C1.02509 17.2546 2.55009 17.6181 3.75009 17.0024C4.01676 16.8689 4.23343 16.6909 4.41676 16.4906C4.45843 16.5722 4.48343 16.6538 4.53342 16.728C5.43342 18.1151 7.35843 18.575 8.91676 17.7739C10.6584 16.8763 11.1751 14.8587 11.8751 11.8841L10.2668 11.491Z" fill="#1F2937"/>
</g>
<defs>
<clipPath id="clip0_55_765">
<rect width="20" height="20" fill="white"/>
</clipPath>
</defs>
</svg>
