<svg width="20" height="20" viewBox="0 0 20 20" fill="none" xmlns="http://www.w3.org/2000/svg">
<path d="M15 4.0658H13.3334V9.92587L15 8.44231V4.0658ZM3.33337 4.0658H5.00004V15.9343H3.33337V4.0658ZM8.33337 4.0658H10V7.03292H8.33337V4.0658ZM8.33337 8.51648H10V11.4836H8.33337V8.51648ZM8.33337 12.9672H10V15.9343H8.33337V12.9672ZM18.8 10.4377L17.8417 9.58465C17.7262 9.48058 17.5887 9.39796 17.437 9.34157C17.2854 9.28518 17.1227 9.25614 16.9584 9.25614C16.794 9.25614 16.6313 9.28518 16.4797 9.34157C16.3281 9.39796 16.1905 9.48058 16.075 9.58465L11.6667 13.5087V15.9343H14.3917L18.8 12.0103C19.2917 11.5726 19.2917 10.8679 18.8 10.4377ZM13.8167 14.7845H12.9584V14.0205L15.8334 11.4614L16.6917 12.2254L13.8167 14.7845Z" fill="#1F2937"/>
</svg>
