<svg width="237" height="143" viewBox="0 0 237 143" fill="none" xmlns="http://www.w3.org/2000/svg">
<rect width="237" height="143" rx="6.24561" fill="#315266"/>
<path d="M21.4545 66.9091L21.5455 64.4091L19.4318 65.75L18.8864 64.7955L21.1136 63.6364L18.8864 62.4773L19.4318 61.5227L21.5455 62.8636L21.4545 60.3636H22.5455L22.4545 62.8636L24.5682 61.5227L25.1136 62.4773L22.8864 63.6364L25.1136 64.7955L24.5682 65.75L22.4545 64.4091L22.5455 66.9091H21.4545ZM29.4545 66.9091L29.5455 64.4091L27.4318 65.75L26.8864 64.7955L29.1136 63.6364L26.8864 62.4773L27.4318 61.5227L29.5455 62.8636L29.4545 60.3636H30.5455L30.4545 62.8636L32.5682 61.5227L33.1136 62.4773L30.8864 63.6364L33.1136 64.7955L32.5682 65.75L30.4545 64.4091L30.5455 66.9091H29.4545ZM37.4545 66.9091L37.5455 64.4091L35.4318 65.75L34.8864 64.7955L37.1136 63.6364L34.8864 62.4773L35.4318 61.5227L37.5455 62.8636L37.4545 60.3636H38.5455L38.4545 62.8636L40.5682 61.5227L41.1136 62.4773L38.8864 63.6364L41.1136 64.7955L40.5682 65.75L38.4545 64.4091L38.5455 66.9091H37.4545ZM45.4545 66.9091L45.5455 64.4091L43.4318 65.75L42.8864 64.7955L45.1136 63.6364L42.8864 62.4773L43.4318 61.5227L45.5455 62.8636L45.4545 60.3636H46.5455L46.4545 62.8636L48.5682 61.5227L49.1136 62.4773L46.8864 63.6364L49.1136 64.7955L48.5682 65.75L46.4545 64.4091L46.5455 66.9091H45.4545ZM57.9545 66.9091L58.0455 64.4091L55.9318 65.75L55.3864 64.7955L57.6136 63.6364L55.3864 62.4773L55.9318 61.5227L58.0455 62.8636L57.9545 60.3636H59.0455L58.9545 62.8636L61.0682 61.5227L61.6136 62.4773L59.3864 63.6364L61.6136 64.7955L61.0682 65.75L58.9545 64.4091L59.0455 66.9091H57.9545ZM65.9545 66.9091L66.0455 64.4091L63.9318 65.75L63.3864 64.7955L65.6136 63.6364L63.3864 62.4773L63.9318 61.5227L66.0455 62.8636L65.9545 60.3636H67.0455L66.9545 62.8636L69.0682 61.5227L69.6136 62.4773L67.3864 63.6364L69.6136 64.7955L69.0682 65.75L66.9545 64.4091L67.0455 66.9091H65.9545ZM73.9545 66.9091L74.0455 64.4091L71.9318 65.75L71.3864 64.7955L73.6136 63.6364L71.3864 62.4773L71.9318 61.5227L74.0455 62.8636L73.9545 60.3636H75.0455L74.9545 62.8636L77.0682 61.5227L77.6136 62.4773L75.3864 63.6364L77.6136 64.7955L77.0682 65.75L74.9545 64.4091L75.0455 66.9091H73.9545ZM81.9545 66.9091L82.0455 64.4091L79.9318 65.75L79.3864 64.7955L81.6136 63.6364L79.3864 62.4773L79.9318 61.5227L82.0455 62.8636L81.9545 60.3636H83.0455L82.9545 62.8636L85.0682 61.5227L85.6136 62.4773L83.3864 63.6364L85.6136 64.7955L85.0682 65.75L82.9545 64.4091L83.0455 66.9091H81.9545ZM94.4545 66.9091L94.5455 64.4091L92.4318 65.75L91.8864 64.7955L94.1136 63.6364L91.8864 62.4773L92.4318 61.5227L94.5455 62.8636L94.4545 60.3636H95.5455L95.4545 62.8636L97.5682 61.5227L98.1136 62.4773L95.8864 63.6364L98.1136 64.7955L97.5682 65.75L95.4545 64.4091L95.5455 66.9091H94.4545ZM102.455 66.9091L102.545 64.4091L100.432 65.75L99.8864 64.7955L102.114 63.6364L99.8864 62.4773L100.432 61.5227L102.545 62.8636L102.455 60.3636H103.545L103.455 62.8636L105.568 61.5227L106.114 62.4773L103.886 63.6364L106.114 64.7955L105.568 65.75L103.455 64.4091L103.545 66.9091H102.455ZM110.455 66.9091L110.545 64.4091L108.432 65.75L107.886 64.7955L110.114 63.6364L107.886 62.4773L108.432 61.5227L110.545 62.8636L110.455 60.3636H111.545L111.455 62.8636L113.568 61.5227L114.114 62.4773L111.886 63.6364L114.114 64.7955L113.568 65.75L111.455 64.4091L111.545 66.9091H110.455ZM118.455 66.9091L118.545 64.4091L116.432 65.75L115.886 64.7955L118.114 63.6364L115.886 62.4773L116.432 61.5227L118.545 62.8636L118.455 60.3636H119.545L119.455 62.8636L121.568 61.5227L122.114 62.4773L119.886 63.6364L122.114 64.7955L121.568 65.75L119.455 64.4091L119.545 66.9091H118.455ZM128.432 69.6136V68.4545L133.545 60.3636H134.386V62.1591H133.818L129.955 68.2727V68.3636H136.841V69.6136H128.432ZM133.909 72V69.2614V68.7216V60.3636H135.25V72H133.909ZM142.697 72.1591C141.917 72.1591 141.228 72.0208 140.629 71.7443C140.035 71.464 139.571 71.0795 139.237 70.5909C138.904 70.0985 138.739 69.5379 138.743 68.9091C138.739 68.4167 138.836 67.9621 139.033 67.5455C139.23 67.125 139.499 66.7746 139.839 66.4943C140.184 66.2102 140.569 66.0303 140.993 65.9545V65.8864C140.436 65.7424 139.993 65.4299 139.663 64.9489C139.334 64.464 139.171 63.9129 139.175 63.2955C139.171 62.7045 139.321 62.1761 139.624 61.7102C139.927 61.2443 140.343 60.8769 140.874 60.608C141.408 60.339 142.016 60.2045 142.697 60.2045C143.372 60.2045 143.974 60.339 144.504 60.608C145.035 60.8769 145.451 61.2443 145.754 61.7102C146.061 62.1761 146.216 62.7045 146.22 63.2955C146.216 63.9129 146.048 64.464 145.714 64.9489C145.385 65.4299 144.947 65.7424 144.402 65.8864V65.9545C144.822 66.0303 145.201 66.2102 145.538 66.4943C145.875 66.7746 146.144 67.125 146.345 67.5455C146.546 67.9621 146.648 68.4167 146.652 68.9091C146.648 69.5379 146.478 70.0985 146.141 70.5909C145.807 71.0795 145.343 71.464 144.749 71.7443C144.158 72.0208 143.474 72.1591 142.697 72.1591ZM142.697 70.9091C143.224 70.9091 143.679 70.8239 144.061 70.6534C144.444 70.483 144.739 70.2424 144.947 69.9318C145.156 69.6212 145.262 69.2576 145.266 68.8409C145.262 68.4015 145.148 68.0133 144.925 67.6761C144.701 67.339 144.396 67.0739 144.01 66.8807C143.627 66.6875 143.19 66.5909 142.697 66.5909C142.201 66.5909 141.758 66.6875 141.368 66.8807C140.982 67.0739 140.677 67.339 140.453 67.6761C140.233 68.0133 140.125 68.4015 140.129 68.8409C140.125 69.2576 140.226 69.6212 140.43 69.9318C140.639 70.2424 140.936 70.483 141.322 70.6534C141.709 70.8239 142.167 70.9091 142.697 70.9091ZM142.697 65.3864C143.114 65.3864 143.483 65.303 143.805 65.1364C144.131 64.9697 144.387 64.7367 144.572 64.4375C144.758 64.1383 144.853 63.7879 144.857 63.3864C144.853 62.9924 144.76 62.6496 144.578 62.358C144.396 62.0625 144.144 61.8352 143.822 61.6761C143.5 61.5133 143.125 61.4318 142.697 61.4318C142.262 61.4318 141.881 61.5133 141.555 61.6761C141.23 61.8352 140.978 62.0625 140.8 62.358C140.622 62.6496 140.535 62.9924 140.538 63.3864C140.535 63.7879 140.624 64.1383 140.805 64.4375C140.991 64.7367 141.247 64.9697 141.572 65.1364C141.898 65.303 142.273 65.3864 142.697 65.3864ZM152.92 60.3636V72H151.511V61.8409H151.443L148.602 63.7273V62.2955L151.511 60.3636H152.92ZM159.903 72.1591C159.237 72.1591 158.636 72.0265 158.102 71.7614C157.568 71.4962 157.14 71.1326 156.818 70.6705C156.496 70.2083 156.32 69.6818 156.29 69.0909H157.653C157.706 69.6174 157.945 70.053 158.369 70.3977C158.797 70.7386 159.309 70.9091 159.903 70.9091C160.381 70.9091 160.805 70.7973 161.176 70.5739C161.551 70.3504 161.845 70.0436 162.057 69.6534C162.273 69.2595 162.381 68.8144 162.381 68.3182C162.381 67.8106 162.269 67.358 162.045 66.9602C161.826 66.5587 161.523 66.2424 161.136 66.0114C160.75 65.7803 160.309 65.6629 159.812 65.6591C159.456 65.6553 159.091 65.7102 158.716 65.8239C158.341 65.9337 158.032 66.0758 157.79 66.25L156.472 66.0909L157.176 60.3636H163.222V61.6136H158.358L157.949 65.0455H158.017C158.256 64.8561 158.555 64.6989 158.915 64.5739C159.275 64.4489 159.65 64.3864 160.04 64.3864C160.752 64.3864 161.386 64.5568 161.943 64.8977C162.504 65.2348 162.943 65.697 163.261 66.2841C163.583 66.8712 163.744 67.5417 163.744 68.2955C163.744 69.0379 163.578 69.7008 163.244 70.2841C162.915 70.8636 162.46 71.322 161.881 71.6591C161.301 71.9924 160.642 72.1591 159.903 72.1591Z" fill="white"/>
<path d="M26.0795 96H25.0227C24.9602 95.696 24.8509 95.429 24.6946 95.1989C24.5412 94.9688 24.3537 94.7756 24.1321 94.6193C23.9134 94.4602 23.6705 94.3409 23.4034 94.2614C23.1364 94.1818 22.858 94.142 22.5682 94.142C22.0398 94.142 21.5611 94.2756 21.1321 94.5426C20.706 94.8097 20.3665 95.2031 20.1136 95.723C19.8636 96.2429 19.7386 96.8807 19.7386 97.6364C19.7386 98.392 19.8636 99.0298 20.1136 99.5497C20.3665 100.07 20.706 100.463 21.1321 100.73C21.5611 100.997 22.0398 101.131 22.5682 101.131C22.858 101.131 23.1364 101.091 23.4034 101.011C23.6705 100.932 23.9134 100.814 24.1321 100.658C24.3537 100.499 24.5412 100.304 24.6946 100.074C24.8509 99.8409 24.9602 99.5739 25.0227 99.2727H26.0795C26 99.7187 25.8551 100.118 25.6449 100.47C25.4347 100.822 25.1733 101.122 24.8608 101.369C24.5483 101.614 24.1974 101.8 23.8082 101.928C23.4219 102.055 23.0085 102.119 22.5682 102.119C21.8239 102.119 21.1619 101.938 20.5824 101.574C20.0028 101.21 19.5469 100.693 19.2145 100.023C18.8821 99.3523 18.7159 98.5568 18.7159 97.6364C18.7159 96.7159 18.8821 95.9205 19.2145 95.25C19.5469 94.5795 20.0028 94.0625 20.5824 93.6989C21.1619 93.3352 21.8239 93.1534 22.5682 93.1534C23.0085 93.1534 23.4219 93.2173 23.8082 93.3452C24.1974 93.473 24.5483 93.6605 24.8608 93.9077C25.1733 94.152 25.4347 94.4503 25.6449 94.8026C25.8551 95.152 26 95.5511 26.0795 96ZM29.5771 102.153C29.1623 102.153 28.7859 102.075 28.4478 101.919C28.1097 101.76 27.8413 101.531 27.6424 101.233C27.4435 100.932 27.3441 100.568 27.3441 100.142C27.3441 99.767 27.418 99.4631 27.5657 99.2301C27.7134 98.9943 27.9109 98.8097 28.158 98.6761C28.4052 98.5426 28.6779 98.4432 28.9762 98.3778C29.2773 98.3097 29.5799 98.2557 29.8839 98.2159C30.2816 98.1648 30.604 98.1264 30.8512 98.1009C31.1012 98.0724 31.283 98.0256 31.3967 97.9602C31.5131 97.8949 31.5714 97.7812 31.5714 97.6193V97.5852C31.5714 97.1648 31.4563 96.8381 31.2262 96.6051C30.9989 96.3722 30.6538 96.2557 30.1907 96.2557C29.7106 96.2557 29.3342 96.3608 29.0614 96.571C28.7887 96.7812 28.5969 97.0057 28.4862 97.2443L27.5316 96.9034C27.7021 96.5057 27.9293 96.196 28.2134 95.9744C28.5004 95.75 28.8129 95.5937 29.1509 95.5057C29.4918 95.4148 29.8271 95.3693 30.1566 95.3693C30.3668 95.3693 30.6083 95.3949 30.881 95.446C31.1566 95.4943 31.4222 95.5952 31.6779 95.7486C31.9364 95.902 32.1509 96.1335 32.3214 96.4432C32.4918 96.7528 32.5771 97.1676 32.5771 97.6875V102H31.5714V101.114H31.5202C31.4521 101.256 31.3384 101.408 31.1793 101.57C31.0202 101.732 30.8086 101.869 30.5444 101.983C30.2802 102.097 29.9577 102.153 29.5771 102.153ZM29.7305 101.25C30.1282 101.25 30.4634 101.172 30.7362 101.016C31.0117 100.859 31.2191 100.658 31.3583 100.411C31.5004 100.163 31.5714 99.9034 31.5714 99.6307V98.7102C31.5288 98.7614 31.435 98.8082 31.2901 98.8509C31.1481 98.8906 30.9833 98.9261 30.7958 98.9574C30.6112 98.9858 30.4308 99.0114 30.2546 99.0341C30.0813 99.054 29.9407 99.071 29.8327 99.0852C29.5714 99.1193 29.3271 99.1747 29.0998 99.2514C28.8754 99.3253 28.6935 99.4375 28.5543 99.5881C28.418 99.7358 28.3498 99.9375 28.3498 100.193C28.3498 100.543 28.479 100.807 28.7376 100.986C28.9989 101.162 29.3299 101.25 29.7305 101.25ZM34.4126 102V95.4545H35.3842V96.4432H35.4524C35.5717 96.1193 35.7876 95.8565 36.1001 95.6548C36.4126 95.4531 36.7649 95.3523 37.157 95.3523C37.2308 95.3523 37.3232 95.3537 37.4339 95.3565C37.5447 95.3594 37.6286 95.3636 37.6854 95.3693V96.392C37.6513 96.3835 37.5732 96.3707 37.451 96.3537C37.3317 96.3338 37.2053 96.3239 37.0717 96.3239C36.7536 96.3239 36.4695 96.3906 36.2195 96.5241C35.9723 96.6548 35.7763 96.8366 35.6314 97.0696C35.4893 97.2997 35.4183 97.5625 35.4183 97.858V102H34.4126ZM41.1499 102.136C40.6044 102.136 40.1229 101.999 39.7053 101.723C39.2876 101.445 38.9609 101.053 38.7251 100.547C38.4893 100.038 38.3714 99.4375 38.3714 98.7443C38.3714 98.0568 38.4893 97.4602 38.7251 96.9545C38.9609 96.4489 39.2891 96.0582 39.7095 95.7827C40.13 95.5071 40.6158 95.3693 41.1669 95.3693C41.593 95.3693 41.9297 95.4403 42.1768 95.5824C42.4268 95.7216 42.6172 95.8807 42.7479 96.0597C42.8814 96.2358 42.9851 96.3807 43.0589 96.4943H43.1442V93.2727H44.1499V102H43.1783V100.994H43.0589C42.9851 101.114 42.88 101.264 42.7436 101.446C42.6072 101.625 42.4126 101.786 42.1598 101.928C41.907 102.067 41.5703 102.136 41.1499 102.136ZM41.2862 101.233C41.6896 101.233 42.0305 101.128 42.3089 100.918C42.5874 100.705 42.799 100.411 42.9439 100.036C43.0888 99.6577 43.1612 99.2216 43.1612 98.7273C43.1612 98.2386 43.0902 97.8111 42.9482 97.4446C42.8061 97.0753 42.5959 96.7884 42.3175 96.5838C42.0391 96.3764 41.6953 96.2727 41.2862 96.2727C40.8601 96.2727 40.505 96.3821 40.2209 96.6009C39.9396 96.8168 39.728 97.1108 39.5859 97.483C39.4467 97.8523 39.3771 98.267 39.3771 98.7273C39.3771 99.1932 39.4482 99.6165 39.5902 99.9972C39.7351 100.375 39.9482 100.676 40.2294 100.901C40.5135 101.122 40.8658 101.233 41.2862 101.233ZM50.5121 98.0625V102H49.5064V93.2727H50.5121V96.4773H50.5973C50.7507 96.1392 50.9808 95.8707 51.2876 95.6719C51.5973 95.4702 52.0092 95.3693 52.5234 95.3693C52.9695 95.3693 53.3601 95.4588 53.6953 95.6378C54.0305 95.8139 54.2905 96.0852 54.4751 96.4517C54.6626 96.8153 54.7564 97.2784 54.7564 97.8409V102H53.7507V97.9091C53.7507 97.3892 53.6158 96.9872 53.3459 96.7031C53.0788 96.4162 52.7081 96.2727 52.2337 96.2727C51.9041 96.2727 51.6087 96.3423 51.3473 96.4815C51.0888 96.6207 50.8842 96.8239 50.7337 97.0909C50.5859 97.358 50.5121 97.6818 50.5121 98.0625ZM59.2553 102.136C58.6644 102.136 58.146 101.996 57.6999 101.714C57.2567 101.433 56.9102 101.04 56.6602 100.534C56.413 100.028 56.2894 99.4375 56.2894 98.7614C56.2894 98.0795 56.413 97.4844 56.6602 96.9759C56.9102 96.4673 57.2567 96.0724 57.6999 95.7912C58.146 95.5099 58.6644 95.3693 59.2553 95.3693C59.8462 95.3693 60.3633 95.5099 60.8065 95.7912C61.2525 96.0724 61.5991 96.4673 61.8462 96.9759C62.0962 97.4844 62.2212 98.0795 62.2212 98.7614C62.2212 99.4375 62.0962 100.028 61.8462 100.534C61.5991 101.04 61.2525 101.433 60.8065 101.714C60.3633 101.996 59.8462 102.136 59.2553 102.136ZM59.2553 101.233C59.7042 101.233 60.0735 101.118 60.3633 100.888C60.6531 100.658 60.8675 100.355 61.0067 99.9801C61.146 99.6051 61.2156 99.1989 61.2156 98.7614C61.2156 98.3239 61.146 97.9162 61.0067 97.5384C60.8675 97.1605 60.6531 96.8551 60.3633 96.6222C60.0735 96.3892 59.7042 96.2727 59.2553 96.2727C58.8065 96.2727 58.4371 96.3892 58.1474 96.6222C57.8576 96.8551 57.6431 97.1605 57.5039 97.5384C57.3647 97.9162 57.2951 98.3239 57.2951 98.7614C57.2951 99.1989 57.3647 99.6051 57.5039 99.9801C57.6431 100.355 57.8576 100.658 58.1474 100.888C58.4371 101.118 58.8065 101.233 59.2553 101.233ZM64.7621 93.2727V102H63.7564V93.2727H64.7621ZM69.0756 102.136C68.5302 102.136 68.0487 101.999 67.631 101.723C67.2134 101.445 66.8867 101.053 66.6509 100.547C66.4151 100.038 66.2972 99.4375 66.2972 98.7443C66.2972 98.0568 66.4151 97.4602 66.6509 96.9545C66.8867 96.4489 67.2148 96.0582 67.6353 95.7827C68.0558 95.5071 68.5415 95.3693 69.0927 95.3693C69.5188 95.3693 69.8555 95.4403 70.1026 95.5824C70.3526 95.7216 70.543 95.8807 70.6737 96.0597C70.8072 96.2358 70.9109 96.3807 70.9847 96.4943H71.07V93.2727H72.0756V102H71.104V100.994H70.9847C70.9109 101.114 70.8058 101.264 70.6694 101.446C70.533 101.625 70.3384 101.786 70.0856 101.928C69.8327 102.067 69.4961 102.136 69.0756 102.136ZM69.212 101.233C69.6154 101.233 69.9563 101.128 70.2347 100.918C70.5131 100.705 70.7248 100.411 70.8697 100.036C71.0146 99.6577 71.087 99.2216 71.087 98.7273C71.087 98.2386 71.016 97.8111 70.8739 97.4446C70.7319 97.0753 70.5217 96.7884 70.2433 96.5838C69.9648 96.3764 69.6211 96.2727 69.212 96.2727C68.7859 96.2727 68.4308 96.3821 68.1467 96.6009C67.8654 96.8168 67.6538 97.1108 67.5117 97.483C67.3725 97.8523 67.3029 98.267 67.3029 98.7273C67.3029 99.1932 67.3739 99.6165 67.516 99.9972C67.6609 100.375 67.8739 100.676 68.1552 100.901C68.4393 101.122 68.7915 101.233 69.212 101.233ZM76.8015 102.136C76.1708 102.136 75.6268 101.997 75.1694 101.719C74.7148 101.438 74.364 101.045 74.1168 100.543C73.8725 100.037 73.7504 99.4489 73.7504 98.7784C73.7504 98.108 73.8725 97.517 74.1168 97.0057C74.364 96.4915 74.7077 96.0909 75.1481 95.804C75.5913 95.5142 76.1083 95.3693 76.6992 95.3693C77.0401 95.3693 77.3768 95.4261 77.7092 95.5398C78.0415 95.6534 78.3441 95.8381 78.6168 96.0938C78.8896 96.3466 79.1069 96.6818 79.2688 97.0994C79.4308 97.517 79.5117 98.0312 79.5117 98.642V99.0682H74.4663V98.1989H78.489C78.489 97.8295 78.4151 97.5 78.2674 97.2102C78.1225 96.9205 77.9151 96.6918 77.6452 96.5241C77.3782 96.3565 77.0629 96.2727 76.6992 96.2727C76.2987 96.2727 75.9521 96.3722 75.6594 96.571C75.3697 96.767 75.1467 97.0227 74.9904 97.3381C74.8342 97.6534 74.756 97.9915 74.756 98.3523V98.9318C74.756 99.4261 74.8413 99.8452 75.0117 100.189C75.185 100.53 75.4251 100.79 75.7319 100.969C76.0387 101.145 76.3952 101.233 76.8015 101.233C77.0657 101.233 77.3043 101.196 77.5174 101.122C77.7333 101.045 77.9194 100.932 78.0756 100.781C78.2319 100.628 78.3526 100.437 78.4379 100.21L79.4094 100.483C79.3072 100.812 79.1353 101.102 78.8938 101.352C78.6523 101.599 78.354 101.793 77.9989 101.932C77.6438 102.068 77.2447 102.136 76.8015 102.136ZM81.0415 102V95.4545H82.0131V96.4432H82.0813C82.2006 96.1193 82.4165 95.8565 82.729 95.6548C83.0415 95.4531 83.3938 95.3523 83.7859 95.3523C83.8597 95.3523 83.9521 95.3537 84.0629 95.3565C84.1737 95.3594 84.2575 95.3636 84.3143 95.3693V96.392C84.2802 96.3835 84.2021 96.3707 84.0799 96.3537C83.9606 96.3338 83.8342 96.3239 83.7006 96.3239C83.3825 96.3239 83.0984 96.3906 82.8484 96.5241C82.6012 96.6548 82.4052 96.8366 82.2603 97.0696C82.1183 97.2997 82.0472 97.5625 82.0472 97.858V102H81.0415Z" fill="#EBECEF"/>
<path d="M18.3068 114.273H19.517L21.9375 118.347H22.0398L24.4602 114.273H25.6705L22.517 119.403V123H21.4602V119.403L18.3068 114.273ZM28.6342 123.136C28.0433 123.136 27.5249 122.996 27.0788 122.714C26.6357 122.433 26.2891 122.04 26.0391 121.534C25.7919 121.028 25.6683 120.437 25.6683 119.761C25.6683 119.08 25.7919 118.484 26.0391 117.976C26.2891 117.467 26.6357 117.072 27.0788 116.791C27.5249 116.51 28.0433 116.369 28.6342 116.369C29.2251 116.369 29.7422 116.51 30.1854 116.791C30.6314 117.072 30.978 117.467 31.2251 117.976C31.4751 118.484 31.6001 119.08 31.6001 119.761C31.6001 120.437 31.4751 121.028 31.2251 121.534C30.978 122.04 30.6314 122.433 30.1854 122.714C29.7422 122.996 29.2251 123.136 28.6342 123.136ZM28.6342 122.233C29.0831 122.233 29.4524 122.118 29.7422 121.888C30.032 121.658 30.2464 121.355 30.3857 120.98C30.5249 120.605 30.5945 120.199 30.5945 119.761C30.5945 119.324 30.5249 118.916 30.3857 118.538C30.2464 118.161 30.032 117.855 29.7422 117.622C29.4524 117.389 29.0831 117.273 28.6342 117.273C28.1854 117.273 27.8161 117.389 27.5263 117.622C27.2365 117.855 27.022 118.161 26.8828 118.538C26.7436 118.916 26.674 119.324 26.674 119.761C26.674 120.199 26.7436 120.605 26.8828 120.98C27.022 121.355 27.2365 121.658 27.5263 121.888C27.8161 122.118 28.1854 122.233 28.6342 122.233ZM37.2603 120.324V116.455H38.266V123H37.2603V121.892H37.1921C37.0387 122.224 36.8001 122.507 36.4762 122.74C36.1523 122.97 35.7433 123.085 35.2489 123.085C34.8398 123.085 34.4762 122.996 34.158 122.817C33.8398 122.635 33.5898 122.362 33.408 121.999C33.2262 121.632 33.1353 121.17 33.1353 120.614V116.455H34.141V120.545C34.141 121.023 34.2745 121.403 34.5415 121.688C34.8114 121.972 35.1552 122.114 35.5728 122.114C35.8228 122.114 36.0771 122.05 36.3356 121.922C36.5969 121.794 36.8157 121.598 36.9918 121.334C37.1708 121.07 37.2603 120.733 37.2603 120.324ZM40.108 123V116.455H41.0795V117.443H41.1477C41.267 117.119 41.483 116.857 41.7955 116.655C42.108 116.453 42.4602 116.352 42.8523 116.352C42.9261 116.352 43.0185 116.354 43.1293 116.357C43.2401 116.359 43.3239 116.364 43.3807 116.369V117.392C43.3466 117.384 43.2685 117.371 43.1463 117.354C43.027 117.334 42.9006 117.324 42.767 117.324C42.4489 117.324 42.1648 117.391 41.9148 117.524C41.6676 117.655 41.4716 117.837 41.3267 118.07C41.1847 118.3 41.1136 118.562 41.1136 118.858V123H40.108ZM55.0046 114.273V123H53.9819L49.2262 116.148H49.141V123H48.0842V114.273H49.1069L53.8796 121.142H53.9648V114.273H55.0046ZM58.9091 123.153C58.4943 123.153 58.1179 123.075 57.7798 122.919C57.4418 122.76 57.1733 122.531 56.9744 122.233C56.7756 121.932 56.6761 121.568 56.6761 121.142C56.6761 120.767 56.75 120.463 56.8977 120.23C57.0455 119.994 57.2429 119.81 57.4901 119.676C57.7372 119.543 58.0099 119.443 58.3082 119.378C58.6094 119.31 58.9119 119.256 59.2159 119.216C59.6136 119.165 59.9361 119.126 60.1832 119.101C60.4332 119.072 60.6151 119.026 60.7287 118.96C60.8452 118.895 60.9034 118.781 60.9034 118.619V118.585C60.9034 118.165 60.7884 117.838 60.5582 117.605C60.331 117.372 59.9858 117.256 59.5227 117.256C59.0426 117.256 58.6662 117.361 58.3935 117.571C58.1207 117.781 57.929 118.006 57.8182 118.244L56.8636 117.903C57.0341 117.506 57.2614 117.196 57.5455 116.974C57.8324 116.75 58.1449 116.594 58.483 116.506C58.8239 116.415 59.1591 116.369 59.4886 116.369C59.6989 116.369 59.9403 116.395 60.2131 116.446C60.4886 116.494 60.7543 116.595 61.0099 116.749C61.2685 116.902 61.483 117.134 61.6534 117.443C61.8239 117.753 61.9091 118.168 61.9091 118.688V123H60.9034V122.114H60.8523C60.7841 122.256 60.6705 122.408 60.5114 122.57C60.3523 122.732 60.1406 122.869 59.8764 122.983C59.6122 123.097 59.2898 123.153 58.9091 123.153ZM59.0625 122.25C59.4602 122.25 59.7955 122.172 60.0682 122.016C60.3438 121.859 60.5511 121.658 60.6903 121.411C60.8324 121.163 60.9034 120.903 60.9034 120.631V119.71C60.8608 119.761 60.767 119.808 60.6222 119.851C60.4801 119.891 60.3153 119.926 60.1278 119.957C59.9432 119.986 59.7628 120.011 59.5866 120.034C59.4134 120.054 59.2727 120.071 59.1648 120.085C58.9034 120.119 58.6591 120.175 58.4318 120.251C58.2074 120.325 58.0256 120.437 57.8864 120.588C57.75 120.736 57.6818 120.937 57.6818 121.193C57.6818 121.543 57.8111 121.807 58.0696 121.986C58.331 122.162 58.6619 122.25 59.0625 122.25ZM63.7447 123V116.455H64.7163V117.477H64.8015C64.9379 117.128 65.158 116.857 65.462 116.663C65.766 116.467 66.131 116.369 66.5572 116.369C66.989 116.369 67.3484 116.467 67.6353 116.663C67.9251 116.857 68.1509 117.128 68.3129 117.477H68.381C68.5487 117.139 68.8001 116.871 69.1353 116.672C69.4705 116.47 69.8725 116.369 70.3413 116.369C70.9265 116.369 71.4052 116.553 71.7773 116.919C72.1495 117.283 72.3356 117.849 72.3356 118.619V123H71.3299V118.619C71.3299 118.136 71.1978 117.791 70.9336 117.584C70.6694 117.376 70.3583 117.273 70.0004 117.273C69.5401 117.273 69.1836 117.412 68.9308 117.69C68.6779 117.966 68.5515 118.315 68.5515 118.739V123H67.5288V118.517C67.5288 118.145 67.408 117.845 67.1665 117.618C66.9251 117.388 66.614 117.273 66.2333 117.273C65.9719 117.273 65.7276 117.342 65.5004 117.482C65.2759 117.621 65.0941 117.814 64.9549 118.061C64.8185 118.305 64.7504 118.588 64.7504 118.909V123H63.7447ZM76.9187 123.136C76.288 123.136 75.744 122.997 75.2866 122.719C74.832 122.438 74.4812 122.045 74.234 121.543C73.9897 121.037 73.8675 120.449 73.8675 119.778C73.8675 119.108 73.9897 118.517 74.234 118.006C74.4812 117.491 74.8249 117.091 75.2653 116.804C75.7085 116.514 76.2255 116.369 76.8164 116.369C77.1573 116.369 77.494 116.426 77.8263 116.54C78.1587 116.653 78.4613 116.838 78.734 117.094C79.0067 117.347 79.2241 117.682 79.386 118.099C79.5479 118.517 79.6289 119.031 79.6289 119.642V120.068H74.5835V119.199H78.6062C78.6062 118.83 78.5323 118.5 78.3846 118.21C78.2397 117.92 78.0323 117.692 77.7624 117.524C77.4954 117.357 77.18 117.273 76.8164 117.273C76.4158 117.273 76.0692 117.372 75.7766 117.571C75.4869 117.767 75.2638 118.023 75.1076 118.338C74.9513 118.653 74.8732 118.991 74.8732 119.352V119.932C74.8732 120.426 74.9585 120.845 75.1289 121.189C75.3022 121.53 75.5423 121.79 75.8491 121.969C76.1559 122.145 76.5124 122.233 76.9187 122.233C77.1829 122.233 77.4215 122.196 77.6346 122.122C77.8505 122.045 78.0366 121.932 78.1928 121.781C78.3491 121.628 78.4698 121.437 78.555 121.21L79.5266 121.483C79.4244 121.812 79.2525 122.102 79.011 122.352C78.7695 122.599 78.4712 122.793 78.1161 122.932C77.761 123.068 77.3619 123.136 76.9187 123.136Z" fill="white"/>
<path d="M185.057 102V93.2727H190.324V94.2102H186.114V97.1591H190.051V98.0966H186.114V101.062H190.392V102H185.057ZM192.842 95.4545L194.411 98.1307L195.979 95.4545H197.138L195.024 98.7273L197.138 102H195.979L194.411 99.4602L192.842 102H191.683L193.763 98.7273L191.683 95.4545H192.842ZM198.573 104.455V95.4545H199.544V96.4943H199.664C199.738 96.3807 199.84 96.2358 199.971 96.0597C200.104 95.8807 200.294 95.7216 200.542 95.5824C200.792 95.4403 201.13 95.3693 201.556 95.3693C202.107 95.3693 202.593 95.5071 203.013 95.7827C203.434 96.0582 203.762 96.4489 203.998 96.9545C204.233 97.4602 204.351 98.0568 204.351 98.7443C204.351 99.4375 204.233 100.038 203.998 100.547C203.762 101.053 203.435 101.445 203.017 101.723C202.6 101.999 202.118 102.136 201.573 102.136C201.152 102.136 200.816 102.067 200.563 101.928C200.31 101.786 200.115 101.625 199.979 101.446C199.843 101.264 199.738 101.114 199.664 100.994H199.578V104.455H198.573ZM199.561 98.7273C199.561 99.2216 199.634 99.6577 199.779 100.036C199.924 100.411 200.135 100.705 200.414 100.918C200.692 101.128 201.033 101.233 201.436 101.233C201.857 101.233 202.208 101.122 202.489 100.901C202.773 100.676 202.986 100.375 203.128 99.9972C203.273 99.6165 203.346 99.1932 203.346 98.7273C203.346 98.267 203.275 97.8523 203.132 97.483C202.993 97.1108 202.782 96.8168 202.498 96.6009C202.216 96.3821 201.863 96.2727 201.436 96.2727C201.027 96.2727 200.684 96.3764 200.405 96.5838C200.127 96.7884 199.917 97.0753 199.775 97.4446C199.632 97.8111 199.561 98.2386 199.561 98.7273ZM205.885 102V95.4545H206.891V102H205.885ZM206.397 94.3636C206.201 94.3636 206.032 94.2969 205.89 94.1634C205.75 94.0298 205.681 93.8693 205.681 93.6818C205.681 93.4943 205.75 93.3338 205.89 93.2003C206.032 93.0668 206.201 93 206.397 93C206.593 93 206.76 93.0668 206.9 93.2003C207.042 93.3338 207.113 93.4943 207.113 93.6818C207.113 93.8693 207.042 94.0298 206.9 94.1634C206.76 94.2969 206.593 94.3636 206.397 94.3636ZM208.733 102V95.4545H209.705V96.4432H209.773C209.892 96.1193 210.108 95.8565 210.42 95.6548C210.733 95.4531 211.085 95.3523 211.477 95.3523C211.551 95.3523 211.643 95.3537 211.754 95.3565C211.865 95.3594 211.949 95.3636 212.006 95.3693V96.392C211.972 96.3835 211.893 96.3707 211.771 96.3537C211.652 96.3338 211.526 96.3239 211.392 96.3239C211.074 96.3239 210.79 96.3906 210.54 96.5241C210.293 96.6548 210.097 96.8366 209.952 97.0696C209.81 97.2997 209.739 97.5625 209.739 97.858V102H208.733ZM214.045 104.455C213.874 104.455 213.722 104.44 213.589 104.412C213.455 104.386 213.363 104.361 213.312 104.335L213.567 103.449C213.812 103.511 214.028 103.534 214.215 103.517C214.403 103.5 214.569 103.416 214.714 103.266C214.862 103.118 214.996 102.878 215.119 102.545L215.306 102.034L212.886 95.4545H213.977L215.783 100.67H215.852L217.658 95.4545H218.749L215.971 102.955C215.846 103.293 215.691 103.572 215.506 103.794C215.322 104.018 215.107 104.185 214.863 104.293C214.621 104.401 214.349 104.455 214.045 104.455Z" fill="#EBECEF"/>
<path d="M190.75 123.119C190.108 123.119 189.561 122.945 189.109 122.595C188.658 122.243 188.313 121.733 188.074 121.065C187.835 120.395 187.716 119.585 187.716 118.636C187.716 117.693 187.835 116.888 188.074 116.22C188.315 115.55 188.662 115.038 189.114 114.686C189.568 114.331 190.114 114.153 190.75 114.153C191.386 114.153 191.93 114.331 192.382 114.686C192.837 115.038 193.183 115.55 193.422 116.22C193.663 116.888 193.784 117.693 193.784 118.636C193.784 119.585 193.665 120.395 193.426 121.065C193.188 121.733 192.842 122.243 192.391 122.595C191.939 122.945 191.392 123.119 190.75 123.119ZM190.75 122.182C191.386 122.182 191.881 121.875 192.233 121.261C192.585 120.648 192.761 119.773 192.761 118.636C192.761 117.881 192.68 117.237 192.518 116.706C192.359 116.175 192.129 115.77 191.828 115.491C191.53 115.213 191.17 115.074 190.75 115.074C190.119 115.074 189.626 115.385 189.271 116.007C188.916 116.626 188.739 117.503 188.739 118.636C188.739 119.392 188.818 120.034 188.977 120.562C189.136 121.091 189.365 121.493 189.663 121.768C189.964 122.044 190.327 122.182 190.75 122.182ZM198.472 114.273V123H197.415V115.381H197.364L195.233 116.795V115.722L197.415 114.273H198.472ZM204.084 113.864L201.271 124.312H200.351L203.163 113.864H204.084ZM205.259 123V122.233L208.14 119.08C208.478 118.71 208.756 118.389 208.975 118.116C209.194 117.841 209.355 117.582 209.461 117.341C209.569 117.097 209.623 116.841 209.623 116.574C209.623 116.267 209.549 116.001 209.401 115.777C209.256 115.553 209.057 115.379 208.804 115.257C208.551 115.135 208.267 115.074 207.952 115.074C207.617 115.074 207.324 115.143 207.074 115.283C206.827 115.419 206.635 115.611 206.499 115.858C206.365 116.105 206.299 116.395 206.299 116.727H205.293C205.293 116.216 205.411 115.767 205.647 115.381C205.882 114.994 206.203 114.693 206.61 114.477C207.019 114.261 207.478 114.153 207.986 114.153C208.498 114.153 208.951 114.261 209.346 114.477C209.74 114.693 210.05 114.984 210.275 115.351C210.499 115.717 210.611 116.125 210.611 116.574C210.611 116.895 210.553 117.209 210.436 117.516C210.323 117.82 210.124 118.159 209.84 118.534C209.559 118.906 209.168 119.361 208.668 119.898L206.708 121.994V122.062H210.765V123H205.259ZM215.422 123.119C215.064 123.114 214.706 123.045 214.348 122.915C213.99 122.784 213.664 122.564 213.368 122.254C213.073 121.942 212.836 121.52 212.657 120.989C212.478 120.455 212.388 119.784 212.388 118.977C212.388 118.205 212.461 117.52 212.605 116.923C212.75 116.324 212.961 115.82 213.236 115.411C213.512 114.999 213.844 114.686 214.233 114.473C214.625 114.26 215.067 114.153 215.559 114.153C216.047 114.153 216.482 114.251 216.863 114.447C217.246 114.641 217.559 114.911 217.8 115.257C218.042 115.604 218.198 116.003 218.269 116.455H217.229C217.132 116.062 216.945 115.737 216.667 115.479C216.388 115.22 216.019 115.091 215.559 115.091C214.882 115.091 214.35 115.385 213.961 115.973C213.574 116.561 213.38 117.386 213.377 118.449H213.445C213.604 118.207 213.793 118.001 214.012 117.831C214.233 117.658 214.478 117.524 214.745 117.43C215.012 117.337 215.294 117.29 215.593 117.29C216.093 117.29 216.55 117.415 216.965 117.665C217.38 117.912 217.712 118.254 217.962 118.692C218.212 119.126 218.337 119.625 218.337 120.188C218.337 120.727 218.216 121.222 217.975 121.67C217.733 122.116 217.394 122.472 216.956 122.736C216.522 122.997 216.01 123.125 215.422 123.119ZM215.422 122.182C215.78 122.182 216.101 122.092 216.385 121.913C216.672 121.734 216.898 121.494 217.063 121.193C217.23 120.892 217.314 120.557 217.314 120.188C217.314 119.827 217.233 119.499 217.071 119.203C216.912 118.905 216.692 118.668 216.411 118.491C216.132 118.315 215.814 118.227 215.456 118.227C215.186 118.227 214.935 118.281 214.702 118.389C214.469 118.494 214.265 118.639 214.088 118.824C213.915 119.009 213.779 119.22 213.679 119.459C213.58 119.695 213.53 119.943 213.53 120.205C213.53 120.551 213.611 120.875 213.773 121.176C213.938 121.477 214.162 121.72 214.446 121.905C214.733 122.089 215.059 122.182 215.422 122.182Z" fill="white"/>
<g clip-path="url(#clip0_151_1217)">
<path d="M203.204 17.8188H210.767V31.1876H203.204V17.8188Z" fill="#FF5F00"/>
<path d="M203.685 24.5031C203.685 21.7869 204.981 19.3776 206.974 17.8187C205.51 16.6849 203.661 16 201.644 16C196.866 16 193 19.8027 193 24.5031C193 29.2034 196.866 33.0062 201.644 33.0062C203.661 33.0062 205.509 32.3213 206.974 31.1875C204.981 29.6522 203.685 27.2194 203.685 24.5031Z" fill="#EB001B"/>
<path d="M220.972 24.5031C220.972 29.2034 217.106 33.0062 212.328 33.0062C210.311 33.0062 208.463 32.3213 206.998 31.1875C209.015 29.6286 210.287 27.2194 210.287 24.5031C210.287 21.7869 208.991 19.3776 206.998 17.8187C208.463 16.6849 210.311 16 212.328 16C217.106 16 220.972 19.8264 220.972 24.5031Z" fill="#F79E1B"/>
</g>
<defs>
<clipPath id="clip0_151_1217">
<rect width="28" height="17" fill="white" transform="translate(193 16)"/>
</clipPath>
</defs>
</svg>
