<svg width="9" height="6" viewBox="0 0 9 6" fill="none" xmlns="http://www.w3.org/2000/svg">
<path d="M8.41027 1.6136L5.08874 5.0286C4.94827 5.16905 4.75784 5.24794 4.5593 5.24794C4.36076 5.24794 4.17033 5.16905 4.02985 5.0286L0.710827 1.6136C0.663254 1.56703 0.625454 1.51142 0.599648 1.45003C0.573841 1.38864 0.560547 1.3227 0.560547 1.2561C0.560547 1.18949 0.573841 1.12356 0.599648 1.06216C0.625454 1.00077 0.663254 0.945162 0.710827 0.898597C0.80441 0.805471 0.931004 0.7532 1.06296 0.7532L8.05689 0.751953C8.12253 0.751953 8.18752 0.764904 8.24816 0.790067C8.30879 0.815229 8.36388 0.852108 8.41027 0.898597C8.45784 0.945162 8.49564 1.00077 8.52145 1.06216C8.54725 1.12356 8.56055 1.18949 8.56055 1.2561C8.56055 1.3227 8.54725 1.38864 8.52145 1.45003C8.49564 1.51142 8.45784 1.56703 8.41027 1.6136Z" fill="#1F2937"/>
</svg>
